<?xml version="1.0" encoding="UTF-8"?>
<svg xmlns="http://www.w3.org/2000/svg" xmlns:xlink="http://www.w3.org/1999/xlink"
     width="5869515.0" height="10884665.0" viewBox="-494757.5 -10399757.5 5869515.0 10884665.0">
<defs>
<style type="text/css">
.l74d0 {stroke: rgb(158, 42, 255); fill: rgb(158, 42, 255); fill-opacity: 0.5;}
</style>
</defs>
<rect x="-494757.5" y="-10399757.5" width="5869515.0" height="10884665.0" fill="#222" stroke="none"/>
<g id="AL_AP_artwork_test" transform="scale(1 -1)">
<polygon class="l74d0" points="2050.0,9850.0 2080.0,9850.0 2080.0,9880.0 2050.0,9880.0"/>
<polygon class="l74d0" points="2000.0,9850.0 2030.0,9850.0 2030.0,9880.0 2000.0,9880.0"/>
<polygon class="l74d0" points="1950.0,9850.0 1980.0,9850.0 1980.0,9880.0 1950.0,9880.0"/>
<polygon class="l74d0" points="1900.0,9850.0 1930.0,9850.0 1930.0,9880.0 1900.0,9880.0"/>
<polygon class="l74d0" points="1850.0,9850.0 1880.0,9850.0 1880.0,9880.0 1850.0,9880.0"/>
<polygon class="l74d0" points="1800.0,9850.0 1830.0,9850.0 1830.0,9880.0 1800.0,9880.0"/>
<polygon class="l74d0" points="1750.0,9850.0 1780.0,9850.0 1780.0,9880.0 1750.0,9880.0"/>
<polygon class="l74d0" points="1700.0,9850.0 1730.0,9850.0 1730.0,9880.0 1700.0,9880.0"/>
<polygon class="l74d0" points="1650.0,9850.0 1680.0,9850.0 1680.0,9880.0 1650.0,9880.0"/>
<polygon class="l74d0" points="1600.0,9850.0 1630.0,9850.0 1630.0,9880.0 1600.0,9880.0"/>
<polygon class="l74d0" points="1550.0,9850.0 1580.0,9850.0 1580.0,9880.0 1550.0,9880.0"/>
<polygon class="l74d0" points="1500.0,9850.0 1530.0,9850.0 1530.0,9880.0 1500.0,9880.0"/>
<polygon class="l74d0" points="1450.0,9850.0 1480.0,9850.0 1480.0,9880.0 1450.0,9880.0"/>
<polygon class="l74d0" points="1400.0,9850.0 1430.0,9850.0 1430.0,9880.0 1400.0,9880.0"/>
<polygon class="l74d0" points="1350.0,9850.0 1380.0,9850.0 1380.0,9880.0 1350.0,9880.0"/>
<polygon class="l74d0" points="1300.0,9850.0 1330.0,9850.0 1330.0,9880.0 1300.0,9880.0"/>
<polygon class="l74d0" points="1250.0,9850.0 1280.0,9850.0 1280.0,9880.0 1250.0,9880.0"/>
<polygon class="l74d0" points="1200.0,9850.0 1230.0,9850.0 1230.0,9880.0 1200.0,9880.0"/>
<polygon class="l74d0" points="1750.0,9900.0 1780.0,9900.0 1780.0,9930.0 1750.0,9930.0"/>
<polygon class="l74d0" points="1800.0,9900.0 1830.0,9900.0 1830.0,9930.0 1800.0,9930.0"/>
<polygon class="l74d0" points="1850.0,9900.0 1880.0,9900.0 1880.0,9930.0 1850.0,9930.0"/>
<polygon class="l74d0" points="1900.0,9900.0 1930.0,9900.0 1930.0,9930.0 1900.0,9930.0"/>
<polygon class="l74d0" points="1950.0,9900.0 1980.0,9900.0 1980.0,9930.0 1950.0,9930.0"/>
<polygon class="l74d0" points="2000.0,9900.0 2030.0,9900.0 2030.0,9930.0 2000.0,9930.0"/>
<polygon class="l74d0" points="2050.0,9900.0 2080.0,9900.0 2080.0,9930.0 2050.0,9930.0"/>
<polygon class="l74d0" points="2100.0,9900.0 2130.0,9900.0 2130.0,9930.0 2100.0,9930.0"/>
<polygon class="l74d0" points="2150.0,9900.0 2180.0,9900.0 2180.0,9930.0 2150.0,9930.0"/>
<polygon class="l74d0" points="2200.0,9900.0 2230.0,9900.0 2230.0,9930.0 2200.0,9930.0"/>
<polygon class="l74d0" points="1700.0,9900.0 1730.0,9900.0 1730.0,9930.0 1700.0,9930.0"/>
<polygon class="l74d0" points="1650.0,9900.0 1680.0,9900.0 1680.0,9930.0 1650.0,9930.0"/>
<polygon class="l74d0" points="1600.0,9900.0 1630.0,9900.0 1630.0,9930.0 1600.0,9930.0"/>
<polygon class="l74d0" points="1550.0,9900.0 1580.0,9900.0 1580.0,9930.0 1550.0,9930.0"/>
<polygon class="l74d0" points="1500.0,9900.0 1530.0,9900.0 1530.0,9930.0 1500.0,9930.0"/>
<polygon class="l74d0" points="1450.0,9900.0 1480.0,9900.0 1480.0,9930.0 1450.0,9930.0"/>
<polygon class="l74d0" points="1400.0,9900.0 1430.0,9900.0 1430.0,9930.0 1400.0,9930.0"/>
<polygon class="l74d0" points="1350.0,9900.0 1380.0,9900.0 1380.0,9930.0 1350.0,9930.0"/>
<polygon class="l74d0" points="1300.0,9900.0 1330.0,9900.0 1330.0,9930.0 1300.0,9930.0"/>
<polygon class="l74d0" points="1250.0,9900.0 1280.0,9900.0 1280.0,9930.0 1250.0,9930.0"/>
<polygon class="l74d0" points="1200.0,9900.0 1230.0,9900.0 1230.0,9930.0 1200.0,9930.0"/>
<polygon class="l74d0" points="0.0,8915000.0 0.0,5980000.0 30000.0,5980000.0 30000.0,8915000.0"/>
<polygon class="l74d0" points="50000.0,9275000.0 50000.0,9130000.0 80000.0,9130000.0 80000.0,9275000.0"/>
<polygon class="l74d0" points="50000.0,8915000.0 50000.0,5980000.0 80000.0,5980000.0 80000.0,8915000.0"/>
<polygon class="l74d0" points="100000.0,9505000.0 100000.0,9135000.0 130000.0,9135000.0 130000.0,9505000.0"/>
<polygon class="l74d0" points="100000.0,8915000.0 100000.0,5980000.0 130000.0,5980000.0 130000.0,8915000.0"/>
<polygon class="l74d0" points="150000.0,9730000.0 150000.0,9260000.0 180000.0,9260000.0 180000.0,9730000.0"/>
<polygon class="l74d0" points="150000.0,8915000.0 150000.0,5980000.0 180000.0,5980000.0 180000.0,8915000.0"/>
<polygon class="l74d0" points="200000.0,9835000.0 200000.0,9560000.0 230000.0,9560000.0 230000.0,9835000.0"/>
<polygon class="l74d0" points="200000.0,9340000.0 200000.0,9265000.0 230000.0,9265000.0 230000.0,9340000.0"/>
<polygon class="l74d0" points="200000.0,8915000.0 200000.0,5980000.0 230000.0,5980000.0 230000.0,8915000.0"/>
<polygon class="l74d0" points="250000.0,9825000.0 250000.0,9425000.0 280000.0,9425000.0 280000.0,9825000.0"/>
<polygon class="l74d0" points="250000.0,9345000.0 250000.0,9265000.0 280000.0,9265000.0 280000.0,9345000.0"/>
<polygon class="l74d0" points="250000.0,8915000.0 250000.0,5980000.0 280000.0,5980000.0 280000.0,8915000.0"/>
<polygon class="l74d0" points="300000.0,9610000.0 300000.0,9160000.0 330000.0,9160000.0 330000.0,9610000.0"/>
<polygon class="l74d0" points="300000.0,8915000.0 300000.0,8620000.0 330000.0,8620000.0 330000.0,8915000.0"/>
<polygon class="l74d0" points="300000.0,7750000.0 300000.0,7575000.0 330000.0,7575000.0 330000.0,7750000.0"/>
<polygon class="l74d0" points="300000.0,7470000.0 300000.0,7340000.0 330000.0,7340000.0 330000.0,7470000.0"/>
<polygon class="l74d0" points="300000.0,6270000.0 300000.0,5980000.0 330000.0,5980000.0 330000.0,6270000.0"/>
<polygon class="l74d0" points="350000.0,9370000.0 350000.0,9130000.0 380000.0,9130000.0 380000.0,9370000.0"/>
<polygon class="l74d0" points="350000.0,8915000.0 350000.0,8625000.0 380000.0,8625000.0 380000.0,8915000.0"/>
<polygon class="l74d0" points="350000.0,7790000.0 350000.0,7665000.0 380000.0,7665000.0 380000.0,7790000.0"/>
<polygon class="l74d0" points="350000.0,7510000.0 350000.0,7435000.0 380000.0,7435000.0 380000.0,7510000.0"/>
<polygon class="l74d0" points="350000.0,6265000.0 350000.0,5980000.0 380000.0,5980000.0 380000.0,6265000.0"/>
<polygon class="l74d0" points="400000.0,8915000.0 400000.0,8625000.0 430000.0,8625000.0 430000.0,8915000.0"/>
<polygon class="l74d0" points="400000.0,7890000.0 400000.0,7755000.0 430000.0,7755000.0 430000.0,7890000.0"/>
<polygon class="l74d0" points="400000.0,7610000.0 400000.0,7530000.0 430000.0,7530000.0 430000.0,7610000.0"/>
<polygon class="l74d0" points="400000.0,6265000.0 400000.0,5980000.0 430000.0,5980000.0 430000.0,6265000.0"/>
<polygon class="l74d0" points="450000.0,9595000.0 450000.0,9140000.0 480000.0,9140000.0 480000.0,9595000.0"/>
<polygon class="l74d0" points="450000.0,8915000.0 450000.0,8625000.0 480000.0,8625000.0 480000.0,8915000.0"/>
<polygon class="l74d0" points="450000.0,7980000.0 450000.0,7845000.0 480000.0,7845000.0 480000.0,7980000.0"/>
<polygon class="l74d0" points="450000.0,7710000.0 450000.0,7625000.0 480000.0,7625000.0 480000.0,7710000.0"/>
<polygon class="l74d0" points="450000.0,6265000.0 450000.0,5980000.0 480000.0,5980000.0 480000.0,6265000.0"/>
<polygon class="l74d0" points="500000.0,9605000.0 500000.0,9130000.0 530000.0,9130000.0 530000.0,9605000.0"/>
<polygon class="l74d0" points="500000.0,8915000.0 500000.0,8625000.0 530000.0,8625000.0 530000.0,8915000.0"/>
<polygon class="l74d0" points="500000.0,8075000.0 500000.0,7940000.0 530000.0,7940000.0 530000.0,8075000.0"/>
<polygon class="l74d0" points="500000.0,7810000.0 500000.0,7720000.0 530000.0,7720000.0 530000.0,7810000.0"/>
<polygon class="l74d0" points="500000.0,6265000.0 500000.0,5980000.0 530000.0,5980000.0 530000.0,6265000.0"/>
<polygon class="l74d0" points="550000.0,9585000.0 550000.0,9515000.0 580000.0,9515000.0 580000.0,9585000.0"/>
<polygon class="l74d0" points="550000.0,8915000.0 550000.0,8625000.0 580000.0,8625000.0 580000.0,8915000.0"/>
<polygon class="l74d0" points="550000.0,8170000.0 550000.0,8030000.0 580000.0,8030000.0 580000.0,8170000.0"/>
<polygon class="l74d0" points="550000.0,7905000.0 550000.0,7820000.0 580000.0,7820000.0 580000.0,7905000.0"/>
<polygon class="l74d0" points="550000.0,6265000.0 550000.0,5980000.0 580000.0,5980000.0 580000.0,6265000.0"/>
<polygon class="l74d0" points="600000.0,9605000.0 600000.0,9530000.0 630000.0,9530000.0 630000.0,9605000.0"/>
<polygon class="l74d0" points="600000.0,8915000.0 600000.0,8625000.0 630000.0,8625000.0 630000.0,8915000.0"/>
<polygon class="l74d0" points="600000.0,8360000.0 600000.0,8085000.0 630000.0,8085000.0 630000.0,8360000.0"/>
<polygon class="l74d0" points="600000.0,8005000.0 600000.0,7900000.0 630000.0,7900000.0 630000.0,8005000.0"/>
<polygon class="l74d0" points="600000.0,6265000.0 600000.0,5980000.0 630000.0,5980000.0 630000.0,6265000.0"/>
<polygon class="l74d0" points="650000.0,9610000.0 650000.0,9135000.0 680000.0,9135000.0 680000.0,9610000.0"/>
<polygon class="l74d0" points="650000.0,8915000.0 650000.0,8625000.0 680000.0,8625000.0 680000.0,8915000.0"/>
<polygon class="l74d0" points="650000.0,8430000.0 650000.0,7495000.0 680000.0,7495000.0 680000.0,8430000.0"/>
<polygon class="l74d0" points="650000.0,6265000.0 650000.0,5980000.0 680000.0,5980000.0 680000.0,6265000.0"/>
<polygon class="l74d0" points="700000.0,9585000.0 700000.0,9130000.0 730000.0,9130000.0 730000.0,9585000.0"/>
<polygon class="l74d0" points="700000.0,8915000.0 700000.0,8625000.0 730000.0,8625000.0 730000.0,8915000.0"/>
<polygon class="l74d0" points="700000.0,8470000.0 700000.0,8235000.0 730000.0,8235000.0 730000.0,8470000.0"/>
<polygon class="l74d0" points="700000.0,8195000.0 700000.0,7470000.0 730000.0,7470000.0 730000.0,8195000.0"/>
<polygon class="l74d0" points="700000.0,6265000.0 700000.0,5980000.0 730000.0,5980000.0 730000.0,6265000.0"/>
<polygon class="l74d0" points="750000.0,8915000.0 750000.0,8625000.0 780000.0,8625000.0 780000.0,8915000.0"/>
<polygon class="l74d0" points="750000.0,8500000.0 750000.0,8270000.0 780000.0,8270000.0 780000.0,8500000.0"/>
<polygon class="l74d0" points="750000.0,8205000.0 750000.0,7440000.0 780000.0,7440000.0 780000.0,8205000.0"/>
<polygon class="l74d0" points="750000.0,6265000.0 750000.0,5980000.0 780000.0,5980000.0 780000.0,6265000.0"/>
<polygon class="l74d0" points="800000.0,8915000.0 800000.0,8625000.0 830000.0,8625000.0 830000.0,8915000.0"/>
<polygon class="l74d0" points="800000.0,8525000.0 800000.0,8290000.0 830000.0,8290000.0 830000.0,8525000.0"/>
<polygon class="l74d0" points="800000.0,8220000.0 800000.0,8085000.0 830000.0,8085000.0 830000.0,8220000.0"/>
<polygon class="l74d0" points="800000.0,8055000.0 800000.0,7410000.0 830000.0,7410000.0 830000.0,8055000.0"/>
<polygon class="l74d0" points="800000.0,6990000.0 800000.0,6925000.0 830000.0,6925000.0 830000.0,6990000.0"/>
<polygon class="l74d0" points="800000.0,6265000.0 800000.0,5980000.0 830000.0,5980000.0 830000.0,6265000.0"/>
<polygon class="l74d0" points="850000.0,9570000.0 850000.0,9165000.0 880000.0,9165000.0 880000.0,9570000.0"/>
<polygon class="l74d0" points="850000.0,8915000.0 850000.0,8625000.0 880000.0,8625000.0 880000.0,8915000.0"/>
<polygon class="l74d0" points="850000.0,8545000.0 850000.0,8300000.0 880000.0,8300000.0 880000.0,8545000.0"/>
<polygon class="l74d0" points="850000.0,8225000.0 850000.0,8070000.0 880000.0,8070000.0 880000.0,8225000.0"/>
<polygon class="l74d0" points="850000.0,8000000.0 850000.0,7385000.0 880000.0,7385000.0 880000.0,8000000.0"/>
<polygon class="l74d0" points="850000.0,7100000.0 850000.0,6875000.0 880000.0,6875000.0 880000.0,7100000.0"/>
<polygon class="l74d0" points="850000.0,6265000.0 850000.0,5980000.0 880000.0,5980000.0 880000.0,6265000.0"/>
<polygon class="l74d0" points="900000.0,9605000.0 900000.0,9125000.0 930000.0,9125000.0 930000.0,9605000.0"/>
<polygon class="l74d0" points="900000.0,8915000.0 900000.0,8625000.0 930000.0,8625000.0 930000.0,8915000.0"/>
<polygon class="l74d0" points="900000.0,8565000.0 900000.0,8305000.0 930000.0,8305000.0 930000.0,8565000.0"/>
<polygon class="l74d0" points="900000.0,8230000.0 900000.0,8060000.0 930000.0,8060000.0 930000.0,8230000.0"/>
<polygon class="l74d0" points="900000.0,7950000.0 900000.0,7355000.0 930000.0,7355000.0 930000.0,7950000.0"/>
<polygon class="l74d0" points="900000.0,7220000.0 900000.0,6855000.0 930000.0,6855000.0 930000.0,7220000.0"/>
<polygon class="l74d0" points="900000.0,6265000.0 900000.0,5980000.0 930000.0,5980000.0 930000.0,6265000.0"/>
<polygon class="l74d0" points="950000.0,9605000.0 950000.0,9520000.0 980000.0,9520000.0 980000.0,9605000.0"/>
<polygon class="l74d0" points="950000.0,9210000.0 950000.0,9125000.0 980000.0,9125000.0 980000.0,9210000.0"/>
<polygon class="l74d0" points="950000.0,8915000.0 950000.0,8625000.0 980000.0,8625000.0 980000.0,8915000.0"/>
<polygon class="l74d0" points="950000.0,8575000.0 950000.0,8305000.0 980000.0,8305000.0 980000.0,8575000.0"/>
<polygon class="l74d0" points="950000.0,8230000.0 950000.0,8060000.0 980000.0,8060000.0 980000.0,8230000.0"/>
<polygon class="l74d0" points="950000.0,7985000.0 950000.0,7950000.0 980000.0,7950000.0 980000.0,7985000.0"/>
<polygon class="l74d0" points="950000.0,7895000.0 950000.0,6835000.0 980000.0,6835000.0 980000.0,7895000.0"/>
<polygon class="l74d0" points="950000.0,6265000.0 950000.0,5980000.0 980000.0,5980000.0 980000.0,6265000.0"/>
<polygon class="l74d0" points="1000000.0,9585000.0 1000000.0,9500000.0 1030000.0,9500000.0 1030000.0,9585000.0"/>
<polygon class="l74d0" points="1000000.0,9230000.0 1000000.0,9145000.0 1030000.0,9145000.0 1030000.0,9230000.0"/>
<polygon class="l74d0" points="1000000.0,8915000.0 1000000.0,8625000.0 1030000.0,8625000.0 1030000.0,8915000.0"/>
<polygon class="l74d0" points="1000000.0,8585000.0 1000000.0,8295000.0 1030000.0,8295000.0 1030000.0,8585000.0"/>
<polygon class="l74d0" points="1000000.0,8230000.0 1000000.0,8065000.0 1030000.0,8065000.0 1030000.0,8230000.0"/>
<polygon class="l74d0" points="1000000.0,7990000.0 1000000.0,7905000.0 1030000.0,7905000.0 1030000.0,7990000.0"/>
<polygon class="l74d0" points="1000000.0,7845000.0 1000000.0,6340000.0 1030000.0,6340000.0 1030000.0,7845000.0"/>
<polygon class="l74d0" points="1000000.0,6265000.0 1000000.0,5980000.0 1030000.0,5980000.0 1030000.0,6265000.0"/>
<polygon class="l74d0" points="1050000.0,9605000.0 1050000.0,9130000.0 1080000.0,9130000.0 1080000.0,9605000.0"/>
<polygon class="l74d0" points="1050000.0,8915000.0 1050000.0,8625000.0 1080000.0,8625000.0 1080000.0,8915000.0"/>
<polygon class="l74d0" points="1050000.0,8590000.0 1050000.0,8285000.0 1080000.0,8285000.0 1080000.0,8590000.0"/>
<polygon class="l74d0" points="1050000.0,8225000.0 1050000.0,8065000.0 1080000.0,8065000.0 1080000.0,8225000.0"/>
<polygon class="l74d0" points="1050000.0,7985000.0 1050000.0,7855000.0 1080000.0,7855000.0 1080000.0,7985000.0"/>
<polygon class="l74d0" points="1050000.0,7795000.0 1050000.0,7550000.0 1080000.0,7550000.0 1080000.0,7795000.0"/>
<polygon class="l74d0" points="1050000.0,7445000.0 1050000.0,6325000.0 1080000.0,6325000.0 1080000.0,7445000.0"/>
<polygon class="l74d0" points="1050000.0,6265000.0 1050000.0,5980000.0 1080000.0,5980000.0 1080000.0,6265000.0"/>
<polygon class="l74d0" points="1100000.0,9595000.0 1100000.0,9135000.0 1130000.0,9135000.0 1130000.0,9595000.0"/>
<polygon class="l74d0" points="1100000.0,8915000.0 1100000.0,8625000.0 1130000.0,8625000.0 1130000.0,8915000.0"/>
<polygon class="l74d0" points="1100000.0,8220000.0 1100000.0,8090000.0 1130000.0,8090000.0 1130000.0,8220000.0"/>
<polygon class="l74d0" points="1100000.0,7980000.0 1100000.0,7805000.0 1130000.0,7805000.0 1130000.0,7980000.0"/>
<polygon class="l74d0" points="1100000.0,7400000.0 1100000.0,6310000.0 1130000.0,6310000.0 1130000.0,7400000.0"/>
<polygon class="l74d0" points="1100000.0,6265000.0 1100000.0,5980000.0 1130000.0,5980000.0 1130000.0,6265000.0"/>
<polygon class="l74d0" points="1150000.0,8915000.0 1150000.0,8625000.0 1180000.0,8625000.0 1180000.0,8915000.0"/>
<polygon class="l74d0" points="1150000.0,7975000.0 1150000.0,7755000.0 1180000.0,7755000.0 1180000.0,7975000.0"/>
<polygon class="l74d0" points="1150000.0,7730000.0 1150000.0,7500000.0 1180000.0,7500000.0 1180000.0,7730000.0"/>
<polygon class="l74d0" points="1150000.0,7360000.0 1150000.0,6295000.0 1180000.0,6295000.0 1180000.0,7360000.0"/>
<polygon class="l74d0" points="1150000.0,6265000.0 1150000.0,5980000.0 1180000.0,5980000.0 1180000.0,6265000.0"/>
<polygon class="l74d0" points="1200000.0,8915000.0 1200000.0,8625000.0 1230000.0,8625000.0 1230000.0,8915000.0"/>
<polygon class="l74d0" points="1200000.0,7970000.0 1200000.0,7495000.0 1230000.0,7495000.0 1230000.0,7970000.0"/>
<polygon class="l74d0" points="1200000.0,7315000.0 1200000.0,6875000.0 1230000.0,6875000.0 1230000.0,7315000.0"/>
<polygon class="l74d0" points="1200000.0,6805000.0 1200000.0,6280000.0 1230000.0,6280000.0 1230000.0,6805000.0"/>
<polygon class="l74d0" points="1200000.0,6255000.0 1200000.0,5980000.0 1230000.0,5980000.0 1230000.0,6255000.0"/>
<polygon class="l74d0" points="1250000.0,9905000.0 1250000.0,9130000.0 1280000.0,9130000.0 1280000.0,9905000.0"/>
<polygon class="l74d0" points="1250000.0,8915000.0 1250000.0,8625000.0 1280000.0,8625000.0 1280000.0,8915000.0"/>
<polygon class="l74d0" points="1250000.0,7970000.0 1250000.0,7485000.0 1280000.0,7485000.0 1280000.0,7970000.0"/>
<polygon class="l74d0" points="1250000.0,7275000.0 1250000.0,6965000.0 1280000.0,6965000.0 1280000.0,7275000.0"/>
<polygon class="l74d0" points="1250000.0,6805000.0 1250000.0,5980000.0 1280000.0,5980000.0 1280000.0,6805000.0"/>
<polygon class="l74d0" points="1300000.0,8915000.0 1300000.0,8625000.0 1330000.0,8625000.0 1330000.0,8915000.0"/>
<polygon class="l74d0" points="1300000.0,7965000.0 1300000.0,7480000.0 1330000.0,7480000.0 1330000.0,7965000.0"/>
<polygon class="l74d0" points="1300000.0,7230000.0 1300000.0,7050000.0 1330000.0,7050000.0 1330000.0,7230000.0"/>
<polygon class="l74d0" points="1300000.0,6805000.0 1300000.0,5980000.0 1330000.0,5980000.0 1330000.0,6805000.0"/>
<polygon class="l74d0" points="1350000.0,8915000.0 1350000.0,8625000.0 1380000.0,8625000.0 1380000.0,8915000.0"/>
<polygon class="l74d0" points="1350000.0,7960000.0 1350000.0,7475000.0 1380000.0,7475000.0 1380000.0,7960000.0"/>
<polygon class="l74d0" points="1350000.0,7185000.0 1350000.0,7140000.0 1380000.0,7140000.0 1380000.0,7185000.0"/>
<polygon class="l74d0" points="1350000.0,6805000.0 1350000.0,5980000.0 1380000.0,5980000.0 1380000.0,6805000.0"/>
<polygon class="l74d0" points="1400000.0,9545000.0 1400000.0,9185000.0 1430000.0,9185000.0 1430000.0,9545000.0"/>
<polygon class="l74d0" points="1400000.0,8915000.0 1400000.0,8625000.0 1430000.0,8625000.0 1430000.0,8915000.0"/>
<polygon class="l74d0" points="1400000.0,7955000.0 1400000.0,7475000.0 1430000.0,7475000.0 1430000.0,7955000.0"/>
<polygon class="l74d0" points="1400000.0,6800000.0 1400000.0,5980000.0 1430000.0,5980000.0 1430000.0,6800000.0"/>
<polygon class="l74d0" points="1450000.0,9595000.0 1450000.0,9140000.0 1480000.0,9140000.0 1480000.0,9595000.0"/>
<polygon class="l74d0" points="1450000.0,8915000.0 1450000.0,8625000.0 1480000.0,8625000.0 1480000.0,8915000.0"/>
<polygon class="l74d0" points="1450000.0,7855000.0 1450000.0,7470000.0 1480000.0,7470000.0 1480000.0,7855000.0"/>
<polygon class="l74d0" points="1450000.0,6795000.0 1450000.0,5980000.0 1480000.0,5980000.0 1480000.0,6795000.0"/>
<polygon class="l74d0" points="1500000.0,9610000.0 1500000.0,9520000.0 1530000.0,9520000.0 1530000.0,9610000.0"/>
<polygon class="l74d0" points="1500000.0,9215000.0 1500000.0,9125000.0 1530000.0,9125000.0 1530000.0,9215000.0"/>
<polygon class="l74d0" points="1500000.0,8915000.0 1500000.0,8625000.0 1530000.0,8625000.0 1530000.0,8915000.0"/>
<polygon class="l74d0" points="1500000.0,7750000.0 1500000.0,7475000.0 1530000.0,7475000.0 1530000.0,7750000.0"/>
<polygon class="l74d0" points="1500000.0,6630000.0 1500000.0,5980000.0 1530000.0,5980000.0 1530000.0,6630000.0"/>
<polygon class="l74d0" points="1550000.0,9605000.0 1550000.0,9515000.0 1580000.0,9515000.0 1580000.0,9605000.0"/>
<polygon class="l74d0" points="1550000.0,9220000.0 1550000.0,9125000.0 1580000.0,9125000.0 1580000.0,9220000.0"/>
<polygon class="l74d0" points="1550000.0,8915000.0 1550000.0,8625000.0 1580000.0,8625000.0 1580000.0,8915000.0"/>
<polygon class="l74d0" points="1550000.0,7645000.0 1550000.0,7475000.0 1580000.0,7475000.0 1580000.0,7645000.0"/>
<polygon class="l74d0" points="1550000.0,6425000.0 1550000.0,5980000.0 1580000.0,5980000.0 1580000.0,6425000.0"/>
<polygon class="l74d0" points="1600000.0,9580000.0 1600000.0,9150000.0 1630000.0,9150000.0 1630000.0,9580000.0"/>
<polygon class="l74d0" points="1600000.0,8915000.0 1600000.0,8625000.0 1630000.0,8625000.0 1630000.0,8915000.0"/>
<polygon class="l74d0" points="1600000.0,7550000.0 1600000.0,7420000.0 1630000.0,7420000.0 1630000.0,7550000.0"/>
<polygon class="l74d0" points="1600000.0,6270000.0 1600000.0,5980000.0 1630000.0,5980000.0 1630000.0,6270000.0"/>
<polygon class="l74d0" points="1650000.0,9495000.0 1650000.0,9240000.0 1680000.0,9240000.0 1680000.0,9495000.0"/>
<polygon class="l74d0" points="1650000.0,8915000.0 1650000.0,8625000.0 1680000.0,8625000.0 1680000.0,8915000.0"/>
<polygon class="l74d0" points="1650000.0,7575000.0 1650000.0,7345000.0 1680000.0,7345000.0 1680000.0,7575000.0"/>
<polygon class="l74d0" points="1650000.0,6265000.0 1650000.0,5980000.0 1680000.0,5980000.0 1680000.0,6265000.0"/>
<polygon class="l74d0" points="1700000.0,8915000.0 1700000.0,8625000.0 1730000.0,8625000.0 1730000.0,8915000.0"/>
<polygon class="l74d0" points="1700000.0,7610000.0 1700000.0,7265000.0 1730000.0,7265000.0 1730000.0,7610000.0"/>
<polygon class="l74d0" points="1700000.0,6265000.0 1700000.0,5980000.0 1730000.0,5980000.0 1730000.0,6265000.0"/>
<polygon class="l74d0" points="1750000.0,9540000.0 1750000.0,9190000.0 1780000.0,9190000.0 1780000.0,9540000.0"/>
<polygon class="l74d0" points="1750000.0,9080000.0 1750000.0,8995000.0 1780000.0,8995000.0 1780000.0,9080000.0"/>
<polygon class="l74d0" points="1750000.0,8915000.0 1750000.0,8625000.0 1780000.0,8625000.0 1780000.0,8915000.0"/>
<polygon class="l74d0" points="1750000.0,7640000.0 1750000.0,7145000.0 1780000.0,7145000.0 1780000.0,7640000.0"/>
<polygon class="l74d0" points="1750000.0,6265000.0 1750000.0,5980000.0 1780000.0,5980000.0 1780000.0,6265000.0"/>
<polygon class="l74d0" points="1800000.0,9600000.0 1800000.0,9135000.0 1830000.0,9135000.0 1830000.0,9600000.0"/>
<polygon class="l74d0" points="1800000.0,9080000.0 1800000.0,8950000.0 1830000.0,8950000.0 1830000.0,9080000.0"/>
<polygon class="l74d0" points="1800000.0,8915000.0 1800000.0,8625000.0 1830000.0,8625000.0 1830000.0,8915000.0"/>
<polygon class="l74d0" points="1800000.0,7670000.0 1800000.0,7130000.0 1830000.0,7130000.0 1830000.0,7670000.0"/>
<polygon class="l74d0" points="1800000.0,6265000.0 1800000.0,5980000.0 1830000.0,5980000.0 1830000.0,6265000.0"/>
<polygon class="l74d0" points="1850000.0,9610000.0 1850000.0,9520000.0 1880000.0,9520000.0 1880000.0,9610000.0"/>
<polygon class="l74d0" points="1850000.0,9215000.0 1850000.0,9125000.0 1880000.0,9125000.0 1880000.0,9215000.0"/>
<polygon class="l74d0" points="1850000.0,9015000.0 1850000.0,8935000.0 1880000.0,8935000.0 1880000.0,9015000.0"/>
<polygon class="l74d0" points="1850000.0,8910000.0 1850000.0,8625000.0 1880000.0,8625000.0 1880000.0,8910000.0"/>
<polygon class="l74d0" points="1850000.0,7700000.0 1850000.0,7145000.0 1880000.0,7145000.0 1880000.0,7700000.0"/>
<polygon class="l74d0" points="1850000.0,6265000.0 1850000.0,5980000.0 1880000.0,5980000.0 1880000.0,6265000.0"/>
<polygon class="l74d0" points="1900000.0,9590000.0 1900000.0,9515000.0 1930000.0,9515000.0 1930000.0,9590000.0"/>
<polygon class="l74d0" points="1900000.0,9215000.0 1900000.0,9140000.0 1930000.0,9140000.0 1930000.0,9215000.0"/>
<polygon class="l74d0" points="1900000.0,9015000.0 1900000.0,8935000.0 1930000.0,8935000.0 1930000.0,9015000.0"/>
<polygon class="l74d0" points="1900000.0,8910000.0 1900000.0,8625000.0 1930000.0,8625000.0 1930000.0,8910000.0"/>
<polygon class="l74d0" points="1900000.0,7730000.0 1900000.0,7165000.0 1930000.0,7165000.0 1930000.0,7730000.0"/>
<polygon class="l74d0" points="1900000.0,6265000.0 1900000.0,5980000.0 1930000.0,5980000.0 1930000.0,6265000.0"/>
<polygon class="l74d0" points="1950000.0,9600000.0 1950000.0,8950000.0 1980000.0,8950000.0 1980000.0,9600000.0"/>
<polygon class="l74d0" points="1950000.0,8915000.0 1950000.0,8625000.0 1980000.0,8625000.0 1980000.0,8915000.0"/>
<polygon class="l74d0" points="1950000.0,7725000.0 1950000.0,7195000.0 1980000.0,7195000.0 1980000.0,7725000.0"/>
<polygon class="l74d0" points="1950000.0,6265000.0 1950000.0,5980000.0 1980000.0,5980000.0 1980000.0,6265000.0"/>
<polygon class="l74d0" points="2000000.0,9600000.0 2000000.0,8990000.0 2030000.0,8990000.0 2030000.0,9600000.0"/>
<polygon class="l74d0" points="2000000.0,8915000.0 2000000.0,8625000.0 2030000.0,8625000.0 2030000.0,8915000.0"/>
<polygon class="l74d0" points="2000000.0,7670000.0 2000000.0,7225000.0 2030000.0,7225000.0 2030000.0,7670000.0"/>
<polygon class="l74d0" points="2000000.0,6265000.0 2000000.0,5980000.0 2030000.0,5980000.0 2030000.0,6265000.0"/>
<polygon class="l74d0" points="2050000.0,8915000.0 2050000.0,8625000.0 2080000.0,8625000.0 2080000.0,8915000.0"/>
<polygon class="l74d0" points="2050000.0,7620000.0 2050000.0,7260000.0 2080000.0,7260000.0 2080000.0,7620000.0"/>
<polygon class="l74d0" points="2050000.0,6265000.0 2050000.0,5980000.0 2080000.0,5980000.0 2080000.0,6265000.0"/>
<polygon class="l74d0" points="2100000.0,8915000.0 2100000.0,8625000.0 2130000.0,8625000.0 2130000.0,8915000.0"/>
<polygon class="l74d0" points="2100000.0,7565000.0 2100000.0,7300000.0 2130000.0,7300000.0 2130000.0,7565000.0"/>
<polygon class="l74d0" points="2100000.0,6265000.0 2100000.0,5980000.0 2130000.0,5980000.0 2130000.0,6265000.0"/>
<polygon class="l74d0" points="2150000.0,9705000.0 2150000.0,9130000.0 2180000.0,9130000.0 2180000.0,9705000.0"/>
<polygon class="l74d0" points="2150000.0,8915000.0 2150000.0,8625000.0 2180000.0,8625000.0 2180000.0,8915000.0"/>
<polygon class="l74d0" points="2150000.0,7515000.0 2150000.0,7340000.0 2180000.0,7340000.0 2180000.0,7515000.0"/>
<polygon class="l74d0" points="2150000.0,6265000.0 2150000.0,5980000.0 2180000.0,5980000.0 2180000.0,6265000.0"/>
<polygon class="l74d0" points="2200000.0,9835000.0 2200000.0,9220000.0 2230000.0,9220000.0 2230000.0,9835000.0"/>
<polygon class="l74d0" points="2200000.0,8915000.0 2200000.0,8625000.0 2230000.0,8625000.0 2230000.0,8915000.0"/>
<polygon class="l74d0" points="2200000.0,7500000.0 2200000.0,7355000.0 2230000.0,7355000.0 2230000.0,7500000.0"/>
<polygon class="l74d0" points="2200000.0,6265000.0 2200000.0,5980000.0 2230000.0,5980000.0 2230000.0,6265000.0"/>
<polygon class="l74d0" points="2250000.0,9810000.0 2250000.0,9430000.0 2280000.0,9430000.0 2280000.0,9810000.0"/>
<polygon class="l74d0" points="2250000.0,8915000.0 2250000.0,8625000.0 2280000.0,8625000.0 2280000.0,8915000.0"/>
<polygon class="l74d0" points="2250000.0,7510000.0 2250000.0,7170000.0 2280000.0,7170000.0 2280000.0,7510000.0"/>
<polygon class="l74d0" points="2250000.0,6265000.0 2250000.0,5980000.0 2280000.0,5980000.0 2280000.0,6265000.0"/>
<polygon class="l74d0" points="2300000.0,9585000.0 2300000.0,9195000.0 2330000.0,9195000.0 2330000.0,9585000.0"/>
<polygon class="l74d0" points="2300000.0,8915000.0 2300000.0,8625000.0 2330000.0,8625000.0 2330000.0,8915000.0"/>
<polygon class="l74d0" points="2300000.0,7520000.0 2300000.0,7075000.0 2330000.0,7075000.0 2330000.0,7520000.0"/>
<polygon class="l74d0" points="2300000.0,6265000.0 2300000.0,5980000.0 2330000.0,5980000.0 2330000.0,6265000.0"/>
<polygon class="l74d0" points="2350000.0,9425000.0 2350000.0,9130000.0 2380000.0,9130000.0 2380000.0,9425000.0"/>
<polygon class="l74d0" points="2350000.0,8915000.0 2350000.0,8625000.0 2380000.0,8625000.0 2380000.0,8915000.0"/>
<polygon class="l74d0" points="2350000.0,7520000.0 2350000.0,7030000.0 2380000.0,7030000.0 2380000.0,7520000.0"/>
<polygon class="l74d0" points="2350000.0,6265000.0 2350000.0,5980000.0 2380000.0,5980000.0 2380000.0,6265000.0"/>
<polygon class="l74d0" points="2400000.0,9640000.0 2400000.0,9225000.0 2430000.0,9225000.0 2430000.0,9640000.0"/>
<polygon class="l74d0" points="2400000.0,8915000.0 2400000.0,8625000.0 2430000.0,8625000.0 2430000.0,8915000.0"/>
<polygon class="l74d0" points="2400000.0,7510000.0 2400000.0,7020000.0 2430000.0,7020000.0 2430000.0,7510000.0"/>
<polygon class="l74d0" points="2400000.0,6670000.0 2400000.0,6580000.0 2430000.0,6580000.0 2430000.0,6670000.0"/>
<polygon class="l74d0" points="2400000.0,6265000.0 2400000.0,5980000.0 2430000.0,5980000.0 2430000.0,6265000.0"/>
<polygon class="l74d0" points="2450000.0,9835000.0 2450000.0,9465000.0 2480000.0,9465000.0 2480000.0,9835000.0"/>
<polygon class="l74d0" points="2450000.0,8915000.0 2450000.0,8625000.0 2480000.0,8625000.0 2480000.0,8915000.0"/>
<polygon class="l74d0" points="2450000.0,7505000.0 2450000.0,7020000.0 2480000.0,7020000.0 2480000.0,7505000.0"/>
<polygon class="l74d0" points="2450000.0,6750000.0 2450000.0,6550000.0 2480000.0,6550000.0 2480000.0,6750000.0"/>
<polygon class="l74d0" points="2450000.0,6265000.0 2450000.0,5980000.0 2480000.0,5980000.0 2480000.0,6265000.0"/>
<polygon class="l74d0" points="2500000.0,9835000.0 2500000.0,9135000.0 2530000.0,9135000.0 2530000.0,9835000.0"/>
<polygon class="l74d0" points="2500000.0,8915000.0 2500000.0,8625000.0 2530000.0,8625000.0 2530000.0,8915000.0"/>
<polygon class="l74d0" points="2500000.0,7490000.0 2500000.0,7005000.0 2530000.0,7005000.0 2530000.0,7490000.0"/>
<polygon class="l74d0" points="2500000.0,6830000.0 2500000.0,6515000.0 2530000.0,6515000.0 2530000.0,6830000.0"/>
<polygon class="l74d0" points="2500000.0,6265000.0 2500000.0,5980000.0 2530000.0,5980000.0 2530000.0,6265000.0"/>
<polygon class="l74d0" points="2550000.0,9535000.0 2550000.0,9130000.0 2580000.0,9130000.0 2580000.0,9535000.0"/>
<polygon class="l74d0" points="2550000.0,8915000.0 2550000.0,8625000.0 2580000.0,8625000.0 2580000.0,8915000.0"/>
<polygon class="l74d0" points="2550000.0,7470000.0 2550000.0,6465000.0 2580000.0,6465000.0 2580000.0,7470000.0"/>
<polygon class="l74d0" points="2550000.0,6265000.0 2550000.0,5980000.0 2580000.0,5980000.0 2580000.0,6265000.0"/>
<polygon class="l74d0" points="2600000.0,8915000.0 2600000.0,8625000.0 2630000.0,8625000.0 2630000.0,8915000.0"/>
<polygon class="l74d0" points="2600000.0,7445000.0 2600000.0,6415000.0 2630000.0,6415000.0 2630000.0,7445000.0"/>
<polygon class="l74d0" points="2600000.0,6265000.0 2600000.0,5980000.0 2630000.0,5980000.0 2630000.0,6265000.0"/>
<polygon class="l74d0" points="2650000.0,9775000.0 2650000.0,9710000.0 2680000.0,9710000.0 2680000.0,9775000.0"/>
<polygon class="l74d0" points="2650000.0,8915000.0 2650000.0,5980000.0 2680000.0,5980000.0 2680000.0,8915000.0"/>
<polygon class="l74d0" points="2700000.0,9800000.0 2700000.0,9685000.0 2730000.0,9685000.0 2730000.0,9800000.0"/>
<polygon class="l74d0" points="2700000.0,9605000.0 2700000.0,9130000.0 2730000.0,9130000.0 2730000.0,9605000.0"/>
<polygon class="l74d0" points="2700000.0,8915000.0 2700000.0,5980000.0 2730000.0,5980000.0 2730000.0,8915000.0"/>
<polygon class="l74d0" points="2750000.0,9775000.0 2750000.0,9710000.0 2780000.0,9710000.0 2780000.0,9775000.0"/>
<polygon class="l74d0" points="2750000.0,9590000.0 2750000.0,9140000.0 2780000.0,9140000.0 2780000.0,9590000.0"/>
<polygon class="l74d0" points="2750000.0,8915000.0 2750000.0,5980000.0 2780000.0,5980000.0 2780000.0,8915000.0"/>
<polygon class="l74d0" points="2800000.0,8915000.0 2800000.0,5980000.0 2830000.0,5980000.0 2830000.0,8915000.0"/>
<polygon class="l74d0" points="2850000.0,9900000.0 2850000.0,9135000.0 2880000.0,9135000.0 2880000.0,9900000.0"/>
<polygon class="l74d0" points="2850000.0,8915000.0 2850000.0,5980000.0 2880000.0,5980000.0 2880000.0,8915000.0"/>
<polygon class="l74d0" points="2900000.0,9905000.0 2900000.0,9130000.0 2930000.0,9130000.0 2930000.0,9905000.0"/>
<polygon class="l74d0" points="2900000.0,8915000.0 2900000.0,5980000.0 2930000.0,5980000.0 2930000.0,8915000.0"/>
<polygon class="l74d0" points="2950000.0,9450000.0 2950000.0,9320000.0 2980000.0,9320000.0 2980000.0,9450000.0"/>
<polygon class="l74d0" points="2950000.0,8915000.0 2950000.0,5980000.0 2980000.0,5980000.0 2980000.0,8915000.0"/>
<polygon class="l74d0" points="3000000.0,9525000.0 3000000.0,9235000.0 3030000.0,9235000.0 3030000.0,9525000.0"/>
<polygon class="l74d0" points="3050000.0,9600000.0 3050000.0,9445000.0 3080000.0,9445000.0 3080000.0,9600000.0"/>
<polygon class="l74d0" points="3050000.0,9335000.0 3050000.0,9140000.0 3080000.0,9140000.0 3080000.0,9335000.0"/>
<polygon class="l74d0" points="3100000.0,9605000.0 3100000.0,9530000.0 3130000.0,9530000.0 3130000.0,9605000.0"/>
<polygon class="l74d0" points="3100000.0,9240000.0 3100000.0,9130000.0 3130000.0,9130000.0 3130000.0,9240000.0"/>
<polygon class="l74d0" points="3150000.0,9145000.0 3150000.0,9110000.0 3180000.0,9110000.0 3180000.0,9145000.0"/>
<polygon class="l74d0" points="3200000.0,9515000.0 3200000.0,9220000.0 3230000.0,9220000.0 3230000.0,9515000.0"/>
<polygon class="l74d0" points="3250000.0,9585000.0 3250000.0,9145000.0 3280000.0,9145000.0 3280000.0,9585000.0"/>
<polygon class="l74d0" points="3300000.0,9605000.0 3300000.0,9515000.0 3330000.0,9515000.0 3330000.0,9605000.0"/>
<polygon class="l74d0" points="3300000.0,9220000.0 3300000.0,9125000.0 3330000.0,9125000.0 3330000.0,9220000.0"/>
<polygon class="l74d0" points="3350000.0,9610000.0 3350000.0,9520000.0 3380000.0,9520000.0 3380000.0,9610000.0"/>
<polygon class="l74d0" points="3350000.0,9215000.0 3350000.0,9125000.0 3380000.0,9125000.0 3380000.0,9215000.0"/>
<polygon class="l74d0" points="3400000.0,9590000.0 3400000.0,9140000.0 3430000.0,9140000.0 3430000.0,9590000.0"/>
<polygon class="l74d0" points="3450000.0,9535000.0 3450000.0,9200000.0 3480000.0,9200000.0 3480000.0,9535000.0"/>
<polygon class="l74d0" points="3600000.0,9235000.0 3600000.0,9125000.0 3630000.0,9125000.0 3630000.0,9235000.0"/>
<polygon class="l74d0" points="3650000.0,9220000.0 3650000.0,9140000.0 3680000.0,9140000.0 3680000.0,9220000.0"/>
<polygon class="l74d0" points="3750000.0,9485000.0 3750000.0,9245000.0 3780000.0,9245000.0 3780000.0,9485000.0"/>
<polygon class="l74d0" points="3800000.0,9580000.0 3800000.0,9150000.0 3830000.0,9150000.0 3830000.0,9580000.0"/>
<polygon class="l74d0" points="3850000.0,9605000.0 3850000.0,9480000.0 3880000.0,9480000.0 3880000.0,9605000.0"/>
<polygon class="l74d0" points="3850000.0,9255000.0 3850000.0,9125000.0 3880000.0,9125000.0 3880000.0,9255000.0"/>
<polygon class="l74d0" points="3900000.0,9610000.0 3900000.0,9520000.0 3930000.0,9520000.0 3930000.0,9610000.0"/>
<polygon class="l74d0" points="3900000.0,9210000.0 3900000.0,9125000.0 3930000.0,9125000.0 3930000.0,9210000.0"/>
<polygon class="l74d0" points="3950000.0,9590000.0 3950000.0,9530000.0 3980000.0,9530000.0 3980000.0,9590000.0"/>
<polygon class="l74d0" points="3950000.0,9195000.0 3950000.0,9150000.0 3980000.0,9150000.0 3980000.0,9195000.0"/>
<polygon class="l74d0" points="4050000.0,9560000.0 4050000.0,9170000.0 4080000.0,9170000.0 4080000.0,9560000.0"/>
<polygon class="l74d0" points="4100000.0,9600000.0 4100000.0,9405000.0 4130000.0,9405000.0 4130000.0,9600000.0"/>
<polygon class="l74d0" points="4100000.0,9330000.0 4100000.0,9135000.0 4130000.0,9135000.0 4130000.0,9330000.0"/>
<polygon class="l74d0" points="4150000.0,9610000.0 4150000.0,9525000.0 4180000.0,9525000.0 4180000.0,9610000.0"/>
<polygon class="l74d0" points="4150000.0,9210000.0 4150000.0,9125000.0 4180000.0,9125000.0 4180000.0,9210000.0"/>
<polygon class="l74d0" points="4200000.0,9600000.0 4200000.0,9485000.0 4230000.0,9485000.0 4230000.0,9600000.0"/>
<polygon class="l74d0" points="4200000.0,9250000.0 4200000.0,9130000.0 4230000.0,9130000.0 4230000.0,9250000.0"/>
<polygon class="l74d0" points="4250000.0,9570000.0 4250000.0,9165000.0 4280000.0,9165000.0 4280000.0,9570000.0"/>
<polygon class="l74d0" points="4300000.0,9415000.0 4300000.0,9315000.0 4330000.0,9315000.0 4330000.0,9415000.0"/>
<polygon class="l74d0" points="4400000.0,9600000.0 4400000.0,9130000.0 4430000.0,9130000.0 4430000.0,9600000.0"/>
<polygon class="l74d0" points="4450000.0,9600000.0 4450000.0,9130000.0 4480000.0,9130000.0 4480000.0,9600000.0"/>
<polygon class="l74d0" points="4500000.0,9585000.0 4500000.0,9520000.0 4530000.0,9520000.0 4530000.0,9585000.0"/>
<polygon class="l74d0" points="4550000.0,9610000.0 4550000.0,9520000.0 4580000.0,9520000.0 4580000.0,9610000.0"/>
<polygon class="l74d0" points="4600000.0,9605000.0 4600000.0,9130000.0 4630000.0,9130000.0 4630000.0,9605000.0"/>
<polygon class="l74d0" points="4650000.0,9570000.0 4650000.0,9130000.0 4680000.0,9130000.0 4680000.0,9570000.0"/>
<polygon class="l74d0" points="4700000.0,9595000.0 4700000.0,9520000.0 4730000.0,9520000.0 4730000.0,9595000.0"/>
<polygon class="l74d0" points="4750000.0,9610000.0 4750000.0,9520000.0 4780000.0,9520000.0 4780000.0,9610000.0"/>
<polygon class="l74d0" points="4800000.0,9605000.0 4800000.0,9130000.0 4830000.0,9130000.0 4830000.0,9605000.0"/>
<polygon class="l74d0" points="4850000.0,9560000.0 4850000.0,9135000.0 4880000.0,9135000.0 4880000.0,9560000.0"/>
</g>
</svg>