<?xml version="1.0" encoding="UTF-8"?>
<svg xmlns="http://www.w3.org/2000/svg" xmlns:xlink="http://www.w3.org/1999/xlink"
     width="6319515.0" height="10884665.0" viewBox="-494757.5 -10399757.5 6319515.0 10884665.0">
<defs>
<style type="text/css">
.l74d0 {stroke: rgb(158, 42, 255); fill: rgb(158, 42, 255); fill-opacity: 0.5;}
</style>
</defs>
<rect x="-494757.5" y="-10399757.5" width="6319515.0" height="10884665.0" fill="#222" stroke="none"/>
<g id="AL_AP_artwork_test" transform="scale(1 -1)">
<polygon class="l74d0" points="2050.0,9850.0 2080.0,9850.0 2080.0,9880.0 2050.0,9880.0"/>
<polygon class="l74d0" points="2000.0,9850.0 2030.0,9850.0 2030.0,9880.0 2000.0,9880.0"/>
<polygon class="l74d0" points="1950.0,9850.0 1980.0,9850.0 1980.0,9880.0 1950.0,9880.0"/>
<polygon class="l74d0" points="1900.0,9850.0 1930.0,9850.0 1930.0,9880.0 1900.0,9880.0"/>
<polygon class="l74d0" points="1850.0,9850.0 1880.0,9850.0 1880.0,9880.0 1850.0,9880.0"/>
<polygon class="l74d0" points="1800.0,9850.0 1830.0,9850.0 1830.0,9880.0 1800.0,9880.0"/>
<polygon class="l74d0" points="1750.0,9850.0 1780.0,9850.0 1780.0,9880.0 1750.0,9880.0"/>
<polygon class="l74d0" points="1700.0,9850.0 1730.0,9850.0 1730.0,9880.0 1700.0,9880.0"/>
<polygon class="l74d0" points="1650.0,9850.0 1680.0,9850.0 1680.0,9880.0 1650.0,9880.0"/>
<polygon class="l74d0" points="1600.0,9850.0 1630.0,9850.0 1630.0,9880.0 1600.0,9880.0"/>
<polygon class="l74d0" points="1550.0,9850.0 1580.0,9850.0 1580.0,9880.0 1550.0,9880.0"/>
<polygon class="l74d0" points="1500.0,9850.0 1530.0,9850.0 1530.0,9880.0 1500.0,9880.0"/>
<polygon class="l74d0" points="1450.0,9850.0 1480.0,9850.0 1480.0,9880.0 1450.0,9880.0"/>
<polygon class="l74d0" points="1400.0,9850.0 1430.0,9850.0 1430.0,9880.0 1400.0,9880.0"/>
<polygon class="l74d0" points="1350.0,9850.0 1380.0,9850.0 1380.0,9880.0 1350.0,9880.0"/>
<polygon class="l74d0" points="1300.0,9850.0 1330.0,9850.0 1330.0,9880.0 1300.0,9880.0"/>
<polygon class="l74d0" points="1250.0,9850.0 1280.0,9850.0 1280.0,9880.0 1250.0,9880.0"/>
<polygon class="l74d0" points="1200.0,9850.0 1230.0,9850.0 1230.0,9880.0 1200.0,9880.0"/>
<polygon class="l74d0" points="1750.0,9900.0 1780.0,9900.0 1780.0,9930.0 1750.0,9930.0"/>
<polygon class="l74d0" points="1800.0,9900.0 1830.0,9900.0 1830.0,9930.0 1800.0,9930.0"/>
<polygon class="l74d0" points="1850.0,9900.0 1880.0,9900.0 1880.0,9930.0 1850.0,9930.0"/>
<polygon class="l74d0" points="1900.0,9900.0 1930.0,9900.0 1930.0,9930.0 1900.0,9930.0"/>
<polygon class="l74d0" points="1950.0,9900.0 1980.0,9900.0 1980.0,9930.0 1950.0,9930.0"/>
<polygon class="l74d0" points="2000.0,9900.0 2030.0,9900.0 2030.0,9930.0 2000.0,9930.0"/>
<polygon class="l74d0" points="2050.0,9900.0 2080.0,9900.0 2080.0,9930.0 2050.0,9930.0"/>
<polygon class="l74d0" points="2100.0,9900.0 2130.0,9900.0 2130.0,9930.0 2100.0,9930.0"/>
<polygon class="l74d0" points="2150.0,9900.0 2180.0,9900.0 2180.0,9930.0 2150.0,9930.0"/>
<polygon class="l74d0" points="2200.0,9900.0 2230.0,9900.0 2230.0,9930.0 2200.0,9930.0"/>
<polygon class="l74d0" points="1700.0,9900.0 1730.0,9900.0 1730.0,9930.0 1700.0,9930.0"/>
<polygon class="l74d0" points="1650.0,9900.0 1680.0,9900.0 1680.0,9930.0 1650.0,9930.0"/>
<polygon class="l74d0" points="1600.0,9900.0 1630.0,9900.0 1630.0,9930.0 1600.0,9930.0"/>
<polygon class="l74d0" points="1550.0,9900.0 1580.0,9900.0 1580.0,9930.0 1550.0,9930.0"/>
<polygon class="l74d0" points="1500.0,9900.0 1530.0,9900.0 1530.0,9930.0 1500.0,9930.0"/>
<polygon class="l74d0" points="1450.0,9900.0 1480.0,9900.0 1480.0,9930.0 1450.0,9930.0"/>
<polygon class="l74d0" points="1400.0,9900.0 1430.0,9900.0 1430.0,9930.0 1400.0,9930.0"/>
<polygon class="l74d0" points="1350.0,9900.0 1380.0,9900.0 1380.0,9930.0 1350.0,9930.0"/>
<polygon class="l74d0" points="1300.0,9900.0 1330.0,9900.0 1330.0,9930.0 1300.0,9930.0"/>
<polygon class="l74d0" points="1250.0,9900.0 1280.0,9900.0 1280.0,9930.0 1250.0,9930.0"/>
<polygon class="l74d0" points="1200.0,9900.0 1230.0,9900.0 1230.0,9930.0 1200.0,9930.0"/>
<polygon class="l74d0" points="0.0,9060000.0 0.0,6470000.0 30000.0,6470000.0 30000.0,9060000.0"/>
<polygon class="l74d0" points="50000.0,9375000.0 50000.0,9285000.0 80000.0,9285000.0 80000.0,9375000.0"/>
<polygon class="l74d0" points="50000.0,9060000.0 50000.0,6470000.0 80000.0,6470000.0 80000.0,9060000.0"/>
<polygon class="l74d0" points="100000.0,9535000.0 100000.0,9285000.0 130000.0,9285000.0 130000.0,9535000.0"/>
<polygon class="l74d0" points="100000.0,9060000.0 100000.0,6470000.0 130000.0,6470000.0 130000.0,9060000.0"/>
<polygon class="l74d0" points="150000.0,9705000.0 150000.0,9375000.0 180000.0,9375000.0 180000.0,9705000.0"/>
<polygon class="l74d0" points="150000.0,9060000.0 150000.0,6470000.0 180000.0,6470000.0 180000.0,9060000.0"/>
<polygon class="l74d0" points="200000.0,9845000.0 200000.0,9570000.0 230000.0,9570000.0 230000.0,9845000.0"/>
<polygon class="l74d0" points="200000.0,9455000.0 200000.0,9395000.0 230000.0,9395000.0 230000.0,9455000.0"/>
<polygon class="l74d0" points="200000.0,9060000.0 200000.0,6470000.0 230000.0,6470000.0 230000.0,9060000.0"/>
<polygon class="l74d0" points="250000.0,9850000.0 250000.0,9630000.0 280000.0,9630000.0 280000.0,9850000.0"/>
<polygon class="l74d0" points="250000.0,9455000.0 250000.0,9395000.0 280000.0,9395000.0 280000.0,9455000.0"/>
<polygon class="l74d0" points="250000.0,9060000.0 250000.0,6470000.0 280000.0,6470000.0 280000.0,9060000.0"/>
<polygon class="l74d0" points="300000.0,9770000.0 300000.0,9390000.0 330000.0,9390000.0 330000.0,9770000.0"/>
<polygon class="l74d0" points="300000.0,9060000.0 300000.0,8800000.0 330000.0,8800000.0 330000.0,9060000.0"/>
<polygon class="l74d0" points="300000.0,8075000.0 300000.0,7960000.0 330000.0,7960000.0 330000.0,8075000.0"/>
<polygon class="l74d0" points="300000.0,7820000.0 300000.0,7760000.0 330000.0,7760000.0 330000.0,7820000.0"/>
<polygon class="l74d0" points="300000.0,6725000.0 300000.0,6470000.0 330000.0,6470000.0 330000.0,6725000.0"/>
<polygon class="l74d0" points="350000.0,9600000.0 350000.0,9285000.0 380000.0,9285000.0 380000.0,9600000.0"/>
<polygon class="l74d0" points="350000.0,9060000.0 350000.0,8800000.0 380000.0,8800000.0 380000.0,9060000.0"/>
<polygon class="l74d0" points="350000.0,8175000.0 350000.0,8050000.0 380000.0,8050000.0 380000.0,8175000.0"/>
<polygon class="l74d0" points="350000.0,7930000.0 350000.0,7855000.0 380000.0,7855000.0 380000.0,7930000.0"/>
<polygon class="l74d0" points="350000.0,6725000.0 350000.0,6470000.0 380000.0,6470000.0 380000.0,6725000.0"/>
<polygon class="l74d0" points="400000.0,9435000.0 400000.0,9285000.0 430000.0,9285000.0 430000.0,9435000.0"/>
<polygon class="l74d0" points="400000.0,9060000.0 400000.0,8800000.0 430000.0,8800000.0 430000.0,9060000.0"/>
<polygon class="l74d0" points="400000.0,8270000.0 400000.0,8145000.0 430000.0,8145000.0 430000.0,8270000.0"/>
<polygon class="l74d0" points="400000.0,8030000.0 400000.0,7950000.0 430000.0,7950000.0 430000.0,8030000.0"/>
<polygon class="l74d0" points="400000.0,6725000.0 400000.0,6470000.0 430000.0,6470000.0 430000.0,6725000.0"/>
<polygon class="l74d0" points="450000.0,9060000.0 450000.0,8800000.0 480000.0,8800000.0 480000.0,9060000.0"/>
<polygon class="l74d0" points="450000.0,8365000.0 450000.0,8240000.0 480000.0,8240000.0 480000.0,8365000.0"/>
<polygon class="l74d0" points="450000.0,8130000.0 450000.0,8055000.0 480000.0,8055000.0 480000.0,8130000.0"/>
<polygon class="l74d0" points="450000.0,6725000.0 450000.0,6470000.0 480000.0,6470000.0 480000.0,6725000.0"/>
<polygon class="l74d0" points="500000.0,9660000.0 500000.0,9290000.0 530000.0,9290000.0 530000.0,9660000.0"/>
<polygon class="l74d0" points="500000.0,9060000.0 500000.0,8800000.0 530000.0,8800000.0 530000.0,9060000.0"/>
<polygon class="l74d0" points="500000.0,8540000.0 500000.0,8320000.0 530000.0,8320000.0 530000.0,8540000.0"/>
<polygon class="l74d0" points="500000.0,8230000.0 500000.0,8145000.0 530000.0,8145000.0 530000.0,8230000.0"/>
<polygon class="l74d0" points="500000.0,6725000.0 500000.0,6470000.0 530000.0,6470000.0 530000.0,6725000.0"/>
<polygon class="l74d0" points="550000.0,9665000.0 550000.0,9285000.0 580000.0,9285000.0 580000.0,9665000.0"/>
<polygon class="l74d0" points="550000.0,9060000.0 550000.0,8800000.0 580000.0,8800000.0 580000.0,9060000.0"/>
<polygon class="l74d0" points="550000.0,8630000.0 550000.0,7810000.0 580000.0,7810000.0 580000.0,8630000.0"/>
<polygon class="l74d0" points="550000.0,6725000.0 550000.0,6470000.0 580000.0,6470000.0 580000.0,6725000.0"/>
<polygon class="l74d0" points="600000.0,9645000.0 600000.0,9580000.0 630000.0,9580000.0 630000.0,9645000.0"/>
<polygon class="l74d0" points="600000.0,9060000.0 600000.0,8800000.0 630000.0,8800000.0 630000.0,9060000.0"/>
<polygon class="l74d0" points="600000.0,8670000.0 600000.0,8460000.0 630000.0,8460000.0 630000.0,8670000.0"/>
<polygon class="l74d0" points="600000.0,8430000.0 600000.0,7785000.0 630000.0,7785000.0 630000.0,8430000.0"/>
<polygon class="l74d0" points="600000.0,6725000.0 600000.0,6470000.0 630000.0,6470000.0 630000.0,6725000.0"/>
<polygon class="l74d0" points="650000.0,9660000.0 650000.0,9605000.0 680000.0,9605000.0 680000.0,9660000.0"/>
<polygon class="l74d0" points="650000.0,9060000.0 650000.0,8800000.0 680000.0,8800000.0 680000.0,9060000.0"/>
<polygon class="l74d0" points="650000.0,8700000.0 650000.0,8495000.0 680000.0,8495000.0 680000.0,8700000.0"/>
<polygon class="l74d0" points="650000.0,8440000.0 650000.0,7755000.0 680000.0,7755000.0 680000.0,8440000.0"/>
<polygon class="l74d0" points="650000.0,6725000.0 650000.0,6470000.0 680000.0,6470000.0 680000.0,6725000.0"/>
<polygon class="l74d0" points="700000.0,9670000.0 700000.0,9570000.0 730000.0,9570000.0 730000.0,9670000.0"/>
<polygon class="l74d0" points="700000.0,9060000.0 700000.0,8800000.0 730000.0,8800000.0 730000.0,9060000.0"/>
<polygon class="l74d0" points="700000.0,8725000.0 700000.0,8510000.0 730000.0,8510000.0 730000.0,8725000.0"/>
<polygon class="l74d0" points="700000.0,8450000.0 700000.0,8320000.0 730000.0,8320000.0 730000.0,8450000.0"/>
<polygon class="l74d0" points="700000.0,8285000.0 700000.0,7725000.0 730000.0,7725000.0 730000.0,8285000.0"/>
<polygon class="l74d0" points="700000.0,7395000.0 700000.0,7275000.0 730000.0,7275000.0 730000.0,7395000.0"/>
<polygon class="l74d0" points="700000.0,6725000.0 700000.0,6470000.0 730000.0,6470000.0 730000.0,6725000.0"/>
<polygon class="l74d0" points="750000.0,9660000.0 750000.0,9280000.0 780000.0,9280000.0 780000.0,9660000.0"/>
<polygon class="l74d0" points="750000.0,9060000.0 750000.0,8800000.0 780000.0,8800000.0 780000.0,9060000.0"/>
<polygon class="l74d0" points="750000.0,8745000.0 750000.0,8520000.0 780000.0,8520000.0 780000.0,8745000.0"/>
<polygon class="l74d0" points="750000.0,8455000.0 750000.0,8310000.0 780000.0,8310000.0 780000.0,8455000.0"/>
<polygon class="l74d0" points="750000.0,8230000.0 750000.0,7695000.0 780000.0,7695000.0 780000.0,8230000.0"/>
<polygon class="l74d0" points="750000.0,7515000.0 750000.0,7255000.0 780000.0,7255000.0 780000.0,7515000.0"/>
<polygon class="l74d0" points="750000.0,6725000.0 750000.0,6470000.0 780000.0,6470000.0 780000.0,6725000.0"/>
<polygon class="l74d0" points="800000.0,9610000.0 800000.0,9290000.0 830000.0,9290000.0 830000.0,9610000.0"/>
<polygon class="l74d0" points="800000.0,9060000.0 800000.0,8800000.0 830000.0,8800000.0 830000.0,9060000.0"/>
<polygon class="l74d0" points="800000.0,8760000.0 800000.0,8520000.0 830000.0,8520000.0 830000.0,8760000.0"/>
<polygon class="l74d0" points="800000.0,8460000.0 800000.0,8305000.0 830000.0,8305000.0 830000.0,8460000.0"/>
<polygon class="l74d0" points="800000.0,8180000.0 800000.0,7670000.0 830000.0,7670000.0 830000.0,8180000.0"/>
<polygon class="l74d0" points="800000.0,7635000.0 800000.0,7235000.0 830000.0,7235000.0 830000.0,7635000.0"/>
<polygon class="l74d0" points="800000.0,6725000.0 800000.0,6470000.0 830000.0,6470000.0 830000.0,6725000.0"/>
<polygon class="l74d0" points="850000.0,9060000.0 850000.0,8800000.0 880000.0,8800000.0 880000.0,9060000.0"/>
<polygon class="l74d0" points="850000.0,8770000.0 850000.0,8515000.0 880000.0,8515000.0 880000.0,8770000.0"/>
<polygon class="l74d0" points="850000.0,8460000.0 850000.0,8305000.0 880000.0,8305000.0 880000.0,8460000.0"/>
<polygon class="l74d0" points="850000.0,8245000.0 850000.0,8175000.0 880000.0,8175000.0 880000.0,8245000.0"/>
<polygon class="l74d0" points="850000.0,8125000.0 850000.0,6790000.0 880000.0,6790000.0 880000.0,8125000.0"/>
<polygon class="l74d0" points="850000.0,6725000.0 850000.0,6470000.0 880000.0,6470000.0 880000.0,6725000.0"/>
<polygon class="l74d0" points="900000.0,9535000.0 900000.0,9415000.0 930000.0,9415000.0 930000.0,9535000.0"/>
<polygon class="l74d0" points="900000.0,9060000.0 900000.0,8800000.0 930000.0,8800000.0 930000.0,9060000.0"/>
<polygon class="l74d0" points="900000.0,8775000.0 900000.0,8505000.0 930000.0,8505000.0 930000.0,8775000.0"/>
<polygon class="l74d0" points="900000.0,8455000.0 900000.0,8310000.0 930000.0,8310000.0 930000.0,8455000.0"/>
<polygon class="l74d0" points="900000.0,8240000.0 900000.0,8125000.0 930000.0,8125000.0 930000.0,8240000.0"/>
<polygon class="l74d0" points="900000.0,8075000.0 900000.0,7845000.0 930000.0,7845000.0 930000.0,8075000.0"/>
<polygon class="l74d0" points="900000.0,7765000.0 900000.0,6775000.0 930000.0,6775000.0 930000.0,7765000.0"/>
<polygon class="l74d0" points="900000.0,6725000.0 900000.0,6470000.0 930000.0,6470000.0 930000.0,6725000.0"/>
<polygon class="l74d0" points="950000.0,9645000.0 950000.0,9300000.0 980000.0,9300000.0 980000.0,9645000.0"/>
<polygon class="l74d0" points="950000.0,9060000.0 950000.0,8800000.0 980000.0,8800000.0 980000.0,9060000.0"/>
<polygon class="l74d0" points="950000.0,8445000.0 950000.0,8350000.0 980000.0,8350000.0 980000.0,8445000.0"/>
<polygon class="l74d0" points="950000.0,8235000.0 950000.0,8075000.0 980000.0,8075000.0 980000.0,8235000.0"/>
<polygon class="l74d0" points="950000.0,7855000.0 950000.0,7820000.0 980000.0,7820000.0 980000.0,7855000.0"/>
<polygon class="l74d0" points="950000.0,7720000.0 950000.0,6760000.0 980000.0,6760000.0 980000.0,7720000.0"/>
<polygon class="l74d0" points="950000.0,6725000.0 950000.0,6470000.0 980000.0,6470000.0 980000.0,6725000.0"/>
<polygon class="l74d0" points="1000000.0,9665000.0 1000000.0,9510000.0 1030000.0,9510000.0 1030000.0,9665000.0"/>
<polygon class="l74d0" points="1000000.0,9440000.0 1000000.0,9280000.0 1030000.0,9280000.0 1030000.0,9440000.0"/>
<polygon class="l74d0" points="1000000.0,9060000.0 1000000.0,8800000.0 1030000.0,8800000.0 1030000.0,9060000.0"/>
<polygon class="l74d0" points="1000000.0,8235000.0 1000000.0,7810000.0 1030000.0,7810000.0 1030000.0,8235000.0"/>
<polygon class="l74d0" points="1000000.0,7680000.0 1000000.0,6745000.0 1030000.0,6745000.0 1030000.0,7680000.0"/>
<polygon class="l74d0" points="1000000.0,6720000.0 1000000.0,6470000.0 1030000.0,6470000.0 1030000.0,6720000.0"/>
<polygon class="l74d0" points="1050000.0,9665000.0 1050000.0,9600000.0 1080000.0,9600000.0 1080000.0,9665000.0"/>
<polygon class="l74d0" points="1050000.0,9345000.0 1050000.0,9280000.0 1080000.0,9280000.0 1080000.0,9345000.0"/>
<polygon class="l74d0" points="1050000.0,9060000.0 1050000.0,8800000.0 1080000.0,8800000.0 1080000.0,9060000.0"/>
<polygon class="l74d0" points="1050000.0,8230000.0 1050000.0,7800000.0 1080000.0,7800000.0 1080000.0,8230000.0"/>
<polygon class="l74d0" points="1050000.0,7635000.0 1050000.0,7295000.0 1080000.0,7295000.0 1080000.0,7635000.0"/>
<polygon class="l74d0" points="1050000.0,7200000.0 1050000.0,6470000.0 1080000.0,6470000.0 1080000.0,7200000.0"/>
<polygon class="l74d0" points="1100000.0,9650000.0 1100000.0,9585000.0 1130000.0,9585000.0 1130000.0,9650000.0"/>
<polygon class="l74d0" points="1100000.0,9360000.0 1100000.0,9300000.0 1130000.0,9300000.0 1130000.0,9360000.0"/>
<polygon class="l74d0" points="1100000.0,9060000.0 1100000.0,8800000.0 1130000.0,8800000.0 1130000.0,9060000.0"/>
<polygon class="l74d0" points="1100000.0,8225000.0 1100000.0,7795000.0 1130000.0,7795000.0 1130000.0,8225000.0"/>
<polygon class="l74d0" points="1100000.0,7590000.0 1100000.0,7385000.0 1130000.0,7385000.0 1130000.0,7590000.0"/>
<polygon class="l74d0" points="1100000.0,7200000.0 1100000.0,6470000.0 1130000.0,6470000.0 1130000.0,7200000.0"/>
<polygon class="l74d0" points="1150000.0,9665000.0 1150000.0,9285000.0 1180000.0,9285000.0 1180000.0,9665000.0"/>
<polygon class="l74d0" points="1150000.0,9060000.0 1150000.0,8800000.0 1180000.0,8800000.0 1180000.0,9060000.0"/>
<polygon class="l74d0" points="1150000.0,8220000.0 1150000.0,7790000.0 1180000.0,7790000.0 1180000.0,8220000.0"/>
<polygon class="l74d0" points="1150000.0,7550000.0 1150000.0,7475000.0 1180000.0,7475000.0 1180000.0,7550000.0"/>
<polygon class="l74d0" points="1150000.0,7200000.0 1150000.0,6470000.0 1180000.0,6470000.0 1180000.0,7200000.0"/>
<polygon class="l74d0" points="1200000.0,9660000.0 1200000.0,9285000.0 1230000.0,9285000.0 1230000.0,9660000.0"/>
<polygon class="l74d0" points="1200000.0,9060000.0 1200000.0,8800000.0 1230000.0,8800000.0 1230000.0,9060000.0"/>
<polygon class="l74d0" points="1200000.0,8215000.0 1200000.0,7785000.0 1230000.0,7785000.0 1230000.0,8215000.0"/>
<polygon class="l74d0" points="1200000.0,7200000.0 1200000.0,6470000.0 1230000.0,6470000.0 1230000.0,7200000.0"/>
<polygon class="l74d0" points="1250000.0,9060000.0 1250000.0,8800000.0 1280000.0,8800000.0 1280000.0,9060000.0"/>
<polygon class="l74d0" points="1250000.0,8120000.0 1250000.0,7785000.0 1280000.0,7785000.0 1280000.0,8120000.0"/>
<polygon class="l74d0" points="1250000.0,7190000.0 1250000.0,6470000.0 1280000.0,6470000.0 1280000.0,7190000.0"/>
<polygon class="l74d0" points="1300000.0,9060000.0 1300000.0,8800000.0 1330000.0,8800000.0 1330000.0,9060000.0"/>
<polygon class="l74d0" points="1300000.0,8010000.0 1300000.0,7785000.0 1330000.0,7785000.0 1330000.0,8010000.0"/>
<polygon class="l74d0" points="1300000.0,7000000.0 1300000.0,6470000.0 1330000.0,6470000.0 1330000.0,7000000.0"/>
<polygon class="l74d0" points="1350000.0,9905000.0 1350000.0,9285000.0 1380000.0,9285000.0 1380000.0,9905000.0"/>
<polygon class="l74d0" points="1350000.0,9060000.0 1350000.0,8800000.0 1380000.0,8800000.0 1380000.0,9060000.0"/>
<polygon class="l74d0" points="1350000.0,7905000.0 1350000.0,7775000.0 1380000.0,7775000.0 1380000.0,7905000.0"/>
<polygon class="l74d0" points="1350000.0,6800000.0 1350000.0,6470000.0 1380000.0,6470000.0 1380000.0,6800000.0"/>
<polygon class="l74d0" points="1400000.0,9905000.0 1400000.0,9285000.0 1430000.0,9285000.0 1430000.0,9905000.0"/>
<polygon class="l74d0" points="1400000.0,9060000.0 1400000.0,8800000.0 1430000.0,8800000.0 1430000.0,9060000.0"/>
<polygon class="l74d0" points="1400000.0,7865000.0 1400000.0,7700000.0 1430000.0,7700000.0 1430000.0,7865000.0"/>
<polygon class="l74d0" points="1400000.0,6725000.0 1400000.0,6470000.0 1430000.0,6470000.0 1430000.0,6725000.0"/>
<polygon class="l74d0" points="1450000.0,9060000.0 1450000.0,8800000.0 1480000.0,8800000.0 1480000.0,9060000.0"/>
<polygon class="l74d0" points="1450000.0,7900000.0 1450000.0,7625000.0 1480000.0,7625000.0 1480000.0,7900000.0"/>
<polygon class="l74d0" points="1450000.0,6725000.0 1450000.0,6470000.0 1480000.0,6470000.0 1480000.0,6725000.0"/>
<polygon class="l74d0" points="1500000.0,9060000.0 1500000.0,8800000.0 1530000.0,8800000.0 1530000.0,9060000.0"/>
<polygon class="l74d0" points="1500000.0,7935000.0 1500000.0,7510000.0 1530000.0,7510000.0 1530000.0,7935000.0"/>
<polygon class="l74d0" points="1500000.0,6725000.0 1500000.0,6470000.0 1530000.0,6470000.0 1530000.0,6725000.0"/>
<polygon class="l74d0" points="1550000.0,9625000.0 1550000.0,9320000.0 1580000.0,9320000.0 1580000.0,9625000.0"/>
<polygon class="l74d0" points="1550000.0,9060000.0 1550000.0,8800000.0 1580000.0,8800000.0 1580000.0,9060000.0"/>
<polygon class="l74d0" points="1550000.0,7965000.0 1550000.0,7485000.0 1580000.0,7485000.0 1580000.0,7965000.0"/>
<polygon class="l74d0" points="1550000.0,6725000.0 1550000.0,6470000.0 1580000.0,6470000.0 1580000.0,6725000.0"/>
<polygon class="l74d0" points="1600000.0,9660000.0 1600000.0,9290000.0 1630000.0,9290000.0 1630000.0,9660000.0"/>
<polygon class="l74d0" points="1600000.0,9060000.0 1600000.0,8800000.0 1630000.0,8800000.0 1630000.0,9060000.0"/>
<polygon class="l74d0" points="1600000.0,7995000.0 1600000.0,7500000.0 1630000.0,7500000.0 1630000.0,7995000.0"/>
<polygon class="l74d0" points="1600000.0,6725000.0 1600000.0,6470000.0 1630000.0,6470000.0 1630000.0,6725000.0"/>
<polygon class="l74d0" points="1650000.0,9670000.0 1650000.0,9600000.0 1680000.0,9600000.0 1680000.0,9670000.0"/>
<polygon class="l74d0" points="1650000.0,9350000.0 1650000.0,9280000.0 1680000.0,9280000.0 1680000.0,9350000.0"/>
<polygon class="l74d0" points="1650000.0,9060000.0 1650000.0,8800000.0 1680000.0,8800000.0 1680000.0,9060000.0"/>
<polygon class="l74d0" points="1650000.0,8020000.0 1650000.0,7525000.0 1680000.0,7525000.0 1680000.0,8020000.0"/>
<polygon class="l74d0" points="1650000.0,6725000.0 1650000.0,6470000.0 1680000.0,6470000.0 1680000.0,6725000.0"/>
<polygon class="l74d0" points="1700000.0,9670000.0 1700000.0,9595000.0 1730000.0,9595000.0 1730000.0,9670000.0"/>
<polygon class="l74d0" points="1700000.0,9355000.0 1700000.0,9280000.0 1730000.0,9280000.0 1730000.0,9355000.0"/>
<polygon class="l74d0" points="1700000.0,9060000.0 1700000.0,8800000.0 1730000.0,8800000.0 1730000.0,9060000.0"/>
<polygon class="l74d0" points="1700000.0,7990000.0 1700000.0,7555000.0 1730000.0,7555000.0 1730000.0,7990000.0"/>
<polygon class="l74d0" points="1700000.0,6725000.0 1700000.0,6470000.0 1730000.0,6470000.0 1730000.0,6725000.0"/>
<polygon class="l74d0" points="1750000.0,9655000.0 1750000.0,9295000.0 1780000.0,9295000.0 1780000.0,9655000.0"/>
<polygon class="l74d0" points="1750000.0,9060000.0 1750000.0,8800000.0 1780000.0,8800000.0 1780000.0,9060000.0"/>
<polygon class="l74d0" points="1750000.0,7935000.0 1750000.0,7590000.0 1780000.0,7590000.0 1780000.0,7935000.0"/>
<polygon class="l74d0" points="1750000.0,6725000.0 1750000.0,6470000.0 1780000.0,6470000.0 1780000.0,6725000.0"/>
<polygon class="l74d0" points="1800000.0,9615000.0 1800000.0,9335000.0 1830000.0,9335000.0 1830000.0,9615000.0"/>
<polygon class="l74d0" points="1800000.0,9060000.0 1800000.0,8800000.0 1830000.0,8800000.0 1830000.0,9060000.0"/>
<polygon class="l74d0" points="1800000.0,7875000.0 1800000.0,7630000.0 1830000.0,7630000.0 1830000.0,7875000.0"/>
<polygon class="l74d0" points="1800000.0,6725000.0 1800000.0,6470000.0 1830000.0,6470000.0 1830000.0,6725000.0"/>
<polygon class="l74d0" points="1850000.0,9060000.0 1850000.0,8800000.0 1880000.0,8800000.0 1880000.0,9060000.0"/>
<polygon class="l74d0" points="1850000.0,7825000.0 1850000.0,7670000.0 1880000.0,7670000.0 1880000.0,7825000.0"/>
<polygon class="l74d0" points="1850000.0,6725000.0 1850000.0,6470000.0 1880000.0,6470000.0 1880000.0,6725000.0"/>
<polygon class="l74d0" points="1900000.0,9060000.0 1900000.0,8800000.0 1930000.0,8800000.0 1930000.0,9060000.0"/>
<polygon class="l74d0" points="1900000.0,7815000.0 1900000.0,7630000.0 1930000.0,7630000.0 1930000.0,7815000.0"/>
<polygon class="l74d0" points="1900000.0,6725000.0 1900000.0,6470000.0 1930000.0,6470000.0 1930000.0,6725000.0"/>
<polygon class="l74d0" points="1950000.0,9640000.0 1950000.0,9305000.0 1980000.0,9305000.0 1980000.0,9640000.0"/>
<polygon class="l74d0" points="1950000.0,9245000.0 1950000.0,9155000.0 1980000.0,9155000.0 1980000.0,9245000.0"/>
<polygon class="l74d0" points="1950000.0,9060000.0 1950000.0,8800000.0 1980000.0,8800000.0 1980000.0,9060000.0"/>
<polygon class="l74d0" points="1950000.0,7825000.0 1950000.0,7485000.0 1980000.0,7485000.0 1980000.0,7825000.0"/>
<polygon class="l74d0" points="1950000.0,6725000.0 1950000.0,6470000.0 1980000.0,6470000.0 1980000.0,6725000.0"/>
<polygon class="l74d0" points="2000000.0,9665000.0 2000000.0,9280000.0 2030000.0,9280000.0 2030000.0,9665000.0"/>
<polygon class="l74d0" points="2000000.0,9240000.0 2000000.0,9130000.0 2030000.0,9130000.0 2030000.0,9240000.0"/>
<polygon class="l74d0" points="2000000.0,9060000.0 2000000.0,8805000.0 2030000.0,8805000.0 2030000.0,9060000.0"/>
<polygon class="l74d0" points="2000000.0,7830000.0 2000000.0,7410000.0 2030000.0,7410000.0 2030000.0,7830000.0"/>
<polygon class="l74d0" points="2000000.0,6725000.0 2000000.0,6470000.0 2030000.0,6470000.0 2030000.0,6725000.0"/>
<polygon class="l74d0" points="2050000.0,9670000.0 2050000.0,9600000.0 2080000.0,9600000.0 2080000.0,9670000.0"/>
<polygon class="l74d0" points="2050000.0,9350000.0 2050000.0,9280000.0 2080000.0,9280000.0 2080000.0,9350000.0"/>
<polygon class="l74d0" points="2050000.0,9190000.0 2050000.0,9125000.0 2080000.0,9125000.0 2080000.0,9190000.0"/>
<polygon class="l74d0" points="2050000.0,9060000.0 2050000.0,8800000.0 2080000.0,8800000.0 2080000.0,9060000.0"/>
<polygon class="l74d0" points="2050000.0,7825000.0 2050000.0,7390000.0 2080000.0,7390000.0 2080000.0,7825000.0"/>
<polygon class="l74d0" points="2050000.0,7060000.0 2050000.0,7010000.0 2080000.0,7010000.0 2080000.0,7060000.0"/>
<polygon class="l74d0" points="2050000.0,6725000.0 2050000.0,6470000.0 2080000.0,6470000.0 2080000.0,6725000.0"/>
<polygon class="l74d0" points="2100000.0,9650000.0 2100000.0,9585000.0 2130000.0,9585000.0 2130000.0,9650000.0"/>
<polygon class="l74d0" points="2100000.0,9355000.0 2100000.0,9295000.0 2130000.0,9295000.0 2130000.0,9355000.0"/>
<polygon class="l74d0" points="2100000.0,9190000.0 2100000.0,9125000.0 2130000.0,9125000.0 2130000.0,9190000.0"/>
<polygon class="l74d0" points="2100000.0,9060000.0 2100000.0,8800000.0 2130000.0,8800000.0 2130000.0,9060000.0"/>
<polygon class="l74d0" points="2100000.0,7820000.0 2100000.0,7390000.0 2130000.0,7390000.0 2130000.0,7820000.0"/>
<polygon class="l74d0" points="2100000.0,7140000.0 2100000.0,6975000.0 2130000.0,6975000.0 2130000.0,7140000.0"/>
<polygon class="l74d0" points="2100000.0,6725000.0 2100000.0,6470000.0 2130000.0,6470000.0 2130000.0,6725000.0"/>
<polygon class="l74d0" points="2150000.0,9665000.0 2150000.0,9140000.0 2180000.0,9140000.0 2180000.0,9665000.0"/>
<polygon class="l74d0" points="2150000.0,9060000.0 2150000.0,8805000.0 2180000.0,8805000.0 2180000.0,9060000.0"/>
<polygon class="l74d0" points="2150000.0,7805000.0 2150000.0,7375000.0 2180000.0,7375000.0 2180000.0,7805000.0"/>
<polygon class="l74d0" points="2150000.0,7220000.0 2150000.0,6945000.0 2180000.0,6945000.0 2180000.0,7220000.0"/>
<polygon class="l74d0" points="2150000.0,6725000.0 2150000.0,6470000.0 2180000.0,6470000.0 2180000.0,6725000.0"/>
<polygon class="l74d0" points="2200000.0,9665000.0 2200000.0,9170000.0 2230000.0,9170000.0 2230000.0,9665000.0"/>
<polygon class="l74d0" points="2200000.0,9060000.0 2200000.0,8805000.0 2230000.0,8805000.0 2230000.0,9060000.0"/>
<polygon class="l74d0" points="2200000.0,7785000.0 2200000.0,6895000.0 2230000.0,6895000.0 2230000.0,7785000.0"/>
<polygon class="l74d0" points="2200000.0,6725000.0 2200000.0,6470000.0 2230000.0,6470000.0 2230000.0,6725000.0"/>
<polygon class="l74d0" points="2250000.0,9060000.0 2250000.0,8800000.0 2280000.0,8800000.0 2280000.0,9060000.0"/>
<polygon class="l74d0" points="2250000.0,7765000.0 2250000.0,6840000.0 2280000.0,6840000.0 2280000.0,7765000.0"/>
<polygon class="l74d0" points="2250000.0,6730000.0 2250000.0,6470000.0 2280000.0,6470000.0 2280000.0,6730000.0"/>
<polygon class="l74d0" points="2300000.0,9060000.0 2300000.0,6470000.0 2330000.0,6470000.0 2330000.0,9060000.0"/>
<polygon class="l74d0" points="2350000.0,9580000.0 2350000.0,9285000.0 2380000.0,9285000.0 2380000.0,9580000.0"/>
<polygon class="l74d0" points="2350000.0,9060000.0 2350000.0,6470000.0 2380000.0,6470000.0 2380000.0,9060000.0"/>
<polygon class="l74d0" points="2400000.0,9850000.0 2400000.0,9285000.0 2430000.0,9285000.0 2430000.0,9850000.0"/>
<polygon class="l74d0" points="2400000.0,9060000.0 2400000.0,6470000.0 2430000.0,6470000.0 2430000.0,9060000.0"/>
<polygon class="l74d0" points="2450000.0,9850000.0 2450000.0,9565000.0 2480000.0,9565000.0 2480000.0,9850000.0"/>
<polygon class="l74d0" points="2450000.0,9060000.0 2450000.0,6470000.0 2480000.0,6470000.0 2480000.0,9060000.0"/>
<polygon class="l74d0" points="2500000.0,9760000.0 2500000.0,9450000.0 2530000.0,9450000.0 2530000.0,9760000.0"/>
<polygon class="l74d0" points="2500000.0,9060000.0 2500000.0,6470000.0 2530000.0,6470000.0 2530000.0,9060000.0"/>
<polygon class="l74d0" points="2550000.0,9585000.0 2550000.0,9290000.0 2580000.0,9290000.0 2580000.0,9585000.0"/>
<polygon class="l74d0" points="2550000.0,6480000.0 2550000.0,6445000.0 2580000.0,6445000.0 2580000.0,6480000.0"/>
<polygon class="l74d0" points="2600000.0,9535000.0 2600000.0,9285000.0 2630000.0,9285000.0 2630000.0,9535000.0"/>
<polygon class="l74d0" points="2650000.0,9725000.0 2650000.0,9395000.0 2680000.0,9395000.0 2680000.0,9725000.0"/>
<polygon class="l74d0" points="2700000.0,9850000.0 2700000.0,9560000.0 2730000.0,9560000.0 2730000.0,9850000.0"/>
<polygon class="l74d0" points="2750000.0,9850000.0 2750000.0,9290000.0 2780000.0,9290000.0 2780000.0,9850000.0"/>
<polygon class="l74d0" points="2800000.0,9665000.0 2800000.0,9280000.0 2830000.0,9280000.0 2830000.0,9665000.0"/>
<polygon class="l74d0" points="2950000.0,9820000.0 2950000.0,9730000.0 2980000.0,9730000.0 2980000.0,9820000.0"/>
<polygon class="l74d0" points="2950000.0,9665000.0 2950000.0,9285000.0 2980000.0,9285000.0 2980000.0,9665000.0"/>
<polygon class="l74d0" points="3000000.0,9820000.0 3000000.0,9735000.0 3030000.0,9735000.0 3030000.0,9820000.0"/>
<polygon class="l74d0" points="3000000.0,9665000.0 3000000.0,9285000.0 3030000.0,9285000.0 3030000.0,9665000.0"/>
<polygon class="l74d0" points="3150000.0,9905000.0 3150000.0,9285000.0 3180000.0,9285000.0 3180000.0,9905000.0"/>
<polygon class="l74d0" points="3200000.0,9905000.0 3200000.0,9285000.0 3230000.0,9285000.0 3230000.0,9905000.0"/>
<polygon class="l74d0" points="3250000.0,9540000.0 3250000.0,9435000.0 3280000.0,9435000.0 3280000.0,9540000.0"/>
<polygon class="l74d0" points="3300000.0,9600000.0 3300000.0,9370000.0 3330000.0,9370000.0 3330000.0,9600000.0"/>
<polygon class="l74d0" points="3350000.0,9660000.0 3350000.0,9525000.0 3380000.0,9525000.0 3380000.0,9660000.0"/>
<polygon class="l74d0" points="3350000.0,9460000.0 3350000.0,9300000.0 3380000.0,9300000.0 3380000.0,9460000.0"/>
<polygon class="l74d0" points="3400000.0,9665000.0 3400000.0,9585000.0 3430000.0,9585000.0 3430000.0,9665000.0"/>
<polygon class="l74d0" points="3400000.0,9390000.0 3400000.0,9285000.0 3430000.0,9285000.0 3430000.0,9390000.0"/>
<polygon class="l74d0" points="3450000.0,9320000.0 3450000.0,9285000.0 3480000.0,9285000.0 3480000.0,9320000.0"/>
<polygon class="l74d0" points="3500000.0,9515000.0 3500000.0,9435000.0 3530000.0,9435000.0 3530000.0,9515000.0"/>
<polygon class="l74d0" points="3550000.0,9630000.0 3550000.0,9320000.0 3580000.0,9320000.0 3580000.0,9630000.0"/>
<polygon class="l74d0" points="3600000.0,9660000.0 3600000.0,9290000.0 3630000.0,9290000.0 3630000.0,9660000.0"/>
<polygon class="l74d0" points="3650000.0,9670000.0 3650000.0,9600000.0 3680000.0,9600000.0 3680000.0,9670000.0"/>
<polygon class="l74d0" points="3650000.0,9350000.0 3650000.0,9280000.0 3680000.0,9280000.0 3680000.0,9350000.0"/>
<polygon class="l74d0" points="3700000.0,9665000.0 3700000.0,9590000.0 3730000.0,9590000.0 3730000.0,9665000.0"/>
<polygon class="l74d0" points="3700000.0,9355000.0 3700000.0,9280000.0 3730000.0,9280000.0 3730000.0,9355000.0"/>
<polygon class="l74d0" points="3750000.0,9650000.0 3750000.0,9295000.0 3780000.0,9295000.0 3780000.0,9650000.0"/>
<polygon class="l74d0" points="3800000.0,9605000.0 3800000.0,9345000.0 3830000.0,9345000.0 3830000.0,9605000.0"/>
<polygon class="l74d0" points="3950000.0,9365000.0 3950000.0,9280000.0 3980000.0,9280000.0 3980000.0,9365000.0"/>
<polygon class="l74d0" points="4000000.0,9365000.0 4000000.0,9285000.0 4030000.0,9285000.0 4030000.0,9365000.0"/>
<polygon class="l74d0" points="4150000.0,9615000.0 4150000.0,9330000.0 4180000.0,9330000.0 4180000.0,9615000.0"/>
<polygon class="l74d0" points="4200000.0,9655000.0 4200000.0,9290000.0 4230000.0,9290000.0 4230000.0,9655000.0"/>
<polygon class="l74d0" points="4250000.0,9670000.0 4250000.0,9580000.0 4280000.0,9580000.0 4280000.0,9670000.0"/>
<polygon class="l74d0" points="4250000.0,9370000.0 4250000.0,9280000.0 4280000.0,9280000.0 4280000.0,9370000.0"/>
<polygon class="l74d0" points="4300000.0,9670000.0 4300000.0,9595000.0 4330000.0,9595000.0 4330000.0,9670000.0"/>
<polygon class="l74d0" points="4300000.0,9350000.0 4300000.0,9280000.0 4330000.0,9280000.0 4330000.0,9350000.0"/>
<polygon class="l74d0" points="4450000.0,9625000.0 4450000.0,9325000.0 4480000.0,9325000.0 4480000.0,9625000.0"/>
<polygon class="l74d0" points="4500000.0,9660000.0 4500000.0,9290000.0 4530000.0,9290000.0 4530000.0,9660000.0"/>
<polygon class="l74d0" points="4550000.0,9670000.0 4550000.0,9595000.0 4580000.0,9595000.0 4580000.0,9670000.0"/>
<polygon class="l74d0" points="4550000.0,9350000.0 4550000.0,9280000.0 4580000.0,9280000.0 4580000.0,9350000.0"/>
<polygon class="l74d0" points="4600000.0,9670000.0 4600000.0,9595000.0 4630000.0,9595000.0 4630000.0,9670000.0"/>
<polygon class="l74d0" points="4600000.0,9355000.0 4600000.0,9280000.0 4630000.0,9280000.0 4630000.0,9355000.0"/>
<polygon class="l74d0" points="4650000.0,9655000.0 4650000.0,9295000.0 4680000.0,9295000.0 4680000.0,9655000.0"/>
<polygon class="l74d0" points="4700000.0,9615000.0 4700000.0,9335000.0 4730000.0,9335000.0 4730000.0,9615000.0"/>
<polygon class="l74d0" points="4850000.0,9665000.0 4850000.0,9285000.0 4880000.0,9285000.0 4880000.0,9665000.0"/>
<polygon class="l74d0" points="4900000.0,9665000.0 4900000.0,9285000.0 4930000.0,9285000.0 4930000.0,9665000.0"/>
<polygon class="l74d0" points="4950000.0,9650000.0 4950000.0,9595000.0 4980000.0,9595000.0 4980000.0,9650000.0"/>
<polygon class="l74d0" points="5000000.0,9665000.0 5000000.0,9600000.0 5030000.0,9600000.0 5030000.0,9665000.0"/>
<polygon class="l74d0" points="5050000.0,9670000.0 5050000.0,9285000.0 5080000.0,9285000.0 5080000.0,9670000.0"/>
<polygon class="l74d0" points="5100000.0,9645000.0 5100000.0,9285000.0 5130000.0,9285000.0 5130000.0,9645000.0"/>
<polygon class="l74d0" points="5150000.0,9640000.0 5150000.0,9585000.0 5180000.0,9585000.0 5180000.0,9640000.0"/>
<polygon class="l74d0" points="5200000.0,9665000.0 5200000.0,9600000.0 5230000.0,9600000.0 5230000.0,9665000.0"/>
<polygon class="l74d0" points="5250000.0,9670000.0 5250000.0,9295000.0 5280000.0,9295000.0 5280000.0,9670000.0"/>
<polygon class="l74d0" points="5300000.0,9660000.0 5300000.0,9280000.0 5330000.0,9280000.0 5330000.0,9660000.0"/>
</g>
</svg>