<?xml version="1.0" encoding="UTF-8"?>
<svg xmlns="http://www.w3.org/2000/svg" xmlns:xlink="http://www.w3.org/1999/xlink"
     width="3379015.0" height="10989165.0" viewBox="-499507.5 -10499507.5 3379015.0 10989165.0">
<defs>
<style type="text/css">
.l74d0 {stroke: rgb(158, 42, 255); fill: rgb(158, 42, 255); fill-opacity: 0.5;}
</style>
</defs>
<rect x="-499507.5" y="-10499507.5" width="3379015.0" height="10989165.0" fill="#222" stroke="none"/>
<g id="AL_AP_artwork_test" transform="scale(1 -1)">
<polygon class="l74d0" points="2050.0,9850.0 2080.0,9850.0 2080.0,9880.0 2050.0,9880.0"/>
<polygon class="l74d0" points="2000.0,9850.0 2030.0,9850.0 2030.0,9880.0 2000.0,9880.0"/>
<polygon class="l74d0" points="1950.0,9850.0 1980.0,9850.0 1980.0,9880.0 1950.0,9880.0"/>
<polygon class="l74d0" points="1900.0,9850.0 1930.0,9850.0 1930.0,9880.0 1900.0,9880.0"/>
<polygon class="l74d0" points="1850.0,9850.0 1880.0,9850.0 1880.0,9880.0 1850.0,9880.0"/>
<polygon class="l74d0" points="1800.0,9850.0 1830.0,9850.0 1830.0,9880.0 1800.0,9880.0"/>
<polygon class="l74d0" points="1750.0,9850.0 1780.0,9850.0 1780.0,9880.0 1750.0,9880.0"/>
<polygon class="l74d0" points="1700.0,9850.0 1730.0,9850.0 1730.0,9880.0 1700.0,9880.0"/>
<polygon class="l74d0" points="1650.0,9850.0 1680.0,9850.0 1680.0,9880.0 1650.0,9880.0"/>
<polygon class="l74d0" points="1600.0,9850.0 1630.0,9850.0 1630.0,9880.0 1600.0,9880.0"/>
<polygon class="l74d0" points="1550.0,9850.0 1580.0,9850.0 1580.0,9880.0 1550.0,9880.0"/>
<polygon class="l74d0" points="1500.0,9850.0 1530.0,9850.0 1530.0,9880.0 1500.0,9880.0"/>
<polygon class="l74d0" points="1450.0,9850.0 1480.0,9850.0 1480.0,9880.0 1450.0,9880.0"/>
<polygon class="l74d0" points="1400.0,9850.0 1430.0,9850.0 1430.0,9880.0 1400.0,9880.0"/>
<polygon class="l74d0" points="1350.0,9850.0 1380.0,9850.0 1380.0,9880.0 1350.0,9880.0"/>
<polygon class="l74d0" points="1300.0,9850.0 1330.0,9850.0 1330.0,9880.0 1300.0,9880.0"/>
<polygon class="l74d0" points="1250.0,9850.0 1280.0,9850.0 1280.0,9880.0 1250.0,9880.0"/>
<polygon class="l74d0" points="1200.0,9850.0 1230.0,9850.0 1230.0,9880.0 1200.0,9880.0"/>
<polygon class="l74d0" points="1750.0,9900.0 1780.0,9900.0 1780.0,9930.0 1750.0,9930.0"/>
<polygon class="l74d0" points="1800.0,9900.0 1830.0,9900.0 1830.0,9930.0 1800.0,9930.0"/>
<polygon class="l74d0" points="1850.0,9900.0 1880.0,9900.0 1880.0,9930.0 1850.0,9930.0"/>
<polygon class="l74d0" points="1900.0,9900.0 1930.0,9900.0 1930.0,9930.0 1900.0,9930.0"/>
<polygon class="l74d0" points="1950.0,9900.0 1980.0,9900.0 1980.0,9930.0 1950.0,9930.0"/>
<polygon class="l74d0" points="2000.0,9900.0 2030.0,9900.0 2030.0,9930.0 2000.0,9930.0"/>
<polygon class="l74d0" points="2050.0,9900.0 2080.0,9900.0 2080.0,9930.0 2050.0,9930.0"/>
<polygon class="l74d0" points="2100.0,9900.0 2130.0,9900.0 2130.0,9930.0 2100.0,9930.0"/>
<polygon class="l74d0" points="2150.0,9900.0 2180.0,9900.0 2180.0,9930.0 2150.0,9930.0"/>
<polygon class="l74d0" points="2200.0,9900.0 2230.0,9900.0 2230.0,9930.0 2200.0,9930.0"/>
<polygon class="l74d0" points="1700.0,9900.0 1730.0,9900.0 1730.0,9930.0 1700.0,9930.0"/>
<polygon class="l74d0" points="1650.0,9900.0 1680.0,9900.0 1680.0,9930.0 1650.0,9930.0"/>
<polygon class="l74d0" points="1600.0,9900.0 1630.0,9900.0 1630.0,9930.0 1600.0,9930.0"/>
<polygon class="l74d0" points="1550.0,9900.0 1580.0,9900.0 1580.0,9930.0 1550.0,9930.0"/>
<polygon class="l74d0" points="1500.0,9900.0 1530.0,9900.0 1530.0,9930.0 1500.0,9930.0"/>
<polygon class="l74d0" points="1450.0,9900.0 1480.0,9900.0 1480.0,9930.0 1450.0,9930.0"/>
<polygon class="l74d0" points="1400.0,9900.0 1430.0,9900.0 1430.0,9930.0 1400.0,9930.0"/>
<polygon class="l74d0" points="1350.0,9900.0 1380.0,9900.0 1380.0,9930.0 1350.0,9930.0"/>
<polygon class="l74d0" points="1300.0,9900.0 1330.0,9900.0 1330.0,9930.0 1300.0,9930.0"/>
<polygon class="l74d0" points="1250.0,9900.0 1280.0,9900.0 1280.0,9930.0 1250.0,9930.0"/>
<polygon class="l74d0" points="1200.0,9900.0 1230.0,9900.0 1230.0,9930.0 1200.0,9930.0"/>
<polygon class="l74d0" points="0.0,10000000.0 0.0,7630000.0 30000.0,7630000.0 30000.0,10000000.0"/>
<polygon class="l74d0" points="0.0,7335000.0 0.0,7215000.0 30000.0,7215000.0 30000.0,7335000.0"/>
<polygon class="l74d0" points="50000.0,10000000.0 50000.0,7630000.0 80000.0,7630000.0 80000.0,10000000.0"/>
<polygon class="l74d0" points="50000.0,7550000.0 50000.0,7355000.0 80000.0,7355000.0 80000.0,7550000.0"/>
<polygon class="l74d0" points="50000.0,7325000.0 50000.0,7280000.0 80000.0,7280000.0 80000.0,7325000.0"/>
<polygon class="l74d0" points="100000.0,10000000.0 100000.0,7630000.0 130000.0,7630000.0 130000.0,10000000.0"/>
<polygon class="l74d0" points="100000.0,7535000.0 100000.0,7330000.0 130000.0,7330000.0 130000.0,7535000.0"/>
<polygon class="l74d0" points="100000.0,7305000.0 100000.0,7270000.0 130000.0,7270000.0 130000.0,7305000.0"/>
<polygon class="l74d0" points="150000.0,10000000.0 150000.0,7630000.0 180000.0,7630000.0 180000.0,10000000.0"/>
<polygon class="l74d0" points="150000.0,7290000.0 150000.0,7215000.0 180000.0,7215000.0 180000.0,7290000.0"/>
<polygon class="l74d0" points="200000.0,10000000.0 200000.0,7630000.0 230000.0,7630000.0 230000.0,10000000.0"/>
<polygon class="l74d0" points="200000.0,7450000.0 200000.0,7215000.0 230000.0,7215000.0 230000.0,7450000.0"/>
<polygon class="l74d0" points="250000.0,10000000.0 250000.0,9765000.0 280000.0,9765000.0 280000.0,10000000.0"/>
<polygon class="l74d0" points="250000.0,9070000.0 250000.0,8945000.0 280000.0,8945000.0 280000.0,9070000.0"/>
<polygon class="l74d0" points="250000.0,8840000.0 250000.0,8755000.0 280000.0,8755000.0 280000.0,8840000.0"/>
<polygon class="l74d0" points="250000.0,7865000.0 250000.0,7630000.0 280000.0,7630000.0 280000.0,7865000.0"/>
<polygon class="l74d0" points="250000.0,7450000.0 250000.0,7410000.0 280000.0,7410000.0 280000.0,7450000.0"/>
<polygon class="l74d0" points="300000.0,10000000.0 300000.0,9765000.0 330000.0,9765000.0 330000.0,10000000.0"/>
<polygon class="l74d0" points="300000.0,9140000.0 300000.0,9035000.0 330000.0,9035000.0 330000.0,9140000.0"/>
<polygon class="l74d0" points="300000.0,8905000.0 300000.0,8860000.0 330000.0,8860000.0 330000.0,8905000.0"/>
<polygon class="l74d0" points="300000.0,7860000.0 300000.0,7630000.0 330000.0,7630000.0 330000.0,7860000.0"/>
<polygon class="l74d0" points="300000.0,7450000.0 300000.0,7215000.0 330000.0,7215000.0 330000.0,7450000.0"/>
<polygon class="l74d0" points="350000.0,10000000.0 350000.0,9765000.0 380000.0,9765000.0 380000.0,10000000.0"/>
<polygon class="l74d0" points="350000.0,9235000.0 350000.0,9125000.0 380000.0,9125000.0 380000.0,9235000.0"/>
<polygon class="l74d0" points="350000.0,9010000.0 350000.0,8950000.0 380000.0,8950000.0 380000.0,9010000.0"/>
<polygon class="l74d0" points="350000.0,7860000.0 350000.0,7630000.0 380000.0,7630000.0 380000.0,7860000.0"/>
<polygon class="l74d0" points="400000.0,10000000.0 400000.0,9765000.0 430000.0,9765000.0 430000.0,10000000.0"/>
<polygon class="l74d0" points="400000.0,9330000.0 400000.0,9220000.0 430000.0,9220000.0 430000.0,9330000.0"/>
<polygon class="l74d0" points="400000.0,9110000.0 400000.0,9045000.0 430000.0,9045000.0 430000.0,9110000.0"/>
<polygon class="l74d0" points="400000.0,7860000.0 400000.0,7630000.0 430000.0,7630000.0 430000.0,7860000.0"/>
<polygon class="l74d0" points="400000.0,7445000.0 400000.0,7225000.0 430000.0,7225000.0 430000.0,7445000.0"/>
<polygon class="l74d0" points="450000.0,10000000.0 450000.0,9765000.0 480000.0,9765000.0 480000.0,10000000.0"/>
<polygon class="l74d0" points="450000.0,9455000.0 450000.0,9305000.0 480000.0,9305000.0 480000.0,9455000.0"/>
<polygon class="l74d0" points="450000.0,9205000.0 450000.0,9150000.0 480000.0,9150000.0 480000.0,9205000.0"/>
<polygon class="l74d0" points="450000.0,7860000.0 450000.0,7630000.0 480000.0,7630000.0 480000.0,7860000.0"/>
<polygon class="l74d0" points="450000.0,7450000.0 450000.0,7410000.0 480000.0,7410000.0 480000.0,7450000.0"/>
<polygon class="l74d0" points="450000.0,7255000.0 450000.0,7215000.0 480000.0,7215000.0 480000.0,7255000.0"/>
<polygon class="l74d0" points="500000.0,10000000.0 500000.0,9765000.0 530000.0,9765000.0 530000.0,10000000.0"/>
<polygon class="l74d0" points="500000.0,9590000.0 500000.0,8865000.0 530000.0,8865000.0 530000.0,9590000.0"/>
<polygon class="l74d0" points="500000.0,7860000.0 500000.0,7630000.0 530000.0,7630000.0 530000.0,7860000.0"/>
<polygon class="l74d0" points="500000.0,7450000.0 500000.0,7215000.0 530000.0,7215000.0 530000.0,7450000.0"/>
<polygon class="l74d0" points="550000.0,10000000.0 550000.0,9765000.0 580000.0,9765000.0 580000.0,10000000.0"/>
<polygon class="l74d0" points="550000.0,9635000.0 550000.0,9435000.0 580000.0,9435000.0 580000.0,9635000.0"/>
<polygon class="l74d0" points="550000.0,9410000.0 550000.0,8835000.0 580000.0,8835000.0 580000.0,9410000.0"/>
<polygon class="l74d0" points="550000.0,7860000.0 550000.0,7630000.0 580000.0,7630000.0 580000.0,7860000.0"/>
<polygon class="l74d0" points="600000.0,10000000.0 600000.0,9765000.0 630000.0,9765000.0 630000.0,10000000.0"/>
<polygon class="l74d0" points="600000.0,9670000.0 600000.0,9480000.0 630000.0,9480000.0 630000.0,9670000.0"/>
<polygon class="l74d0" points="600000.0,9430000.0 600000.0,8810000.0 630000.0,8810000.0 630000.0,9430000.0"/>
<polygon class="l74d0" points="600000.0,7860000.0 600000.0,7630000.0 630000.0,7630000.0 630000.0,7860000.0"/>
<polygon class="l74d0" points="600000.0,7600000.0 600000.0,7215000.0 630000.0,7215000.0 630000.0,7600000.0"/>
<polygon class="l74d0" points="650000.0,10000000.0 650000.0,9765000.0 680000.0,9765000.0 680000.0,10000000.0"/>
<polygon class="l74d0" points="650000.0,9690000.0 650000.0,9500000.0 680000.0,9500000.0 680000.0,9690000.0"/>
<polygon class="l74d0" points="650000.0,9440000.0 650000.0,9325000.0 680000.0,9325000.0 680000.0,9440000.0"/>
<polygon class="l74d0" points="650000.0,9290000.0 650000.0,8780000.0 680000.0,8780000.0 680000.0,9290000.0"/>
<polygon class="l74d0" points="650000.0,8470000.0 650000.0,8370000.0 680000.0,8370000.0 680000.0,8470000.0"/>
<polygon class="l74d0" points="650000.0,7860000.0 650000.0,7630000.0 680000.0,7630000.0 680000.0,7860000.0"/>
<polygon class="l74d0" points="650000.0,7365000.0 650000.0,7300000.0 680000.0,7300000.0 680000.0,7365000.0"/>
<polygon class="l74d0" points="700000.0,10000000.0 700000.0,9765000.0 730000.0,9765000.0 730000.0,10000000.0"/>
<polygon class="l74d0" points="700000.0,9710000.0 700000.0,9505000.0 730000.0,9505000.0 730000.0,9710000.0"/>
<polygon class="l74d0" points="700000.0,9445000.0 700000.0,9315000.0 730000.0,9315000.0 730000.0,9445000.0"/>
<polygon class="l74d0" points="700000.0,9240000.0 700000.0,8755000.0 730000.0,8755000.0 730000.0,9240000.0"/>
<polygon class="l74d0" points="700000.0,8590000.0 700000.0,8345000.0 730000.0,8345000.0 730000.0,8590000.0"/>
<polygon class="l74d0" points="700000.0,7860000.0 700000.0,7630000.0 730000.0,7630000.0 730000.0,7860000.0"/>
<polygon class="l74d0" points="700000.0,7450000.0 700000.0,7385000.0 730000.0,7385000.0 730000.0,7450000.0"/>
<polygon class="l74d0" points="700000.0,7280000.0 700000.0,7215000.0 730000.0,7215000.0 730000.0,7280000.0"/>
<polygon class="l74d0" points="750000.0,10000000.0 750000.0,9765000.0 780000.0,9765000.0 780000.0,10000000.0"/>
<polygon class="l74d0" points="750000.0,9725000.0 750000.0,9505000.0 780000.0,9505000.0 780000.0,9725000.0"/>
<polygon class="l74d0" points="750000.0,9450000.0 750000.0,9310000.0 780000.0,9310000.0 780000.0,9450000.0"/>
<polygon class="l74d0" points="750000.0,9185000.0 750000.0,8725000.0 780000.0,8725000.0 780000.0,9185000.0"/>
<polygon class="l74d0" points="750000.0,8700000.0 750000.0,8330000.0 780000.0,8330000.0 780000.0,8700000.0"/>
<polygon class="l74d0" points="750000.0,7860000.0 750000.0,7630000.0 780000.0,7630000.0 780000.0,7860000.0"/>
<polygon class="l74d0" points="750000.0,7450000.0 750000.0,7385000.0 780000.0,7385000.0 780000.0,7450000.0"/>
<polygon class="l74d0" points="750000.0,7280000.0 750000.0,7215000.0 780000.0,7215000.0 780000.0,7280000.0"/>
<polygon class="l74d0" points="800000.0,10000000.0 800000.0,9765000.0 830000.0,9765000.0 830000.0,10000000.0"/>
<polygon class="l74d0" points="800000.0,9735000.0 800000.0,9500000.0 830000.0,9500000.0 830000.0,9735000.0"/>
<polygon class="l74d0" points="800000.0,9450000.0 800000.0,9310000.0 830000.0,9310000.0 830000.0,9450000.0"/>
<polygon class="l74d0" points="800000.0,9250000.0 800000.0,9185000.0 830000.0,9185000.0 830000.0,9250000.0"/>
<polygon class="l74d0" points="800000.0,9135000.0 800000.0,7920000.0 830000.0,7920000.0 830000.0,9135000.0"/>
<polygon class="l74d0" points="800000.0,7860000.0 800000.0,7630000.0 830000.0,7630000.0 830000.0,7860000.0"/>
<polygon class="l74d0" points="800000.0,7365000.0 800000.0,7300000.0 830000.0,7300000.0 830000.0,7365000.0"/>
<polygon class="l74d0" points="850000.0,10000000.0 850000.0,9765000.0 880000.0,9765000.0 880000.0,10000000.0"/>
<polygon class="l74d0" points="850000.0,9735000.0 850000.0,9685000.0 880000.0,9685000.0 880000.0,9735000.0"/>
<polygon class="l74d0" points="850000.0,9655000.0 850000.0,9490000.0 880000.0,9490000.0 880000.0,9655000.0"/>
<polygon class="l74d0" points="850000.0,9440000.0 850000.0,9315000.0 880000.0,9315000.0 880000.0,9440000.0"/>
<polygon class="l74d0" points="850000.0,9250000.0 850000.0,9135000.0 880000.0,9135000.0 880000.0,9250000.0"/>
<polygon class="l74d0" points="850000.0,9085000.0 850000.0,8955000.0 880000.0,8955000.0 880000.0,9085000.0"/>
<polygon class="l74d0" points="850000.0,8805000.0 850000.0,7905000.0 880000.0,7905000.0 880000.0,8805000.0"/>
<polygon class="l74d0" points="850000.0,7865000.0 850000.0,7630000.0 880000.0,7630000.0 880000.0,7865000.0"/>
<polygon class="l74d0" points="850000.0,7435000.0 850000.0,7235000.0 880000.0,7235000.0 880000.0,7435000.0"/>
<polygon class="l74d0" points="850000.0,7190000.0 850000.0,7135000.0 880000.0,7135000.0 880000.0,7190000.0"/>
<polygon class="l74d0" points="900000.0,10000000.0 900000.0,9765000.0 930000.0,9765000.0 930000.0,10000000.0"/>
<polygon class="l74d0" points="900000.0,9435000.0 900000.0,9400000.0 930000.0,9400000.0 930000.0,9435000.0"/>
<polygon class="l74d0" points="900000.0,9245000.0 900000.0,9085000.0 930000.0,9085000.0 930000.0,9245000.0"/>
<polygon class="l74d0" points="900000.0,8960000.0 900000.0,8865000.0 930000.0,8865000.0 930000.0,8960000.0"/>
<polygon class="l74d0" points="900000.0,8760000.0 900000.0,7895000.0 930000.0,7895000.0 930000.0,8760000.0"/>
<polygon class="l74d0" points="900000.0,7860000.0 900000.0,7630000.0 930000.0,7630000.0 930000.0,7860000.0"/>
<polygon class="l74d0" points="900000.0,7450000.0 900000.0,7405000.0 930000.0,7405000.0 930000.0,7450000.0"/>
<polygon class="l74d0" points="900000.0,7255000.0 900000.0,7215000.0 930000.0,7215000.0 930000.0,7255000.0"/>
<polygon class="l74d0" points="900000.0,7155000.0 900000.0,7120000.0 930000.0,7120000.0 930000.0,7155000.0"/>
<polygon class="l74d0" points="950000.0,10000000.0 950000.0,9765000.0 980000.0,9765000.0 980000.0,10000000.0"/>
<polygon class="l74d0" points="950000.0,9240000.0 950000.0,8855000.0 980000.0,8855000.0 980000.0,9240000.0"/>
<polygon class="l74d0" points="950000.0,8720000.0 950000.0,8335000.0 980000.0,8335000.0 980000.0,8720000.0"/>
<polygon class="l74d0" points="950000.0,8300000.0 950000.0,7880000.0 980000.0,7880000.0 980000.0,8300000.0"/>
<polygon class="l74d0" points="950000.0,7855000.0 950000.0,7630000.0 980000.0,7630000.0 980000.0,7855000.0"/>
<polygon class="l74d0" points="950000.0,7450000.0 950000.0,7130000.0 980000.0,7130000.0 980000.0,7450000.0"/>
<polygon class="l74d0" points="1000000.0,10000000.0 1000000.0,9765000.0 1030000.0,9765000.0 1030000.0,10000000.0"/>
<polygon class="l74d0" points="1000000.0,9235000.0 1000000.0,8845000.0 1030000.0,8845000.0 1030000.0,9235000.0"/>
<polygon class="l74d0" points="1000000.0,8675000.0 1000000.0,8425000.0 1030000.0,8425000.0 1030000.0,8675000.0"/>
<polygon class="l74d0" points="1000000.0,8295000.0 1000000.0,7630000.0 1030000.0,7630000.0 1030000.0,8295000.0"/>
<polygon class="l74d0" points="1050000.0,10000000.0 1050000.0,9765000.0 1080000.0,9765000.0 1080000.0,10000000.0"/>
<polygon class="l74d0" points="1050000.0,9230000.0 1050000.0,8840000.0 1080000.0,8840000.0 1080000.0,9230000.0"/>
<polygon class="l74d0" points="1050000.0,8635000.0 1050000.0,8515000.0 1080000.0,8515000.0 1080000.0,8635000.0"/>
<polygon class="l74d0" points="1050000.0,8295000.0 1050000.0,7630000.0 1080000.0,7630000.0 1080000.0,8295000.0"/>
<polygon class="l74d0" points="1050000.0,7565000.0 1050000.0,7215000.0 1080000.0,7215000.0 1080000.0,7565000.0"/>
<polygon class="l74d0" points="1100000.0,10000000.0 1100000.0,9765000.0 1130000.0,9765000.0 1130000.0,10000000.0"/>
<polygon class="l74d0" points="1100000.0,9230000.0 1100000.0,8835000.0 1130000.0,8835000.0 1130000.0,9230000.0"/>
<polygon class="l74d0" points="1100000.0,8295000.0 1100000.0,7630000.0 1130000.0,7630000.0 1130000.0,8295000.0"/>
<polygon class="l74d0" points="1100000.0,7520000.0 1100000.0,7315000.0 1130000.0,7315000.0 1130000.0,7520000.0"/>
<polygon class="l74d0" points="1150000.0,10000000.0 1150000.0,9765000.0 1180000.0,9765000.0 1180000.0,10000000.0"/>
<polygon class="l74d0" points="1150000.0,9170000.0 1150000.0,8835000.0 1180000.0,8835000.0 1180000.0,9170000.0"/>
<polygon class="l74d0" points="1150000.0,8290000.0 1150000.0,7630000.0 1180000.0,7630000.0 1180000.0,8290000.0"/>
<polygon class="l74d0" points="1150000.0,7405000.0 1150000.0,7220000.0 1180000.0,7220000.0 1180000.0,7405000.0"/>
<polygon class="l74d0" points="1200000.0,10000000.0 1200000.0,9765000.0 1230000.0,9765000.0 1230000.0,10000000.0"/>
<polygon class="l74d0" points="1200000.0,9060000.0 1200000.0,8835000.0 1230000.0,8835000.0 1230000.0,9060000.0"/>
<polygon class="l74d0" points="1200000.0,8160000.0 1200000.0,7630000.0 1230000.0,7630000.0 1230000.0,8160000.0"/>
<polygon class="l74d0" points="1200000.0,7565000.0 1200000.0,7320000.0 1230000.0,7320000.0 1230000.0,7565000.0"/>
<polygon class="l74d0" points="1250000.0,10000000.0 1250000.0,9765000.0 1280000.0,9765000.0 1280000.0,10000000.0"/>
<polygon class="l74d0" points="1250000.0,8955000.0 1250000.0,8835000.0 1280000.0,8835000.0 1280000.0,8955000.0"/>
<polygon class="l74d0" points="1250000.0,7955000.0 1250000.0,7630000.0 1280000.0,7630000.0 1280000.0,7955000.0"/>
<polygon class="l74d0" points="1250000.0,7300000.0 1250000.0,7220000.0 1280000.0,7220000.0 1280000.0,7300000.0"/>
<polygon class="l74d0" points="1300000.0,10000000.0 1300000.0,9765000.0 1330000.0,9765000.0 1330000.0,10000000.0"/>
<polygon class="l74d0" points="1300000.0,8905000.0 1300000.0,8765000.0 1330000.0,8765000.0 1330000.0,8905000.0"/>
<polygon class="l74d0" points="1300000.0,7865000.0 1300000.0,7630000.0 1330000.0,7630000.0 1330000.0,7865000.0"/>
<polygon class="l74d0" points="1300000.0,7545000.0 1300000.0,7500000.0 1330000.0,7500000.0 1330000.0,7545000.0"/>
<polygon class="l74d0" points="1300000.0,7445000.0 1300000.0,7220000.0 1330000.0,7220000.0 1330000.0,7445000.0"/>
<polygon class="l74d0" points="1350000.0,10000000.0 1350000.0,9765000.0 1380000.0,9765000.0 1380000.0,10000000.0"/>
<polygon class="l74d0" points="1350000.0,8940000.0 1350000.0,8690000.0 1380000.0,8690000.0 1380000.0,8940000.0"/>
<polygon class="l74d0" points="1350000.0,7860000.0 1350000.0,7630000.0 1380000.0,7630000.0 1380000.0,7860000.0"/>
<polygon class="l74d0" points="1400000.0,10000000.0 1400000.0,9765000.0 1430000.0,9765000.0 1430000.0,10000000.0"/>
<polygon class="l74d0" points="1400000.0,8970000.0 1400000.0,8580000.0 1430000.0,8580000.0 1430000.0,8970000.0"/>
<polygon class="l74d0" points="1400000.0,7865000.0 1400000.0,7630000.0 1430000.0,7630000.0 1430000.0,7865000.0"/>
<polygon class="l74d0" points="1400000.0,7600000.0 1400000.0,7215000.0 1430000.0,7215000.0 1430000.0,7600000.0"/>
<polygon class="l74d0" points="1450000.0,10000000.0 1450000.0,9765000.0 1480000.0,9765000.0 1480000.0,10000000.0"/>
<polygon class="l74d0" points="1450000.0,9000000.0 1450000.0,8560000.0 1480000.0,8560000.0 1480000.0,9000000.0"/>
<polygon class="l74d0" points="1450000.0,7865000.0 1450000.0,7630000.0 1480000.0,7630000.0 1480000.0,7865000.0"/>
<polygon class="l74d0" points="1450000.0,7405000.0 1450000.0,7280000.0 1480000.0,7280000.0 1480000.0,7405000.0"/>
<polygon class="l74d0" points="1500000.0,10000000.0 1500000.0,9765000.0 1530000.0,9765000.0 1530000.0,10000000.0"/>
<polygon class="l74d0" points="1500000.0,9030000.0 1500000.0,8580000.0 1530000.0,8580000.0 1530000.0,9030000.0"/>
<polygon class="l74d0" points="1500000.0,7865000.0 1500000.0,7630000.0 1530000.0,7630000.0 1530000.0,7865000.0"/>
<polygon class="l74d0" points="1500000.0,7450000.0 1500000.0,7390000.0 1530000.0,7390000.0 1530000.0,7450000.0"/>
<polygon class="l74d0" points="1500000.0,7295000.0 1500000.0,7215000.0 1530000.0,7215000.0 1530000.0,7295000.0"/>
<polygon class="l74d0" points="1550000.0,10000000.0 1550000.0,9765000.0 1580000.0,9765000.0 1580000.0,10000000.0"/>
<polygon class="l74d0" points="1550000.0,9045000.0 1550000.0,8605000.0 1580000.0,8605000.0 1580000.0,9045000.0"/>
<polygon class="l74d0" points="1550000.0,7865000.0 1550000.0,7630000.0 1580000.0,7630000.0 1580000.0,7865000.0"/>
<polygon class="l74d0" points="1600000.0,10000000.0 1600000.0,9765000.0 1630000.0,9765000.0 1630000.0,10000000.0"/>
<polygon class="l74d0" points="1600000.0,9000000.0 1600000.0,8635000.0 1630000.0,8635000.0 1630000.0,9000000.0"/>
<polygon class="l74d0" points="1600000.0,7865000.0 1600000.0,7630000.0 1630000.0,7630000.0 1630000.0,7865000.0"/>
<polygon class="l74d0" points="1600000.0,7450000.0 1600000.0,7220000.0 1630000.0,7220000.0 1630000.0,7450000.0"/>
<polygon class="l74d0" points="1650000.0,10000000.0 1650000.0,9765000.0 1680000.0,9765000.0 1680000.0,10000000.0"/>
<polygon class="l74d0" points="1650000.0,8945000.0 1650000.0,8670000.0 1680000.0,8670000.0 1680000.0,8945000.0"/>
<polygon class="l74d0" points="1650000.0,7865000.0 1650000.0,7630000.0 1680000.0,7630000.0 1680000.0,7865000.0"/>
<polygon class="l74d0" points="1650000.0,7450000.0 1650000.0,7400000.0 1680000.0,7400000.0 1680000.0,7450000.0"/>
<polygon class="l74d0" points="1650000.0,7265000.0 1650000.0,7215000.0 1680000.0,7215000.0 1680000.0,7265000.0"/>
<polygon class="l74d0" points="1700000.0,10000000.0 1700000.0,9765000.0 1730000.0,9765000.0 1730000.0,10000000.0"/>
<polygon class="l74d0" points="1700000.0,8890000.0 1700000.0,8710000.0 1730000.0,8710000.0 1730000.0,8890000.0"/>
<polygon class="l74d0" points="1700000.0,7865000.0 1700000.0,7630000.0 1730000.0,7630000.0 1730000.0,7865000.0"/>
<polygon class="l74d0" points="1700000.0,7390000.0 1700000.0,7275000.0 1730000.0,7275000.0 1730000.0,7390000.0"/>
<polygon class="l74d0" points="1750000.0,10000000.0 1750000.0,9765000.0 1780000.0,9765000.0 1780000.0,10000000.0"/>
<polygon class="l74d0" points="1750000.0,8860000.0 1750000.0,8740000.0 1780000.0,8740000.0 1780000.0,8860000.0"/>
<polygon class="l74d0" points="1750000.0,7865000.0 1750000.0,7630000.0 1780000.0,7630000.0 1780000.0,7865000.0"/>
<polygon class="l74d0" points="1750000.0,7260000.0 1750000.0,7220000.0 1780000.0,7220000.0 1780000.0,7260000.0"/>
<polygon class="l74d0" points="1800000.0,10000000.0 1800000.0,9765000.0 1830000.0,9765000.0 1830000.0,10000000.0"/>
<polygon class="l74d0" points="1800000.0,8865000.0 1800000.0,8600000.0 1830000.0,8600000.0 1830000.0,8865000.0"/>
<polygon class="l74d0" points="1800000.0,7865000.0 1800000.0,7630000.0 1830000.0,7630000.0 1830000.0,7865000.0"/>
<polygon class="l74d0" points="1850000.0,10000000.0 1850000.0,9765000.0 1880000.0,9765000.0 1880000.0,10000000.0"/>
<polygon class="l74d0" points="1850000.0,8875000.0 1850000.0,8510000.0 1880000.0,8510000.0 1880000.0,8875000.0"/>
<polygon class="l74d0" points="1850000.0,7865000.0 1850000.0,7630000.0 1880000.0,7630000.0 1880000.0,7865000.0"/>
<polygon class="l74d0" points="1850000.0,7420000.0 1850000.0,7250000.0 1880000.0,7250000.0 1880000.0,7420000.0"/>
<polygon class="l74d0" points="1900000.0,10000000.0 1900000.0,9765000.0 1930000.0,9765000.0 1930000.0,10000000.0"/>
<polygon class="l74d0" points="1900000.0,8870000.0 1900000.0,8475000.0 1930000.0,8475000.0 1930000.0,8870000.0"/>
<polygon class="l74d0" points="1900000.0,8155000.0 1900000.0,8120000.0 1930000.0,8120000.0 1930000.0,8155000.0"/>
<polygon class="l74d0" points="1900000.0,7865000.0 1900000.0,7630000.0 1930000.0,7630000.0 1930000.0,7865000.0"/>
<polygon class="l74d0" points="1900000.0,7450000.0 1900000.0,7405000.0 1930000.0,7405000.0 1930000.0,7450000.0"/>
<polygon class="l74d0" points="1900000.0,7260000.0 1900000.0,7215000.0 1930000.0,7215000.0 1930000.0,7260000.0"/>
<polygon class="l74d0" points="1950000.0,10000000.0 1950000.0,9765000.0 1980000.0,9765000.0 1980000.0,10000000.0"/>
<polygon class="l74d0" points="1950000.0,8865000.0 1950000.0,8470000.0 1980000.0,8470000.0 1980000.0,8865000.0"/>
<polygon class="l74d0" points="1950000.0,8225000.0 1950000.0,8100000.0 1980000.0,8100000.0 1980000.0,8225000.0"/>
<polygon class="l74d0" points="1950000.0,7865000.0 1950000.0,7630000.0 1980000.0,7630000.0 1980000.0,7865000.0"/>
<polygon class="l74d0" points="2000000.0,10000000.0 2000000.0,9765000.0 2030000.0,9765000.0 2030000.0,10000000.0"/>
<polygon class="l74d0" points="2000000.0,8850000.0 2000000.0,8460000.0 2030000.0,8460000.0 2030000.0,8850000.0"/>
<polygon class="l74d0" points="2000000.0,8310000.0 2000000.0,8065000.0 2030000.0,8065000.0 2030000.0,8310000.0"/>
<polygon class="l74d0" points="2000000.0,7865000.0 2000000.0,7630000.0 2030000.0,7630000.0 2030000.0,7865000.0"/>
<polygon class="l74d0" points="2000000.0,7440000.0 2000000.0,7225000.0 2030000.0,7225000.0 2030000.0,7440000.0"/>
<polygon class="l74d0" points="2050000.0,10000000.0 2050000.0,9765000.0 2080000.0,9765000.0 2080000.0,10000000.0"/>
<polygon class="l74d0" points="2050000.0,8830000.0 2050000.0,8020000.0 2080000.0,8020000.0 2080000.0,8830000.0"/>
<polygon class="l74d0" points="2050000.0,7865000.0 2050000.0,7630000.0 2080000.0,7630000.0 2080000.0,7865000.0"/>
<polygon class="l74d0" points="2050000.0,7450000.0 2050000.0,7410000.0 2080000.0,7410000.0 2080000.0,7450000.0"/>
<polygon class="l74d0" points="2050000.0,7260000.0 2050000.0,7215000.0 2080000.0,7215000.0 2080000.0,7260000.0"/>
<polygon class="l74d0" points="2100000.0,10000000.0 2100000.0,9765000.0 2130000.0,9765000.0 2130000.0,10000000.0"/>
<polygon class="l74d0" points="2100000.0,8815000.0 2100000.0,7965000.0 2130000.0,7965000.0 2130000.0,8815000.0"/>
<polygon class="l74d0" points="2100000.0,7865000.0 2100000.0,7630000.0 2130000.0,7630000.0 2130000.0,7865000.0"/>
<polygon class="l74d0" points="2100000.0,7415000.0 2100000.0,7255000.0 2130000.0,7255000.0 2130000.0,7415000.0"/>
<polygon class="l74d0" points="2150000.0,10000000.0 2150000.0,7630000.0 2180000.0,7630000.0 2180000.0,10000000.0"/>
<polygon class="l74d0" points="2200000.0,10000000.0 2200000.0,7630000.0 2230000.0,7630000.0 2230000.0,10000000.0"/>
<polygon class="l74d0" points="2200000.0,7450000.0 2200000.0,7375000.0 2230000.0,7375000.0 2230000.0,7450000.0"/>
<polygon class="l74d0" points="2200000.0,7265000.0 2200000.0,7220000.0 2230000.0,7220000.0 2230000.0,7265000.0"/>
<polygon class="l74d0" points="2250000.0,10000000.0 2250000.0,7630000.0 2280000.0,7630000.0 2280000.0,10000000.0"/>
<polygon class="l74d0" points="2250000.0,7450000.0 2250000.0,7400000.0 2280000.0,7400000.0 2280000.0,7450000.0"/>
<polygon class="l74d0" points="2300000.0,10000000.0 2300000.0,7630000.0 2330000.0,7630000.0 2330000.0,10000000.0"/>
<polygon class="l74d0" points="2300000.0,7440000.0 2300000.0,7395000.0 2330000.0,7395000.0 2330000.0,7440000.0"/>
<polygon class="l74d0" points="2350000.0,10000000.0 2350000.0,7630000.0 2380000.0,7630000.0 2380000.0,10000000.0"/>
<polygon class="l74d0" points="2350000.0,7450000.0 2350000.0,7220000.0 2380000.0,7220000.0 2380000.0,7450000.0"/>
</g>
</svg>