<?xml version="1.0" encoding="UTF-8"?>
<svg xmlns="http://www.w3.org/2000/svg" xmlns:xlink="http://www.w3.org/1999/xlink"
     width="5829015.0" height="10989165.0" viewBox="-499507.5 -10499507.5 5829015.0 10989165.0">
<defs>
<style type="text/css">
.l74d0 {stroke: rgb(158, 42, 255); fill: rgb(158, 42, 255); fill-opacity: 0.5;}
</style>
</defs>
<rect x="-499507.5" y="-10499507.5" width="5829015.0" height="10989165.0" fill="#222" stroke="none"/>
<g id="AL_AP_artwork_test" transform="scale(1 -1)">
<polygon class="l74d0" points="2050.0,9850.0 2080.0,9850.0 2080.0,9880.0 2050.0,9880.0"/>
<polygon class="l74d0" points="2000.0,9850.0 2030.0,9850.0 2030.0,9880.0 2000.0,9880.0"/>
<polygon class="l74d0" points="1950.0,9850.0 1980.0,9850.0 1980.0,9880.0 1950.0,9880.0"/>
<polygon class="l74d0" points="1900.0,9850.0 1930.0,9850.0 1930.0,9880.0 1900.0,9880.0"/>
<polygon class="l74d0" points="1850.0,9850.0 1880.0,9850.0 1880.0,9880.0 1850.0,9880.0"/>
<polygon class="l74d0" points="1800.0,9850.0 1830.0,9850.0 1830.0,9880.0 1800.0,9880.0"/>
<polygon class="l74d0" points="1750.0,9850.0 1780.0,9850.0 1780.0,9880.0 1750.0,9880.0"/>
<polygon class="l74d0" points="1700.0,9850.0 1730.0,9850.0 1730.0,9880.0 1700.0,9880.0"/>
<polygon class="l74d0" points="1650.0,9850.0 1680.0,9850.0 1680.0,9880.0 1650.0,9880.0"/>
<polygon class="l74d0" points="1600.0,9850.0 1630.0,9850.0 1630.0,9880.0 1600.0,9880.0"/>
<polygon class="l74d0" points="1550.0,9850.0 1580.0,9850.0 1580.0,9880.0 1550.0,9880.0"/>
<polygon class="l74d0" points="1500.0,9850.0 1530.0,9850.0 1530.0,9880.0 1500.0,9880.0"/>
<polygon class="l74d0" points="1450.0,9850.0 1480.0,9850.0 1480.0,9880.0 1450.0,9880.0"/>
<polygon class="l74d0" points="1400.0,9850.0 1430.0,9850.0 1430.0,9880.0 1400.0,9880.0"/>
<polygon class="l74d0" points="1350.0,9850.0 1380.0,9850.0 1380.0,9880.0 1350.0,9880.0"/>
<polygon class="l74d0" points="1300.0,9850.0 1330.0,9850.0 1330.0,9880.0 1300.0,9880.0"/>
<polygon class="l74d0" points="1250.0,9850.0 1280.0,9850.0 1280.0,9880.0 1250.0,9880.0"/>
<polygon class="l74d0" points="1200.0,9850.0 1230.0,9850.0 1230.0,9880.0 1200.0,9880.0"/>
<polygon class="l74d0" points="1750.0,9900.0 1780.0,9900.0 1780.0,9930.0 1750.0,9930.0"/>
<polygon class="l74d0" points="1800.0,9900.0 1830.0,9900.0 1830.0,9930.0 1800.0,9930.0"/>
<polygon class="l74d0" points="1850.0,9900.0 1880.0,9900.0 1880.0,9930.0 1850.0,9930.0"/>
<polygon class="l74d0" points="1900.0,9900.0 1930.0,9900.0 1930.0,9930.0 1900.0,9930.0"/>
<polygon class="l74d0" points="1950.0,9900.0 1980.0,9900.0 1980.0,9930.0 1950.0,9930.0"/>
<polygon class="l74d0" points="2000.0,9900.0 2030.0,9900.0 2030.0,9930.0 2000.0,9930.0"/>
<polygon class="l74d0" points="2050.0,9900.0 2080.0,9900.0 2080.0,9930.0 2050.0,9930.0"/>
<polygon class="l74d0" points="2100.0,9900.0 2130.0,9900.0 2130.0,9930.0 2100.0,9930.0"/>
<polygon class="l74d0" points="2150.0,9900.0 2180.0,9900.0 2180.0,9930.0 2150.0,9930.0"/>
<polygon class="l74d0" points="2200.0,9900.0 2230.0,9900.0 2230.0,9930.0 2200.0,9930.0"/>
<polygon class="l74d0" points="1700.0,9900.0 1730.0,9900.0 1730.0,9930.0 1700.0,9930.0"/>
<polygon class="l74d0" points="1650.0,9900.0 1680.0,9900.0 1680.0,9930.0 1650.0,9930.0"/>
<polygon class="l74d0" points="1600.0,9900.0 1630.0,9900.0 1630.0,9930.0 1600.0,9930.0"/>
<polygon class="l74d0" points="1550.0,9900.0 1580.0,9900.0 1580.0,9930.0 1550.0,9930.0"/>
<polygon class="l74d0" points="1500.0,9900.0 1530.0,9900.0 1530.0,9930.0 1500.0,9930.0"/>
<polygon class="l74d0" points="1450.0,9900.0 1480.0,9900.0 1480.0,9930.0 1450.0,9930.0"/>
<polygon class="l74d0" points="1400.0,9900.0 1430.0,9900.0 1430.0,9930.0 1400.0,9930.0"/>
<polygon class="l74d0" points="1350.0,9900.0 1380.0,9900.0 1380.0,9930.0 1350.0,9930.0"/>
<polygon class="l74d0" points="1300.0,9900.0 1330.0,9900.0 1330.0,9930.0 1300.0,9930.0"/>
<polygon class="l74d0" points="1250.0,9900.0 1280.0,9900.0 1280.0,9930.0 1250.0,9930.0"/>
<polygon class="l74d0" points="1200.0,9900.0 1230.0,9900.0 1230.0,9930.0 1200.0,9930.0"/>
<polygon class="l74d0" points="0.0,10000000.0 0.0,5265000.0 30000.0,5265000.0 30000.0,10000000.0"/>
<polygon class="l74d0" points="0.0,4525000.0 0.0,4430000.0 30000.0,4430000.0 30000.0,4525000.0"/>
<polygon class="l74d0" points="50000.0,10000000.0 50000.0,5265000.0 80000.0,5265000.0 80000.0,10000000.0"/>
<polygon class="l74d0" points="50000.0,4740000.0 50000.0,4430000.0 80000.0,4430000.0 80000.0,4740000.0"/>
<polygon class="l74d0" points="100000.0,10000000.0 100000.0,5265000.0 130000.0,5265000.0 130000.0,10000000.0"/>
<polygon class="l74d0" points="100000.0,4970000.0 100000.0,4560000.0 130000.0,4560000.0 130000.0,4970000.0"/>
<polygon class="l74d0" points="150000.0,10000000.0 150000.0,5265000.0 180000.0,5265000.0 180000.0,10000000.0"/>
<polygon class="l74d0" points="150000.0,5135000.0 150000.0,4845000.0 180000.0,4845000.0 180000.0,5135000.0"/>
<polygon class="l74d0" points="150000.0,4640000.0 150000.0,4565000.0 180000.0,4565000.0 180000.0,4640000.0"/>
<polygon class="l74d0" points="200000.0,10000000.0 200000.0,5265000.0 230000.0,5265000.0 230000.0,10000000.0"/>
<polygon class="l74d0" points="200000.0,5130000.0 200000.0,4785000.0 230000.0,4785000.0 230000.0,5130000.0"/>
<polygon class="l74d0" points="200000.0,4640000.0 200000.0,4565000.0 230000.0,4565000.0 230000.0,4640000.0"/>
<polygon class="l74d0" points="250000.0,10000000.0 250000.0,5265000.0 280000.0,5265000.0 280000.0,10000000.0"/>
<polygon class="l74d0" points="250000.0,4940000.0 250000.0,4510000.0 280000.0,4510000.0 280000.0,4940000.0"/>
<polygon class="l74d0" points="300000.0,10000000.0 300000.0,5265000.0 330000.0,5265000.0 330000.0,10000000.0"/>
<polygon class="l74d0" points="300000.0,4710000.0 300000.0,4430000.0 330000.0,4430000.0 330000.0,4710000.0"/>
<polygon class="l74d0" points="350000.0,10000000.0 350000.0,5265000.0 380000.0,5265000.0 380000.0,10000000.0"/>
<polygon class="l74d0" points="350000.0,4470000.0 350000.0,4435000.0 380000.0,4435000.0 380000.0,4470000.0"/>
<polygon class="l74d0" points="400000.0,10000000.0 400000.0,5265000.0 430000.0,5265000.0 430000.0,10000000.0"/>
<polygon class="l74d0" points="450000.0,10000000.0 450000.0,5265000.0 480000.0,5265000.0 480000.0,10000000.0"/>
<polygon class="l74d0" points="450000.0,4905000.0 450000.0,4430000.0 480000.0,4430000.0 480000.0,4905000.0"/>
<polygon class="l74d0" points="500000.0,10000000.0 500000.0,9525000.0 530000.0,9525000.0 530000.0,10000000.0"/>
<polygon class="l74d0" points="500000.0,8080000.0 500000.0,7835000.0 530000.0,7835000.0 530000.0,8080000.0"/>
<polygon class="l74d0" points="500000.0,7620000.0 500000.0,7460000.0 530000.0,7460000.0 530000.0,7620000.0"/>
<polygon class="l74d0" points="500000.0,5730000.0 500000.0,5265000.0 530000.0,5265000.0 530000.0,5730000.0"/>
<polygon class="l74d0" points="500000.0,4880000.0 500000.0,4790000.0 530000.0,4790000.0 530000.0,4880000.0"/>
<polygon class="l74d0" points="550000.0,10000000.0 550000.0,9530000.0 580000.0,9530000.0 580000.0,10000000.0"/>
<polygon class="l74d0" points="550000.0,8135000.0 550000.0,7930000.0 580000.0,7930000.0 580000.0,8135000.0"/>
<polygon class="l74d0" points="550000.0,7675000.0 550000.0,7555000.0 580000.0,7555000.0 580000.0,7675000.0"/>
<polygon class="l74d0" points="550000.0,5725000.0 550000.0,5265000.0 580000.0,5265000.0 580000.0,5725000.0"/>
<polygon class="l74d0" points="550000.0,4900000.0 550000.0,4830000.0 580000.0,4830000.0 580000.0,4900000.0"/>
<polygon class="l74d0" points="600000.0,10000000.0 600000.0,9530000.0 630000.0,9530000.0 630000.0,10000000.0"/>
<polygon class="l74d0" points="600000.0,8235000.0 600000.0,8020000.0 630000.0,8020000.0 630000.0,8235000.0"/>
<polygon class="l74d0" points="600000.0,7780000.0 600000.0,7655000.0 630000.0,7655000.0 630000.0,7780000.0"/>
<polygon class="l74d0" points="600000.0,5725000.0 600000.0,5265000.0 630000.0,5265000.0 630000.0,5725000.0"/>
<polygon class="l74d0" points="600000.0,4905000.0 600000.0,4440000.0 630000.0,4440000.0 630000.0,4905000.0"/>
<polygon class="l74d0" points="650000.0,10000000.0 650000.0,9530000.0 680000.0,9530000.0 680000.0,10000000.0"/>
<polygon class="l74d0" points="650000.0,8325000.0 650000.0,8115000.0 680000.0,8115000.0 680000.0,8325000.0"/>
<polygon class="l74d0" points="650000.0,7880000.0 650000.0,7750000.0 680000.0,7750000.0 680000.0,7880000.0"/>
<polygon class="l74d0" points="650000.0,5725000.0 650000.0,5265000.0 680000.0,5265000.0 680000.0,5725000.0"/>
<polygon class="l74d0" points="650000.0,4890000.0 650000.0,4430000.0 680000.0,4430000.0 680000.0,4890000.0"/>
<polygon class="l74d0" points="700000.0,10000000.0 700000.0,9530000.0 730000.0,9530000.0 730000.0,10000000.0"/>
<polygon class="l74d0" points="700000.0,8420000.0 700000.0,8205000.0 730000.0,8205000.0 730000.0,8420000.0"/>
<polygon class="l74d0" points="700000.0,7980000.0 700000.0,7845000.0 730000.0,7845000.0 730000.0,7980000.0"/>
<polygon class="l74d0" points="700000.0,5725000.0 700000.0,5265000.0 730000.0,5265000.0 730000.0,5725000.0"/>
<polygon class="l74d0" points="750000.0,10000000.0 750000.0,9530000.0 780000.0,9530000.0 780000.0,10000000.0"/>
<polygon class="l74d0" points="750000.0,8515000.0 750000.0,8295000.0 780000.0,8295000.0 780000.0,8515000.0"/>
<polygon class="l74d0" points="750000.0,8080000.0 750000.0,7945000.0 780000.0,7945000.0 780000.0,8080000.0"/>
<polygon class="l74d0" points="750000.0,5725000.0 750000.0,5265000.0 780000.0,5265000.0 780000.0,5725000.0"/>
<polygon class="l74d0" points="800000.0,10000000.0 800000.0,9530000.0 830000.0,9530000.0 830000.0,10000000.0"/>
<polygon class="l74d0" points="800000.0,8610000.0 800000.0,8390000.0 830000.0,8390000.0 830000.0,8610000.0"/>
<polygon class="l74d0" points="800000.0,8180000.0 800000.0,8040000.0 830000.0,8040000.0 830000.0,8180000.0"/>
<polygon class="l74d0" points="800000.0,5725000.0 800000.0,5265000.0 830000.0,5265000.0 830000.0,5725000.0"/>
<polygon class="l74d0" points="800000.0,4850000.0 800000.0,4485000.0 830000.0,4485000.0 830000.0,4850000.0"/>
<polygon class="l74d0" points="850000.0,10000000.0 850000.0,9530000.0 880000.0,9530000.0 880000.0,10000000.0"/>
<polygon class="l74d0" points="850000.0,8705000.0 850000.0,8480000.0 880000.0,8480000.0 880000.0,8705000.0"/>
<polygon class="l74d0" points="850000.0,8280000.0 850000.0,8135000.0 880000.0,8135000.0 880000.0,8280000.0"/>
<polygon class="l74d0" points="850000.0,5725000.0 850000.0,5265000.0 880000.0,5265000.0 880000.0,5725000.0"/>
<polygon class="l74d0" points="850000.0,4900000.0 850000.0,4430000.0 880000.0,4430000.0 880000.0,4900000.0"/>
<polygon class="l74d0" points="900000.0,10000000.0 900000.0,9530000.0 930000.0,9530000.0 930000.0,10000000.0"/>
<polygon class="l74d0" points="900000.0,8795000.0 900000.0,8570000.0 930000.0,8570000.0 930000.0,8795000.0"/>
<polygon class="l74d0" points="900000.0,8375000.0 900000.0,8235000.0 930000.0,8235000.0 930000.0,8375000.0"/>
<polygon class="l74d0" points="900000.0,5725000.0 900000.0,5265000.0 930000.0,5265000.0 930000.0,5725000.0"/>
<polygon class="l74d0" points="900000.0,4905000.0 900000.0,4825000.0 930000.0,4825000.0 930000.0,4905000.0"/>
<polygon class="l74d0" points="900000.0,4510000.0 900000.0,4425000.0 930000.0,4425000.0 930000.0,4510000.0"/>
<polygon class="l74d0" points="950000.0,10000000.0 950000.0,9530000.0 980000.0,9530000.0 980000.0,10000000.0"/>
<polygon class="l74d0" points="950000.0,9035000.0 950000.0,8665000.0 980000.0,8665000.0 980000.0,9035000.0"/>
<polygon class="l74d0" points="950000.0,8475000.0 950000.0,8330000.0 980000.0,8330000.0 980000.0,8475000.0"/>
<polygon class="l74d0" points="950000.0,5725000.0 950000.0,5265000.0 980000.0,5265000.0 980000.0,5725000.0"/>
<polygon class="l74d0" points="950000.0,4885000.0 950000.0,4820000.0 980000.0,4820000.0 980000.0,4885000.0"/>
<polygon class="l74d0" points="950000.0,4515000.0 950000.0,4445000.0 980000.0,4445000.0 980000.0,4515000.0"/>
<polygon class="l74d0" points="1000000.0,10000000.0 1000000.0,9530000.0 1030000.0,9530000.0 1030000.0,10000000.0"/>
<polygon class="l74d0" points="1000000.0,9145000.0 1000000.0,8395000.0 1030000.0,8395000.0 1030000.0,9145000.0"/>
<polygon class="l74d0" points="1000000.0,8030000.0 1000000.0,7745000.0 1030000.0,7745000.0 1030000.0,8030000.0"/>
<polygon class="l74d0" points="1000000.0,5725000.0 1000000.0,5265000.0 1030000.0,5265000.0 1030000.0,5725000.0"/>
<polygon class="l74d0" points="1000000.0,4900000.0 1000000.0,4430000.0 1030000.0,4430000.0 1030000.0,4900000.0"/>
<polygon class="l74d0" points="1050000.0,10000000.0 1050000.0,9530000.0 1080000.0,9530000.0 1080000.0,10000000.0"/>
<polygon class="l74d0" points="1050000.0,9210000.0 1050000.0,7715000.0 1080000.0,7715000.0 1080000.0,9210000.0"/>
<polygon class="l74d0" points="1050000.0,5725000.0 1050000.0,5265000.0 1080000.0,5265000.0 1080000.0,5725000.0"/>
<polygon class="l74d0" points="1050000.0,4900000.0 1050000.0,4435000.0 1080000.0,4435000.0 1080000.0,4900000.0"/>
<polygon class="l74d0" points="1100000.0,10000000.0 1100000.0,9530000.0 1130000.0,9530000.0 1130000.0,10000000.0"/>
<polygon class="l74d0" points="1100000.0,9255000.0 1100000.0,7690000.0 1130000.0,7690000.0 1130000.0,9255000.0"/>
<polygon class="l74d0" points="1100000.0,5725000.0 1100000.0,5265000.0 1130000.0,5265000.0 1130000.0,5725000.0"/>
<polygon class="l74d0" points="1150000.0,10000000.0 1150000.0,9530000.0 1180000.0,9530000.0 1180000.0,10000000.0"/>
<polygon class="l74d0" points="1150000.0,9290000.0 1150000.0,8915000.0 1180000.0,8915000.0 1180000.0,9290000.0"/>
<polygon class="l74d0" points="1150000.0,8830000.0 1150000.0,7660000.0 1180000.0,7660000.0 1180000.0,8830000.0"/>
<polygon class="l74d0" points="1150000.0,5725000.0 1150000.0,5265000.0 1180000.0,5265000.0 1180000.0,5725000.0"/>
<polygon class="l74d0" points="1200000.0,10000000.0 1200000.0,9530000.0 1230000.0,9530000.0 1230000.0,10000000.0"/>
<polygon class="l74d0" points="1200000.0,9320000.0 1200000.0,8950000.0 1230000.0,8950000.0 1230000.0,9320000.0"/>
<polygon class="l74d0" points="1200000.0,8850000.0 1200000.0,7630000.0 1230000.0,7630000.0 1230000.0,8850000.0"/>
<polygon class="l74d0" points="1200000.0,5725000.0 1200000.0,5265000.0 1230000.0,5265000.0 1230000.0,5725000.0"/>
<polygon class="l74d0" points="1200000.0,5200000.0 1200000.0,4430000.0 1230000.0,4430000.0 1230000.0,5200000.0"/>
<polygon class="l74d0" points="1250000.0,10000000.0 1250000.0,9530000.0 1280000.0,9530000.0 1280000.0,10000000.0"/>
<polygon class="l74d0" points="1250000.0,9350000.0 1250000.0,8970000.0 1280000.0,8970000.0 1280000.0,9350000.0"/>
<polygon class="l74d0" points="1250000.0,8865000.0 1250000.0,8675000.0 1280000.0,8675000.0 1280000.0,8865000.0"/>
<polygon class="l74d0" points="1250000.0,8650000.0 1250000.0,7605000.0 1280000.0,7605000.0 1280000.0,8650000.0"/>
<polygon class="l74d0" points="1250000.0,5725000.0 1250000.0,5265000.0 1280000.0,5265000.0 1280000.0,5725000.0"/>
<polygon class="l74d0" points="1300000.0,10000000.0 1300000.0,9530000.0 1330000.0,9530000.0 1330000.0,10000000.0"/>
<polygon class="l74d0" points="1300000.0,9370000.0 1300000.0,8990000.0 1330000.0,8990000.0 1330000.0,9370000.0"/>
<polygon class="l74d0" points="1300000.0,8875000.0 1300000.0,8660000.0 1330000.0,8660000.0 1330000.0,8875000.0"/>
<polygon class="l74d0" points="1300000.0,8610000.0 1300000.0,7575000.0 1330000.0,7575000.0 1330000.0,8610000.0"/>
<polygon class="l74d0" points="1300000.0,6890000.0 1300000.0,6790000.0 1330000.0,6790000.0 1330000.0,6890000.0"/>
<polygon class="l74d0" points="1300000.0,5725000.0 1300000.0,5265000.0 1330000.0,5265000.0 1330000.0,5725000.0"/>
<polygon class="l74d0" points="1350000.0,10000000.0 1350000.0,9530000.0 1380000.0,9530000.0 1380000.0,10000000.0"/>
<polygon class="l74d0" points="1350000.0,9390000.0 1350000.0,9005000.0 1380000.0,9005000.0 1380000.0,9390000.0"/>
<polygon class="l74d0" points="1350000.0,8880000.0 1350000.0,8640000.0 1380000.0,8640000.0 1380000.0,8880000.0"/>
<polygon class="l74d0" points="1350000.0,8560000.0 1350000.0,7550000.0 1380000.0,7550000.0 1380000.0,8560000.0"/>
<polygon class="l74d0" points="1350000.0,7000000.0 1350000.0,6720000.0 1380000.0,6720000.0 1380000.0,7000000.0"/>
<polygon class="l74d0" points="1350000.0,5725000.0 1350000.0,5265000.0 1380000.0,5265000.0 1380000.0,5725000.0"/>
<polygon class="l74d0" points="1350000.0,4825000.0 1350000.0,4510000.0 1380000.0,4510000.0 1380000.0,4825000.0"/>
<polygon class="l74d0" points="1400000.0,10000000.0 1400000.0,9530000.0 1430000.0,9530000.0 1430000.0,10000000.0"/>
<polygon class="l74d0" points="1400000.0,9410000.0 1400000.0,9015000.0 1430000.0,9015000.0 1430000.0,9410000.0"/>
<polygon class="l74d0" points="1400000.0,8885000.0 1400000.0,8630000.0 1430000.0,8630000.0 1430000.0,8885000.0"/>
<polygon class="l74d0" points="1400000.0,8505000.0 1400000.0,7520000.0 1430000.0,7520000.0 1430000.0,8505000.0"/>
<polygon class="l74d0" points="1400000.0,7115000.0 1400000.0,6705000.0 1430000.0,6705000.0 1430000.0,7115000.0"/>
<polygon class="l74d0" points="1400000.0,5725000.0 1400000.0,5265000.0 1430000.0,5265000.0 1430000.0,5725000.0"/>
<polygon class="l74d0" points="1400000.0,4890000.0 1400000.0,4445000.0 1430000.0,4445000.0 1430000.0,4890000.0"/>
<polygon class="l74d0" points="1450000.0,10000000.0 1450000.0,9530000.0 1480000.0,9530000.0 1480000.0,10000000.0"/>
<polygon class="l74d0" points="1450000.0,9430000.0 1450000.0,9015000.0 1480000.0,9015000.0 1480000.0,9430000.0"/>
<polygon class="l74d0" points="1450000.0,8890000.0 1450000.0,8625000.0 1480000.0,8625000.0 1480000.0,8890000.0"/>
<polygon class="l74d0" points="1450000.0,8455000.0 1450000.0,7490000.0 1480000.0,7490000.0 1480000.0,8455000.0"/>
<polygon class="l74d0" points="1450000.0,7235000.0 1450000.0,6685000.0 1480000.0,6685000.0 1480000.0,7235000.0"/>
<polygon class="l74d0" points="1450000.0,5725000.0 1450000.0,5265000.0 1480000.0,5265000.0 1480000.0,5725000.0"/>
<polygon class="l74d0" points="1450000.0,4905000.0 1450000.0,4820000.0 1480000.0,4820000.0 1480000.0,4905000.0"/>
<polygon class="l74d0" points="1450000.0,4510000.0 1450000.0,4425000.0 1480000.0,4425000.0 1480000.0,4510000.0"/>
<polygon class="l74d0" points="1500000.0,10000000.0 1500000.0,9530000.0 1530000.0,9530000.0 1530000.0,10000000.0"/>
<polygon class="l74d0" points="1500000.0,9440000.0 1500000.0,9015000.0 1530000.0,9015000.0 1530000.0,9440000.0"/>
<polygon class="l74d0" points="1500000.0,8895000.0 1500000.0,8625000.0 1530000.0,8625000.0 1530000.0,8895000.0"/>
<polygon class="l74d0" points="1500000.0,8405000.0 1500000.0,7465000.0 1530000.0,7465000.0 1530000.0,8405000.0"/>
<polygon class="l74d0" points="1500000.0,7355000.0 1500000.0,6665000.0 1530000.0,6665000.0 1530000.0,7355000.0"/>
<polygon class="l74d0" points="1500000.0,5725000.0 1500000.0,5265000.0 1530000.0,5265000.0 1530000.0,5725000.0"/>
<polygon class="l74d0" points="1500000.0,4905000.0 1500000.0,4820000.0 1530000.0,4820000.0 1530000.0,4905000.0"/>
<polygon class="l74d0" points="1500000.0,4510000.0 1500000.0,4425000.0 1530000.0,4425000.0 1530000.0,4510000.0"/>
<polygon class="l74d0" points="1550000.0,10000000.0 1550000.0,9530000.0 1580000.0,9530000.0 1580000.0,10000000.0"/>
<polygon class="l74d0" points="1550000.0,9455000.0 1550000.0,9010000.0 1580000.0,9010000.0 1580000.0,9455000.0"/>
<polygon class="l74d0" points="1550000.0,8900000.0 1550000.0,8625000.0 1580000.0,8625000.0 1580000.0,8900000.0"/>
<polygon class="l74d0" points="1550000.0,8500000.0 1550000.0,8445000.0 1580000.0,8445000.0 1580000.0,8500000.0"/>
<polygon class="l74d0" points="1550000.0,8350000.0 1550000.0,6645000.0 1580000.0,6645000.0 1580000.0,8350000.0"/>
<polygon class="l74d0" points="1550000.0,5725000.0 1550000.0,5265000.0 1580000.0,5265000.0 1580000.0,5725000.0"/>
<polygon class="l74d0" points="1550000.0,4885000.0 1550000.0,4445000.0 1580000.0,4445000.0 1580000.0,4885000.0"/>
<polygon class="l74d0" points="1600000.0,10000000.0 1600000.0,9530000.0 1630000.0,9530000.0 1630000.0,10000000.0"/>
<polygon class="l74d0" points="1600000.0,9465000.0 1600000.0,9005000.0 1630000.0,9005000.0 1630000.0,9465000.0"/>
<polygon class="l74d0" points="1600000.0,8900000.0 1600000.0,8620000.0 1630000.0,8620000.0 1630000.0,8900000.0"/>
<polygon class="l74d0" points="1600000.0,8505000.0 1600000.0,8390000.0 1630000.0,8390000.0 1630000.0,8505000.0"/>
<polygon class="l74d0" points="1600000.0,8300000.0 1600000.0,5850000.0 1630000.0,5850000.0 1630000.0,8300000.0"/>
<polygon class="l74d0" points="1600000.0,5725000.0 1600000.0,5265000.0 1630000.0,5265000.0 1630000.0,5725000.0"/>
<polygon class="l74d0" points="1600000.0,4815000.0 1600000.0,4515000.0 1630000.0,4515000.0 1630000.0,4815000.0"/>
<polygon class="l74d0" points="1650000.0,10000000.0 1650000.0,9530000.0 1680000.0,9530000.0 1680000.0,10000000.0"/>
<polygon class="l74d0" points="1650000.0,9470000.0 1650000.0,8995000.0 1680000.0,8995000.0 1680000.0,9470000.0"/>
<polygon class="l74d0" points="1650000.0,8890000.0 1650000.0,8625000.0 1680000.0,8625000.0 1680000.0,8890000.0"/>
<polygon class="l74d0" points="1650000.0,8500000.0 1650000.0,8345000.0 1680000.0,8345000.0 1680000.0,8500000.0"/>
<polygon class="l74d0" points="1650000.0,8250000.0 1650000.0,5835000.0 1680000.0,5835000.0 1680000.0,8250000.0"/>
<polygon class="l74d0" points="1650000.0,5725000.0 1650000.0,5265000.0 1680000.0,5265000.0 1680000.0,5725000.0"/>
<polygon class="l74d0" points="1700000.0,10000000.0 1700000.0,9530000.0 1730000.0,9530000.0 1730000.0,10000000.0"/>
<polygon class="l74d0" points="1700000.0,9475000.0 1700000.0,8985000.0 1730000.0,8985000.0 1730000.0,9475000.0"/>
<polygon class="l74d0" points="1700000.0,8885000.0 1700000.0,8630000.0 1730000.0,8630000.0 1730000.0,8885000.0"/>
<polygon class="l74d0" points="1700000.0,8500000.0 1700000.0,8290000.0 1730000.0,8290000.0 1730000.0,8500000.0"/>
<polygon class="l74d0" points="1700000.0,8195000.0 1700000.0,7765000.0 1730000.0,7765000.0 1730000.0,8195000.0"/>
<polygon class="l74d0" points="1700000.0,7625000.0 1700000.0,5820000.0 1730000.0,5820000.0 1730000.0,7625000.0"/>
<polygon class="l74d0" points="1700000.0,5725000.0 1700000.0,5265000.0 1730000.0,5265000.0 1730000.0,5725000.0"/>
<polygon class="l74d0" points="1700000.0,4805000.0 1700000.0,4525000.0 1730000.0,4525000.0 1730000.0,4805000.0"/>
<polygon class="l74d0" points="1700000.0,4375000.0 1700000.0,4320000.0 1730000.0,4320000.0 1730000.0,4375000.0"/>
<polygon class="l74d0" points="1750000.0,10000000.0 1750000.0,9530000.0 1780000.0,9530000.0 1780000.0,10000000.0"/>
<polygon class="l74d0" points="1750000.0,9470000.0 1750000.0,9430000.0 1780000.0,9430000.0 1780000.0,9470000.0"/>
<polygon class="l74d0" points="1750000.0,9245000.0 1750000.0,8970000.0 1780000.0,8970000.0 1780000.0,9245000.0"/>
<polygon class="l74d0" points="1750000.0,8880000.0 1750000.0,8630000.0 1780000.0,8630000.0 1780000.0,8880000.0"/>
<polygon class="l74d0" points="1750000.0,8495000.0 1750000.0,8245000.0 1780000.0,8245000.0 1780000.0,8495000.0"/>
<polygon class="l74d0" points="1750000.0,8145000.0 1750000.0,8020000.0 1780000.0,8020000.0 1780000.0,8145000.0"/>
<polygon class="l74d0" points="1750000.0,7585000.0 1750000.0,5810000.0 1780000.0,5810000.0 1780000.0,7585000.0"/>
<polygon class="l74d0" points="1750000.0,5725000.0 1750000.0,5265000.0 1780000.0,5265000.0 1780000.0,5725000.0"/>
<polygon class="l74d0" points="1750000.0,4895000.0 1750000.0,4440000.0 1780000.0,4440000.0 1780000.0,4895000.0"/>
<polygon class="l74d0" points="1750000.0,4380000.0 1750000.0,4255000.0 1780000.0,4255000.0 1780000.0,4380000.0"/>
<polygon class="l74d0" points="1800000.0,10000000.0 1800000.0,9530000.0 1830000.0,9530000.0 1830000.0,10000000.0"/>
<polygon class="l74d0" points="1800000.0,8875000.0 1800000.0,8750000.0 1830000.0,8750000.0 1830000.0,8875000.0"/>
<polygon class="l74d0" points="1800000.0,8490000.0 1800000.0,8195000.0 1830000.0,8195000.0 1830000.0,8490000.0"/>
<polygon class="l74d0" points="1800000.0,7825000.0 1800000.0,7735000.0 1830000.0,7735000.0 1830000.0,7825000.0"/>
<polygon class="l74d0" points="1800000.0,7540000.0 1800000.0,5795000.0 1830000.0,5795000.0 1830000.0,7540000.0"/>
<polygon class="l74d0" points="1800000.0,5725000.0 1800000.0,5265000.0 1830000.0,5265000.0 1830000.0,5725000.0"/>
<polygon class="l74d0" points="1800000.0,4905000.0 1800000.0,4815000.0 1830000.0,4815000.0 1830000.0,4905000.0"/>
<polygon class="l74d0" points="1800000.0,4520000.0 1800000.0,4425000.0 1830000.0,4425000.0 1830000.0,4520000.0"/>
<polygon class="l74d0" points="1800000.0,4315000.0 1800000.0,4235000.0 1830000.0,4235000.0 1830000.0,4315000.0"/>
<polygon class="l74d0" points="1850000.0,10000000.0 1850000.0,9530000.0 1880000.0,9530000.0 1880000.0,10000000.0"/>
<polygon class="l74d0" points="1850000.0,8485000.0 1850000.0,8140000.0 1880000.0,8140000.0 1880000.0,8485000.0"/>
<polygon class="l74d0" points="1850000.0,8040000.0 1850000.0,7725000.0 1880000.0,7725000.0 1880000.0,8040000.0"/>
<polygon class="l74d0" points="1850000.0,7500000.0 1850000.0,5780000.0 1880000.0,5780000.0 1880000.0,7500000.0"/>
<polygon class="l74d0" points="1850000.0,5725000.0 1850000.0,5265000.0 1880000.0,5265000.0 1880000.0,5725000.0"/>
<polygon class="l74d0" points="1850000.0,4895000.0 1850000.0,4825000.0 1880000.0,4825000.0 1880000.0,4895000.0"/>
<polygon class="l74d0" points="1850000.0,4505000.0 1850000.0,4440000.0 1880000.0,4440000.0 1880000.0,4505000.0"/>
<polygon class="l74d0" points="1850000.0,4310000.0 1850000.0,4235000.0 1880000.0,4235000.0 1880000.0,4310000.0"/>
<polygon class="l74d0" points="1900000.0,10000000.0 1900000.0,9530000.0 1930000.0,9530000.0 1930000.0,10000000.0"/>
<polygon class="l74d0" points="1900000.0,8480000.0 1900000.0,7710000.0 1930000.0,7710000.0 1930000.0,8480000.0"/>
<polygon class="l74d0" points="1900000.0,7460000.0 1900000.0,6625000.0 1930000.0,6625000.0 1930000.0,7460000.0"/>
<polygon class="l74d0" points="1900000.0,6595000.0 1900000.0,5765000.0 1930000.0,5765000.0 1930000.0,6595000.0"/>
<polygon class="l74d0" points="1900000.0,5725000.0 1900000.0,5265000.0 1930000.0,5265000.0 1930000.0,5725000.0"/>
<polygon class="l74d0" points="1900000.0,4900000.0 1900000.0,4245000.0 1930000.0,4245000.0 1930000.0,4900000.0"/>
<polygon class="l74d0" points="1950000.0,10000000.0 1950000.0,9530000.0 1980000.0,9530000.0 1980000.0,10000000.0"/>
<polygon class="l74d0" points="1950000.0,8480000.0 1950000.0,7705000.0 1980000.0,7705000.0 1980000.0,8480000.0"/>
<polygon class="l74d0" points="1950000.0,7415000.0 1950000.0,6715000.0 1980000.0,6715000.0 1980000.0,7415000.0"/>
<polygon class="l74d0" points="1950000.0,6595000.0 1950000.0,5750000.0 1980000.0,5750000.0 1980000.0,6595000.0"/>
<polygon class="l74d0" points="1950000.0,5725000.0 1950000.0,5265000.0 1980000.0,5265000.0 1980000.0,5725000.0"/>
<polygon class="l74d0" points="1950000.0,4900000.0 1950000.0,4285000.0 1980000.0,4285000.0 1980000.0,4900000.0"/>
<polygon class="l74d0" points="2000000.0,10000000.0 2000000.0,9530000.0 2030000.0,9530000.0 2030000.0,10000000.0"/>
<polygon class="l74d0" points="2000000.0,8475000.0 2000000.0,7695000.0 2030000.0,7695000.0 2030000.0,8475000.0"/>
<polygon class="l74d0" points="2000000.0,7370000.0 2000000.0,6805000.0 2030000.0,6805000.0 2030000.0,7370000.0"/>
<polygon class="l74d0" points="2000000.0,6595000.0 2000000.0,5735000.0 2030000.0,5735000.0 2030000.0,6595000.0"/>
<polygon class="l74d0" points="2000000.0,5710000.0 2000000.0,5265000.0 2030000.0,5265000.0 2030000.0,5710000.0"/>
<polygon class="l74d0" points="2050000.0,10000000.0 2050000.0,9530000.0 2080000.0,9530000.0 2080000.0,10000000.0"/>
<polygon class="l74d0" points="2050000.0,8470000.0 2050000.0,7695000.0 2080000.0,7695000.0 2080000.0,8470000.0"/>
<polygon class="l74d0" points="2050000.0,7330000.0 2050000.0,6895000.0 2080000.0,6895000.0 2080000.0,7330000.0"/>
<polygon class="l74d0" points="2050000.0,6595000.0 2050000.0,5265000.0 2080000.0,5265000.0 2080000.0,6595000.0"/>
<polygon class="l74d0" points="2100000.0,10000000.0 2100000.0,9530000.0 2130000.0,9530000.0 2130000.0,10000000.0"/>
<polygon class="l74d0" points="2100000.0,8470000.0 2100000.0,7685000.0 2130000.0,7685000.0 2130000.0,8470000.0"/>
<polygon class="l74d0" points="2100000.0,7285000.0 2100000.0,6985000.0 2130000.0,6985000.0 2130000.0,7285000.0"/>
<polygon class="l74d0" points="2100000.0,6595000.0 2100000.0,5265000.0 2130000.0,5265000.0 2130000.0,6595000.0"/>
<polygon class="l74d0" points="2100000.0,4900000.0 2100000.0,4430000.0 2130000.0,4430000.0 2130000.0,4900000.0"/>
<polygon class="l74d0" points="2150000.0,10000000.0 2150000.0,9530000.0 2180000.0,9530000.0 2180000.0,10000000.0"/>
<polygon class="l74d0" points="2150000.0,8460000.0 2150000.0,7680000.0 2180000.0,7680000.0 2180000.0,8460000.0"/>
<polygon class="l74d0" points="2150000.0,7245000.0 2150000.0,7075000.0 2180000.0,7075000.0 2180000.0,7245000.0"/>
<polygon class="l74d0" points="2150000.0,6595000.0 2150000.0,5265000.0 2180000.0,5265000.0 2180000.0,6595000.0"/>
<polygon class="l74d0" points="2150000.0,5135000.0 2150000.0,4440000.0 2180000.0,4440000.0 2180000.0,5135000.0"/>
<polygon class="l74d0" points="2200000.0,10000000.0 2200000.0,9530000.0 2230000.0,9530000.0 2230000.0,10000000.0"/>
<polygon class="l74d0" points="2200000.0,8460000.0 2200000.0,7675000.0 2230000.0,7675000.0 2230000.0,8460000.0"/>
<polygon class="l74d0" points="2200000.0,6590000.0 2200000.0,5265000.0 2230000.0,5265000.0 2230000.0,6590000.0"/>
<polygon class="l74d0" points="2200000.0,5125000.0 2200000.0,4765000.0 2230000.0,4765000.0 2230000.0,5125000.0"/>
<polygon class="l74d0" points="2250000.0,10000000.0 2250000.0,9530000.0 2280000.0,9530000.0 2280000.0,10000000.0"/>
<polygon class="l74d0" points="2250000.0,8455000.0 2250000.0,7675000.0 2280000.0,7675000.0 2280000.0,8455000.0"/>
<polygon class="l74d0" points="2250000.0,6590000.0 2250000.0,5265000.0 2280000.0,5265000.0 2280000.0,6590000.0"/>
<polygon class="l74d0" points="2250000.0,4915000.0 2250000.0,4535000.0 2280000.0,4535000.0 2280000.0,4915000.0"/>
<polygon class="l74d0" points="2300000.0,10000000.0 2300000.0,9530000.0 2330000.0,9530000.0 2330000.0,10000000.0"/>
<polygon class="l74d0" points="2300000.0,8390000.0 2300000.0,7670000.0 2330000.0,7670000.0 2330000.0,8390000.0"/>
<polygon class="l74d0" points="2300000.0,6590000.0 2300000.0,5265000.0 2330000.0,5265000.0 2330000.0,6590000.0"/>
<polygon class="l74d0" points="2300000.0,4710000.0 2300000.0,4430000.0 2330000.0,4430000.0 2330000.0,4710000.0"/>
<polygon class="l74d0" points="2350000.0,10000000.0 2350000.0,9530000.0 2380000.0,9530000.0 2380000.0,10000000.0"/>
<polygon class="l74d0" points="2350000.0,8285000.0 2350000.0,7670000.0 2380000.0,7670000.0 2380000.0,8285000.0"/>
<polygon class="l74d0" points="2350000.0,6580000.0 2350000.0,5265000.0 2380000.0,5265000.0 2380000.0,6580000.0"/>
<polygon class="l74d0" points="2350000.0,4905000.0 2350000.0,4505000.0 2380000.0,4505000.0 2380000.0,4905000.0"/>
<polygon class="l74d0" points="2400000.0,10000000.0 2400000.0,9530000.0 2430000.0,9530000.0 2430000.0,10000000.0"/>
<polygon class="l74d0" points="2400000.0,8175000.0 2400000.0,7670000.0 2430000.0,7670000.0 2430000.0,8175000.0"/>
<polygon class="l74d0" points="2400000.0,6425000.0 2400000.0,5265000.0 2430000.0,5265000.0 2430000.0,6425000.0"/>
<polygon class="l74d0" points="2400000.0,5130000.0 2400000.0,4760000.0 2430000.0,4760000.0 2430000.0,5130000.0"/>
<polygon class="l74d0" points="2450000.0,10000000.0 2450000.0,9530000.0 2480000.0,9530000.0 2480000.0,10000000.0"/>
<polygon class="l74d0" points="2450000.0,8070000.0 2450000.0,7675000.0 2480000.0,7675000.0 2480000.0,8070000.0"/>
<polygon class="l74d0" points="2450000.0,6220000.0 2450000.0,5265000.0 2480000.0,5265000.0 2480000.0,6220000.0"/>
<polygon class="l74d0" points="2450000.0,5135000.0 2450000.0,4440000.0 2480000.0,4440000.0 2480000.0,5135000.0"/>
<polygon class="l74d0" points="2500000.0,10000000.0 2500000.0,9530000.0 2530000.0,9530000.0 2530000.0,10000000.0"/>
<polygon class="l74d0" points="2500000.0,7965000.0 2500000.0,7675000.0 2530000.0,7675000.0 2530000.0,7965000.0"/>
<polygon class="l74d0" points="2500000.0,6010000.0 2500000.0,5265000.0 2530000.0,5265000.0 2530000.0,6010000.0"/>
<polygon class="l74d0" points="2500000.0,4890000.0 2500000.0,4430000.0 2530000.0,4430000.0 2530000.0,4890000.0"/>
<polygon class="l74d0" points="2550000.0,10000000.0 2550000.0,9530000.0 2580000.0,9530000.0 2580000.0,10000000.0"/>
<polygon class="l74d0" points="2550000.0,7860000.0 2550000.0,7640000.0 2580000.0,7640000.0 2580000.0,7860000.0"/>
<polygon class="l74d0" points="2550000.0,5810000.0 2550000.0,5265000.0 2580000.0,5265000.0 2580000.0,5810000.0"/>
<polygon class="l74d0" points="2600000.0,10000000.0 2600000.0,9530000.0 2630000.0,9530000.0 2630000.0,10000000.0"/>
<polygon class="l74d0" points="2600000.0,7785000.0 2600000.0,7565000.0 2630000.0,7565000.0 2630000.0,7785000.0"/>
<polygon class="l74d0" points="2600000.0,5725000.0 2600000.0,5265000.0 2630000.0,5265000.0 2630000.0,5725000.0"/>
<polygon class="l74d0" points="2600000.0,5050000.0 2600000.0,5015000.0 2630000.0,5015000.0 2630000.0,5050000.0"/>
<polygon class="l74d0" points="2650000.0,10000000.0 2650000.0,9530000.0 2680000.0,9530000.0 2680000.0,10000000.0"/>
<polygon class="l74d0" points="2650000.0,7825000.0 2650000.0,7490000.0 2680000.0,7490000.0 2680000.0,7825000.0"/>
<polygon class="l74d0" points="2650000.0,5725000.0 2650000.0,5265000.0 2680000.0,5265000.0 2680000.0,5725000.0"/>
<polygon class="l74d0" points="2650000.0,5095000.0 2650000.0,4985000.0 2680000.0,4985000.0 2680000.0,5095000.0"/>
<polygon class="l74d0" points="2650000.0,4900000.0 2650000.0,4430000.0 2680000.0,4430000.0 2680000.0,4900000.0"/>
<polygon class="l74d0" points="2700000.0,10000000.0 2700000.0,9530000.0 2730000.0,9530000.0 2730000.0,10000000.0"/>
<polygon class="l74d0" points="2700000.0,7860000.0 2700000.0,7420000.0 2730000.0,7420000.0 2730000.0,7860000.0"/>
<polygon class="l74d0" points="2700000.0,5725000.0 2700000.0,5265000.0 2730000.0,5265000.0 2730000.0,5725000.0"/>
<polygon class="l74d0" points="2700000.0,5085000.0 2700000.0,5005000.0 2730000.0,5005000.0 2730000.0,5085000.0"/>
<polygon class="l74d0" points="2700000.0,4895000.0 2700000.0,4435000.0 2730000.0,4435000.0 2730000.0,4895000.0"/>
<polygon class="l74d0" points="2750000.0,10000000.0 2750000.0,9530000.0 2780000.0,9530000.0 2780000.0,10000000.0"/>
<polygon class="l74d0" points="2750000.0,7890000.0 2750000.0,7335000.0 2780000.0,7335000.0 2780000.0,7890000.0"/>
<polygon class="l74d0" points="2750000.0,5725000.0 2750000.0,5265000.0 2780000.0,5265000.0 2780000.0,5725000.0"/>
<polygon class="l74d0" points="2800000.0,10000000.0 2800000.0,9530000.0 2830000.0,9530000.0 2830000.0,10000000.0"/>
<polygon class="l74d0" points="2800000.0,7925000.0 2800000.0,7230000.0 2830000.0,7230000.0 2830000.0,7925000.0"/>
<polygon class="l74d0" points="2800000.0,5725000.0 2800000.0,5265000.0 2830000.0,5265000.0 2830000.0,5725000.0"/>
<polygon class="l74d0" points="2800000.0,5195000.0 2800000.0,4440000.0 2830000.0,4440000.0 2830000.0,5195000.0"/>
<polygon class="l74d0" points="2850000.0,10000000.0 2850000.0,9530000.0 2880000.0,9530000.0 2880000.0,10000000.0"/>
<polygon class="l74d0" points="2850000.0,7955000.0 2850000.0,7120000.0 2880000.0,7120000.0 2880000.0,7955000.0"/>
<polygon class="l74d0" points="2850000.0,5725000.0 2850000.0,5265000.0 2880000.0,5265000.0 2880000.0,5725000.0"/>
<polygon class="l74d0" points="2850000.0,5200000.0 2850000.0,4430000.0 2880000.0,4430000.0 2880000.0,5200000.0"/>
<polygon class="l74d0" points="2900000.0,10000000.0 2900000.0,9530000.0 2930000.0,9530000.0 2930000.0,10000000.0"/>
<polygon class="l74d0" points="2900000.0,7985000.0 2900000.0,7120000.0 2930000.0,7120000.0 2930000.0,7985000.0"/>
<polygon class="l74d0" points="2900000.0,5725000.0 2900000.0,5265000.0 2930000.0,5265000.0 2930000.0,5725000.0"/>
<polygon class="l74d0" points="2900000.0,4740000.0 2900000.0,4625000.0 2930000.0,4625000.0 2930000.0,4740000.0"/>
<polygon class="l74d0" points="2950000.0,10000000.0 2950000.0,9530000.0 2980000.0,9530000.0 2980000.0,10000000.0"/>
<polygon class="l74d0" points="2950000.0,8015000.0 2950000.0,7130000.0 2980000.0,7130000.0 2980000.0,8015000.0"/>
<polygon class="l74d0" points="2950000.0,5725000.0 2950000.0,5265000.0 2980000.0,5265000.0 2980000.0,5725000.0"/>
<polygon class="l74d0" points="2950000.0,4810000.0 2950000.0,4555000.0 2980000.0,4555000.0 2980000.0,4810000.0"/>
<polygon class="l74d0" points="3000000.0,10000000.0 3000000.0,9530000.0 3030000.0,9530000.0 3030000.0,10000000.0"/>
<polygon class="l74d0" points="3000000.0,8045000.0 3000000.0,7145000.0 3030000.0,7145000.0 3030000.0,8045000.0"/>
<polygon class="l74d0" points="3000000.0,5725000.0 3000000.0,5265000.0 3030000.0,5265000.0 3030000.0,5725000.0"/>
<polygon class="l74d0" points="3000000.0,4895000.0 3000000.0,4735000.0 3030000.0,4735000.0 3030000.0,4895000.0"/>
<polygon class="l74d0" points="3000000.0,4645000.0 3000000.0,4450000.0 3030000.0,4450000.0 3030000.0,4645000.0"/>
<polygon class="l74d0" points="3050000.0,10000000.0 3050000.0,9530000.0 3080000.0,9530000.0 3080000.0,10000000.0"/>
<polygon class="l74d0" points="3050000.0,8075000.0 3050000.0,7170000.0 3080000.0,7170000.0 3080000.0,8075000.0"/>
<polygon class="l74d0" points="3050000.0,5725000.0 3050000.0,5265000.0 3080000.0,5265000.0 3080000.0,5725000.0"/>
<polygon class="l74d0" points="3050000.0,4905000.0 3050000.0,4820000.0 3080000.0,4820000.0 3080000.0,4905000.0"/>
<polygon class="l74d0" points="3050000.0,4550000.0 3050000.0,4430000.0 3080000.0,4430000.0 3080000.0,4550000.0"/>
<polygon class="l74d0" points="3100000.0,10000000.0 3100000.0,9530000.0 3130000.0,9530000.0 3130000.0,10000000.0"/>
<polygon class="l74d0" points="3100000.0,8100000.0 3100000.0,7195000.0 3130000.0,7195000.0 3130000.0,8100000.0"/>
<polygon class="l74d0" points="3100000.0,5725000.0 3100000.0,5265000.0 3130000.0,5265000.0 3130000.0,5725000.0"/>
<polygon class="l74d0" points="3100000.0,4455000.0 3100000.0,4420000.0 3130000.0,4420000.0 3130000.0,4455000.0"/>
<polygon class="l74d0" points="3150000.0,10000000.0 3150000.0,9530000.0 3180000.0,9530000.0 3180000.0,10000000.0"/>
<polygon class="l74d0" points="3150000.0,8075000.0 3150000.0,7225000.0 3180000.0,7225000.0 3180000.0,8075000.0"/>
<polygon class="l74d0" points="3150000.0,5725000.0 3150000.0,5265000.0 3180000.0,5265000.0 3180000.0,5725000.0"/>
<polygon class="l74d0" points="3150000.0,4790000.0 3150000.0,4545000.0 3180000.0,4545000.0 3180000.0,4790000.0"/>
<polygon class="l74d0" points="3200000.0,10000000.0 3200000.0,9530000.0 3230000.0,9530000.0 3230000.0,10000000.0"/>
<polygon class="l74d0" points="3200000.0,8025000.0 3200000.0,7255000.0 3230000.0,7255000.0 3230000.0,8025000.0"/>
<polygon class="l74d0" points="3200000.0,5725000.0 3200000.0,5265000.0 3230000.0,5265000.0 3230000.0,5725000.0"/>
<polygon class="l74d0" points="3200000.0,4880000.0 3200000.0,4455000.0 3230000.0,4455000.0 3230000.0,4880000.0"/>
<polygon class="l74d0" points="3250000.0,10000000.0 3250000.0,9530000.0 3280000.0,9530000.0 3280000.0,10000000.0"/>
<polygon class="l74d0" points="3250000.0,7970000.0 3250000.0,7290000.0 3280000.0,7290000.0 3280000.0,7970000.0"/>
<polygon class="l74d0" points="3250000.0,5725000.0 3250000.0,5265000.0 3280000.0,5265000.0 3280000.0,5725000.0"/>
<polygon class="l74d0" points="3250000.0,4905000.0 3250000.0,4810000.0 3280000.0,4810000.0 3280000.0,4905000.0"/>
<polygon class="l74d0" points="3250000.0,4520000.0 3250000.0,4430000.0 3280000.0,4430000.0 3280000.0,4520000.0"/>
<polygon class="l74d0" points="3300000.0,10000000.0 3300000.0,9530000.0 3330000.0,9530000.0 3330000.0,10000000.0"/>
<polygon class="l74d0" points="3300000.0,7920000.0 3300000.0,7325000.0 3330000.0,7325000.0 3330000.0,7920000.0"/>
<polygon class="l74d0" points="3300000.0,5725000.0 3300000.0,5265000.0 3330000.0,5265000.0 3330000.0,5725000.0"/>
<polygon class="l74d0" points="3300000.0,4905000.0 3300000.0,4825000.0 3330000.0,4825000.0 3330000.0,4905000.0"/>
<polygon class="l74d0" points="3300000.0,4510000.0 3300000.0,4425000.0 3330000.0,4425000.0 3330000.0,4510000.0"/>
<polygon class="l74d0" points="3350000.0,10000000.0 3350000.0,9530000.0 3380000.0,9530000.0 3380000.0,10000000.0"/>
<polygon class="l74d0" points="3350000.0,7865000.0 3350000.0,7360000.0 3380000.0,7360000.0 3380000.0,7865000.0"/>
<polygon class="l74d0" points="3350000.0,5725000.0 3350000.0,5265000.0 3380000.0,5265000.0 3380000.0,5725000.0"/>
<polygon class="l74d0" points="3350000.0,4895000.0 3350000.0,4440000.0 3380000.0,4440000.0 3380000.0,4895000.0"/>
<polygon class="l74d0" points="3400000.0,10000000.0 3400000.0,9530000.0 3430000.0,9530000.0 3430000.0,10000000.0"/>
<polygon class="l74d0" points="3400000.0,7810000.0 3400000.0,7400000.0 3430000.0,7400000.0 3430000.0,7810000.0"/>
<polygon class="l74d0" points="3400000.0,5725000.0 3400000.0,5265000.0 3430000.0,5265000.0 3430000.0,5725000.0"/>
<polygon class="l74d0" points="3400000.0,4840000.0 3400000.0,4495000.0 3430000.0,4495000.0 3430000.0,4840000.0"/>
<polygon class="l74d0" points="3450000.0,10000000.0 3450000.0,9530000.0 3480000.0,9530000.0 3480000.0,10000000.0"/>
<polygon class="l74d0" points="3450000.0,7755000.0 3450000.0,7435000.0 3480000.0,7435000.0 3480000.0,7755000.0"/>
<polygon class="l74d0" points="3450000.0,5725000.0 3450000.0,5265000.0 3480000.0,5265000.0 3480000.0,5725000.0"/>
<polygon class="l74d0" points="3500000.0,10000000.0 3500000.0,9530000.0 3530000.0,9530000.0 3530000.0,10000000.0"/>
<polygon class="l74d0" points="3500000.0,7730000.0 3500000.0,7485000.0 3530000.0,7485000.0 3530000.0,7730000.0"/>
<polygon class="l74d0" points="3500000.0,5725000.0 3500000.0,5265000.0 3530000.0,5265000.0 3530000.0,5725000.0"/>
<polygon class="l74d0" points="3550000.0,10000000.0 3550000.0,9530000.0 3580000.0,9530000.0 3580000.0,10000000.0"/>
<polygon class="l74d0" points="3550000.0,7715000.0 3550000.0,7500000.0 3580000.0,7500000.0 3580000.0,7715000.0"/>
<polygon class="l74d0" points="3550000.0,5725000.0 3550000.0,5265000.0 3580000.0,5265000.0 3580000.0,5725000.0"/>
<polygon class="l74d0" points="3550000.0,4530000.0 3550000.0,4430000.0 3580000.0,4430000.0 3580000.0,4530000.0"/>
<polygon class="l74d0" points="3600000.0,10000000.0 3600000.0,9530000.0 3630000.0,9530000.0 3630000.0,10000000.0"/>
<polygon class="l74d0" points="3600000.0,7725000.0 3600000.0,7265000.0 3630000.0,7265000.0 3630000.0,7725000.0"/>
<polygon class="l74d0" points="3600000.0,5725000.0 3600000.0,5265000.0 3630000.0,5265000.0 3630000.0,5725000.0"/>
<polygon class="l74d0" points="3600000.0,4520000.0 3600000.0,4440000.0 3630000.0,4440000.0 3630000.0,4520000.0"/>
<polygon class="l74d0" points="3650000.0,10000000.0 3650000.0,9530000.0 3680000.0,9530000.0 3680000.0,10000000.0"/>
<polygon class="l74d0" points="3650000.0,7740000.0 3650000.0,7145000.0 3680000.0,7145000.0 3680000.0,7740000.0"/>
<polygon class="l74d0" points="3650000.0,5725000.0 3650000.0,5265000.0 3680000.0,5265000.0 3680000.0,5725000.0"/>
<polygon class="l74d0" points="3700000.0,10000000.0 3700000.0,9530000.0 3730000.0,9530000.0 3730000.0,10000000.0"/>
<polygon class="l74d0" points="3700000.0,7745000.0 3700000.0,7050000.0 3730000.0,7050000.0 3730000.0,7745000.0"/>
<polygon class="l74d0" points="3700000.0,5725000.0 3700000.0,5265000.0 3730000.0,5265000.0 3730000.0,5725000.0"/>
<polygon class="l74d0" points="3700000.0,4760000.0 3700000.0,4570000.0 3730000.0,4570000.0 3730000.0,4760000.0"/>
<polygon class="l74d0" points="3750000.0,10000000.0 3750000.0,9530000.0 3780000.0,9530000.0 3780000.0,10000000.0"/>
<polygon class="l74d0" points="3750000.0,7745000.0 3750000.0,6990000.0 3780000.0,6990000.0 3780000.0,7745000.0"/>
<polygon class="l74d0" points="3750000.0,5725000.0 3750000.0,5265000.0 3780000.0,5265000.0 3780000.0,5725000.0"/>
<polygon class="l74d0" points="3750000.0,4875000.0 3750000.0,4455000.0 3780000.0,4455000.0 3780000.0,4875000.0"/>
<polygon class="l74d0" points="3800000.0,10000000.0 3800000.0,9530000.0 3830000.0,9530000.0 3830000.0,10000000.0"/>
<polygon class="l74d0" points="3800000.0,7745000.0 3800000.0,6950000.0 3830000.0,6950000.0 3830000.0,7745000.0"/>
<polygon class="l74d0" points="3800000.0,5725000.0 3800000.0,5265000.0 3830000.0,5265000.0 3830000.0,5725000.0"/>
<polygon class="l74d0" points="3800000.0,4905000.0 3800000.0,4770000.0 3830000.0,4770000.0 3830000.0,4905000.0"/>
<polygon class="l74d0" points="3800000.0,4565000.0 3800000.0,4430000.0 3830000.0,4430000.0 3830000.0,4565000.0"/>
<polygon class="l74d0" points="3850000.0,10000000.0 3850000.0,9530000.0 3880000.0,9530000.0 3880000.0,10000000.0"/>
<polygon class="l74d0" points="3850000.0,7740000.0 3850000.0,6945000.0 3880000.0,6945000.0 3880000.0,7740000.0"/>
<polygon class="l74d0" points="3850000.0,6340000.0 3850000.0,6245000.0 3880000.0,6245000.0 3880000.0,6340000.0"/>
<polygon class="l74d0" points="3850000.0,5725000.0 3850000.0,5265000.0 3880000.0,5265000.0 3880000.0,5725000.0"/>
<polygon class="l74d0" points="3850000.0,4905000.0 3850000.0,4820000.0 3880000.0,4820000.0 3880000.0,4905000.0"/>
<polygon class="l74d0" points="3850000.0,4510000.0 3850000.0,4425000.0 3880000.0,4425000.0 3880000.0,4510000.0"/>
<polygon class="l74d0" points="3900000.0,10000000.0 3900000.0,9530000.0 3930000.0,9530000.0 3930000.0,10000000.0"/>
<polygon class="l74d0" points="3900000.0,7735000.0 3900000.0,6945000.0 3930000.0,6945000.0 3930000.0,7735000.0"/>
<polygon class="l74d0" points="3900000.0,6415000.0 3900000.0,6210000.0 3930000.0,6210000.0 3930000.0,6415000.0"/>
<polygon class="l74d0" points="3900000.0,5725000.0 3900000.0,5265000.0 3930000.0,5265000.0 3930000.0,5725000.0"/>
<polygon class="l74d0" points="3900000.0,4895000.0 3900000.0,4825000.0 3930000.0,4825000.0 3930000.0,4895000.0"/>
<polygon class="l74d0" points="3900000.0,4505000.0 3900000.0,4440000.0 3930000.0,4440000.0 3930000.0,4505000.0"/>
<polygon class="l74d0" points="3950000.0,10000000.0 3950000.0,9530000.0 3980000.0,9530000.0 3980000.0,10000000.0"/>
<polygon class="l74d0" points="3950000.0,7725000.0 3950000.0,6945000.0 3980000.0,6945000.0 3980000.0,7725000.0"/>
<polygon class="l74d0" points="3950000.0,6495000.0 3950000.0,6185000.0 3980000.0,6185000.0 3980000.0,6495000.0"/>
<polygon class="l74d0" points="3950000.0,5725000.0 3950000.0,5265000.0 3980000.0,5265000.0 3980000.0,5725000.0"/>
<polygon class="l74d0" points="4000000.0,10000000.0 4000000.0,9530000.0 4030000.0,9530000.0 4030000.0,10000000.0"/>
<polygon class="l74d0" points="4000000.0,7710000.0 4000000.0,6935000.0 4030000.0,6935000.0 4030000.0,7710000.0"/>
<polygon class="l74d0" points="4000000.0,6575000.0 4000000.0,6150000.0 4030000.0,6150000.0 4030000.0,6575000.0"/>
<polygon class="l74d0" points="4000000.0,5725000.0 4000000.0,5265000.0 4030000.0,5265000.0 4030000.0,5725000.0"/>
<polygon class="l74d0" points="4000000.0,4855000.0 4000000.0,4480000.0 4030000.0,4480000.0 4030000.0,4855000.0"/>
<polygon class="l74d0" points="4050000.0,10000000.0 4050000.0,9530000.0 4080000.0,9530000.0 4080000.0,10000000.0"/>
<polygon class="l74d0" points="4050000.0,7695000.0 4050000.0,6910000.0 4080000.0,6910000.0 4080000.0,7695000.0"/>
<polygon class="l74d0" points="4050000.0,6670000.0 4050000.0,6115000.0 4080000.0,6115000.0 4080000.0,6670000.0"/>
<polygon class="l74d0" points="4050000.0,5725000.0 4050000.0,5265000.0 4080000.0,5265000.0 4080000.0,5725000.0"/>
<polygon class="l74d0" points="4050000.0,4895000.0 4050000.0,4435000.0 4080000.0,4435000.0 4080000.0,4895000.0"/>
<polygon class="l74d0" points="4100000.0,10000000.0 4100000.0,9530000.0 4130000.0,9530000.0 4130000.0,10000000.0"/>
<polygon class="l74d0" points="4100000.0,7675000.0 4100000.0,6880000.0 4130000.0,6880000.0 4130000.0,7675000.0"/>
<polygon class="l74d0" points="4100000.0,6800000.0 4100000.0,6060000.0 4130000.0,6060000.0 4130000.0,6800000.0"/>
<polygon class="l74d0" points="4100000.0,5725000.0 4100000.0,5265000.0 4130000.0,5265000.0 4130000.0,5725000.0"/>
<polygon class="l74d0" points="4100000.0,4905000.0 4100000.0,4825000.0 4130000.0,4825000.0 4130000.0,4905000.0"/>
<polygon class="l74d0" points="4100000.0,4510000.0 4100000.0,4425000.0 4130000.0,4425000.0 4130000.0,4510000.0"/>
<polygon class="l74d0" points="4150000.0,10000000.0 4150000.0,9530000.0 4180000.0,9530000.0 4180000.0,10000000.0"/>
<polygon class="l74d0" points="4150000.0,7655000.0 4150000.0,6015000.0 4180000.0,6015000.0 4180000.0,7655000.0"/>
<polygon class="l74d0" points="4150000.0,5725000.0 4150000.0,5265000.0 4180000.0,5265000.0 4180000.0,5725000.0"/>
<polygon class="l74d0" points="4150000.0,4900000.0 4150000.0,4800000.0 4180000.0,4800000.0 4180000.0,4900000.0"/>
<polygon class="l74d0" points="4150000.0,4535000.0 4150000.0,4430000.0 4180000.0,4430000.0 4180000.0,4535000.0"/>
<polygon class="l74d0" points="4200000.0,10000000.0 4200000.0,9530000.0 4230000.0,9530000.0 4230000.0,10000000.0"/>
<polygon class="l74d0" points="4200000.0,7625000.0 4200000.0,5960000.0 4230000.0,5960000.0 4230000.0,7625000.0"/>
<polygon class="l74d0" points="4200000.0,5725000.0 4200000.0,5265000.0 4230000.0,5265000.0 4230000.0,5725000.0"/>
<polygon class="l74d0" points="4200000.0,4875000.0 4200000.0,4460000.0 4230000.0,4460000.0 4230000.0,4875000.0"/>
<polygon class="l74d0" points="4250000.0,10000000.0 4250000.0,9525000.0 4280000.0,9525000.0 4280000.0,10000000.0"/>
<polygon class="l74d0" points="4250000.0,7610000.0 4250000.0,5905000.0 4280000.0,5905000.0 4280000.0,7610000.0"/>
<polygon class="l74d0" points="4250000.0,5730000.0 4250000.0,5265000.0 4280000.0,5265000.0 4280000.0,5730000.0"/>
<polygon class="l74d0" points="4250000.0,4740000.0 4250000.0,4590000.0 4280000.0,4590000.0 4280000.0,4740000.0"/>
<polygon class="l74d0" points="4300000.0,10000000.0 4300000.0,5265000.0 4330000.0,5265000.0 4330000.0,10000000.0"/>
<polygon class="l74d0" points="4350000.0,10000000.0 4350000.0,5265000.0 4380000.0,5265000.0 4380000.0,10000000.0"/>
<polygon class="l74d0" points="4350000.0,4900000.0 4350000.0,4435000.0 4380000.0,4435000.0 4380000.0,4900000.0"/>
<polygon class="l74d0" points="4400000.0,10000000.0 4400000.0,5265000.0 4430000.0,5265000.0 4430000.0,10000000.0"/>
<polygon class="l74d0" points="4400000.0,4900000.0 4400000.0,4430000.0 4430000.0,4430000.0 4430000.0,4900000.0"/>
<polygon class="l74d0" points="4450000.0,10000000.0 4450000.0,5265000.0 4480000.0,5265000.0 4480000.0,10000000.0"/>
<polygon class="l74d0" points="4450000.0,4880000.0 4450000.0,4820000.0 4480000.0,4820000.0 4480000.0,4880000.0"/>
<polygon class="l74d0" points="4500000.0,10000000.0 4500000.0,5265000.0 4530000.0,5265000.0 4530000.0,10000000.0"/>
<polygon class="l74d0" points="4500000.0,4905000.0 4500000.0,4825000.0 4530000.0,4825000.0 4530000.0,4905000.0"/>
<polygon class="l74d0" points="4550000.0,10000000.0 4550000.0,5265000.0 4580000.0,5265000.0 4580000.0,10000000.0"/>
<polygon class="l74d0" points="4550000.0,4905000.0 4550000.0,4430000.0 4580000.0,4430000.0 4580000.0,4905000.0"/>
<polygon class="l74d0" points="4600000.0,10000000.0 4600000.0,5265000.0 4630000.0,5265000.0 4630000.0,10000000.0"/>
<polygon class="l74d0" points="4600000.0,4870000.0 4600000.0,4430000.0 4630000.0,4430000.0 4630000.0,4870000.0"/>
<polygon class="l74d0" points="4650000.0,10000000.0 4650000.0,5265000.0 4680000.0,5265000.0 4680000.0,10000000.0"/>
<polygon class="l74d0" points="4650000.0,4890000.0 4650000.0,4825000.0 4680000.0,4825000.0 4680000.0,4890000.0"/>
<polygon class="l74d0" points="4700000.0,10000000.0 4700000.0,5265000.0 4730000.0,5265000.0 4730000.0,10000000.0"/>
<polygon class="l74d0" points="4700000.0,4905000.0 4700000.0,4825000.0 4730000.0,4825000.0 4730000.0,4905000.0"/>
<polygon class="l74d0" points="4750000.0,10000000.0 4750000.0,5265000.0 4780000.0,5265000.0 4780000.0,10000000.0"/>
<polygon class="l74d0" points="4750000.0,4905000.0 4750000.0,4430000.0 4780000.0,4430000.0 4780000.0,4905000.0"/>
<polygon class="l74d0" points="4800000.0,4860000.0 4800000.0,4435000.0 4830000.0,4435000.0 4830000.0,4860000.0"/>
</g>
</svg>