<?xml version="1.0" encoding="UTF-8"?>
<svg xmlns="http://www.w3.org/2000/svg" xmlns:xlink="http://www.w3.org/1999/xlink"
     width="5079015.0" height="10989165.0" viewBox="-499507.5 -10499507.5 5079015.0 10989165.0">
<defs>
<style type="text/css">
.l74d0 {stroke: rgb(158, 42, 255); fill: rgb(158, 42, 255); fill-opacity: 0.5;}
</style>
</defs>
<rect x="-499507.5" y="-10499507.5" width="5079015.0" height="10989165.0" fill="#222" stroke="none"/>
<g id="AL_AP_artwork_test" transform="scale(1 -1)">
<polygon class="l74d0" points="2050.0,9850.0 2080.0,9850.0 2080.0,9880.0 2050.0,9880.0"/>
<polygon class="l74d0" points="2000.0,9850.0 2030.0,9850.0 2030.0,9880.0 2000.0,9880.0"/>
<polygon class="l74d0" points="1950.0,9850.0 1980.0,9850.0 1980.0,9880.0 1950.0,9880.0"/>
<polygon class="l74d0" points="1900.0,9850.0 1930.0,9850.0 1930.0,9880.0 1900.0,9880.0"/>
<polygon class="l74d0" points="1850.0,9850.0 1880.0,9850.0 1880.0,9880.0 1850.0,9880.0"/>
<polygon class="l74d0" points="1800.0,9850.0 1830.0,9850.0 1830.0,9880.0 1800.0,9880.0"/>
<polygon class="l74d0" points="1750.0,9850.0 1780.0,9850.0 1780.0,9880.0 1750.0,9880.0"/>
<polygon class="l74d0" points="1700.0,9850.0 1730.0,9850.0 1730.0,9880.0 1700.0,9880.0"/>
<polygon class="l74d0" points="1650.0,9850.0 1680.0,9850.0 1680.0,9880.0 1650.0,9880.0"/>
<polygon class="l74d0" points="1600.0,9850.0 1630.0,9850.0 1630.0,9880.0 1600.0,9880.0"/>
<polygon class="l74d0" points="1550.0,9850.0 1580.0,9850.0 1580.0,9880.0 1550.0,9880.0"/>
<polygon class="l74d0" points="1500.0,9850.0 1530.0,9850.0 1530.0,9880.0 1500.0,9880.0"/>
<polygon class="l74d0" points="1450.0,9850.0 1480.0,9850.0 1480.0,9880.0 1450.0,9880.0"/>
<polygon class="l74d0" points="1400.0,9850.0 1430.0,9850.0 1430.0,9880.0 1400.0,9880.0"/>
<polygon class="l74d0" points="1350.0,9850.0 1380.0,9850.0 1380.0,9880.0 1350.0,9880.0"/>
<polygon class="l74d0" points="1300.0,9850.0 1330.0,9850.0 1330.0,9880.0 1300.0,9880.0"/>
<polygon class="l74d0" points="1250.0,9850.0 1280.0,9850.0 1280.0,9880.0 1250.0,9880.0"/>
<polygon class="l74d0" points="1200.0,9850.0 1230.0,9850.0 1230.0,9880.0 1200.0,9880.0"/>
<polygon class="l74d0" points="1750.0,9900.0 1780.0,9900.0 1780.0,9930.0 1750.0,9930.0"/>
<polygon class="l74d0" points="1800.0,9900.0 1830.0,9900.0 1830.0,9930.0 1800.0,9930.0"/>
<polygon class="l74d0" points="1850.0,9900.0 1880.0,9900.0 1880.0,9930.0 1850.0,9930.0"/>
<polygon class="l74d0" points="1900.0,9900.0 1930.0,9900.0 1930.0,9930.0 1900.0,9930.0"/>
<polygon class="l74d0" points="1950.0,9900.0 1980.0,9900.0 1980.0,9930.0 1950.0,9930.0"/>
<polygon class="l74d0" points="2000.0,9900.0 2030.0,9900.0 2030.0,9930.0 2000.0,9930.0"/>
<polygon class="l74d0" points="2050.0,9900.0 2080.0,9900.0 2080.0,9930.0 2050.0,9930.0"/>
<polygon class="l74d0" points="2100.0,9900.0 2130.0,9900.0 2130.0,9930.0 2100.0,9930.0"/>
<polygon class="l74d0" points="2150.0,9900.0 2180.0,9900.0 2180.0,9930.0 2150.0,9930.0"/>
<polygon class="l74d0" points="2200.0,9900.0 2230.0,9900.0 2230.0,9930.0 2200.0,9930.0"/>
<polygon class="l74d0" points="1700.0,9900.0 1730.0,9900.0 1730.0,9930.0 1700.0,9930.0"/>
<polygon class="l74d0" points="1650.0,9900.0 1680.0,9900.0 1680.0,9930.0 1650.0,9930.0"/>
<polygon class="l74d0" points="1600.0,9900.0 1630.0,9900.0 1630.0,9930.0 1600.0,9930.0"/>
<polygon class="l74d0" points="1550.0,9900.0 1580.0,9900.0 1580.0,9930.0 1550.0,9930.0"/>
<polygon class="l74d0" points="1500.0,9900.0 1530.0,9900.0 1530.0,9930.0 1500.0,9930.0"/>
<polygon class="l74d0" points="1450.0,9900.0 1480.0,9900.0 1480.0,9930.0 1450.0,9930.0"/>
<polygon class="l74d0" points="1400.0,9900.0 1430.0,9900.0 1430.0,9930.0 1400.0,9930.0"/>
<polygon class="l74d0" points="1350.0,9900.0 1380.0,9900.0 1380.0,9930.0 1350.0,9930.0"/>
<polygon class="l74d0" points="1300.0,9900.0 1330.0,9900.0 1330.0,9930.0 1300.0,9930.0"/>
<polygon class="l74d0" points="1250.0,9900.0 1280.0,9900.0 1280.0,9930.0 1250.0,9930.0"/>
<polygon class="l74d0" points="1200.0,9900.0 1230.0,9900.0 1230.0,9930.0 1200.0,9930.0"/>
<polygon class="l74d0" points="0.0,10000000.0 0.0,5985000.0 30000.0,5985000.0 30000.0,10000000.0"/>
<polygon class="l74d0" points="0.0,5385000.0 0.0,5280000.0 30000.0,5280000.0 30000.0,5385000.0"/>
<polygon class="l74d0" points="50000.0,10000000.0 50000.0,5985000.0 80000.0,5985000.0 80000.0,10000000.0"/>
<polygon class="l74d0" points="50000.0,5605000.0 50000.0,5285000.0 80000.0,5285000.0 80000.0,5605000.0"/>
<polygon class="l74d0" points="100000.0,10000000.0 100000.0,5985000.0 130000.0,5985000.0 130000.0,10000000.0"/>
<polygon class="l74d0" points="100000.0,5825000.0 100000.0,5500000.0 130000.0,5500000.0 130000.0,5825000.0"/>
<polygon class="l74d0" points="100000.0,5460000.0 100000.0,5395000.0 130000.0,5395000.0 130000.0,5460000.0"/>
<polygon class="l74d0" points="150000.0,10000000.0 150000.0,5985000.0 180000.0,5985000.0 180000.0,10000000.0"/>
<polygon class="l74d0" points="150000.0,5875000.0 150000.0,5645000.0 180000.0,5645000.0 180000.0,5875000.0"/>
<polygon class="l74d0" points="150000.0,5460000.0 150000.0,5395000.0 180000.0,5395000.0 180000.0,5460000.0"/>
<polygon class="l74d0" points="200000.0,10000000.0 200000.0,5985000.0 230000.0,5985000.0 230000.0,10000000.0"/>
<polygon class="l74d0" points="200000.0,5755000.0 200000.0,5390000.0 230000.0,5390000.0 230000.0,5755000.0"/>
<polygon class="l74d0" points="250000.0,10000000.0 250000.0,5985000.0 280000.0,5985000.0 280000.0,10000000.0"/>
<polygon class="l74d0" points="250000.0,5525000.0 250000.0,5280000.0 280000.0,5280000.0 280000.0,5525000.0"/>
<polygon class="l74d0" points="300000.0,10000000.0 300000.0,5985000.0 330000.0,5985000.0 330000.0,10000000.0"/>
<polygon class="l74d0" points="350000.0,10000000.0 350000.0,5985000.0 380000.0,5985000.0 380000.0,10000000.0"/>
<polygon class="l74d0" points="350000.0,5675000.0 350000.0,5285000.0 380000.0,5285000.0 380000.0,5675000.0"/>
<polygon class="l74d0" points="400000.0,10000000.0 400000.0,5985000.0 430000.0,5985000.0 430000.0,10000000.0"/>
<polygon class="l74d0" points="400000.0,5675000.0 400000.0,5280000.0 430000.0,5280000.0 430000.0,5675000.0"/>
<polygon class="l74d0" points="450000.0,10000000.0 450000.0,9600000.0 480000.0,9600000.0 480000.0,10000000.0"/>
<polygon class="l74d0" points="450000.0,8395000.0 450000.0,8220000.0 480000.0,8220000.0 480000.0,8395000.0"/>
<polygon class="l74d0" points="450000.0,8010000.0 450000.0,7905000.0 480000.0,7905000.0 480000.0,8010000.0"/>
<polygon class="l74d0" points="450000.0,6375000.0 450000.0,5985000.0 480000.0,5985000.0 480000.0,6375000.0"/>
<polygon class="l74d0" points="450000.0,5670000.0 450000.0,5615000.0 480000.0,5615000.0 480000.0,5670000.0"/>
<polygon class="l74d0" points="500000.0,10000000.0 500000.0,9600000.0 530000.0,9600000.0 530000.0,10000000.0"/>
<polygon class="l74d0" points="500000.0,8490000.0 500000.0,8315000.0 530000.0,8315000.0 530000.0,8490000.0"/>
<polygon class="l74d0" points="500000.0,8110000.0 500000.0,8000000.0 530000.0,8000000.0 530000.0,8110000.0"/>
<polygon class="l74d0" points="500000.0,6375000.0 500000.0,5985000.0 530000.0,5985000.0 530000.0,6375000.0"/>
<polygon class="l74d0" points="500000.0,5685000.0 500000.0,5595000.0 530000.0,5595000.0 530000.0,5685000.0"/>
<polygon class="l74d0" points="550000.0,10000000.0 550000.0,9600000.0 580000.0,9600000.0 580000.0,10000000.0"/>
<polygon class="l74d0" points="550000.0,8585000.0 550000.0,8405000.0 580000.0,8405000.0 580000.0,8585000.0"/>
<polygon class="l74d0" points="550000.0,8205000.0 550000.0,8095000.0 580000.0,8095000.0 580000.0,8205000.0"/>
<polygon class="l74d0" points="550000.0,6375000.0 550000.0,5985000.0 580000.0,5985000.0 580000.0,6375000.0"/>
<polygon class="l74d0" points="550000.0,5670000.0 550000.0,5280000.0 580000.0,5280000.0 580000.0,5670000.0"/>
<polygon class="l74d0" points="600000.0,10000000.0 600000.0,9600000.0 630000.0,9600000.0 630000.0,10000000.0"/>
<polygon class="l74d0" points="600000.0,8675000.0 600000.0,8495000.0 630000.0,8495000.0 630000.0,8675000.0"/>
<polygon class="l74d0" points="600000.0,8305000.0 600000.0,8190000.0 630000.0,8190000.0 630000.0,8305000.0"/>
<polygon class="l74d0" points="600000.0,6375000.0 600000.0,5985000.0 630000.0,5985000.0 630000.0,6375000.0"/>
<polygon class="l74d0" points="650000.0,10000000.0 650000.0,9600000.0 680000.0,9600000.0 680000.0,10000000.0"/>
<polygon class="l74d0" points="650000.0,8770000.0 650000.0,8585000.0 680000.0,8585000.0 680000.0,8770000.0"/>
<polygon class="l74d0" points="650000.0,8405000.0 650000.0,8285000.0 680000.0,8285000.0 680000.0,8405000.0"/>
<polygon class="l74d0" points="650000.0,6375000.0 650000.0,5985000.0 680000.0,5985000.0 680000.0,6375000.0"/>
<polygon class="l74d0" points="700000.0,10000000.0 700000.0,9600000.0 730000.0,9600000.0 730000.0,10000000.0"/>
<polygon class="l74d0" points="700000.0,8865000.0 700000.0,8680000.0 730000.0,8680000.0 730000.0,8865000.0"/>
<polygon class="l74d0" points="700000.0,8505000.0 700000.0,8385000.0 730000.0,8385000.0 730000.0,8505000.0"/>
<polygon class="l74d0" points="700000.0,6375000.0 700000.0,5985000.0 730000.0,5985000.0 730000.0,6375000.0"/>
<polygon class="l74d0" points="700000.0,5670000.0 700000.0,5295000.0 730000.0,5295000.0 730000.0,5670000.0"/>
<polygon class="l74d0" points="750000.0,10000000.0 750000.0,9600000.0 780000.0,9600000.0 780000.0,10000000.0"/>
<polygon class="l74d0" points="750000.0,8960000.0 750000.0,8770000.0 780000.0,8770000.0 780000.0,8960000.0"/>
<polygon class="l74d0" points="750000.0,8605000.0 750000.0,8480000.0 780000.0,8480000.0 780000.0,8605000.0"/>
<polygon class="l74d0" points="750000.0,6375000.0 750000.0,5985000.0 780000.0,5985000.0 780000.0,6375000.0"/>
<polygon class="l74d0" points="750000.0,5685000.0 750000.0,5605000.0 780000.0,5605000.0 780000.0,5685000.0"/>
<polygon class="l74d0" points="750000.0,5350000.0 750000.0,5275000.0 780000.0,5275000.0 780000.0,5350000.0"/>
<polygon class="l74d0" points="800000.0,10000000.0 800000.0,9600000.0 830000.0,9600000.0 830000.0,10000000.0"/>
<polygon class="l74d0" points="800000.0,9170000.0 800000.0,8860000.0 830000.0,8860000.0 830000.0,9170000.0"/>
<polygon class="l74d0" points="800000.0,8700000.0 800000.0,8580000.0 830000.0,8580000.0 830000.0,8700000.0"/>
<polygon class="l74d0" points="800000.0,6375000.0 800000.0,5985000.0 830000.0,5985000.0 830000.0,6375000.0"/>
<polygon class="l74d0" points="800000.0,5670000.0 800000.0,5610000.0 830000.0,5610000.0 830000.0,5670000.0"/>
<polygon class="l74d0" points="800000.0,5350000.0 800000.0,5290000.0 830000.0,5290000.0 830000.0,5350000.0"/>
<polygon class="l74d0" points="850000.0,10000000.0 850000.0,9600000.0 880000.0,9600000.0 880000.0,10000000.0"/>
<polygon class="l74d0" points="850000.0,9280000.0 850000.0,8630000.0 880000.0,8630000.0 880000.0,9280000.0"/>
<polygon class="l74d0" points="850000.0,8420000.0 850000.0,8085000.0 880000.0,8085000.0 880000.0,8420000.0"/>
<polygon class="l74d0" points="850000.0,6375000.0 850000.0,5985000.0 880000.0,5985000.0 880000.0,6375000.0"/>
<polygon class="l74d0" points="850000.0,5680000.0 850000.0,5280000.0 880000.0,5280000.0 880000.0,5680000.0"/>
<polygon class="l74d0" points="900000.0,10000000.0 900000.0,9600000.0 930000.0,9600000.0 930000.0,10000000.0"/>
<polygon class="l74d0" points="900000.0,9340000.0 900000.0,8060000.0 930000.0,8060000.0 930000.0,9340000.0"/>
<polygon class="l74d0" points="900000.0,6375000.0 900000.0,5985000.0 930000.0,5985000.0 930000.0,6375000.0"/>
<polygon class="l74d0" points="900000.0,5670000.0 900000.0,5635000.0 930000.0,5635000.0 930000.0,5670000.0"/>
<polygon class="l74d0" points="900000.0,5295000.0 900000.0,5260000.0 930000.0,5260000.0 930000.0,5295000.0"/>
<polygon class="l74d0" points="950000.0,10000000.0 950000.0,9600000.0 980000.0,9600000.0 980000.0,10000000.0"/>
<polygon class="l74d0" points="950000.0,9385000.0 950000.0,9030000.0 980000.0,9030000.0 980000.0,9385000.0"/>
<polygon class="l74d0" points="950000.0,9005000.0 950000.0,8030000.0 980000.0,8030000.0 980000.0,9005000.0"/>
<polygon class="l74d0" points="950000.0,6375000.0 950000.0,5985000.0 980000.0,5985000.0 980000.0,6375000.0"/>
<polygon class="l74d0" points="1000000.0,10000000.0 1000000.0,9600000.0 1030000.0,9600000.0 1030000.0,10000000.0"/>
<polygon class="l74d0" points="1000000.0,9415000.0 1000000.0,9100000.0 1030000.0,9100000.0 1030000.0,9415000.0"/>
<polygon class="l74d0" points="1000000.0,9020000.0 1000000.0,8000000.0 1030000.0,8000000.0 1030000.0,9020000.0"/>
<polygon class="l74d0" points="1000000.0,6375000.0 1000000.0,5985000.0 1030000.0,5985000.0 1030000.0,6375000.0"/>
<polygon class="l74d0" points="1000000.0,5935000.0 1000000.0,5280000.0 1030000.0,5280000.0 1030000.0,5935000.0"/>
<polygon class="l74d0" points="1050000.0,10000000.0 1050000.0,9600000.0 1080000.0,9600000.0 1080000.0,10000000.0"/>
<polygon class="l74d0" points="1050000.0,9445000.0 1050000.0,9125000.0 1080000.0,9125000.0 1080000.0,9445000.0"/>
<polygon class="l74d0" points="1050000.0,9035000.0 1050000.0,7975000.0 1080000.0,7975000.0 1080000.0,9035000.0"/>
<polygon class="l74d0" points="1050000.0,6375000.0 1050000.0,5985000.0 1080000.0,5985000.0 1080000.0,6375000.0"/>
<polygon class="l74d0" points="1050000.0,5930000.0 1050000.0,5285000.0 1080000.0,5285000.0 1080000.0,5930000.0"/>
<polygon class="l74d0" points="1100000.0,10000000.0 1100000.0,9600000.0 1130000.0,9600000.0 1130000.0,10000000.0"/>
<polygon class="l74d0" points="1100000.0,9470000.0 1100000.0,9140000.0 1130000.0,9140000.0 1130000.0,9470000.0"/>
<polygon class="l74d0" points="1100000.0,9045000.0 1100000.0,8865000.0 1130000.0,8865000.0 1130000.0,9045000.0"/>
<polygon class="l74d0" points="1100000.0,8825000.0 1100000.0,7945000.0 1130000.0,7945000.0 1130000.0,8825000.0"/>
<polygon class="l74d0" points="1100000.0,7360000.0 1100000.0,7285000.0 1130000.0,7285000.0 1130000.0,7360000.0"/>
<polygon class="l74d0" points="1100000.0,6375000.0 1100000.0,5985000.0 1130000.0,5985000.0 1130000.0,6375000.0"/>
<polygon class="l74d0" points="1150000.0,10000000.0 1150000.0,9600000.0 1180000.0,9600000.0 1180000.0,10000000.0"/>
<polygon class="l74d0" points="1150000.0,9485000.0 1150000.0,9155000.0 1180000.0,9155000.0 1180000.0,9485000.0"/>
<polygon class="l74d0" points="1150000.0,9050000.0 1150000.0,8845000.0 1180000.0,8845000.0 1180000.0,9050000.0"/>
<polygon class="l74d0" points="1150000.0,8770000.0 1150000.0,7920000.0 1180000.0,7920000.0 1180000.0,8770000.0"/>
<polygon class="l74d0" points="1150000.0,7475000.0 1150000.0,7220000.0 1180000.0,7220000.0 1180000.0,7475000.0"/>
<polygon class="l74d0" points="1150000.0,6375000.0 1150000.0,5985000.0 1180000.0,5985000.0 1180000.0,6375000.0"/>
<polygon class="l74d0" points="1150000.0,5625000.0 1150000.0,5330000.0 1180000.0,5330000.0 1180000.0,5625000.0"/>
<polygon class="l74d0" points="1200000.0,10000000.0 1200000.0,9600000.0 1230000.0,9600000.0 1230000.0,10000000.0"/>
<polygon class="l74d0" points="1200000.0,9505000.0 1200000.0,9165000.0 1230000.0,9165000.0 1230000.0,9505000.0"/>
<polygon class="l74d0" points="1200000.0,9060000.0 1200000.0,8835000.0 1230000.0,8835000.0 1230000.0,9060000.0"/>
<polygon class="l74d0" points="1200000.0,8720000.0 1200000.0,7890000.0 1230000.0,7890000.0 1230000.0,8720000.0"/>
<polygon class="l74d0" points="1200000.0,7590000.0 1200000.0,7200000.0 1230000.0,7200000.0 1230000.0,7590000.0"/>
<polygon class="l74d0" points="1200000.0,6375000.0 1200000.0,5985000.0 1230000.0,5985000.0 1230000.0,6375000.0"/>
<polygon class="l74d0" points="1200000.0,5675000.0 1200000.0,5285000.0 1230000.0,5285000.0 1230000.0,5675000.0"/>
<polygon class="l74d0" points="1250000.0,10000000.0 1250000.0,9600000.0 1280000.0,9600000.0 1280000.0,10000000.0"/>
<polygon class="l74d0" points="1250000.0,9520000.0 1250000.0,9165000.0 1280000.0,9165000.0 1280000.0,9520000.0"/>
<polygon class="l74d0" points="1250000.0,9065000.0 1250000.0,8835000.0 1280000.0,8835000.0 1280000.0,9065000.0"/>
<polygon class="l74d0" points="1250000.0,8670000.0 1250000.0,7860000.0 1280000.0,7860000.0 1280000.0,8670000.0"/>
<polygon class="l74d0" points="1250000.0,7705000.0 1250000.0,7180000.0 1280000.0,7180000.0 1280000.0,7705000.0"/>
<polygon class="l74d0" points="1250000.0,6375000.0 1250000.0,5985000.0 1280000.0,5985000.0 1280000.0,6375000.0"/>
<polygon class="l74d0" points="1250000.0,5685000.0 1250000.0,5615000.0 1280000.0,5615000.0 1280000.0,5685000.0"/>
<polygon class="l74d0" points="1250000.0,5345000.0 1250000.0,5275000.0 1280000.0,5275000.0 1280000.0,5345000.0"/>
<polygon class="l74d0" points="1300000.0,10000000.0 1300000.0,9600000.0 1330000.0,9600000.0 1330000.0,10000000.0"/>
<polygon class="l74d0" points="1300000.0,9535000.0 1300000.0,9165000.0 1330000.0,9165000.0 1330000.0,9535000.0"/>
<polygon class="l74d0" points="1300000.0,9065000.0 1300000.0,8835000.0 1330000.0,8835000.0 1330000.0,9065000.0"/>
<polygon class="l74d0" points="1300000.0,8720000.0 1300000.0,8685000.0 1330000.0,8685000.0 1330000.0,8720000.0"/>
<polygon class="l74d0" points="1300000.0,8615000.0 1300000.0,7830000.0 1330000.0,7830000.0 1330000.0,8615000.0"/>
<polygon class="l74d0" points="1300000.0,7805000.0 1300000.0,7160000.0 1330000.0,7160000.0 1330000.0,7805000.0"/>
<polygon class="l74d0" points="1300000.0,6375000.0 1300000.0,5985000.0 1330000.0,5985000.0 1330000.0,6375000.0"/>
<polygon class="l74d0" points="1300000.0,5675000.0 1300000.0,5285000.0 1330000.0,5285000.0 1330000.0,5675000.0"/>
<polygon class="l74d0" points="1350000.0,10000000.0 1350000.0,9600000.0 1380000.0,9600000.0 1380000.0,10000000.0"/>
<polygon class="l74d0" points="1350000.0,9545000.0 1350000.0,9155000.0 1380000.0,9155000.0 1380000.0,9545000.0"/>
<polygon class="l74d0" points="1350000.0,9065000.0 1350000.0,8830000.0 1380000.0,8830000.0 1380000.0,9065000.0"/>
<polygon class="l74d0" points="1350000.0,8735000.0 1350000.0,8645000.0 1380000.0,8645000.0 1380000.0,8735000.0"/>
<polygon class="l74d0" points="1350000.0,8565000.0 1350000.0,6485000.0 1380000.0,6485000.0 1380000.0,8565000.0"/>
<polygon class="l74d0" points="1350000.0,6375000.0 1350000.0,5985000.0 1380000.0,5985000.0 1380000.0,6375000.0"/>
<polygon class="l74d0" points="1350000.0,5625000.0 1350000.0,5340000.0 1380000.0,5340000.0 1380000.0,5625000.0"/>
<polygon class="l74d0" points="1400000.0,10000000.0 1400000.0,9600000.0 1430000.0,9600000.0 1430000.0,10000000.0"/>
<polygon class="l74d0" points="1400000.0,9550000.0 1400000.0,9150000.0 1430000.0,9150000.0 1430000.0,9550000.0"/>
<polygon class="l74d0" points="1400000.0,9060000.0 1400000.0,8835000.0 1430000.0,8835000.0 1430000.0,9060000.0"/>
<polygon class="l74d0" points="1400000.0,8730000.0 1400000.0,8595000.0 1430000.0,8595000.0 1430000.0,8730000.0"/>
<polygon class="l74d0" points="1400000.0,8515000.0 1400000.0,6470000.0 1430000.0,6470000.0 1430000.0,8515000.0"/>
<polygon class="l74d0" points="1400000.0,6375000.0 1400000.0,5985000.0 1430000.0,5985000.0 1430000.0,6375000.0"/>
<polygon class="l74d0" points="1450000.0,10000000.0 1450000.0,9600000.0 1480000.0,9600000.0 1480000.0,10000000.0"/>
<polygon class="l74d0" points="1450000.0,9555000.0 1450000.0,9135000.0 1480000.0,9135000.0 1480000.0,9555000.0"/>
<polygon class="l74d0" points="1450000.0,9055000.0 1450000.0,8840000.0 1480000.0,8840000.0 1480000.0,9055000.0"/>
<polygon class="l74d0" points="1450000.0,8725000.0 1450000.0,8545000.0 1480000.0,8545000.0 1480000.0,8725000.0"/>
<polygon class="l74d0" points="1450000.0,8460000.0 1450000.0,8150000.0 1480000.0,8150000.0 1480000.0,8460000.0"/>
<polygon class="l74d0" points="1450000.0,7980000.0 1450000.0,6455000.0 1480000.0,6455000.0 1480000.0,7980000.0"/>
<polygon class="l74d0" points="1450000.0,6375000.0 1450000.0,5985000.0 1480000.0,5985000.0 1480000.0,6375000.0"/>
<polygon class="l74d0" points="1450000.0,5630000.0 1450000.0,5330000.0 1480000.0,5330000.0 1480000.0,5630000.0"/>
<polygon class="l74d0" points="1450000.0,5235000.0 1450000.0,5165000.0 1480000.0,5165000.0 1480000.0,5235000.0"/>
<polygon class="l74d0" points="1500000.0,10000000.0 1500000.0,9600000.0 1530000.0,9600000.0 1530000.0,10000000.0"/>
<polygon class="l74d0" points="1500000.0,9305000.0 1500000.0,9135000.0 1530000.0,9135000.0 1530000.0,9305000.0"/>
<polygon class="l74d0" points="1500000.0,9050000.0 1500000.0,8845000.0 1530000.0,8845000.0 1530000.0,9050000.0"/>
<polygon class="l74d0" points="1500000.0,8720000.0 1500000.0,8495000.0 1530000.0,8495000.0 1530000.0,8720000.0"/>
<polygon class="l74d0" points="1500000.0,8410000.0 1500000.0,8375000.0 1530000.0,8375000.0 1530000.0,8410000.0"/>
<polygon class="l74d0" points="1500000.0,7940000.0 1500000.0,6440000.0 1530000.0,6440000.0 1530000.0,7940000.0"/>
<polygon class="l74d0" points="1500000.0,6375000.0 1500000.0,5985000.0 1530000.0,5985000.0 1530000.0,6375000.0"/>
<polygon class="l74d0" points="1500000.0,5680000.0 1500000.0,5280000.0 1530000.0,5280000.0 1530000.0,5680000.0"/>
<polygon class="l74d0" points="1500000.0,5235000.0 1500000.0,5120000.0 1530000.0,5120000.0 1530000.0,5235000.0"/>
<polygon class="l74d0" points="1550000.0,10000000.0 1550000.0,9600000.0 1580000.0,9600000.0 1580000.0,10000000.0"/>
<polygon class="l74d0" points="1550000.0,9040000.0 1550000.0,9005000.0 1580000.0,9005000.0 1580000.0,9040000.0"/>
<polygon class="l74d0" points="1550000.0,8720000.0 1550000.0,8445000.0 1580000.0,8445000.0 1580000.0,8720000.0"/>
<polygon class="l74d0" points="1550000.0,8255000.0 1550000.0,8075000.0 1580000.0,8075000.0 1580000.0,8255000.0"/>
<polygon class="l74d0" points="1550000.0,7895000.0 1550000.0,6430000.0 1580000.0,6430000.0 1580000.0,7895000.0"/>
<polygon class="l74d0" points="1550000.0,6375000.0 1550000.0,5985000.0 1580000.0,5985000.0 1580000.0,6375000.0"/>
<polygon class="l74d0" points="1550000.0,5680000.0 1550000.0,5615000.0 1580000.0,5615000.0 1580000.0,5680000.0"/>
<polygon class="l74d0" points="1550000.0,5345000.0 1550000.0,5280000.0 1580000.0,5280000.0 1580000.0,5345000.0"/>
<polygon class="l74d0" points="1550000.0,5175000.0 1550000.0,5115000.0 1580000.0,5115000.0 1580000.0,5175000.0"/>
<polygon class="l74d0" points="1600000.0,10000000.0 1600000.0,9600000.0 1630000.0,9600000.0 1630000.0,10000000.0"/>
<polygon class="l74d0" points="1600000.0,8715000.0 1600000.0,8065000.0 1630000.0,8065000.0 1630000.0,8715000.0"/>
<polygon class="l74d0" points="1600000.0,7855000.0 1600000.0,6415000.0 1630000.0,6415000.0 1630000.0,7855000.0"/>
<polygon class="l74d0" points="1600000.0,6375000.0 1600000.0,5985000.0 1630000.0,5985000.0 1630000.0,6375000.0"/>
<polygon class="l74d0" points="1600000.0,5670000.0 1600000.0,5520000.0 1630000.0,5520000.0 1630000.0,5670000.0"/>
<polygon class="l74d0" points="1600000.0,5425000.0 1600000.0,5285000.0 1630000.0,5285000.0 1630000.0,5425000.0"/>
<polygon class="l74d0" points="1600000.0,5240000.0 1600000.0,5120000.0 1630000.0,5120000.0 1630000.0,5240000.0"/>
<polygon class="l74d0" points="1650000.0,10000000.0 1650000.0,9600000.0 1680000.0,9600000.0 1680000.0,10000000.0"/>
<polygon class="l74d0" points="1650000.0,8710000.0 1650000.0,8055000.0 1680000.0,8055000.0 1680000.0,8710000.0"/>
<polygon class="l74d0" points="1650000.0,7810000.0 1650000.0,7210000.0 1680000.0,7210000.0 1680000.0,7810000.0"/>
<polygon class="l74d0" points="1650000.0,7115000.0 1650000.0,6400000.0 1680000.0,6400000.0 1680000.0,7115000.0"/>
<polygon class="l74d0" points="1650000.0,6375000.0 1650000.0,5985000.0 1680000.0,5985000.0 1680000.0,6375000.0"/>
<polygon class="l74d0" points="1650000.0,5680000.0 1650000.0,5150000.0 1680000.0,5150000.0 1680000.0,5680000.0"/>
<polygon class="l74d0" points="1700000.0,10000000.0 1700000.0,9600000.0 1730000.0,9600000.0 1730000.0,10000000.0"/>
<polygon class="l74d0" points="1700000.0,8705000.0 1700000.0,8050000.0 1730000.0,8050000.0 1730000.0,8705000.0"/>
<polygon class="l74d0" points="1700000.0,7770000.0 1700000.0,7300000.0 1730000.0,7300000.0 1730000.0,7770000.0"/>
<polygon class="l74d0" points="1700000.0,7115000.0 1700000.0,5985000.0 1730000.0,5985000.0 1730000.0,7115000.0"/>
<polygon class="l74d0" points="1750000.0,10000000.0 1750000.0,9600000.0 1780000.0,9600000.0 1780000.0,10000000.0"/>
<polygon class="l74d0" points="1750000.0,8705000.0 1750000.0,8045000.0 1780000.0,8045000.0 1780000.0,8705000.0"/>
<polygon class="l74d0" points="1750000.0,7730000.0 1750000.0,7385000.0 1780000.0,7385000.0 1780000.0,7730000.0"/>
<polygon class="l74d0" points="1750000.0,7115000.0 1750000.0,5985000.0 1780000.0,5985000.0 1780000.0,7115000.0"/>
<polygon class="l74d0" points="1800000.0,10000000.0 1800000.0,9600000.0 1830000.0,9600000.0 1830000.0,10000000.0"/>
<polygon class="l74d0" points="1800000.0,8700000.0 1800000.0,8035000.0 1830000.0,8035000.0 1830000.0,8700000.0"/>
<polygon class="l74d0" points="1800000.0,7685000.0 1800000.0,7475000.0 1830000.0,7475000.0 1830000.0,7685000.0"/>
<polygon class="l74d0" points="1800000.0,7115000.0 1800000.0,5985000.0 1830000.0,5985000.0 1830000.0,7115000.0"/>
<polygon class="l74d0" points="1800000.0,5870000.0 1800000.0,5280000.0 1830000.0,5280000.0 1830000.0,5870000.0"/>
<polygon class="l74d0" points="1850000.0,10000000.0 1850000.0,9600000.0 1880000.0,9600000.0 1880000.0,10000000.0"/>
<polygon class="l74d0" points="1850000.0,8695000.0 1850000.0,8030000.0 1880000.0,8030000.0 1880000.0,8695000.0"/>
<polygon class="l74d0" points="1850000.0,7645000.0 1850000.0,7565000.0 1880000.0,7565000.0 1880000.0,7645000.0"/>
<polygon class="l74d0" points="1850000.0,7110000.0 1850000.0,5985000.0 1880000.0,5985000.0 1880000.0,7110000.0"/>
<polygon class="l74d0" points="1850000.0,5875000.0 1850000.0,5555000.0 1880000.0,5555000.0 1880000.0,5875000.0"/>
<polygon class="l74d0" points="1900000.0,10000000.0 1900000.0,9600000.0 1930000.0,9600000.0 1930000.0,10000000.0"/>
<polygon class="l74d0" points="1900000.0,8690000.0 1900000.0,8030000.0 1930000.0,8030000.0 1930000.0,8690000.0"/>
<polygon class="l74d0" points="1900000.0,7110000.0 1900000.0,5985000.0 1930000.0,5985000.0 1930000.0,7110000.0"/>
<polygon class="l74d0" points="1900000.0,5725000.0 1900000.0,5410000.0 1930000.0,5410000.0 1930000.0,5725000.0"/>
<polygon class="l74d0" points="1950000.0,10000000.0 1950000.0,9600000.0 1980000.0,9600000.0 1980000.0,10000000.0"/>
<polygon class="l74d0" points="1950000.0,8640000.0 1950000.0,8025000.0 1980000.0,8025000.0 1980000.0,8640000.0"/>
<polygon class="l74d0" points="1950000.0,7110000.0 1950000.0,5985000.0 1980000.0,5985000.0 1980000.0,7110000.0"/>
<polygon class="l74d0" points="1950000.0,5535000.0 1950000.0,5280000.0 1980000.0,5280000.0 1980000.0,5535000.0"/>
<polygon class="l74d0" points="2000000.0,10000000.0 2000000.0,9600000.0 2030000.0,9600000.0 2030000.0,10000000.0"/>
<polygon class="l74d0" points="2000000.0,8535000.0 2000000.0,8025000.0 2030000.0,8025000.0 2030000.0,8535000.0"/>
<polygon class="l74d0" points="2000000.0,7100000.0 2000000.0,5985000.0 2030000.0,5985000.0 2030000.0,7100000.0"/>
<polygon class="l74d0" points="2000000.0,5705000.0 2000000.0,5375000.0 2030000.0,5375000.0 2030000.0,5705000.0"/>
<polygon class="l74d0" points="2050000.0,10000000.0 2050000.0,9600000.0 2080000.0,9600000.0 2080000.0,10000000.0"/>
<polygon class="l74d0" points="2050000.0,8425000.0 2050000.0,8025000.0 2080000.0,8025000.0 2080000.0,8425000.0"/>
<polygon class="l74d0" points="2050000.0,6915000.0 2050000.0,5985000.0 2080000.0,5985000.0 2080000.0,6915000.0"/>
<polygon class="l74d0" points="2050000.0,5875000.0 2050000.0,5565000.0 2080000.0,5565000.0 2080000.0,5875000.0"/>
<polygon class="l74d0" points="2100000.0,10000000.0 2100000.0,9600000.0 2130000.0,9600000.0 2130000.0,10000000.0"/>
<polygon class="l74d0" points="2100000.0,8320000.0 2100000.0,8030000.0 2130000.0,8030000.0 2130000.0,8320000.0"/>
<polygon class="l74d0" points="2100000.0,6710000.0 2100000.0,5985000.0 2130000.0,5985000.0 2130000.0,6710000.0"/>
<polygon class="l74d0" points="2100000.0,5870000.0 2100000.0,5280000.0 2130000.0,5280000.0 2130000.0,5870000.0"/>
<polygon class="l74d0" points="2150000.0,10000000.0 2150000.0,9600000.0 2180000.0,9600000.0 2180000.0,10000000.0"/>
<polygon class="l74d0" points="2150000.0,8215000.0 2150000.0,8020000.0 2180000.0,8020000.0 2180000.0,8215000.0"/>
<polygon class="l74d0" points="2150000.0,6505000.0 2150000.0,5985000.0 2180000.0,5985000.0 2180000.0,6505000.0"/>
<polygon class="l74d0" points="2150000.0,5360000.0 2150000.0,5285000.0 2180000.0,5285000.0 2180000.0,5360000.0"/>
<polygon class="l74d0" points="2200000.0,10000000.0 2200000.0,9600000.0 2230000.0,9600000.0 2230000.0,10000000.0"/>
<polygon class="l74d0" points="2200000.0,8125000.0 2200000.0,7945000.0 2230000.0,7945000.0 2230000.0,8125000.0"/>
<polygon class="l74d0" points="2200000.0,6380000.0 2200000.0,5985000.0 2230000.0,5985000.0 2230000.0,6380000.0"/>
<polygon class="l74d0" points="2250000.0,10000000.0 2250000.0,9600000.0 2280000.0,9600000.0 2280000.0,10000000.0"/>
<polygon class="l74d0" points="2250000.0,8160000.0 2250000.0,7875000.0 2280000.0,7875000.0 2280000.0,8160000.0"/>
<polygon class="l74d0" points="2250000.0,6375000.0 2250000.0,5985000.0 2280000.0,5985000.0 2280000.0,6375000.0"/>
<polygon class="l74d0" points="2250000.0,5845000.0 2250000.0,5755000.0 2280000.0,5755000.0 2280000.0,5845000.0"/>
<polygon class="l74d0" points="2250000.0,5680000.0 2250000.0,5280000.0 2280000.0,5280000.0 2280000.0,5680000.0"/>
<polygon class="l74d0" points="2300000.0,10000000.0 2300000.0,9600000.0 2330000.0,9600000.0 2330000.0,10000000.0"/>
<polygon class="l74d0" points="2300000.0,8190000.0 2300000.0,7795000.0 2330000.0,7795000.0 2330000.0,8190000.0"/>
<polygon class="l74d0" points="2300000.0,6375000.0 2300000.0,5985000.0 2330000.0,5985000.0 2330000.0,6375000.0"/>
<polygon class="l74d0" points="2300000.0,5820000.0 2300000.0,5780000.0 2330000.0,5780000.0 2330000.0,5820000.0"/>
<polygon class="l74d0" points="2350000.0,10000000.0 2350000.0,9600000.0 2380000.0,9600000.0 2380000.0,10000000.0"/>
<polygon class="l74d0" points="2350000.0,8225000.0 2350000.0,7710000.0 2380000.0,7710000.0 2380000.0,8225000.0"/>
<polygon class="l74d0" points="2350000.0,6375000.0 2350000.0,5985000.0 2380000.0,5985000.0 2380000.0,6375000.0"/>
<polygon class="l74d0" points="2400000.0,10000000.0 2400000.0,9600000.0 2430000.0,9600000.0 2430000.0,10000000.0"/>
<polygon class="l74d0" points="2400000.0,8255000.0 2400000.0,7580000.0 2430000.0,7580000.0 2430000.0,8255000.0"/>
<polygon class="l74d0" points="2400000.0,6380000.0 2400000.0,5985000.0 2430000.0,5985000.0 2430000.0,6380000.0"/>
<polygon class="l74d0" points="2400000.0,5935000.0 2400000.0,5280000.0 2430000.0,5280000.0 2430000.0,5935000.0"/>
<polygon class="l74d0" points="2450000.0,10000000.0 2450000.0,9600000.0 2480000.0,9600000.0 2480000.0,10000000.0"/>
<polygon class="l74d0" points="2450000.0,8285000.0 2450000.0,7560000.0 2480000.0,7560000.0 2480000.0,8285000.0"/>
<polygon class="l74d0" points="2450000.0,6380000.0 2450000.0,5985000.0 2480000.0,5985000.0 2480000.0,6380000.0"/>
<polygon class="l74d0" points="2450000.0,5930000.0 2450000.0,5650000.0 2480000.0,5650000.0 2480000.0,5930000.0"/>
<polygon class="l74d0" points="2450000.0,5575000.0 2450000.0,5415000.0 2480000.0,5415000.0 2480000.0,5575000.0"/>
<polygon class="l74d0" points="2450000.0,5335000.0 2450000.0,5290000.0 2480000.0,5290000.0 2480000.0,5335000.0"/>
<polygon class="l74d0" points="2500000.0,10000000.0 2500000.0,9600000.0 2530000.0,9600000.0 2530000.0,10000000.0"/>
<polygon class="l74d0" points="2500000.0,8315000.0 2500000.0,7565000.0 2530000.0,7565000.0 2530000.0,8315000.0"/>
<polygon class="l74d0" points="2500000.0,6375000.0 2500000.0,5985000.0 2530000.0,5985000.0 2530000.0,6375000.0"/>
<polygon class="l74d0" points="2500000.0,5595000.0 2500000.0,5395000.0 2530000.0,5395000.0 2530000.0,5595000.0"/>
<polygon class="l74d0" points="2550000.0,10000000.0 2550000.0,9600000.0 2580000.0,9600000.0 2580000.0,10000000.0"/>
<polygon class="l74d0" points="2550000.0,8345000.0 2550000.0,7580000.0 2580000.0,7580000.0 2580000.0,8345000.0"/>
<polygon class="l74d0" points="2550000.0,6375000.0 2550000.0,5985000.0 2580000.0,5985000.0 2580000.0,6375000.0"/>
<polygon class="l74d0" points="2550000.0,5675000.0 2550000.0,5545000.0 2580000.0,5545000.0 2580000.0,5675000.0"/>
<polygon class="l74d0" points="2550000.0,5455000.0 2550000.0,5290000.0 2580000.0,5290000.0 2580000.0,5455000.0"/>
<polygon class="l74d0" points="2600000.0,10000000.0 2600000.0,9600000.0 2630000.0,9600000.0 2630000.0,10000000.0"/>
<polygon class="l74d0" points="2600000.0,8375000.0 2600000.0,7605000.0 2630000.0,7605000.0 2630000.0,8375000.0"/>
<polygon class="l74d0" points="2600000.0,6375000.0 2600000.0,5985000.0 2630000.0,5985000.0 2630000.0,6375000.0"/>
<polygon class="l74d0" points="2600000.0,5680000.0 2600000.0,5630000.0 2630000.0,5630000.0 2630000.0,5680000.0"/>
<polygon class="l74d0" points="2600000.0,5360000.0 2600000.0,5280000.0 2630000.0,5280000.0 2630000.0,5360000.0"/>
<polygon class="l74d0" points="2650000.0,10000000.0 2650000.0,9600000.0 2680000.0,9600000.0 2680000.0,10000000.0"/>
<polygon class="l74d0" points="2650000.0,8385000.0 2650000.0,7630000.0 2680000.0,7630000.0 2680000.0,8385000.0"/>
<polygon class="l74d0" points="2650000.0,6380000.0 2650000.0,5985000.0 2680000.0,5985000.0 2680000.0,6380000.0"/>
<polygon class="l74d0" points="2700000.0,10000000.0 2700000.0,9600000.0 2730000.0,9600000.0 2730000.0,10000000.0"/>
<polygon class="l74d0" points="2700000.0,8345000.0 2700000.0,7665000.0 2730000.0,7665000.0 2730000.0,8345000.0"/>
<polygon class="l74d0" points="2700000.0,6380000.0 2700000.0,5985000.0 2730000.0,5985000.0 2730000.0,6380000.0"/>
<polygon class="l74d0" points="2700000.0,5645000.0 2700000.0,5315000.0 2730000.0,5315000.0 2730000.0,5645000.0"/>
<polygon class="l74d0" points="2750000.0,10000000.0 2750000.0,9600000.0 2780000.0,9600000.0 2780000.0,10000000.0"/>
<polygon class="l74d0" points="2750000.0,8290000.0 2750000.0,7695000.0 2780000.0,7695000.0 2780000.0,8290000.0"/>
<polygon class="l74d0" points="2750000.0,6375000.0 2750000.0,5985000.0 2780000.0,5985000.0 2780000.0,6375000.0"/>
<polygon class="l74d0" points="2750000.0,5680000.0 2750000.0,5585000.0 2780000.0,5585000.0 2780000.0,5680000.0"/>
<polygon class="l74d0" points="2750000.0,5375000.0 2750000.0,5280000.0 2780000.0,5280000.0 2780000.0,5375000.0"/>
<polygon class="l74d0" points="2800000.0,10000000.0 2800000.0,9600000.0 2830000.0,9600000.0 2830000.0,10000000.0"/>
<polygon class="l74d0" points="2800000.0,8240000.0 2800000.0,7735000.0 2830000.0,7735000.0 2830000.0,8240000.0"/>
<polygon class="l74d0" points="2800000.0,6375000.0 2800000.0,5985000.0 2830000.0,5985000.0 2830000.0,6375000.0"/>
<polygon class="l74d0" points="2800000.0,5685000.0 2800000.0,5615000.0 2830000.0,5615000.0 2830000.0,5685000.0"/>
<polygon class="l74d0" points="2800000.0,5345000.0 2800000.0,5275000.0 2830000.0,5275000.0 2830000.0,5345000.0"/>
<polygon class="l74d0" points="2850000.0,10000000.0 2850000.0,9600000.0 2880000.0,9600000.0 2880000.0,10000000.0"/>
<polygon class="l74d0" points="2850000.0,8185000.0 2850000.0,7770000.0 2880000.0,7770000.0 2880000.0,8185000.0"/>
<polygon class="l74d0" points="2850000.0,6380000.0 2850000.0,5985000.0 2880000.0,5985000.0 2880000.0,6380000.0"/>
<polygon class="l74d0" points="2850000.0,5670000.0 2850000.0,5290000.0 2880000.0,5290000.0 2880000.0,5670000.0"/>
<polygon class="l74d0" points="2900000.0,10000000.0 2900000.0,9600000.0 2930000.0,9600000.0 2930000.0,10000000.0"/>
<polygon class="l74d0" points="2900000.0,8130000.0 2900000.0,7805000.0 2930000.0,7805000.0 2930000.0,8130000.0"/>
<polygon class="l74d0" points="2900000.0,6380000.0 2900000.0,5985000.0 2930000.0,5985000.0 2930000.0,6380000.0"/>
<polygon class="l74d0" points="2900000.0,5600000.0 2900000.0,5360000.0 2930000.0,5360000.0 2930000.0,5600000.0"/>
<polygon class="l74d0" points="2950000.0,10000000.0 2950000.0,9600000.0 2980000.0,9600000.0 2980000.0,10000000.0"/>
<polygon class="l74d0" points="2950000.0,8085000.0 2950000.0,7845000.0 2980000.0,7845000.0 2980000.0,8085000.0"/>
<polygon class="l74d0" points="2950000.0,6380000.0 2950000.0,5985000.0 2980000.0,5985000.0 2980000.0,6380000.0"/>
<polygon class="l74d0" points="3000000.0,10000000.0 3000000.0,9600000.0 3030000.0,9600000.0 3030000.0,10000000.0"/>
<polygon class="l74d0" points="3000000.0,8065000.0 3000000.0,7880000.0 3030000.0,7880000.0 3030000.0,8065000.0"/>
<polygon class="l74d0" points="3000000.0,6375000.0 3000000.0,5985000.0 3030000.0,5985000.0 3030000.0,6375000.0"/>
<polygon class="l74d0" points="3000000.0,5360000.0 3000000.0,5280000.0 3030000.0,5280000.0 3030000.0,5360000.0"/>
<polygon class="l74d0" points="3050000.0,10000000.0 3050000.0,9600000.0 3080000.0,9600000.0 3080000.0,10000000.0"/>
<polygon class="l74d0" points="3050000.0,8070000.0 3050000.0,7695000.0 3080000.0,7695000.0 3080000.0,8070000.0"/>
<polygon class="l74d0" points="3050000.0,6375000.0 3050000.0,5985000.0 3080000.0,5985000.0 3080000.0,6375000.0"/>
<polygon class="l74d0" points="3050000.0,5360000.0 3050000.0,5280000.0 3080000.0,5280000.0 3080000.0,5360000.0"/>
<polygon class="l74d0" points="3100000.0,10000000.0 3100000.0,9600000.0 3130000.0,9600000.0 3130000.0,10000000.0"/>
<polygon class="l74d0" points="3100000.0,8085000.0 3100000.0,7580000.0 3130000.0,7580000.0 3130000.0,8085000.0"/>
<polygon class="l74d0" points="3100000.0,6380000.0 3100000.0,5985000.0 3130000.0,5985000.0 3130000.0,6380000.0"/>
<polygon class="l74d0" points="3150000.0,10000000.0 3150000.0,9600000.0 3180000.0,9600000.0 3180000.0,10000000.0"/>
<polygon class="l74d0" points="3150000.0,8090000.0 3150000.0,7490000.0 3180000.0,7490000.0 3180000.0,8090000.0"/>
<polygon class="l74d0" points="3150000.0,6380000.0 3150000.0,5985000.0 3180000.0,5985000.0 3180000.0,6380000.0"/>
<polygon class="l74d0" points="3150000.0,5595000.0 3150000.0,5365000.0 3180000.0,5365000.0 3180000.0,5595000.0"/>
<polygon class="l74d0" points="3200000.0,10000000.0 3200000.0,9605000.0 3230000.0,9605000.0 3230000.0,10000000.0"/>
<polygon class="l74d0" points="3200000.0,8090000.0 3200000.0,7435000.0 3230000.0,7435000.0 3230000.0,8090000.0"/>
<polygon class="l74d0" points="3200000.0,6380000.0 3200000.0,5985000.0 3230000.0,5985000.0 3230000.0,6380000.0"/>
<polygon class="l74d0" points="3200000.0,5670000.0 3200000.0,5290000.0 3230000.0,5290000.0 3230000.0,5670000.0"/>
<polygon class="l74d0" points="3250000.0,10000000.0 3250000.0,9600000.0 3280000.0,9600000.0 3280000.0,10000000.0"/>
<polygon class="l74d0" points="3250000.0,8085000.0 3250000.0,7410000.0 3280000.0,7410000.0 3280000.0,8085000.0"/>
<polygon class="l74d0" points="3250000.0,6875000.0 3250000.0,6835000.0 3280000.0,6835000.0 3280000.0,6875000.0"/>
<polygon class="l74d0" points="3250000.0,6375000.0 3250000.0,5985000.0 3280000.0,5985000.0 3280000.0,6375000.0"/>
<polygon class="l74d0" points="3250000.0,5685000.0 3250000.0,5605000.0 3280000.0,5605000.0 3280000.0,5685000.0"/>
<polygon class="l74d0" points="3250000.0,5355000.0 3250000.0,5275000.0 3280000.0,5275000.0 3280000.0,5355000.0"/>
<polygon class="l74d0" points="3300000.0,10000000.0 3300000.0,9600000.0 3330000.0,9600000.0 3330000.0,10000000.0"/>
<polygon class="l74d0" points="3300000.0,8080000.0 3300000.0,7410000.0 3330000.0,7410000.0 3330000.0,8080000.0"/>
<polygon class="l74d0" points="3300000.0,6945000.0 3300000.0,6795000.0 3330000.0,6795000.0 3330000.0,6945000.0"/>
<polygon class="l74d0" points="3300000.0,6380000.0 3300000.0,5985000.0 3330000.0,5985000.0 3330000.0,6380000.0"/>
<polygon class="l74d0" points="3300000.0,5675000.0 3300000.0,5615000.0 3330000.0,5615000.0 3330000.0,5675000.0"/>
<polygon class="l74d0" points="3300000.0,5345000.0 3300000.0,5285000.0 3330000.0,5285000.0 3330000.0,5345000.0"/>
<polygon class="l74d0" points="3350000.0,10000000.0 3350000.0,9600000.0 3380000.0,9600000.0 3380000.0,10000000.0"/>
<polygon class="l74d0" points="3350000.0,8070000.0 3350000.0,7410000.0 3380000.0,7410000.0 3380000.0,8070000.0"/>
<polygon class="l74d0" points="3350000.0,7025000.0 3350000.0,6765000.0 3380000.0,6765000.0 3380000.0,7025000.0"/>
<polygon class="l74d0" points="3350000.0,6380000.0 3350000.0,5985000.0 3380000.0,5985000.0 3380000.0,6380000.0"/>
<polygon class="l74d0" points="3400000.0,10000000.0 3400000.0,9600000.0 3430000.0,9600000.0 3430000.0,10000000.0"/>
<polygon class="l74d0" points="3400000.0,8060000.0 3400000.0,7400000.0 3430000.0,7400000.0 3430000.0,8060000.0"/>
<polygon class="l74d0" points="3400000.0,7100000.0 3400000.0,6735000.0 3430000.0,6735000.0 3430000.0,7100000.0"/>
<polygon class="l74d0" points="3400000.0,6380000.0 3400000.0,5985000.0 3430000.0,5985000.0 3430000.0,6380000.0"/>
<polygon class="l74d0" points="3400000.0,5645000.0 3400000.0,5315000.0 3430000.0,5315000.0 3430000.0,5645000.0"/>
<polygon class="l74d0" points="3450000.0,10000000.0 3450000.0,9605000.0 3480000.0,9605000.0 3480000.0,10000000.0"/>
<polygon class="l74d0" points="3450000.0,8040000.0 3450000.0,7375000.0 3480000.0,7375000.0 3480000.0,8040000.0"/>
<polygon class="l74d0" points="3450000.0,7210000.0 3450000.0,6695000.0 3480000.0,6695000.0 3480000.0,7210000.0"/>
<polygon class="l74d0" points="3450000.0,6380000.0 3450000.0,5985000.0 3480000.0,5985000.0 3480000.0,6380000.0"/>
<polygon class="l74d0" points="3450000.0,5680000.0 3450000.0,5590000.0 3480000.0,5590000.0 3480000.0,5680000.0"/>
<polygon class="l74d0" points="3450000.0,5375000.0 3450000.0,5280000.0 3480000.0,5280000.0 3480000.0,5375000.0"/>
<polygon class="l74d0" points="3500000.0,10000000.0 3500000.0,9600000.0 3530000.0,9600000.0 3530000.0,10000000.0"/>
<polygon class="l74d0" points="3500000.0,8020000.0 3500000.0,6645000.0 3530000.0,6645000.0 3530000.0,8020000.0"/>
<polygon class="l74d0" points="3500000.0,6380000.0 3500000.0,5985000.0 3530000.0,5985000.0 3530000.0,6380000.0"/>
<polygon class="l74d0" points="3500000.0,5685000.0 3500000.0,5615000.0 3530000.0,5615000.0 3530000.0,5685000.0"/>
<polygon class="l74d0" points="3500000.0,5345000.0 3500000.0,5275000.0 3530000.0,5275000.0 3530000.0,5345000.0"/>
<polygon class="l74d0" points="3550000.0,10000000.0 3550000.0,9600000.0 3580000.0,9600000.0 3580000.0,10000000.0"/>
<polygon class="l74d0" points="3550000.0,8000000.0 3550000.0,6595000.0 3580000.0,6595000.0 3580000.0,8000000.0"/>
<polygon class="l74d0" points="3550000.0,6380000.0 3550000.0,5985000.0 3580000.0,5985000.0 3580000.0,6380000.0"/>
<polygon class="l74d0" points="3550000.0,5670000.0 3550000.0,5290000.0 3580000.0,5290000.0 3580000.0,5670000.0"/>
<polygon class="l74d0" points="3600000.0,10000000.0 3600000.0,9600000.0 3630000.0,9600000.0 3630000.0,10000000.0"/>
<polygon class="l74d0" points="3600000.0,7975000.0 3600000.0,6540000.0 3630000.0,6540000.0 3630000.0,7975000.0"/>
<polygon class="l74d0" points="3600000.0,6380000.0 3600000.0,5985000.0 3630000.0,5985000.0 3630000.0,6380000.0"/>
<polygon class="l74d0" points="3600000.0,5595000.0 3600000.0,5365000.0 3630000.0,5365000.0 3630000.0,5595000.0"/>
<polygon class="l74d0" points="3650000.0,10000000.0 3650000.0,5985000.0 3680000.0,5985000.0 3680000.0,10000000.0"/>
<polygon class="l74d0" points="3700000.0,10000000.0 3700000.0,5985000.0 3730000.0,5985000.0 3730000.0,10000000.0"/>
<polygon class="l74d0" points="3700000.0,5680000.0 3700000.0,5280000.0 3730000.0,5280000.0 3730000.0,5680000.0"/>
<polygon class="l74d0" points="3750000.0,10000000.0 3750000.0,5985000.0 3780000.0,5985000.0 3780000.0,10000000.0"/>
<polygon class="l74d0" points="3750000.0,5675000.0 3750000.0,5285000.0 3780000.0,5285000.0 3780000.0,5675000.0"/>
<polygon class="l74d0" points="3800000.0,10000000.0 3800000.0,5985000.0 3830000.0,5985000.0 3830000.0,10000000.0"/>
<polygon class="l74d0" points="3800000.0,5675000.0 3800000.0,5615000.0 3830000.0,5615000.0 3830000.0,5675000.0"/>
<polygon class="l74d0" points="3850000.0,10000000.0 3850000.0,5985000.0 3880000.0,5985000.0 3880000.0,10000000.0"/>
<polygon class="l74d0" points="3850000.0,5685000.0 3850000.0,5285000.0 3880000.0,5285000.0 3880000.0,5685000.0"/>
<polygon class="l74d0" points="3900000.0,10000000.0 3900000.0,5985000.0 3930000.0,5985000.0 3930000.0,10000000.0"/>
<polygon class="l74d0" points="3900000.0,5655000.0 3900000.0,5280000.0 3930000.0,5280000.0 3930000.0,5655000.0"/>
<polygon class="l74d0" points="3950000.0,10000000.0 3950000.0,5985000.0 3980000.0,5985000.0 3980000.0,10000000.0"/>
<polygon class="l74d0" points="3950000.0,5670000.0 3950000.0,5615000.0 3980000.0,5615000.0 3980000.0,5670000.0"/>
<polygon class="l74d0" points="4000000.0,10000000.0 4000000.0,5985000.0 4030000.0,5985000.0 4030000.0,10000000.0"/>
<polygon class="l74d0" points="4000000.0,5685000.0 4000000.0,5610000.0 4030000.0,5610000.0 4030000.0,5685000.0"/>
<polygon class="l74d0" points="4050000.0,9995000.0 4050000.0,5990000.0 4080000.0,5990000.0 4080000.0,9995000.0"/>
<polygon class="l74d0" points="4050000.0,5675000.0 4050000.0,5280000.0 4080000.0,5280000.0 4080000.0,5675000.0"/>
</g>
</svg>