<?xml version="1.0" encoding="UTF-8"?>
<svg xmlns="http://www.w3.org/2000/svg" xmlns:xlink="http://www.w3.org/1999/xlink"
     width="4265315.0" height="10851665.0" viewBox="-492057.5 -10368257.5 4265315.0 10851665.0">
<defs>
<style type="text/css">
.l74d0 {stroke: rgb(158, 42, 255); fill: rgb(158, 42, 255); fill-opacity: 0.5;}
</style>
</defs>
<rect x="-492057.5" y="-10368257.5" width="4265315.0" height="10851665.0" fill="#222" stroke="none"/>
<g id="AL_AP_artwork_test" transform="scale(1 -1)">
<polygon class="l74d0" points="2050.0,9850.0 2080.0,9850.0 2080.0,9880.0 2050.0,9880.0"/>
<polygon class="l74d0" points="2000.0,9850.0 2030.0,9850.0 2030.0,9880.0 2000.0,9880.0"/>
<polygon class="l74d0" points="1950.0,9850.0 1980.0,9850.0 1980.0,9880.0 1950.0,9880.0"/>
<polygon class="l74d0" points="1900.0,9850.0 1930.0,9850.0 1930.0,9880.0 1900.0,9880.0"/>
<polygon class="l74d0" points="1850.0,9850.0 1880.0,9850.0 1880.0,9880.0 1850.0,9880.0"/>
<polygon class="l74d0" points="1800.0,9850.0 1830.0,9850.0 1830.0,9880.0 1800.0,9880.0"/>
<polygon class="l74d0" points="1750.0,9850.0 1780.0,9850.0 1780.0,9880.0 1750.0,9880.0"/>
<polygon class="l74d0" points="1700.0,9850.0 1730.0,9850.0 1730.0,9880.0 1700.0,9880.0"/>
<polygon class="l74d0" points="1650.0,9850.0 1680.0,9850.0 1680.0,9880.0 1650.0,9880.0"/>
<polygon class="l74d0" points="1600.0,9850.0 1630.0,9850.0 1630.0,9880.0 1600.0,9880.0"/>
<polygon class="l74d0" points="1550.0,9850.0 1580.0,9850.0 1580.0,9880.0 1550.0,9880.0"/>
<polygon class="l74d0" points="1500.0,9850.0 1530.0,9850.0 1530.0,9880.0 1500.0,9880.0"/>
<polygon class="l74d0" points="1450.0,9850.0 1480.0,9850.0 1480.0,9880.0 1450.0,9880.0"/>
<polygon class="l74d0" points="1400.0,9850.0 1430.0,9850.0 1430.0,9880.0 1400.0,9880.0"/>
<polygon class="l74d0" points="1350.0,9850.0 1380.0,9850.0 1380.0,9880.0 1350.0,9880.0"/>
<polygon class="l74d0" points="1300.0,9850.0 1330.0,9850.0 1330.0,9880.0 1300.0,9880.0"/>
<polygon class="l74d0" points="1250.0,9850.0 1280.0,9850.0 1280.0,9880.0 1250.0,9880.0"/>
<polygon class="l74d0" points="1200.0,9850.0 1230.0,9850.0 1230.0,9880.0 1200.0,9880.0"/>
<polygon class="l74d0" points="1750.0,9900.0 1780.0,9900.0 1780.0,9930.0 1750.0,9930.0"/>
<polygon class="l74d0" points="1800.0,9900.0 1830.0,9900.0 1830.0,9930.0 1800.0,9930.0"/>
<polygon class="l74d0" points="1850.0,9900.0 1880.0,9900.0 1880.0,9930.0 1850.0,9930.0"/>
<polygon class="l74d0" points="1900.0,9900.0 1930.0,9900.0 1930.0,9930.0 1900.0,9930.0"/>
<polygon class="l74d0" points="1950.0,9900.0 1980.0,9900.0 1980.0,9930.0 1950.0,9930.0"/>
<polygon class="l74d0" points="2000.0,9900.0 2030.0,9900.0 2030.0,9930.0 2000.0,9930.0"/>
<polygon class="l74d0" points="2050.0,9900.0 2080.0,9900.0 2080.0,9930.0 2050.0,9930.0"/>
<polygon class="l74d0" points="2100.0,9900.0 2130.0,9900.0 2130.0,9930.0 2100.0,9930.0"/>
<polygon class="l74d0" points="2150.0,9900.0 2180.0,9900.0 2180.0,9930.0 2150.0,9930.0"/>
<polygon class="l74d0" points="2200.0,9900.0 2230.0,9900.0 2230.0,9930.0 2200.0,9930.0"/>
<polygon class="l74d0" points="1700.0,9900.0 1730.0,9900.0 1730.0,9930.0 1700.0,9930.0"/>
<polygon class="l74d0" points="1650.0,9900.0 1680.0,9900.0 1680.0,9930.0 1650.0,9930.0"/>
<polygon class="l74d0" points="1600.0,9900.0 1630.0,9900.0 1630.0,9930.0 1600.0,9930.0"/>
<polygon class="l74d0" points="1550.0,9900.0 1580.0,9900.0 1580.0,9930.0 1550.0,9930.0"/>
<polygon class="l74d0" points="1500.0,9900.0 1530.0,9900.0 1530.0,9930.0 1500.0,9930.0"/>
<polygon class="l74d0" points="1450.0,9900.0 1480.0,9900.0 1480.0,9930.0 1450.0,9930.0"/>
<polygon class="l74d0" points="1400.0,9900.0 1430.0,9900.0 1430.0,9930.0 1400.0,9930.0"/>
<polygon class="l74d0" points="1350.0,9900.0 1380.0,9900.0 1380.0,9930.0 1350.0,9930.0"/>
<polygon class="l74d0" points="1300.0,9900.0 1330.0,9900.0 1330.0,9930.0 1300.0,9930.0"/>
<polygon class="l74d0" points="1250.0,9900.0 1280.0,9900.0 1280.0,9930.0 1250.0,9930.0"/>
<polygon class="l74d0" points="1200.0,9900.0 1230.0,9900.0 1230.0,9930.0 1200.0,9930.0"/>
<polygon class="l74d0" points="150000.0,8965000.0 150000.0,8910000.0 180000.0,8910000.0 180000.0,8965000.0"/>
<polygon class="l74d0" points="150000.0,7210000.0 150000.0,7155000.0 180000.0,7155000.0 180000.0,7210000.0"/>
<polygon class="l74d0" points="200000.0,8945000.0 200000.0,8825000.0 230000.0,8825000.0 230000.0,8945000.0"/>
<polygon class="l74d0" points="200000.0,7300000.0 200000.0,7175000.0 230000.0,7175000.0 230000.0,7300000.0"/>
<polygon class="l74d0" points="250000.0,8920000.0 250000.0,8740000.0 280000.0,8740000.0 280000.0,8920000.0"/>
<polygon class="l74d0" points="250000.0,7385000.0 250000.0,7190000.0 280000.0,7190000.0 280000.0,7385000.0"/>
<polygon class="l74d0" points="300000.0,8900000.0 300000.0,8650000.0 330000.0,8650000.0 330000.0,8900000.0"/>
<polygon class="l74d0" points="300000.0,7470000.0 300000.0,7205000.0 330000.0,7205000.0 330000.0,7470000.0"/>
<polygon class="l74d0" points="350000.0,8880000.0 350000.0,8570000.0 380000.0,8570000.0 380000.0,8880000.0"/>
<polygon class="l74d0" points="350000.0,7555000.0 350000.0,7225000.0 380000.0,7225000.0 380000.0,7555000.0"/>
<polygon class="l74d0" points="400000.0,8860000.0 400000.0,8815000.0 430000.0,8815000.0 430000.0,8860000.0"/>
<polygon class="l74d0" points="400000.0,8745000.0 400000.0,8480000.0 430000.0,8480000.0 430000.0,8745000.0"/>
<polygon class="l74d0" points="400000.0,7640000.0 400000.0,7245000.0 430000.0,7245000.0 430000.0,7640000.0"/>
<polygon class="l74d0" points="450000.0,8845000.0 450000.0,8805000.0 480000.0,8805000.0 480000.0,8845000.0"/>
<polygon class="l74d0" points="450000.0,8675000.0 450000.0,8395000.0 480000.0,8395000.0 480000.0,8675000.0"/>
<polygon class="l74d0" points="450000.0,7725000.0 450000.0,7265000.0 480000.0,7265000.0 480000.0,7725000.0"/>
<polygon class="l74d0" points="500000.0,8830000.0 500000.0,8795000.0 530000.0,8795000.0 530000.0,8830000.0"/>
<polygon class="l74d0" points="500000.0,8600000.0 500000.0,8315000.0 530000.0,8315000.0 530000.0,8600000.0"/>
<polygon class="l74d0" points="500000.0,7810000.0 500000.0,7280000.0 530000.0,7280000.0 530000.0,7810000.0"/>
<polygon class="l74d0" points="550000.0,8805000.0 550000.0,8770000.0 580000.0,8770000.0 580000.0,8805000.0"/>
<polygon class="l74d0" points="550000.0,8530000.0 550000.0,8230000.0 580000.0,8230000.0 580000.0,8530000.0"/>
<polygon class="l74d0" points="550000.0,7900000.0 550000.0,7295000.0 580000.0,7295000.0 580000.0,7900000.0"/>
<polygon class="l74d0" points="600000.0,8460000.0 600000.0,8140000.0 630000.0,8140000.0 630000.0,8460000.0"/>
<polygon class="l74d0" points="600000.0,7980000.0 600000.0,7405000.0 630000.0,7405000.0 630000.0,7980000.0"/>
<polygon class="l74d0" points="600000.0,7360000.0 600000.0,7315000.0 630000.0,7315000.0 630000.0,7360000.0"/>
<polygon class="l74d0" points="650000.0,8390000.0 650000.0,8055000.0 680000.0,8055000.0 680000.0,8390000.0"/>
<polygon class="l74d0" points="650000.0,7940000.0 650000.0,7495000.0 680000.0,7495000.0 680000.0,7940000.0"/>
<polygon class="l74d0" points="650000.0,7360000.0 650000.0,7325000.0 680000.0,7325000.0 680000.0,7360000.0"/>
<polygon class="l74d0" points="700000.0,8315000.0 700000.0,7970000.0 730000.0,7970000.0 730000.0,8315000.0"/>
<polygon class="l74d0" points="700000.0,7855000.0 700000.0,7580000.0 730000.0,7580000.0 730000.0,7855000.0"/>
<polygon class="l74d0" points="700000.0,7370000.0 700000.0,7335000.0 730000.0,7335000.0 730000.0,7370000.0"/>
<polygon class="l74d0" points="750000.0,8245000.0 750000.0,7885000.0 780000.0,7885000.0 780000.0,8245000.0"/>
<polygon class="l74d0" points="750000.0,7765000.0 750000.0,7660000.0 780000.0,7660000.0 780000.0,7765000.0"/>
<polygon class="l74d0" points="800000.0,8175000.0 800000.0,7800000.0 830000.0,7800000.0 830000.0,8175000.0"/>
<polygon class="l74d0" points="800000.0,6995000.0 800000.0,6470000.0 830000.0,6470000.0 830000.0,6995000.0"/>
<polygon class="l74d0" points="850000.0,8405000.0 850000.0,8370000.0 880000.0,8370000.0 880000.0,8405000.0"/>
<polygon class="l74d0" points="850000.0,8100000.0 850000.0,7715000.0 880000.0,7715000.0 880000.0,8100000.0"/>
<polygon class="l74d0" points="850000.0,6990000.0 850000.0,6470000.0 880000.0,6470000.0 880000.0,6990000.0"/>
<polygon class="l74d0" points="900000.0,8495000.0 900000.0,8315000.0 930000.0,8315000.0 930000.0,8495000.0"/>
<polygon class="l74d0" points="900000.0,8030000.0 900000.0,7630000.0 930000.0,7630000.0 930000.0,8030000.0"/>
<polygon class="l74d0" points="900000.0,6995000.0 900000.0,6865000.0 930000.0,6865000.0 930000.0,6995000.0"/>
<polygon class="l74d0" points="900000.0,6790000.0 900000.0,6665000.0 930000.0,6665000.0 930000.0,6790000.0"/>
<polygon class="l74d0" points="900000.0,6590000.0 900000.0,6470000.0 930000.0,6470000.0 930000.0,6590000.0"/>
<polygon class="l74d0" points="950000.0,8575000.0 950000.0,8250000.0 980000.0,8250000.0 980000.0,8575000.0"/>
<polygon class="l74d0" points="950000.0,7955000.0 950000.0,7545000.0 980000.0,7545000.0 980000.0,7955000.0"/>
<polygon class="l74d0" points="950000.0,6995000.0 950000.0,6870000.0 980000.0,6870000.0 980000.0,6995000.0"/>
<polygon class="l74d0" points="950000.0,6790000.0 950000.0,6670000.0 980000.0,6670000.0 980000.0,6790000.0"/>
<polygon class="l74d0" points="950000.0,6585000.0 950000.0,6470000.0 980000.0,6470000.0 980000.0,6585000.0"/>
<polygon class="l74d0" points="1000000.0,8660000.0 1000000.0,8175000.0 1030000.0,8175000.0 1030000.0,8660000.0"/>
<polygon class="l74d0" points="1000000.0,7885000.0 1000000.0,7455000.0 1030000.0,7455000.0 1030000.0,7885000.0"/>
<polygon class="l74d0" points="1000000.0,6995000.0 1000000.0,6870000.0 1030000.0,6870000.0 1030000.0,6995000.0"/>
<polygon class="l74d0" points="1000000.0,6785000.0 1000000.0,6670000.0 1030000.0,6670000.0 1030000.0,6785000.0"/>
<polygon class="l74d0" points="1000000.0,6590000.0 1000000.0,6470000.0 1030000.0,6470000.0 1030000.0,6590000.0"/>
<polygon class="l74d0" points="1050000.0,8755000.0 1050000.0,8175000.0 1080000.0,8175000.0 1080000.0,8755000.0"/>
<polygon class="l74d0" points="1050000.0,7815000.0 1050000.0,7365000.0 1080000.0,7365000.0 1080000.0,7815000.0"/>
<polygon class="l74d0" points="1050000.0,6995000.0 1050000.0,6870000.0 1080000.0,6870000.0 1080000.0,6995000.0"/>
<polygon class="l74d0" points="1050000.0,6790000.0 1050000.0,6670000.0 1080000.0,6670000.0 1080000.0,6790000.0"/>
<polygon class="l74d0" points="1050000.0,6585000.0 1050000.0,6470000.0 1080000.0,6470000.0 1080000.0,6585000.0"/>
<polygon class="l74d0" points="1100000.0,8840000.0 1100000.0,8265000.0 1130000.0,8265000.0 1130000.0,8840000.0"/>
<polygon class="l74d0" points="1100000.0,7745000.0 1100000.0,7290000.0 1130000.0,7290000.0 1130000.0,7745000.0"/>
<polygon class="l74d0" points="1100000.0,6995000.0 1100000.0,6870000.0 1130000.0,6870000.0 1130000.0,6995000.0"/>
<polygon class="l74d0" points="1100000.0,6785000.0 1100000.0,6670000.0 1130000.0,6670000.0 1130000.0,6785000.0"/>
<polygon class="l74d0" points="1100000.0,6585000.0 1100000.0,6470000.0 1130000.0,6470000.0 1130000.0,6585000.0"/>
<polygon class="l74d0" points="1150000.0,8925000.0 1150000.0,8350000.0 1180000.0,8350000.0 1180000.0,8925000.0"/>
<polygon class="l74d0" points="1150000.0,7675000.0 1150000.0,7200000.0 1180000.0,7200000.0 1180000.0,7675000.0"/>
<polygon class="l74d0" points="1150000.0,6995000.0 1150000.0,6870000.0 1180000.0,6870000.0 1180000.0,6995000.0"/>
<polygon class="l74d0" points="1150000.0,6785000.0 1150000.0,6670000.0 1180000.0,6670000.0 1180000.0,6785000.0"/>
<polygon class="l74d0" points="1150000.0,6590000.0 1150000.0,6470000.0 1180000.0,6470000.0 1180000.0,6590000.0"/>
<polygon class="l74d0" points="1200000.0,9015000.0 1200000.0,8440000.0 1230000.0,8440000.0 1230000.0,9015000.0"/>
<polygon class="l74d0" points="1200000.0,7600000.0 1200000.0,7150000.0 1230000.0,7150000.0 1230000.0,7600000.0"/>
<polygon class="l74d0" points="1200000.0,6985000.0 1200000.0,6870000.0 1230000.0,6870000.0 1230000.0,6985000.0"/>
<polygon class="l74d0" points="1200000.0,6765000.0 1200000.0,6670000.0 1230000.0,6670000.0 1230000.0,6765000.0"/>
<polygon class="l74d0" points="1200000.0,6585000.0 1200000.0,6470000.0 1230000.0,6470000.0 1230000.0,6585000.0"/>
<polygon class="l74d0" points="1250000.0,9100000.0 1250000.0,8525000.0 1280000.0,8525000.0 1280000.0,9100000.0"/>
<polygon class="l74d0" points="1250000.0,7530000.0 1250000.0,7135000.0 1280000.0,7135000.0 1280000.0,7530000.0"/>
<polygon class="l74d0" points="1250000.0,7070000.0 1250000.0,7015000.0 1280000.0,7015000.0 1280000.0,7070000.0"/>
<polygon class="l74d0" points="1250000.0,6910000.0 1250000.0,6870000.0 1280000.0,6870000.0 1280000.0,6910000.0"/>
<polygon class="l74d0" points="1250000.0,6690000.0 1250000.0,6655000.0 1280000.0,6655000.0 1280000.0,6690000.0"/>
<polygon class="l74d0" points="1250000.0,6540000.0 1250000.0,6470000.0 1280000.0,6470000.0 1280000.0,6540000.0"/>
<polygon class="l74d0" points="1300000.0,9190000.0 1300000.0,8615000.0 1330000.0,8615000.0 1330000.0,9190000.0"/>
<polygon class="l74d0" points="1300000.0,7455000.0 1300000.0,7120000.0 1330000.0,7120000.0 1330000.0,7455000.0"/>
<polygon class="l74d0" points="1300000.0,7055000.0 1300000.0,6930000.0 1330000.0,6930000.0 1330000.0,7055000.0"/>
<polygon class="l74d0" points="1350000.0,9270000.0 1350000.0,8700000.0 1380000.0,8700000.0 1380000.0,9270000.0"/>
<polygon class="l74d0" points="1350000.0,7385000.0 1350000.0,7110000.0 1380000.0,7110000.0 1380000.0,7385000.0"/>
<polygon class="l74d0" points="1350000.0,7045000.0 1350000.0,6895000.0 1380000.0,6895000.0 1380000.0,7045000.0"/>
<polygon class="l74d0" points="1400000.0,9355000.0 1400000.0,8790000.0 1430000.0,8790000.0 1430000.0,9355000.0"/>
<polygon class="l74d0" points="1400000.0,7315000.0 1400000.0,7095000.0 1430000.0,7095000.0 1430000.0,7315000.0"/>
<polygon class="l74d0" points="1400000.0,7030000.0 1400000.0,6875000.0 1430000.0,6875000.0 1430000.0,7030000.0"/>
<polygon class="l74d0" points="1450000.0,9445000.0 1450000.0,8875000.0 1480000.0,8875000.0 1480000.0,9445000.0"/>
<polygon class="l74d0" points="1450000.0,7240000.0 1450000.0,7085000.0 1480000.0,7085000.0 1480000.0,7240000.0"/>
<polygon class="l74d0" points="1450000.0,7020000.0 1450000.0,6865000.0 1480000.0,6865000.0 1480000.0,7020000.0"/>
<polygon class="l74d0" points="1500000.0,9530000.0 1500000.0,8965000.0 1530000.0,8965000.0 1530000.0,9530000.0"/>
<polygon class="l74d0" points="1500000.0,7175000.0 1500000.0,7070000.0 1530000.0,7070000.0 1530000.0,7175000.0"/>
<polygon class="l74d0" points="1500000.0,7005000.0 1500000.0,6850000.0 1530000.0,6850000.0 1530000.0,7005000.0"/>
<polygon class="l74d0" points="1550000.0,9620000.0 1550000.0,9050000.0 1580000.0,9050000.0 1580000.0,9620000.0"/>
<polygon class="l74d0" points="1550000.0,7100000.0 1550000.0,7060000.0 1580000.0,7060000.0 1580000.0,7100000.0"/>
<polygon class="l74d0" points="1550000.0,6990000.0 1550000.0,6830000.0 1580000.0,6830000.0 1580000.0,6990000.0"/>
<polygon class="l74d0" points="1600000.0,9705000.0 1600000.0,9140000.0 1630000.0,9140000.0 1630000.0,9705000.0"/>
<polygon class="l74d0" points="1600000.0,6980000.0 1600000.0,6710000.0 1630000.0,6710000.0 1630000.0,6980000.0"/>
<polygon class="l74d0" points="1650000.0,9790000.0 1650000.0,9230000.0 1680000.0,9230000.0 1680000.0,9790000.0"/>
<polygon class="l74d0" points="1650000.0,6965000.0 1650000.0,6500000.0 1680000.0,6500000.0 1680000.0,6965000.0"/>
<polygon class="l74d0" points="1700000.0,9875000.0 1700000.0,9305000.0 1730000.0,9305000.0 1730000.0,9875000.0"/>
<polygon class="l74d0" points="1700000.0,6955000.0 1700000.0,6290000.0 1730000.0,6290000.0 1730000.0,6955000.0"/>
<polygon class="l74d0" points="1750000.0,9830000.0 1750000.0,9270000.0 1780000.0,9270000.0 1780000.0,9830000.0"/>
<polygon class="l74d0" points="1750000.0,6960000.0 1750000.0,6395000.0 1780000.0,6395000.0 1780000.0,6960000.0"/>
<polygon class="l74d0" points="1800000.0,9740000.0 1800000.0,9175000.0 1830000.0,9175000.0 1830000.0,9740000.0"/>
<polygon class="l74d0" points="1800000.0,6975000.0 1800000.0,6605000.0 1830000.0,6605000.0 1830000.0,6975000.0"/>
<polygon class="l74d0" points="1850000.0,9660000.0 1850000.0,9085000.0 1880000.0,9085000.0 1880000.0,9660000.0"/>
<polygon class="l74d0" points="1850000.0,6985000.0 1850000.0,6815000.0 1880000.0,6815000.0 1880000.0,6985000.0"/>
<polygon class="l74d0" points="1900000.0,9565000.0 1900000.0,9000000.0 1930000.0,9000000.0 1930000.0,9565000.0"/>
<polygon class="l74d0" points="1900000.0,7140000.0 1900000.0,7065000.0 1930000.0,7065000.0 1930000.0,7140000.0"/>
<polygon class="l74d0" points="1900000.0,7000000.0 1900000.0,6845000.0 1930000.0,6845000.0 1930000.0,7000000.0"/>
<polygon class="l74d0" points="1950000.0,9480000.0 1950000.0,8915000.0 1980000.0,8915000.0 1980000.0,9480000.0"/>
<polygon class="l74d0" points="1950000.0,7215000.0 1950000.0,7080000.0 1980000.0,7080000.0 1980000.0,7215000.0"/>
<polygon class="l74d0" points="1950000.0,7005000.0 1950000.0,6855000.0 1980000.0,6855000.0 1980000.0,7005000.0"/>
<polygon class="l74d0" points="2000000.0,9395000.0 2000000.0,8825000.0 2030000.0,8825000.0 2030000.0,9395000.0"/>
<polygon class="l74d0" points="2000000.0,7285000.0 2000000.0,7090000.0 2030000.0,7090000.0 2030000.0,7285000.0"/>
<polygon class="l74d0" points="2000000.0,7025000.0 2000000.0,6870000.0 2030000.0,6870000.0 2030000.0,7025000.0"/>
<polygon class="l74d0" points="2050000.0,9310000.0 2050000.0,8735000.0 2080000.0,8735000.0 2080000.0,9310000.0"/>
<polygon class="l74d0" points="2050000.0,7355000.0 2050000.0,7105000.0 2080000.0,7105000.0 2080000.0,7355000.0"/>
<polygon class="l74d0" points="2050000.0,7035000.0 2050000.0,6890000.0 2080000.0,6890000.0 2080000.0,7035000.0"/>
<polygon class="l74d0" points="2100000.0,9220000.0 2100000.0,8650000.0 2130000.0,8650000.0 2130000.0,9220000.0"/>
<polygon class="l74d0" points="2100000.0,7430000.0 2100000.0,7115000.0 2130000.0,7115000.0 2130000.0,7430000.0"/>
<polygon class="l74d0" points="2100000.0,7045000.0 2100000.0,6900000.0 2130000.0,6900000.0 2130000.0,7045000.0"/>
<polygon class="l74d0" points="2150000.0,9135000.0 2150000.0,8565000.0 2180000.0,8565000.0 2180000.0,9135000.0"/>
<polygon class="l74d0" points="2150000.0,7500000.0 2150000.0,7130000.0 2180000.0,7130000.0 2180000.0,7500000.0"/>
<polygon class="l74d0" points="2150000.0,7065000.0 2150000.0,6965000.0 2180000.0,6965000.0 2180000.0,7065000.0"/>
<polygon class="l74d0" points="2150000.0,6870000.0 2150000.0,6470000.0 2180000.0,6470000.0 2180000.0,6870000.0"/>
<polygon class="l74d0" points="2200000.0,9050000.0 2200000.0,8475000.0 2230000.0,8475000.0 2230000.0,9050000.0"/>
<polygon class="l74d0" points="2200000.0,7570000.0 2200000.0,7140000.0 2230000.0,7140000.0 2230000.0,7570000.0"/>
<polygon class="l74d0" points="2200000.0,7070000.0 2200000.0,7035000.0 2230000.0,7035000.0 2230000.0,7070000.0"/>
<polygon class="l74d0" points="2200000.0,6940000.0 2200000.0,6465000.0 2230000.0,6465000.0 2230000.0,6940000.0"/>
<polygon class="l74d0" points="2250000.0,8960000.0 2250000.0,8390000.0 2280000.0,8390000.0 2280000.0,8960000.0"/>
<polygon class="l74d0" points="2250000.0,7640000.0 2250000.0,7165000.0 2280000.0,7165000.0 2280000.0,7640000.0"/>
<polygon class="l74d0" points="2250000.0,6990000.0 2250000.0,6470000.0 2280000.0,6470000.0 2280000.0,6990000.0"/>
<polygon class="l74d0" points="2300000.0,8870000.0 2300000.0,8300000.0 2330000.0,8300000.0 2330000.0,8870000.0"/>
<polygon class="l74d0" points="2300000.0,7710000.0 2300000.0,7250000.0 2330000.0,7250000.0 2330000.0,7710000.0"/>
<polygon class="l74d0" points="2300000.0,6995000.0 2300000.0,6865000.0 2330000.0,6865000.0 2330000.0,6995000.0"/>
<polygon class="l74d0" points="2300000.0,6585000.0 2300000.0,6465000.0 2330000.0,6465000.0 2330000.0,6585000.0"/>
<polygon class="l74d0" points="2350000.0,8790000.0 2350000.0,8215000.0 2380000.0,8215000.0 2380000.0,8790000.0"/>
<polygon class="l74d0" points="2350000.0,7785000.0 2350000.0,7335000.0 2380000.0,7335000.0 2380000.0,7785000.0"/>
<polygon class="l74d0" points="2350000.0,6995000.0 2350000.0,6870000.0 2380000.0,6870000.0 2380000.0,6995000.0"/>
<polygon class="l74d0" points="2350000.0,6585000.0 2350000.0,6470000.0 2380000.0,6470000.0 2380000.0,6585000.0"/>
<polygon class="l74d0" points="2400000.0,8700000.0 2400000.0,8165000.0 2430000.0,8165000.0 2430000.0,8700000.0"/>
<polygon class="l74d0" points="2400000.0,7855000.0 2400000.0,7420000.0 2430000.0,7420000.0 2430000.0,7855000.0"/>
<polygon class="l74d0" points="2400000.0,6995000.0 2400000.0,6870000.0 2430000.0,6870000.0 2430000.0,6995000.0"/>
<polygon class="l74d0" points="2400000.0,6585000.0 2400000.0,6470000.0 2430000.0,6470000.0 2430000.0,6585000.0"/>
<polygon class="l74d0" points="2450000.0,8610000.0 2450000.0,8225000.0 2480000.0,8225000.0 2480000.0,8610000.0"/>
<polygon class="l74d0" points="2450000.0,7925000.0 2450000.0,7505000.0 2480000.0,7505000.0 2480000.0,7925000.0"/>
<polygon class="l74d0" points="2450000.0,6995000.0 2450000.0,6870000.0 2480000.0,6870000.0 2480000.0,6995000.0"/>
<polygon class="l74d0" points="2450000.0,6585000.0 2450000.0,6470000.0 2480000.0,6470000.0 2480000.0,6585000.0"/>
<polygon class="l74d0" points="2500000.0,8525000.0 2500000.0,8290000.0 2530000.0,8290000.0 2530000.0,8525000.0"/>
<polygon class="l74d0" points="2500000.0,8000000.0 2500000.0,7590000.0 2530000.0,7590000.0 2530000.0,8000000.0"/>
<polygon class="l74d0" points="2500000.0,6995000.0 2500000.0,6870000.0 2530000.0,6870000.0 2530000.0,6995000.0"/>
<polygon class="l74d0" points="2500000.0,6585000.0 2500000.0,6470000.0 2530000.0,6470000.0 2530000.0,6585000.0"/>
<polygon class="l74d0" points="2550000.0,8435000.0 2550000.0,8355000.0 2580000.0,8355000.0 2580000.0,8435000.0"/>
<polygon class="l74d0" points="2550000.0,8075000.0 2550000.0,7680000.0 2580000.0,7680000.0 2580000.0,8075000.0"/>
<polygon class="l74d0" points="2550000.0,6995000.0 2550000.0,6470000.0 2580000.0,6470000.0 2580000.0,6995000.0"/>
<polygon class="l74d0" points="2600000.0,8145000.0 2600000.0,7765000.0 2630000.0,7765000.0 2630000.0,8145000.0"/>
<polygon class="l74d0" points="2600000.0,6995000.0 2600000.0,6470000.0 2630000.0,6470000.0 2630000.0,6995000.0"/>
<polygon class="l74d0" points="2650000.0,8215000.0 2650000.0,7850000.0 2680000.0,7850000.0 2680000.0,8215000.0"/>
<polygon class="l74d0" points="2650000.0,7735000.0 2650000.0,7690000.0 2680000.0,7690000.0 2680000.0,7735000.0"/>
<polygon class="l74d0" points="2650000.0,6990000.0 2650000.0,6475000.0 2680000.0,6475000.0 2680000.0,6990000.0"/>
<polygon class="l74d0" points="2700000.0,8285000.0 2700000.0,7935000.0 2730000.0,7935000.0 2730000.0,8285000.0"/>
<polygon class="l74d0" points="2700000.0,7825000.0 2700000.0,7605000.0 2730000.0,7605000.0 2730000.0,7825000.0"/>
<polygon class="l74d0" points="2700000.0,7370000.0 2700000.0,7335000.0 2730000.0,7335000.0 2730000.0,7370000.0"/>
<polygon class="l74d0" points="2750000.0,8360000.0 2750000.0,8020000.0 2780000.0,8020000.0 2780000.0,8360000.0"/>
<polygon class="l74d0" points="2750000.0,7910000.0 2750000.0,7520000.0 2780000.0,7520000.0 2780000.0,7910000.0"/>
<polygon class="l74d0" points="2750000.0,7360000.0 2750000.0,7325000.0 2780000.0,7325000.0 2780000.0,7360000.0"/>
<polygon class="l74d0" points="2800000.0,8430000.0 2800000.0,8105000.0 2830000.0,8105000.0 2830000.0,8430000.0"/>
<polygon class="l74d0" points="2800000.0,7980000.0 2800000.0,7435000.0 2830000.0,7435000.0 2830000.0,7980000.0"/>
<polygon class="l74d0" points="2800000.0,7360000.0 2800000.0,7320000.0 2830000.0,7320000.0 2830000.0,7360000.0"/>
<polygon class="l74d0" points="2850000.0,8500000.0 2850000.0,8190000.0 2880000.0,8190000.0 2880000.0,8500000.0"/>
<polygon class="l74d0" points="2850000.0,7925000.0 2850000.0,7305000.0 2880000.0,7305000.0 2880000.0,7925000.0"/>
<polygon class="l74d0" points="2900000.0,8810000.0 2900000.0,8775000.0 2930000.0,8775000.0 2930000.0,8810000.0"/>
<polygon class="l74d0" points="2900000.0,8570000.0 2900000.0,8275000.0 2930000.0,8275000.0 2930000.0,8570000.0"/>
<polygon class="l74d0" points="2900000.0,7840000.0 2900000.0,7285000.0 2930000.0,7285000.0 2930000.0,7840000.0"/>
<polygon class="l74d0" points="2950000.0,8835000.0 2950000.0,8800000.0 2980000.0,8800000.0 2980000.0,8835000.0"/>
<polygon class="l74d0" points="2950000.0,8640000.0 2950000.0,8360000.0 2980000.0,8360000.0 2980000.0,8640000.0"/>
<polygon class="l74d0" points="2950000.0,7755000.0 2950000.0,7265000.0 2980000.0,7265000.0 2980000.0,7755000.0"/>
<polygon class="l74d0" points="3000000.0,8855000.0 3000000.0,8810000.0 3030000.0,8810000.0 3030000.0,8855000.0"/>
<polygon class="l74d0" points="3000000.0,8715000.0 3000000.0,8445000.0 3030000.0,8445000.0 3030000.0,8715000.0"/>
<polygon class="l74d0" points="3000000.0,7670000.0 3000000.0,7250000.0 3030000.0,7250000.0 3030000.0,7670000.0"/>
<polygon class="l74d0" points="3050000.0,8875000.0 3050000.0,8815000.0 3080000.0,8815000.0 3080000.0,8875000.0"/>
<polygon class="l74d0" points="3050000.0,8785000.0 3050000.0,8530000.0 3080000.0,8530000.0 3080000.0,8785000.0"/>
<polygon class="l74d0" points="3050000.0,7585000.0 3050000.0,7230000.0 3080000.0,7230000.0 3080000.0,7585000.0"/>
<polygon class="l74d0" points="3100000.0,8895000.0 3100000.0,8620000.0 3130000.0,8620000.0 3130000.0,8895000.0"/>
<polygon class="l74d0" points="3100000.0,7495000.0 3100000.0,7210000.0 3130000.0,7210000.0 3130000.0,7495000.0"/>
<polygon class="l74d0" points="3150000.0,8915000.0 3150000.0,8700000.0 3180000.0,8700000.0 3180000.0,8915000.0"/>
<polygon class="l74d0" points="3150000.0,7410000.0 3150000.0,7200000.0 3180000.0,7200000.0 3180000.0,7410000.0"/>
<polygon class="l74d0" points="3200000.0,8935000.0 3200000.0,8790000.0 3230000.0,8790000.0 3230000.0,8935000.0"/>
<polygon class="l74d0" points="3200000.0,7325000.0 3200000.0,7180000.0 3230000.0,7180000.0 3230000.0,7325000.0"/>
<polygon class="l74d0" points="3250000.0,8960000.0 3250000.0,8870000.0 3280000.0,8870000.0 3280000.0,8960000.0"/>
<polygon class="l74d0" points="3250000.0,7240000.0 3250000.0,7160000.0 3280000.0,7160000.0 3280000.0,7240000.0"/>
</g>
</svg>