<?xml version="1.0" encoding="UTF-8"?>
<svg xmlns="http://www.w3.org/2000/svg" xmlns:xlink="http://www.w3.org/1999/xlink"
     width="3567315.0" height="10873665.0" viewBox="-493057.5 -10389257.5 3567315.0 10873665.0">
<defs>
<style type="text/css">
.l74d0 {stroke: rgb(158, 42, 255); fill: rgb(158, 42, 255); fill-opacity: 0.5;}
</style>
</defs>
<rect x="-493057.5" y="-10389257.5" width="3567315.0" height="10873665.0" fill="#222" stroke="none"/>
<g id="AL_AP_artwork_test" transform="scale(1 -1)">
<polygon class="l74d0" points="2050.0,9850.0 2080.0,9850.0 2080.0,9880.0 2050.0,9880.0"/>
<polygon class="l74d0" points="2000.0,9850.0 2030.0,9850.0 2030.0,9880.0 2000.0,9880.0"/>
<polygon class="l74d0" points="1950.0,9850.0 1980.0,9850.0 1980.0,9880.0 1950.0,9880.0"/>
<polygon class="l74d0" points="1900.0,9850.0 1930.0,9850.0 1930.0,9880.0 1900.0,9880.0"/>
<polygon class="l74d0" points="1850.0,9850.0 1880.0,9850.0 1880.0,9880.0 1850.0,9880.0"/>
<polygon class="l74d0" points="1800.0,9850.0 1830.0,9850.0 1830.0,9880.0 1800.0,9880.0"/>
<polygon class="l74d0" points="1750.0,9850.0 1780.0,9850.0 1780.0,9880.0 1750.0,9880.0"/>
<polygon class="l74d0" points="1700.0,9850.0 1730.0,9850.0 1730.0,9880.0 1700.0,9880.0"/>
<polygon class="l74d0" points="1650.0,9850.0 1680.0,9850.0 1680.0,9880.0 1650.0,9880.0"/>
<polygon class="l74d0" points="1600.0,9850.0 1630.0,9850.0 1630.0,9880.0 1600.0,9880.0"/>
<polygon class="l74d0" points="1550.0,9850.0 1580.0,9850.0 1580.0,9880.0 1550.0,9880.0"/>
<polygon class="l74d0" points="1500.0,9850.0 1530.0,9850.0 1530.0,9880.0 1500.0,9880.0"/>
<polygon class="l74d0" points="1450.0,9850.0 1480.0,9850.0 1480.0,9880.0 1450.0,9880.0"/>
<polygon class="l74d0" points="1400.0,9850.0 1430.0,9850.0 1430.0,9880.0 1400.0,9880.0"/>
<polygon class="l74d0" points="1350.0,9850.0 1380.0,9850.0 1380.0,9880.0 1350.0,9880.0"/>
<polygon class="l74d0" points="1300.0,9850.0 1330.0,9850.0 1330.0,9880.0 1300.0,9880.0"/>
<polygon class="l74d0" points="1250.0,9850.0 1280.0,9850.0 1280.0,9880.0 1250.0,9880.0"/>
<polygon class="l74d0" points="1200.0,9850.0 1230.0,9850.0 1230.0,9880.0 1200.0,9880.0"/>
<polygon class="l74d0" points="1750.0,9900.0 1780.0,9900.0 1780.0,9930.0 1750.0,9930.0"/>
<polygon class="l74d0" points="1800.0,9900.0 1830.0,9900.0 1830.0,9930.0 1800.0,9930.0"/>
<polygon class="l74d0" points="1850.0,9900.0 1880.0,9900.0 1880.0,9930.0 1850.0,9930.0"/>
<polygon class="l74d0" points="1900.0,9900.0 1930.0,9900.0 1930.0,9930.0 1900.0,9930.0"/>
<polygon class="l74d0" points="1950.0,9900.0 1980.0,9900.0 1980.0,9930.0 1950.0,9930.0"/>
<polygon class="l74d0" points="2000.0,9900.0 2030.0,9900.0 2030.0,9930.0 2000.0,9930.0"/>
<polygon class="l74d0" points="2050.0,9900.0 2080.0,9900.0 2080.0,9930.0 2050.0,9930.0"/>
<polygon class="l74d0" points="2100.0,9900.0 2130.0,9900.0 2130.0,9930.0 2100.0,9930.0"/>
<polygon class="l74d0" points="2150.0,9900.0 2180.0,9900.0 2180.0,9930.0 2150.0,9930.0"/>
<polygon class="l74d0" points="2200.0,9900.0 2230.0,9900.0 2230.0,9930.0 2200.0,9930.0"/>
<polygon class="l74d0" points="1700.0,9900.0 1730.0,9900.0 1730.0,9930.0 1700.0,9930.0"/>
<polygon class="l74d0" points="1650.0,9900.0 1680.0,9900.0 1680.0,9930.0 1650.0,9930.0"/>
<polygon class="l74d0" points="1600.0,9900.0 1630.0,9900.0 1630.0,9930.0 1600.0,9930.0"/>
<polygon class="l74d0" points="1550.0,9900.0 1580.0,9900.0 1580.0,9930.0 1550.0,9930.0"/>
<polygon class="l74d0" points="1500.0,9900.0 1530.0,9900.0 1530.0,9930.0 1500.0,9930.0"/>
<polygon class="l74d0" points="1450.0,9900.0 1480.0,9900.0 1480.0,9930.0 1450.0,9930.0"/>
<polygon class="l74d0" points="1400.0,9900.0 1430.0,9900.0 1430.0,9930.0 1400.0,9930.0"/>
<polygon class="l74d0" points="1350.0,9900.0 1380.0,9900.0 1380.0,9930.0 1350.0,9930.0"/>
<polygon class="l74d0" points="1300.0,9900.0 1330.0,9900.0 1330.0,9930.0 1300.0,9930.0"/>
<polygon class="l74d0" points="1250.0,9900.0 1280.0,9900.0 1280.0,9930.0 1250.0,9930.0"/>
<polygon class="l74d0" points="1200.0,9900.0 1230.0,9900.0 1230.0,9930.0 1200.0,9930.0"/>
<polygon class="l74d0" points="100000.0,9160000.0 100000.0,9125000.0 130000.0,9125000.0 130000.0,9160000.0"/>
<polygon class="l74d0" points="100000.0,7725000.0 100000.0,7690000.0 130000.0,7690000.0 130000.0,7725000.0"/>
<polygon class="l74d0" points="150000.0,9145000.0 150000.0,9055000.0 180000.0,9055000.0 180000.0,9145000.0"/>
<polygon class="l74d0" points="150000.0,7815000.0 150000.0,7715000.0 180000.0,7715000.0 180000.0,7815000.0"/>
<polygon class="l74d0" points="200000.0,9125000.0 200000.0,8965000.0 230000.0,8965000.0 230000.0,9125000.0"/>
<polygon class="l74d0" points="200000.0,7900000.0 200000.0,7735000.0 230000.0,7735000.0 230000.0,7900000.0"/>
<polygon class="l74d0" points="250000.0,9105000.0 250000.0,8880000.0 280000.0,8880000.0 280000.0,9105000.0"/>
<polygon class="l74d0" points="250000.0,7985000.0 250000.0,7755000.0 280000.0,7755000.0 280000.0,7985000.0"/>
<polygon class="l74d0" points="300000.0,9085000.0 300000.0,9040000.0 330000.0,9040000.0 330000.0,9085000.0"/>
<polygon class="l74d0" points="300000.0,9000000.0 300000.0,8790000.0 330000.0,8790000.0 330000.0,9000000.0"/>
<polygon class="l74d0" points="300000.0,8075000.0 300000.0,7770000.0 330000.0,7770000.0 330000.0,8075000.0"/>
<polygon class="l74d0" points="350000.0,9065000.0 350000.0,9030000.0 380000.0,9030000.0 380000.0,9065000.0"/>
<polygon class="l74d0" points="350000.0,8925000.0 350000.0,8700000.0 380000.0,8700000.0 380000.0,8925000.0"/>
<polygon class="l74d0" points="350000.0,8165000.0 350000.0,7790000.0 380000.0,7790000.0 380000.0,8165000.0"/>
<polygon class="l74d0" points="400000.0,9045000.0 400000.0,9010000.0 430000.0,9010000.0 430000.0,9045000.0"/>
<polygon class="l74d0" points="400000.0,8855000.0 400000.0,8615000.0 430000.0,8615000.0 430000.0,8855000.0"/>
<polygon class="l74d0" points="400000.0,8255000.0 400000.0,7810000.0 430000.0,7810000.0 430000.0,8255000.0"/>
<polygon class="l74d0" points="450000.0,8780000.0 450000.0,8530000.0 480000.0,8530000.0 480000.0,8780000.0"/>
<polygon class="l74d0" points="450000.0,8345000.0 450000.0,7825000.0 480000.0,7825000.0 480000.0,8345000.0"/>
<polygon class="l74d0" points="500000.0,8705000.0 500000.0,8440000.0 530000.0,8440000.0 530000.0,8705000.0"/>
<polygon class="l74d0" points="500000.0,8345000.0 500000.0,7965000.0 530000.0,7965000.0 530000.0,8345000.0"/>
<polygon class="l74d0" points="500000.0,7865000.0 500000.0,7830000.0 530000.0,7830000.0 530000.0,7865000.0"/>
<polygon class="l74d0" points="550000.0,8630000.0 550000.0,8355000.0 580000.0,8355000.0 580000.0,8630000.0"/>
<polygon class="l74d0" points="550000.0,8255000.0 550000.0,8055000.0 580000.0,8055000.0 580000.0,8255000.0"/>
<polygon class="l74d0" points="550000.0,7875000.0 550000.0,7840000.0 580000.0,7840000.0 580000.0,7875000.0"/>
<polygon class="l74d0" points="600000.0,8555000.0 600000.0,8265000.0 630000.0,8265000.0 630000.0,8555000.0"/>
<polygon class="l74d0" points="600000.0,8170000.0 600000.0,8135000.0 630000.0,8135000.0 630000.0,8170000.0"/>
<polygon class="l74d0" points="600000.0,7560000.0 600000.0,7155000.0 630000.0,7155000.0 630000.0,7560000.0"/>
<polygon class="l74d0" points="650000.0,8485000.0 650000.0,8180000.0 680000.0,8180000.0 680000.0,8485000.0"/>
<polygon class="l74d0" points="650000.0,7570000.0 650000.0,7145000.0 680000.0,7145000.0 680000.0,7570000.0"/>
<polygon class="l74d0" points="700000.0,8780000.0 700000.0,8640000.0 730000.0,8640000.0 730000.0,8780000.0"/>
<polygon class="l74d0" points="700000.0,8410000.0 700000.0,8090000.0 730000.0,8090000.0 730000.0,8410000.0"/>
<polygon class="l74d0" points="700000.0,7570000.0 700000.0,7465000.0 730000.0,7465000.0 730000.0,7570000.0"/>
<polygon class="l74d0" points="700000.0,7410000.0 700000.0,7305000.0 730000.0,7305000.0 730000.0,7410000.0"/>
<polygon class="l74d0" points="700000.0,7250000.0 700000.0,7145000.0 730000.0,7145000.0 730000.0,7250000.0"/>
<polygon class="l74d0" points="750000.0,8865000.0 750000.0,8575000.0 780000.0,8575000.0 780000.0,8865000.0"/>
<polygon class="l74d0" points="750000.0,8335000.0 750000.0,8005000.0 780000.0,8005000.0 780000.0,8335000.0"/>
<polygon class="l74d0" points="750000.0,7570000.0 750000.0,7470000.0 780000.0,7470000.0 780000.0,7570000.0"/>
<polygon class="l74d0" points="750000.0,7405000.0 750000.0,7310000.0 780000.0,7310000.0 780000.0,7405000.0"/>
<polygon class="l74d0" points="750000.0,7245000.0 750000.0,7145000.0 780000.0,7145000.0 780000.0,7245000.0"/>
<polygon class="l74d0" points="800000.0,8955000.0 800000.0,8520000.0 830000.0,8520000.0 830000.0,8955000.0"/>
<polygon class="l74d0" points="800000.0,8265000.0 800000.0,7915000.0 830000.0,7915000.0 830000.0,8265000.0"/>
<polygon class="l74d0" points="800000.0,7570000.0 800000.0,7470000.0 830000.0,7470000.0 830000.0,7570000.0"/>
<polygon class="l74d0" points="800000.0,7405000.0 800000.0,7310000.0 830000.0,7310000.0 830000.0,7405000.0"/>
<polygon class="l74d0" points="800000.0,7245000.0 800000.0,7145000.0 830000.0,7145000.0 830000.0,7245000.0"/>
<polygon class="l74d0" points="850000.0,9045000.0 850000.0,8585000.0 880000.0,8585000.0 880000.0,9045000.0"/>
<polygon class="l74d0" points="850000.0,8190000.0 850000.0,7830000.0 880000.0,7830000.0 880000.0,8190000.0"/>
<polygon class="l74d0" points="850000.0,7570000.0 850000.0,7470000.0 880000.0,7470000.0 880000.0,7570000.0"/>
<polygon class="l74d0" points="850000.0,7405000.0 850000.0,7310000.0 880000.0,7310000.0 880000.0,7405000.0"/>
<polygon class="l74d0" points="850000.0,7245000.0 850000.0,7145000.0 880000.0,7145000.0 880000.0,7245000.0"/>
<polygon class="l74d0" points="900000.0,9135000.0 900000.0,8675000.0 930000.0,8675000.0 930000.0,9135000.0"/>
<polygon class="l74d0" points="900000.0,8115000.0 900000.0,7740000.0 930000.0,7740000.0 930000.0,8115000.0"/>
<polygon class="l74d0" points="900000.0,7570000.0 900000.0,7470000.0 930000.0,7470000.0 930000.0,7570000.0"/>
<polygon class="l74d0" points="900000.0,7405000.0 900000.0,7310000.0 930000.0,7310000.0 930000.0,7405000.0"/>
<polygon class="l74d0" points="900000.0,7245000.0 900000.0,7145000.0 930000.0,7145000.0 930000.0,7245000.0"/>
<polygon class="l74d0" points="950000.0,9225000.0 950000.0,8765000.0 980000.0,8765000.0 980000.0,9225000.0"/>
<polygon class="l74d0" points="950000.0,8045000.0 950000.0,7690000.0 980000.0,7690000.0 980000.0,8045000.0"/>
<polygon class="l74d0" points="950000.0,7550000.0 950000.0,7470000.0 980000.0,7470000.0 980000.0,7550000.0"/>
<polygon class="l74d0" points="950000.0,7365000.0 950000.0,7310000.0 980000.0,7310000.0 980000.0,7365000.0"/>
<polygon class="l74d0" points="950000.0,7240000.0 950000.0,7145000.0 980000.0,7145000.0 980000.0,7240000.0"/>
<polygon class="l74d0" points="1000000.0,9310000.0 1000000.0,8855000.0 1030000.0,8855000.0 1030000.0,9310000.0"/>
<polygon class="l74d0" points="1000000.0,7970000.0 1000000.0,7680000.0 1030000.0,7680000.0 1030000.0,7970000.0"/>
<polygon class="l74d0" points="1000000.0,7630000.0 1000000.0,7550000.0 1030000.0,7550000.0 1030000.0,7630000.0"/>
<polygon class="l74d0" points="1050000.0,9400000.0 1050000.0,8945000.0 1080000.0,8945000.0 1080000.0,9400000.0"/>
<polygon class="l74d0" points="1050000.0,7895000.0 1050000.0,7670000.0 1080000.0,7670000.0 1080000.0,7895000.0"/>
<polygon class="l74d0" points="1050000.0,7615000.0 1050000.0,7495000.0 1080000.0,7495000.0 1080000.0,7615000.0"/>
<polygon class="l74d0" points="1100000.0,9485000.0 1100000.0,9035000.0 1130000.0,9035000.0 1130000.0,9485000.0"/>
<polygon class="l74d0" points="1100000.0,7825000.0 1100000.0,7650000.0 1130000.0,7650000.0 1130000.0,7825000.0"/>
<polygon class="l74d0" points="1100000.0,7600000.0 1100000.0,7475000.0 1130000.0,7475000.0 1130000.0,7600000.0"/>
<polygon class="l74d0" points="1150000.0,9580000.0 1150000.0,9125000.0 1180000.0,9125000.0 1180000.0,9580000.0"/>
<polygon class="l74d0" points="1150000.0,7750000.0 1150000.0,7640000.0 1180000.0,7640000.0 1180000.0,7750000.0"/>
<polygon class="l74d0" points="1150000.0,7585000.0 1150000.0,7460000.0 1180000.0,7460000.0 1180000.0,7585000.0"/>
<polygon class="l74d0" points="1200000.0,9670000.0 1200000.0,9215000.0 1230000.0,9215000.0 1230000.0,9670000.0"/>
<polygon class="l74d0" points="1200000.0,7675000.0 1200000.0,7630000.0 1230000.0,7630000.0 1230000.0,7675000.0"/>
<polygon class="l74d0" points="1200000.0,7575000.0 1200000.0,7445000.0 1230000.0,7445000.0 1230000.0,7575000.0"/>
<polygon class="l74d0" points="1250000.0,9760000.0 1250000.0,9305000.0 1280000.0,9305000.0 1280000.0,9760000.0"/>
<polygon class="l74d0" points="1250000.0,7560000.0 1250000.0,7355000.0 1280000.0,7355000.0 1280000.0,7560000.0"/>
<polygon class="l74d0" points="1300000.0,9845000.0 1300000.0,9395000.0 1330000.0,9395000.0 1330000.0,9845000.0"/>
<polygon class="l74d0" points="1300000.0,7545000.0 1300000.0,7135000.0 1330000.0,7135000.0 1330000.0,7545000.0"/>
<polygon class="l74d0" points="1350000.0,9895000.0 1350000.0,9435000.0 1380000.0,9435000.0 1380000.0,9895000.0"/>
<polygon class="l74d0" points="1350000.0,7540000.0 1350000.0,7015000.0 1380000.0,7015000.0 1380000.0,7540000.0"/>
<polygon class="l74d0" points="1400000.0,9810000.0 1400000.0,9350000.0 1430000.0,9350000.0 1430000.0,9810000.0"/>
<polygon class="l74d0" points="1400000.0,7555000.0 1400000.0,7225000.0 1430000.0,7225000.0 1430000.0,7555000.0"/>
<polygon class="l74d0" points="1450000.0,9720000.0 1450000.0,9260000.0 1480000.0,9260000.0 1480000.0,9720000.0"/>
<polygon class="l74d0" points="1450000.0,7565000.0 1450000.0,7430000.0 1480000.0,7430000.0 1480000.0,7565000.0"/>
<polygon class="l74d0" points="1500000.0,9630000.0 1500000.0,9175000.0 1530000.0,9175000.0 1530000.0,9630000.0"/>
<polygon class="l74d0" points="1500000.0,7705000.0 1500000.0,7635000.0 1530000.0,7635000.0 1530000.0,7705000.0"/>
<polygon class="l74d0" points="1500000.0,7580000.0 1500000.0,7455000.0 1530000.0,7455000.0 1530000.0,7580000.0"/>
<polygon class="l74d0" points="1550000.0,9540000.0 1550000.0,9085000.0 1580000.0,9085000.0 1580000.0,9540000.0"/>
<polygon class="l74d0" points="1550000.0,7780000.0 1550000.0,7650000.0 1580000.0,7650000.0 1580000.0,7780000.0"/>
<polygon class="l74d0" points="1550000.0,7595000.0 1550000.0,7470000.0 1580000.0,7470000.0 1580000.0,7595000.0"/>
<polygon class="l74d0" points="1600000.0,9450000.0 1600000.0,8990000.0 1630000.0,8990000.0 1630000.0,9450000.0"/>
<polygon class="l74d0" points="1600000.0,7855000.0 1600000.0,7660000.0 1630000.0,7660000.0 1630000.0,7855000.0"/>
<polygon class="l74d0" points="1600000.0,7605000.0 1600000.0,7485000.0 1630000.0,7485000.0 1630000.0,7605000.0"/>
<polygon class="l74d0" points="1650000.0,9360000.0 1650000.0,8900000.0 1680000.0,8900000.0 1680000.0,9360000.0"/>
<polygon class="l74d0" points="1650000.0,7930000.0 1650000.0,7670000.0 1680000.0,7670000.0 1680000.0,7930000.0"/>
<polygon class="l74d0" points="1650000.0,7615000.0 1650000.0,7500000.0 1680000.0,7500000.0 1680000.0,7615000.0"/>
<polygon class="l74d0" points="1700000.0,9270000.0 1700000.0,8815000.0 1730000.0,8815000.0 1730000.0,9270000.0"/>
<polygon class="l74d0" points="1700000.0,8000000.0 1700000.0,7685000.0 1730000.0,7685000.0 1730000.0,8000000.0"/>
<polygon class="l74d0" points="1700000.0,7630000.0 1700000.0,7580000.0 1730000.0,7580000.0 1730000.0,7630000.0"/>
<polygon class="l74d0" points="1700000.0,7490000.0 1700000.0,7145000.0 1730000.0,7145000.0 1730000.0,7490000.0"/>
<polygon class="l74d0" points="1750000.0,9180000.0 1750000.0,8725000.0 1780000.0,8725000.0 1780000.0,9180000.0"/>
<polygon class="l74d0" points="1750000.0,8075000.0 1750000.0,7700000.0 1780000.0,7700000.0 1780000.0,8075000.0"/>
<polygon class="l74d0" points="1750000.0,7565000.0 1750000.0,7145000.0 1780000.0,7145000.0 1780000.0,7565000.0"/>
<polygon class="l74d0" points="1800000.0,9090000.0 1800000.0,8630000.0 1830000.0,8630000.0 1830000.0,9090000.0"/>
<polygon class="l74d0" points="1800000.0,8150000.0 1800000.0,7775000.0 1830000.0,7775000.0 1830000.0,8150000.0"/>
<polygon class="l74d0" points="1800000.0,7570000.0 1800000.0,7470000.0 1830000.0,7470000.0 1830000.0,7570000.0"/>
<polygon class="l74d0" points="1800000.0,7245000.0 1800000.0,7145000.0 1830000.0,7145000.0 1830000.0,7245000.0"/>
<polygon class="l74d0" points="1850000.0,9000000.0 1850000.0,8540000.0 1880000.0,8540000.0 1880000.0,9000000.0"/>
<polygon class="l74d0" points="1850000.0,8225000.0 1850000.0,7865000.0 1880000.0,7865000.0 1880000.0,8225000.0"/>
<polygon class="l74d0" points="1850000.0,7570000.0 1850000.0,7470000.0 1880000.0,7470000.0 1880000.0,7570000.0"/>
<polygon class="l74d0" points="1850000.0,7245000.0 1850000.0,7145000.0 1880000.0,7145000.0 1880000.0,7245000.0"/>
<polygon class="l74d0" points="1900000.0,8910000.0 1900000.0,8540000.0 1930000.0,8540000.0 1930000.0,8910000.0"/>
<polygon class="l74d0" points="1900000.0,8300000.0 1900000.0,7955000.0 1930000.0,7955000.0 1930000.0,8300000.0"/>
<polygon class="l74d0" points="1900000.0,7570000.0 1900000.0,7470000.0 1930000.0,7470000.0 1930000.0,7570000.0"/>
<polygon class="l74d0" points="1900000.0,7245000.0 1900000.0,7145000.0 1930000.0,7145000.0 1930000.0,7245000.0"/>
<polygon class="l74d0" points="1950000.0,8820000.0 1950000.0,8605000.0 1980000.0,8605000.0 1980000.0,8820000.0"/>
<polygon class="l74d0" points="1950000.0,8370000.0 1950000.0,8040000.0 1980000.0,8040000.0 1980000.0,8370000.0"/>
<polygon class="l74d0" points="1950000.0,7570000.0 1950000.0,7470000.0 1980000.0,7470000.0 1980000.0,7570000.0"/>
<polygon class="l74d0" points="1950000.0,7245000.0 1950000.0,7145000.0 1980000.0,7145000.0 1980000.0,7245000.0"/>
<polygon class="l74d0" points="2000000.0,8735000.0 2000000.0,8670000.0 2030000.0,8670000.0 2030000.0,8735000.0"/>
<polygon class="l74d0" points="2000000.0,8445000.0 2000000.0,8130000.0 2030000.0,8130000.0 2030000.0,8445000.0"/>
<polygon class="l74d0" points="2000000.0,7570000.0 2000000.0,7145000.0 2030000.0,7145000.0 2030000.0,7570000.0"/>
<polygon class="l74d0" points="2050000.0,8515000.0 2050000.0,8220000.0 2080000.0,8220000.0 2080000.0,8515000.0"/>
<polygon class="l74d0" points="2050000.0,7575000.0 2050000.0,7145000.0 2080000.0,7145000.0 2080000.0,7575000.0"/>
<polygon class="l74d0" points="2100000.0,8590000.0 2100000.0,8310000.0 2130000.0,8310000.0 2130000.0,8590000.0"/>
<polygon class="l74d0" points="2100000.0,8215000.0 2100000.0,8095000.0 2130000.0,8095000.0 2130000.0,8215000.0"/>
<polygon class="l74d0" points="2150000.0,8665000.0 2150000.0,8395000.0 2180000.0,8395000.0 2180000.0,8665000.0"/>
<polygon class="l74d0" points="2150000.0,8305000.0 2150000.0,8005000.0 2180000.0,8005000.0 2180000.0,8305000.0"/>
<polygon class="l74d0" points="2150000.0,7870000.0 2150000.0,7835000.0 2180000.0,7835000.0 2180000.0,7870000.0"/>
<polygon class="l74d0" points="2200000.0,8740000.0 2200000.0,8480000.0 2230000.0,8480000.0 2230000.0,8740000.0"/>
<polygon class="l74d0" points="2200000.0,8365000.0 2200000.0,7920000.0 2230000.0,7920000.0 2230000.0,8365000.0"/>
<polygon class="l74d0" points="2200000.0,7865000.0 2200000.0,7830000.0 2230000.0,7830000.0 2230000.0,7865000.0"/>
<polygon class="l74d0" points="2250000.0,9035000.0 2250000.0,9000000.0 2280000.0,9000000.0 2280000.0,9035000.0"/>
<polygon class="l74d0" points="2250000.0,8810000.0 2250000.0,8565000.0 2280000.0,8565000.0 2280000.0,8810000.0"/>
<polygon class="l74d0" points="2250000.0,8290000.0 2250000.0,7815000.0 2280000.0,7815000.0 2280000.0,8290000.0"/>
<polygon class="l74d0" points="2300000.0,9055000.0 2300000.0,9020000.0 2330000.0,9020000.0 2330000.0,9055000.0"/>
<polygon class="l74d0" points="2300000.0,8885000.0 2300000.0,8655000.0 2330000.0,8655000.0 2330000.0,8885000.0"/>
<polygon class="l74d0" points="2300000.0,8205000.0 2300000.0,7795000.0 2330000.0,7795000.0 2330000.0,8205000.0"/>
<polygon class="l74d0" points="2350000.0,9075000.0 2350000.0,9040000.0 2380000.0,9040000.0 2380000.0,9075000.0"/>
<polygon class="l74d0" points="2350000.0,8960000.0 2350000.0,8740000.0 2380000.0,8740000.0 2380000.0,8960000.0"/>
<polygon class="l74d0" points="2350000.0,8120000.0 2350000.0,7780000.0 2380000.0,7780000.0 2380000.0,8120000.0"/>
<polygon class="l74d0" points="2400000.0,9095000.0 2400000.0,9035000.0 2430000.0,9035000.0 2430000.0,9095000.0"/>
<polygon class="l74d0" points="2400000.0,9010000.0 2400000.0,8830000.0 2430000.0,8830000.0 2430000.0,9010000.0"/>
<polygon class="l74d0" points="2400000.0,8030000.0 2400000.0,7760000.0 2430000.0,7760000.0 2430000.0,8030000.0"/>
<polygon class="l74d0" points="2450000.0,9115000.0 2450000.0,8920000.0 2480000.0,8920000.0 2480000.0,9115000.0"/>
<polygon class="l74d0" points="2450000.0,7945000.0 2450000.0,7740000.0 2480000.0,7740000.0 2480000.0,7945000.0"/>
<polygon class="l74d0" points="2500000.0,9135000.0 2500000.0,9010000.0 2530000.0,9010000.0 2530000.0,9135000.0"/>
<polygon class="l74d0" points="2500000.0,7855000.0 2500000.0,7725000.0 2530000.0,7725000.0 2530000.0,7855000.0"/>
<polygon class="l74d0" points="2550000.0,9160000.0 2550000.0,9095000.0 2580000.0,9095000.0 2580000.0,9160000.0"/>
<polygon class="l74d0" points="2550000.0,7765000.0 2550000.0,7705000.0 2580000.0,7705000.0 2580000.0,7765000.0"/>
</g>
</svg>