<?xml version="1.0" encoding="UTF-8"?>
<svg xmlns="http://www.w3.org/2000/svg" xmlns:xlink="http://www.w3.org/1999/xlink"
     width="10505815.0" height="10747165.0" viewBox="-487307.5 -10268507.5 10505815.0 10747165.0">
<defs>
<style type="text/css">
.l74d0 {stroke: rgb(158, 42, 255); fill: rgb(158, 42, 255); fill-opacity: 0.5;}
</style>
</defs>
<rect x="-487307.5" y="-10268507.5" width="10505815.0" height="10747165.0" fill="#222" stroke="none"/>
<g id="AL_AP_artwork_test" transform="scale(1 -1)">
<polygon class="l74d0" points="2050.0,9850.0 2080.0,9850.0 2080.0,9880.0 2050.0,9880.0"/>
<polygon class="l74d0" points="2000.0,9850.0 2030.0,9850.0 2030.0,9880.0 2000.0,9880.0"/>
<polygon class="l74d0" points="1950.0,9850.0 1980.0,9850.0 1980.0,9880.0 1950.0,9880.0"/>
<polygon class="l74d0" points="1900.0,9850.0 1930.0,9850.0 1930.0,9880.0 1900.0,9880.0"/>
<polygon class="l74d0" points="1850.0,9850.0 1880.0,9850.0 1880.0,9880.0 1850.0,9880.0"/>
<polygon class="l74d0" points="1800.0,9850.0 1830.0,9850.0 1830.0,9880.0 1800.0,9880.0"/>
<polygon class="l74d0" points="1750.0,9850.0 1780.0,9850.0 1780.0,9880.0 1750.0,9880.0"/>
<polygon class="l74d0" points="1700.0,9850.0 1730.0,9850.0 1730.0,9880.0 1700.0,9880.0"/>
<polygon class="l74d0" points="1650.0,9850.0 1680.0,9850.0 1680.0,9880.0 1650.0,9880.0"/>
<polygon class="l74d0" points="1600.0,9850.0 1630.0,9850.0 1630.0,9880.0 1600.0,9880.0"/>
<polygon class="l74d0" points="1550.0,9850.0 1580.0,9850.0 1580.0,9880.0 1550.0,9880.0"/>
<polygon class="l74d0" points="1500.0,9850.0 1530.0,9850.0 1530.0,9880.0 1500.0,9880.0"/>
<polygon class="l74d0" points="1450.0,9850.0 1480.0,9850.0 1480.0,9880.0 1450.0,9880.0"/>
<polygon class="l74d0" points="1400.0,9850.0 1430.0,9850.0 1430.0,9880.0 1400.0,9880.0"/>
<polygon class="l74d0" points="1350.0,9850.0 1380.0,9850.0 1380.0,9880.0 1350.0,9880.0"/>
<polygon class="l74d0" points="1300.0,9850.0 1330.0,9850.0 1330.0,9880.0 1300.0,9880.0"/>
<polygon class="l74d0" points="1250.0,9850.0 1280.0,9850.0 1280.0,9880.0 1250.0,9880.0"/>
<polygon class="l74d0" points="1200.0,9850.0 1230.0,9850.0 1230.0,9880.0 1200.0,9880.0"/>
<polygon class="l74d0" points="1750.0,9900.0 1780.0,9900.0 1780.0,9930.0 1750.0,9930.0"/>
<polygon class="l74d0" points="1800.0,9900.0 1830.0,9900.0 1830.0,9930.0 1800.0,9930.0"/>
<polygon class="l74d0" points="1850.0,9900.0 1880.0,9900.0 1880.0,9930.0 1850.0,9930.0"/>
<polygon class="l74d0" points="1900.0,9900.0 1930.0,9900.0 1930.0,9930.0 1900.0,9930.0"/>
<polygon class="l74d0" points="1950.0,9900.0 1980.0,9900.0 1980.0,9930.0 1950.0,9930.0"/>
<polygon class="l74d0" points="2000.0,9900.0 2030.0,9900.0 2030.0,9930.0 2000.0,9930.0"/>
<polygon class="l74d0" points="2050.0,9900.0 2080.0,9900.0 2080.0,9930.0 2050.0,9930.0"/>
<polygon class="l74d0" points="2100.0,9900.0 2130.0,9900.0 2130.0,9930.0 2100.0,9930.0"/>
<polygon class="l74d0" points="2150.0,9900.0 2180.0,9900.0 2180.0,9930.0 2150.0,9930.0"/>
<polygon class="l74d0" points="2200.0,9900.0 2230.0,9900.0 2230.0,9930.0 2200.0,9930.0"/>
<polygon class="l74d0" points="1700.0,9900.0 1730.0,9900.0 1730.0,9930.0 1700.0,9930.0"/>
<polygon class="l74d0" points="1650.0,9900.0 1680.0,9900.0 1680.0,9930.0 1650.0,9930.0"/>
<polygon class="l74d0" points="1600.0,9900.0 1630.0,9900.0 1630.0,9930.0 1600.0,9930.0"/>
<polygon class="l74d0" points="1550.0,9900.0 1580.0,9900.0 1580.0,9930.0 1550.0,9930.0"/>
<polygon class="l74d0" points="1500.0,9900.0 1530.0,9900.0 1530.0,9930.0 1500.0,9930.0"/>
<polygon class="l74d0" points="1450.0,9900.0 1480.0,9900.0 1480.0,9930.0 1450.0,9930.0"/>
<polygon class="l74d0" points="1400.0,9900.0 1430.0,9900.0 1430.0,9930.0 1400.0,9930.0"/>
<polygon class="l74d0" points="1350.0,9900.0 1380.0,9900.0 1380.0,9930.0 1350.0,9930.0"/>
<polygon class="l74d0" points="1300.0,9900.0 1330.0,9900.0 1330.0,9930.0 1300.0,9930.0"/>
<polygon class="l74d0" points="1250.0,9900.0 1280.0,9900.0 1280.0,9930.0 1250.0,9930.0"/>
<polygon class="l74d0" points="1200.0,9900.0 1230.0,9900.0 1230.0,9930.0 1200.0,9930.0"/>
<polygon class="l74d0" points="150000.0,9770000.0 150000.0,9215000.0 180000.0,9215000.0 180000.0,9770000.0"/>
<polygon class="l74d0" points="200000.0,9760000.0 200000.0,9725000.0 230000.0,9725000.0 230000.0,9760000.0"/>
<polygon class="l74d0" points="200000.0,9535000.0 200000.0,9465000.0 230000.0,9465000.0 230000.0,9535000.0"/>
<polygon class="l74d0" points="250000.0,9525000.0 250000.0,9480000.0 280000.0,9480000.0 280000.0,9525000.0"/>
<polygon class="l74d0" points="300000.0,9525000.0 300000.0,9480000.0 330000.0,9480000.0 330000.0,9525000.0"/>
<polygon class="l74d0" points="350000.0,9525000.0 350000.0,9480000.0 380000.0,9480000.0 380000.0,9525000.0"/>
<polygon class="l74d0" points="400000.0,9525000.0 400000.0,9480000.0 430000.0,9480000.0 430000.0,9525000.0"/>
<polygon class="l74d0" points="450000.0,9525000.0 450000.0,9480000.0 480000.0,9480000.0 480000.0,9525000.0"/>
<polygon class="l74d0" points="500000.0,9525000.0 500000.0,9475000.0 530000.0,9475000.0 530000.0,9525000.0"/>
<polygon class="l74d0" points="550000.0,9775000.0 550000.0,9205000.0 580000.0,9205000.0 580000.0,9775000.0"/>
<polygon class="l74d0" points="700000.0,9255000.0 700000.0,9210000.0 730000.0,9210000.0 730000.0,9255000.0"/>
<polygon class="l74d0" points="750000.0,9250000.0 750000.0,9205000.0 780000.0,9205000.0 780000.0,9250000.0"/>
<polygon class="l74d0" points="800000.0,9255000.0 800000.0,9205000.0 830000.0,9205000.0 830000.0,9255000.0"/>
<polygon class="l74d0" points="850000.0,9300000.0 850000.0,9225000.0 880000.0,9225000.0 880000.0,9300000.0"/>
<polygon class="l74d0" points="900000.0,9775000.0 900000.0,9270000.0 930000.0,9270000.0 930000.0,9775000.0"/>
<polygon class="l74d0" points="1050000.0,9730000.0 1050000.0,9695000.0 1080000.0,9695000.0 1080000.0,9730000.0"/>
<polygon class="l74d0" points="1050000.0,9255000.0 1050000.0,9210000.0 1080000.0,9210000.0 1080000.0,9255000.0"/>
<polygon class="l74d0" points="1100000.0,9755000.0 1100000.0,9700000.0 1130000.0,9700000.0 1130000.0,9755000.0"/>
<polygon class="l74d0" points="1100000.0,9305000.0 1100000.0,9205000.0 1130000.0,9205000.0 1130000.0,9305000.0"/>
<polygon class="l74d0" points="1150000.0,9770000.0 1150000.0,9725000.0 1180000.0,9725000.0 1180000.0,9770000.0"/>
<polygon class="l74d0" points="1150000.0,9355000.0 1150000.0,9290000.0 1180000.0,9290000.0 1180000.0,9355000.0"/>
<polygon class="l74d0" points="1150000.0,9255000.0 1150000.0,9205000.0 1180000.0,9205000.0 1180000.0,9255000.0"/>
<polygon class="l74d0" points="1200000.0,9780000.0 1200000.0,9730000.0 1230000.0,9730000.0 1230000.0,9780000.0"/>
<polygon class="l74d0" points="1200000.0,9405000.0 1200000.0,9335000.0 1230000.0,9335000.0 1230000.0,9405000.0"/>
<polygon class="l74d0" points="1200000.0,9255000.0 1200000.0,9205000.0 1230000.0,9205000.0 1230000.0,9255000.0"/>
<polygon class="l74d0" points="1250000.0,9775000.0 1250000.0,9725000.0 1280000.0,9725000.0 1280000.0,9775000.0"/>
<polygon class="l74d0" points="1250000.0,9460000.0 1250000.0,9385000.0 1280000.0,9385000.0 1280000.0,9460000.0"/>
<polygon class="l74d0" points="1250000.0,9255000.0 1250000.0,9205000.0 1280000.0,9205000.0 1280000.0,9255000.0"/>
<polygon class="l74d0" points="1300000.0,9755000.0 1300000.0,9690000.0 1330000.0,9690000.0 1330000.0,9755000.0"/>
<polygon class="l74d0" points="1300000.0,9530000.0 1300000.0,9440000.0 1330000.0,9440000.0 1330000.0,9530000.0"/>
<polygon class="l74d0" points="1300000.0,9255000.0 1300000.0,9205000.0 1330000.0,9205000.0 1330000.0,9255000.0"/>
<polygon class="l74d0" points="1350000.0,9710000.0 1350000.0,9510000.0 1380000.0,9510000.0 1380000.0,9710000.0"/>
<polygon class="l74d0" points="1350000.0,9255000.0 1350000.0,9205000.0 1380000.0,9205000.0 1380000.0,9255000.0"/>
<polygon class="l74d0" points="1500000.0,9270000.0 1500000.0,9225000.0 1530000.0,9225000.0 1530000.0,9270000.0"/>
<polygon class="l74d0" points="1550000.0,9770000.0 1550000.0,9500000.0 1580000.0,9500000.0 1580000.0,9770000.0"/>
<polygon class="l74d0" points="1550000.0,9255000.0 1550000.0,9205000.0 1580000.0,9205000.0 1580000.0,9255000.0"/>
<polygon class="l74d0" points="1600000.0,9770000.0 1600000.0,9720000.0 1630000.0,9720000.0 1630000.0,9770000.0"/>
<polygon class="l74d0" points="1600000.0,9545000.0 1600000.0,9510000.0 1630000.0,9510000.0 1630000.0,9545000.0"/>
<polygon class="l74d0" points="1600000.0,9245000.0 1600000.0,9200000.0 1630000.0,9200000.0 1630000.0,9245000.0"/>
<polygon class="l74d0" points="1650000.0,9770000.0 1650000.0,9720000.0 1680000.0,9720000.0 1680000.0,9770000.0"/>
<polygon class="l74d0" points="1650000.0,9550000.0 1650000.0,9510000.0 1680000.0,9510000.0 1680000.0,9550000.0"/>
<polygon class="l74d0" points="1650000.0,9245000.0 1650000.0,9200000.0 1680000.0,9200000.0 1680000.0,9245000.0"/>
<polygon class="l74d0" points="1700000.0,9770000.0 1700000.0,9720000.0 1730000.0,9720000.0 1730000.0,9770000.0"/>
<polygon class="l74d0" points="1700000.0,9545000.0 1700000.0,9500000.0 1730000.0,9500000.0 1730000.0,9545000.0"/>
<polygon class="l74d0" points="1700000.0,9260000.0 1700000.0,9210000.0 1730000.0,9210000.0 1730000.0,9260000.0"/>
<polygon class="l74d0" points="1750000.0,9770000.0 1750000.0,9720000.0 1780000.0,9720000.0 1780000.0,9770000.0"/>
<polygon class="l74d0" points="1750000.0,9530000.0 1750000.0,9465000.0 1780000.0,9465000.0 1780000.0,9530000.0"/>
<polygon class="l74d0" points="1750000.0,9300000.0 1750000.0,9230000.0 1780000.0,9230000.0 1780000.0,9300000.0"/>
<polygon class="l74d0" points="1800000.0,9770000.0 1800000.0,9725000.0 1830000.0,9725000.0 1830000.0,9770000.0"/>
<polygon class="l74d0" points="1800000.0,9490000.0 1800000.0,9280000.0 1830000.0,9280000.0 1830000.0,9490000.0"/>
<polygon class="l74d0" points="1900000.0,9390000.0 1900000.0,9325000.0 1930000.0,9325000.0 1930000.0,9390000.0"/>
<polygon class="l74d0" points="1950000.0,9460000.0 1950000.0,9325000.0 1980000.0,9325000.0 1980000.0,9460000.0"/>
<polygon class="l74d0" points="2000000.0,9535000.0 2000000.0,9445000.0 2030000.0,9445000.0 2030000.0,9535000.0"/>
<polygon class="l74d0" points="2000000.0,9370000.0 2000000.0,9325000.0 2030000.0,9325000.0 2030000.0,9370000.0"/>
<polygon class="l74d0" points="2050000.0,9600000.0 2050000.0,9515000.0 2080000.0,9515000.0 2080000.0,9600000.0"/>
<polygon class="l74d0" points="2050000.0,9370000.0 2050000.0,9325000.0 2080000.0,9325000.0 2080000.0,9370000.0"/>
<polygon class="l74d0" points="2100000.0,9675000.0 2100000.0,9585000.0 2130000.0,9585000.0 2130000.0,9675000.0"/>
<polygon class="l74d0" points="2100000.0,9370000.0 2100000.0,9325000.0 2130000.0,9325000.0 2130000.0,9370000.0"/>
<polygon class="l74d0" points="2150000.0,9745000.0 2150000.0,9650000.0 2180000.0,9650000.0 2180000.0,9745000.0"/>
<polygon class="l74d0" points="2150000.0,9370000.0 2150000.0,9325000.0 2180000.0,9325000.0 2180000.0,9370000.0"/>
<polygon class="l74d0" points="2200000.0,9780000.0 2200000.0,9190000.0 2230000.0,9190000.0 2230000.0,9780000.0"/>
<polygon class="l74d0" points="2250000.0,9370000.0 2250000.0,9325000.0 2280000.0,9325000.0 2280000.0,9370000.0"/>
<polygon class="l74d0" points="2300000.0,9370000.0 2300000.0,9325000.0 2330000.0,9325000.0 2330000.0,9370000.0"/>
<polygon class="l74d0" points="2400000.0,9385000.0 2400000.0,9315000.0 2430000.0,9315000.0 2430000.0,9385000.0"/>
<polygon class="l74d0" points="2450000.0,9730000.0 2450000.0,9550000.0 2480000.0,9550000.0 2480000.0,9730000.0"/>
<polygon class="l74d0" points="2450000.0,9455000.0 2450000.0,9240000.0 2480000.0,9240000.0 2480000.0,9455000.0"/>
<polygon class="l74d0" points="2500000.0,9765000.0 2500000.0,9705000.0 2530000.0,9705000.0 2530000.0,9765000.0"/>
<polygon class="l74d0" points="2500000.0,9575000.0 2500000.0,9515000.0 2530000.0,9515000.0 2530000.0,9575000.0"/>
<polygon class="l74d0" points="2500000.0,9490000.0 2500000.0,9440000.0 2530000.0,9440000.0 2530000.0,9490000.0"/>
<polygon class="l74d0" points="2500000.0,9270000.0 2500000.0,9215000.0 2530000.0,9215000.0 2530000.0,9270000.0"/>
<polygon class="l74d0" points="2550000.0,9775000.0 2550000.0,9730000.0 2580000.0,9730000.0 2580000.0,9775000.0"/>
<polygon class="l74d0" points="2550000.0,9545000.0 2550000.0,9470000.0 2580000.0,9470000.0 2580000.0,9545000.0"/>
<polygon class="l74d0" points="2550000.0,9250000.0 2550000.0,9200000.0 2580000.0,9200000.0 2580000.0,9250000.0"/>
<polygon class="l74d0" points="2600000.0,9780000.0 2600000.0,9730000.0 2630000.0,9730000.0 2630000.0,9780000.0"/>
<polygon class="l74d0" points="2600000.0,9530000.0 2600000.0,9470000.0 2630000.0,9470000.0 2630000.0,9530000.0"/>
<polygon class="l74d0" points="2600000.0,9245000.0 2600000.0,9200000.0 2630000.0,9200000.0 2630000.0,9245000.0"/>
<polygon class="l74d0" points="2650000.0,9770000.0 2650000.0,9720000.0 2680000.0,9720000.0 2680000.0,9770000.0"/>
<polygon class="l74d0" points="2650000.0,9555000.0 2650000.0,9510000.0 2680000.0,9510000.0 2680000.0,9555000.0"/>
<polygon class="l74d0" points="2650000.0,9485000.0 2650000.0,9450000.0 2680000.0,9450000.0 2680000.0,9485000.0"/>
<polygon class="l74d0" points="2650000.0,9255000.0 2650000.0,9205000.0 2680000.0,9205000.0 2680000.0,9255000.0"/>
<polygon class="l74d0" points="2700000.0,9750000.0 2700000.0,9540000.0 2730000.0,9540000.0 2730000.0,9750000.0"/>
<polygon class="l74d0" points="2700000.0,9480000.0 2700000.0,9420000.0 2730000.0,9420000.0 2730000.0,9480000.0"/>
<polygon class="l74d0" points="2700000.0,9285000.0 2700000.0,9220000.0 2730000.0,9220000.0 2730000.0,9285000.0"/>
<polygon class="l74d0" points="2750000.0,9700000.0 2750000.0,9590000.0 2780000.0,9590000.0 2780000.0,9700000.0"/>
<polygon class="l74d0" points="2750000.0,9445000.0 2750000.0,9260000.0 2780000.0,9260000.0 2780000.0,9445000.0"/>
<polygon class="l74d0" points="2850000.0,9135000.0 2850000.0,9095000.0 2880000.0,9095000.0 2880000.0,9135000.0"/>
<polygon class="l74d0" points="2900000.0,9255000.0 2900000.0,9150000.0 2930000.0,9150000.0 2930000.0,9255000.0"/>
<polygon class="l74d0" points="3250000.0,9770000.0 3250000.0,9735000.0 3280000.0,9735000.0 3280000.0,9770000.0"/>
<polygon class="l74d0" points="3300000.0,9775000.0 3300000.0,9730000.0 3330000.0,9730000.0 3330000.0,9775000.0"/>
<polygon class="l74d0" points="3350000.0,9775000.0 3350000.0,9730000.0 3380000.0,9730000.0 3380000.0,9775000.0"/>
<polygon class="l74d0" points="3400000.0,9775000.0 3400000.0,9730000.0 3430000.0,9730000.0 3430000.0,9775000.0"/>
<polygon class="l74d0" points="3450000.0,9775000.0 3450000.0,9205000.0 3480000.0,9205000.0 3480000.0,9775000.0"/>
<polygon class="l74d0" points="3500000.0,9775000.0 3500000.0,9730000.0 3530000.0,9730000.0 3530000.0,9775000.0"/>
<polygon class="l74d0" points="3550000.0,9775000.0 3550000.0,9730000.0 3580000.0,9730000.0 3580000.0,9775000.0"/>
<polygon class="l74d0" points="3600000.0,9775000.0 3600000.0,9730000.0 3630000.0,9730000.0 3630000.0,9775000.0"/>
<polygon class="l74d0" points="3650000.0,9775000.0 3650000.0,9730000.0 3680000.0,9730000.0 3680000.0,9775000.0"/>
<polygon class="l74d0" points="3800000.0,9775000.0 3800000.0,9205000.0 3830000.0,9205000.0 3830000.0,9775000.0"/>
<polygon class="l74d0" points="3850000.0,9775000.0 3850000.0,9730000.0 3880000.0,9730000.0 3880000.0,9775000.0"/>
<polygon class="l74d0" points="3850000.0,9485000.0 3850000.0,9445000.0 3880000.0,9445000.0 3880000.0,9485000.0"/>
<polygon class="l74d0" points="3900000.0,9775000.0 3900000.0,9730000.0 3930000.0,9730000.0 3930000.0,9775000.0"/>
<polygon class="l74d0" points="3900000.0,9485000.0 3900000.0,9445000.0 3930000.0,9445000.0 3930000.0,9485000.0"/>
<polygon class="l74d0" points="3950000.0,9775000.0 3950000.0,9730000.0 3980000.0,9730000.0 3980000.0,9775000.0"/>
<polygon class="l74d0" points="3950000.0,9485000.0 3950000.0,9445000.0 3980000.0,9445000.0 3980000.0,9485000.0"/>
<polygon class="l74d0" points="4000000.0,9770000.0 4000000.0,9720000.0 4030000.0,9720000.0 4030000.0,9770000.0"/>
<polygon class="l74d0" points="4000000.0,9500000.0 4000000.0,9450000.0 4030000.0,9450000.0 4030000.0,9500000.0"/>
<polygon class="l74d0" points="4050000.0,9755000.0 4050000.0,9695000.0 4080000.0,9695000.0 4080000.0,9755000.0"/>
<polygon class="l74d0" points="4050000.0,9525000.0 4050000.0,9465000.0 4080000.0,9465000.0 4080000.0,9525000.0"/>
<polygon class="l74d0" points="4100000.0,9715000.0 4100000.0,9505000.0 4130000.0,9505000.0 4130000.0,9715000.0"/>
<polygon class="l74d0" points="4250000.0,9735000.0 4250000.0,9695000.0 4280000.0,9695000.0 4280000.0,9735000.0"/>
<polygon class="l74d0" points="4250000.0,9270000.0 4250000.0,9205000.0 4280000.0,9205000.0 4280000.0,9270000.0"/>
<polygon class="l74d0" points="4300000.0,9760000.0 4300000.0,9705000.0 4330000.0,9705000.0 4330000.0,9760000.0"/>
<polygon class="l74d0" points="4300000.0,9320000.0 4300000.0,9205000.0 4330000.0,9205000.0 4330000.0,9320000.0"/>
<polygon class="l74d0" points="4350000.0,9775000.0 4350000.0,9725000.0 4380000.0,9725000.0 4380000.0,9775000.0"/>
<polygon class="l74d0" points="4350000.0,9370000.0 4350000.0,9300000.0 4380000.0,9300000.0 4380000.0,9370000.0"/>
<polygon class="l74d0" points="4350000.0,9255000.0 4350000.0,9205000.0 4380000.0,9205000.0 4380000.0,9255000.0"/>
<polygon class="l74d0" points="4400000.0,9780000.0 4400000.0,9730000.0 4430000.0,9730000.0 4430000.0,9780000.0"/>
<polygon class="l74d0" points="4400000.0,9420000.0 4400000.0,9350000.0 4430000.0,9350000.0 4430000.0,9420000.0"/>
<polygon class="l74d0" points="4400000.0,9255000.0 4400000.0,9205000.0 4430000.0,9205000.0 4430000.0,9255000.0"/>
<polygon class="l74d0" points="4450000.0,9770000.0 4450000.0,9720000.0 4480000.0,9720000.0 4480000.0,9770000.0"/>
<polygon class="l74d0" points="4450000.0,9475000.0 4450000.0,9400000.0 4480000.0,9400000.0 4480000.0,9475000.0"/>
<polygon class="l74d0" points="4450000.0,9255000.0 4450000.0,9205000.0 4480000.0,9205000.0 4480000.0,9255000.0"/>
<polygon class="l74d0" points="4500000.0,9750000.0 4500000.0,9665000.0 4530000.0,9665000.0 4530000.0,9750000.0"/>
<polygon class="l74d0" points="4500000.0,9560000.0 4500000.0,9455000.0 4530000.0,9455000.0 4530000.0,9560000.0"/>
<polygon class="l74d0" points="4500000.0,9255000.0 4500000.0,9205000.0 4530000.0,9205000.0 4530000.0,9255000.0"/>
<polygon class="l74d0" points="4550000.0,9690000.0 4550000.0,9535000.0 4580000.0,9535000.0 4580000.0,9690000.0"/>
<polygon class="l74d0" points="4550000.0,9255000.0 4550000.0,9205000.0 4580000.0,9205000.0 4580000.0,9255000.0"/>
<polygon class="l74d0" points="4700000.0,9670000.0 4700000.0,9290000.0 4730000.0,9290000.0 4730000.0,9670000.0"/>
<polygon class="l74d0" points="4750000.0,9735000.0 4750000.0,9645000.0 4780000.0,9645000.0 4780000.0,9735000.0"/>
<polygon class="l74d0" points="4750000.0,9525000.0 4750000.0,9465000.0 4780000.0,9465000.0 4780000.0,9525000.0"/>
<polygon class="l74d0" points="4750000.0,9305000.0 4750000.0,9230000.0 4780000.0,9230000.0 4780000.0,9305000.0"/>
<polygon class="l74d0" points="4800000.0,9765000.0 4800000.0,9715000.0 4830000.0,9715000.0 4830000.0,9765000.0"/>
<polygon class="l74d0" points="4800000.0,9545000.0 4800000.0,9495000.0 4830000.0,9495000.0 4830000.0,9545000.0"/>
<polygon class="l74d0" points="4800000.0,9260000.0 4800000.0,9205000.0 4830000.0,9205000.0 4830000.0,9260000.0"/>
<polygon class="l74d0" points="4850000.0,9775000.0 4850000.0,9730000.0 4880000.0,9730000.0 4880000.0,9775000.0"/>
<polygon class="l74d0" points="4850000.0,9555000.0 4850000.0,9510000.0 4880000.0,9510000.0 4880000.0,9555000.0"/>
<polygon class="l74d0" points="4850000.0,9250000.0 4850000.0,9200000.0 4880000.0,9200000.0 4880000.0,9250000.0"/>
<polygon class="l74d0" points="4900000.0,9780000.0 4900000.0,9730000.0 4930000.0,9730000.0 4930000.0,9780000.0"/>
<polygon class="l74d0" points="4900000.0,9555000.0 4900000.0,9505000.0 4930000.0,9505000.0 4930000.0,9555000.0"/>
<polygon class="l74d0" points="4900000.0,9255000.0 4900000.0,9200000.0 4930000.0,9200000.0 4930000.0,9255000.0"/>
<polygon class="l74d0" points="4950000.0,9770000.0 4950000.0,9725000.0 4980000.0,9725000.0 4980000.0,9770000.0"/>
<polygon class="l74d0" points="4950000.0,9540000.0 4950000.0,9480000.0 4980000.0,9480000.0 4980000.0,9540000.0"/>
<polygon class="l74d0" points="4950000.0,9280000.0 4950000.0,9220000.0 4980000.0,9220000.0 4980000.0,9280000.0"/>
<polygon class="l74d0" points="5000000.0,9755000.0 5000000.0,9720000.0 5030000.0,9720000.0 5030000.0,9755000.0"/>
<polygon class="l74d0" points="5000000.0,9505000.0 5000000.0,9255000.0 5030000.0,9255000.0 5030000.0,9505000.0"/>
<polygon class="l74d0" points="5150000.0,9705000.0 5150000.0,9470000.0 5180000.0,9470000.0 5180000.0,9705000.0"/>
<polygon class="l74d0" points="5150000.0,9255000.0 5150000.0,9220000.0 5180000.0,9220000.0 5180000.0,9255000.0"/>
<polygon class="l74d0" points="5200000.0,9750000.0 5200000.0,9690000.0 5230000.0,9690000.0 5230000.0,9750000.0"/>
<polygon class="l74d0" points="5200000.0,9495000.0 5200000.0,9430000.0 5230000.0,9430000.0 5230000.0,9495000.0"/>
<polygon class="l74d0" points="5200000.0,9255000.0 5200000.0,9210000.0 5230000.0,9210000.0 5230000.0,9255000.0"/>
<polygon class="l74d0" points="5250000.0,9770000.0 5250000.0,9725000.0 5280000.0,9725000.0 5280000.0,9770000.0"/>
<polygon class="l74d0" points="5250000.0,9465000.0 5250000.0,9415000.0 5280000.0,9415000.0 5280000.0,9465000.0"/>
<polygon class="l74d0" points="5250000.0,9245000.0 5250000.0,9200000.0 5280000.0,9200000.0 5280000.0,9245000.0"/>
<polygon class="l74d0" points="5300000.0,9780000.0 5300000.0,9730000.0 5330000.0,9730000.0 5330000.0,9780000.0"/>
<polygon class="l74d0" points="5300000.0,9460000.0 5300000.0,9405000.0 5330000.0,9405000.0 5330000.0,9460000.0"/>
<polygon class="l74d0" points="5300000.0,9245000.0 5300000.0,9200000.0 5330000.0,9200000.0 5330000.0,9245000.0"/>
<polygon class="l74d0" points="5350000.0,9770000.0 5350000.0,9720000.0 5380000.0,9720000.0 5380000.0,9770000.0"/>
<polygon class="l74d0" points="5350000.0,9470000.0 5350000.0,9420000.0 5380000.0,9420000.0 5380000.0,9470000.0"/>
<polygon class="l74d0" points="5350000.0,9260000.0 5350000.0,9210000.0 5380000.0,9210000.0 5380000.0,9260000.0"/>
<polygon class="l74d0" points="5400000.0,9750000.0 5400000.0,9685000.0 5430000.0,9685000.0 5430000.0,9750000.0"/>
<polygon class="l74d0" points="5400000.0,9500000.0 5400000.0,9440000.0 5430000.0,9440000.0 5430000.0,9500000.0"/>
<polygon class="l74d0" points="5400000.0,9315000.0 5400000.0,9240000.0 5430000.0,9240000.0 5430000.0,9315000.0"/>
<polygon class="l74d0" points="5450000.0,9705000.0 5450000.0,9300000.0 5480000.0,9300000.0 5480000.0,9705000.0"/>
<polygon class="l74d0" points="5600000.0,9730000.0 5600000.0,9695000.0 5630000.0,9695000.0 5630000.0,9730000.0"/>
<polygon class="l74d0" points="5600000.0,9275000.0 5600000.0,9230000.0 5630000.0,9230000.0 5630000.0,9275000.0"/>
<polygon class="l74d0" points="5650000.0,9760000.0 5650000.0,9705000.0 5680000.0,9705000.0 5680000.0,9760000.0"/>
<polygon class="l74d0" points="5650000.0,9260000.0 5650000.0,9210000.0 5680000.0,9210000.0 5680000.0,9260000.0"/>
<polygon class="l74d0" points="5700000.0,9770000.0 5700000.0,9725000.0 5730000.0,9725000.0 5730000.0,9770000.0"/>
<polygon class="l74d0" points="5700000.0,9525000.0 5700000.0,9475000.0 5730000.0,9475000.0 5730000.0,9525000.0"/>
<polygon class="l74d0" points="5700000.0,9250000.0 5700000.0,9200000.0 5730000.0,9200000.0 5730000.0,9250000.0"/>
<polygon class="l74d0" points="5750000.0,9780000.0 5750000.0,9730000.0 5780000.0,9730000.0 5780000.0,9780000.0"/>
<polygon class="l74d0" points="5750000.0,9525000.0 5750000.0,9475000.0 5780000.0,9475000.0 5780000.0,9525000.0"/>
<polygon class="l74d0" points="5750000.0,9250000.0 5750000.0,9200000.0 5780000.0,9200000.0 5780000.0,9250000.0"/>
<polygon class="l74d0" points="5800000.0,9775000.0 5800000.0,9725000.0 5830000.0,9725000.0 5830000.0,9775000.0"/>
<polygon class="l74d0" points="5800000.0,9540000.0 5800000.0,9470000.0 5830000.0,9470000.0 5830000.0,9540000.0"/>
<polygon class="l74d0" points="5800000.0,9255000.0 5800000.0,9205000.0 5830000.0,9205000.0 5830000.0,9255000.0"/>
<polygon class="l74d0" points="5850000.0,9755000.0 5850000.0,9690000.0 5880000.0,9690000.0 5880000.0,9755000.0"/>
<polygon class="l74d0" points="5850000.0,9580000.0 5850000.0,9525000.0 5880000.0,9525000.0 5880000.0,9580000.0"/>
<polygon class="l74d0" points="5850000.0,9495000.0 5850000.0,9445000.0 5880000.0,9445000.0 5880000.0,9495000.0"/>
<polygon class="l74d0" points="5850000.0,9280000.0 5850000.0,9225000.0 5880000.0,9225000.0 5880000.0,9280000.0"/>
<polygon class="l74d0" points="5900000.0,9715000.0 5900000.0,9565000.0 5930000.0,9565000.0 5930000.0,9715000.0"/>
<polygon class="l74d0" points="5900000.0,9470000.0 5900000.0,9260000.0 5930000.0,9260000.0 5930000.0,9470000.0"/>
<polygon class="l74d0" points="6050000.0,9255000.0 6050000.0,9125000.0 6080000.0,9125000.0 6080000.0,9255000.0"/>
<polygon class="l74d0" points="6450000.0,9660000.0 6450000.0,9320000.0 6480000.0,9320000.0 6480000.0,9660000.0"/>
<polygon class="l74d0" points="6500000.0,9725000.0 6500000.0,9635000.0 6530000.0,9635000.0 6530000.0,9725000.0"/>
<polygon class="l74d0" points="6500000.0,9350000.0 6500000.0,9260000.0 6530000.0,9260000.0 6530000.0,9350000.0"/>
<polygon class="l74d0" points="6550000.0,9755000.0 6550000.0,9700000.0 6580000.0,9700000.0 6580000.0,9755000.0"/>
<polygon class="l74d0" points="6550000.0,9280000.0 6550000.0,9225000.0 6580000.0,9225000.0 6580000.0,9280000.0"/>
<polygon class="l74d0" points="6600000.0,9775000.0 6600000.0,9730000.0 6630000.0,9730000.0 6630000.0,9775000.0"/>
<polygon class="l74d0" points="6600000.0,9255000.0 6600000.0,9205000.0 6630000.0,9205000.0 6630000.0,9255000.0"/>
<polygon class="l74d0" points="6650000.0,9780000.0 6650000.0,9740000.0 6680000.0,9740000.0 6680000.0,9780000.0"/>
<polygon class="l74d0" points="6650000.0,9240000.0 6650000.0,9195000.0 6680000.0,9195000.0 6680000.0,9240000.0"/>
<polygon class="l74d0" points="6700000.0,9780000.0 6700000.0,9740000.0 6730000.0,9740000.0 6730000.0,9780000.0"/>
<polygon class="l74d0" points="6700000.0,9245000.0 6700000.0,9180000.0 6730000.0,9180000.0 6730000.0,9245000.0"/>
<polygon class="l74d0" points="6750000.0,9770000.0 6750000.0,9725000.0 6780000.0,9725000.0 6780000.0,9770000.0"/>
<polygon class="l74d0" points="6750000.0,9255000.0 6750000.0,9170000.0 6780000.0,9170000.0 6780000.0,9255000.0"/>
<polygon class="l74d0" points="6800000.0,9755000.0 6800000.0,9695000.0 6830000.0,9695000.0 6830000.0,9755000.0"/>
<polygon class="l74d0" points="6800000.0,9290000.0 6800000.0,9235000.0 6830000.0,9235000.0 6830000.0,9290000.0"/>
<polygon class="l74d0" points="6800000.0,9200000.0 6800000.0,9155000.0 6830000.0,9155000.0 6830000.0,9200000.0"/>
<polygon class="l74d0" points="6850000.0,9715000.0 6850000.0,9615000.0 6880000.0,9615000.0 6880000.0,9715000.0"/>
<polygon class="l74d0" points="6850000.0,9365000.0 6850000.0,9270000.0 6880000.0,9270000.0 6880000.0,9365000.0"/>
<polygon class="l74d0" points="6850000.0,9190000.0 6850000.0,9145000.0 6880000.0,9145000.0 6880000.0,9190000.0"/>
<polygon class="l74d0" points="6900000.0,9640000.0 6900000.0,9340000.0 6930000.0,9340000.0 6930000.0,9640000.0"/>
<polygon class="l74d0" points="6900000.0,9175000.0 6900000.0,9130000.0 6930000.0,9130000.0 6930000.0,9175000.0"/>
<polygon class="l74d0" points="7000000.0,9770000.0 7000000.0,9730000.0 7030000.0,9730000.0 7030000.0,9770000.0"/>
<polygon class="l74d0" points="7050000.0,9760000.0 7050000.0,9540000.0 7080000.0,9540000.0 7080000.0,9760000.0"/>
<polygon class="l74d0" points="7100000.0,9555000.0 7100000.0,9350000.0 7130000.0,9350000.0 7130000.0,9555000.0"/>
<polygon class="l74d0" points="7150000.0,9370000.0 7150000.0,9210000.0 7180000.0,9210000.0 7180000.0,9370000.0"/>
<polygon class="l74d0" points="7200000.0,9395000.0 7200000.0,9230000.0 7230000.0,9230000.0 7230000.0,9395000.0"/>
<polygon class="l74d0" points="7250000.0,9560000.0 7250000.0,9390000.0 7280000.0,9390000.0 7280000.0,9560000.0"/>
<polygon class="l74d0" points="7300000.0,9725000.0 7300000.0,9560000.0 7330000.0,9560000.0 7330000.0,9725000.0"/>
<polygon class="l74d0" points="7350000.0,9770000.0 7350000.0,9630000.0 7380000.0,9630000.0 7380000.0,9770000.0"/>
<polygon class="l74d0" points="7400000.0,9650000.0 7400000.0,9465000.0 7430000.0,9465000.0 7430000.0,9650000.0"/>
<polygon class="l74d0" points="7450000.0,9480000.0 7450000.0,9310000.0 7480000.0,9310000.0 7480000.0,9480000.0"/>
<polygon class="l74d0" points="7500000.0,9340000.0 7500000.0,9205000.0 7530000.0,9205000.0 7530000.0,9340000.0"/>
<polygon class="l74d0" points="7550000.0,9465000.0 7550000.0,9280000.0 7580000.0,9280000.0 7580000.0,9465000.0"/>
<polygon class="l74d0" points="7600000.0,9660000.0 7600000.0,9455000.0 7630000.0,9455000.0 7630000.0,9660000.0"/>
<polygon class="l74d0" points="7650000.0,9775000.0 7650000.0,9660000.0 7680000.0,9660000.0 7680000.0,9775000.0"/>
<polygon class="l74d0" points="7800000.0,9740000.0 7800000.0,9690000.0 7830000.0,9690000.0 7830000.0,9740000.0"/>
<polygon class="l74d0" points="7800000.0,9280000.0 7800000.0,9205000.0 7830000.0,9205000.0 7830000.0,9280000.0"/>
<polygon class="l74d0" points="7850000.0,9765000.0 7850000.0,9715000.0 7880000.0,9715000.0 7880000.0,9765000.0"/>
<polygon class="l74d0" points="7850000.0,9330000.0 7850000.0,9205000.0 7880000.0,9205000.0 7880000.0,9330000.0"/>
<polygon class="l74d0" points="7900000.0,9780000.0 7900000.0,9730000.0 7930000.0,9730000.0 7930000.0,9780000.0"/>
<polygon class="l74d0" points="7900000.0,9380000.0 7900000.0,9310000.0 7930000.0,9310000.0 7930000.0,9380000.0"/>
<polygon class="l74d0" points="7900000.0,9255000.0 7900000.0,9205000.0 7930000.0,9205000.0 7930000.0,9255000.0"/>
<polygon class="l74d0" points="7950000.0,9780000.0 7950000.0,9730000.0 7980000.0,9730000.0 7980000.0,9780000.0"/>
<polygon class="l74d0" points="7950000.0,9430000.0 7950000.0,9360000.0 7980000.0,9360000.0 7980000.0,9430000.0"/>
<polygon class="l74d0" points="7950000.0,9255000.0 7950000.0,9205000.0 7980000.0,9205000.0 7980000.0,9255000.0"/>
<polygon class="l74d0" points="8000000.0,9770000.0 8000000.0,9715000.0 8030000.0,9715000.0 8030000.0,9770000.0"/>
<polygon class="l74d0" points="8000000.0,9490000.0 8000000.0,9410000.0 8030000.0,9410000.0 8030000.0,9490000.0"/>
<polygon class="l74d0" points="8000000.0,9255000.0 8000000.0,9205000.0 8030000.0,9205000.0 8030000.0,9255000.0"/>
<polygon class="l74d0" points="8050000.0,9740000.0 8050000.0,9465000.0 8080000.0,9465000.0 8080000.0,9740000.0"/>
<polygon class="l74d0" points="8050000.0,9255000.0 8050000.0,9205000.0 8080000.0,9205000.0 8080000.0,9255000.0"/>
<polygon class="l74d0" points="8100000.0,9645000.0 8100000.0,9580000.0 8130000.0,9580000.0 8130000.0,9645000.0"/>
<polygon class="l74d0" points="8100000.0,9255000.0 8100000.0,9205000.0 8130000.0,9205000.0 8130000.0,9255000.0"/>
<polygon class="l74d0" points="8250000.0,9740000.0 8250000.0,9700000.0 8280000.0,9700000.0 8280000.0,9740000.0"/>
<polygon class="l74d0" points="8250000.0,9275000.0 8250000.0,9220000.0 8280000.0,9220000.0 8280000.0,9275000.0"/>
<polygon class="l74d0" points="8300000.0,9760000.0 8300000.0,9715000.0 8330000.0,9715000.0 8330000.0,9760000.0"/>
<polygon class="l74d0" points="8300000.0,9255000.0 8300000.0,9205000.0 8330000.0,9205000.0 8330000.0,9255000.0"/>
<polygon class="l74d0" points="8350000.0,9775000.0 8350000.0,9730000.0 8380000.0,9730000.0 8380000.0,9775000.0"/>
<polygon class="l74d0" points="8350000.0,9525000.0 8350000.0,9475000.0 8380000.0,9475000.0 8380000.0,9525000.0"/>
<polygon class="l74d0" points="8350000.0,9250000.0 8350000.0,9200000.0 8380000.0,9200000.0 8380000.0,9250000.0"/>
<polygon class="l74d0" points="8400000.0,9780000.0 8400000.0,9730000.0 8430000.0,9730000.0 8430000.0,9780000.0"/>
<polygon class="l74d0" points="8400000.0,9530000.0 8400000.0,9475000.0 8430000.0,9475000.0 8430000.0,9530000.0"/>
<polygon class="l74d0" points="8400000.0,9250000.0 8400000.0,9200000.0 8430000.0,9200000.0 8430000.0,9250000.0"/>
<polygon class="l74d0" points="8450000.0,9770000.0 8450000.0,9715000.0 8480000.0,9715000.0 8480000.0,9770000.0"/>
<polygon class="l74d0" points="8450000.0,9545000.0 8450000.0,9465000.0 8480000.0,9465000.0 8480000.0,9545000.0"/>
<polygon class="l74d0" points="8450000.0,9260000.0 8450000.0,9210000.0 8480000.0,9210000.0 8480000.0,9260000.0"/>
<polygon class="l74d0" points="8500000.0,9750000.0 8500000.0,9645000.0 8530000.0,9645000.0 8530000.0,9750000.0"/>
<polygon class="l74d0" points="8500000.0,9620000.0 8500000.0,9530000.0 8530000.0,9530000.0 8530000.0,9620000.0"/>
<polygon class="l74d0" points="8500000.0,9490000.0 8500000.0,9435000.0 8530000.0,9435000.0 8530000.0,9490000.0"/>
<polygon class="l74d0" points="8500000.0,9290000.0 8500000.0,9230000.0 8530000.0,9230000.0 8530000.0,9290000.0"/>
<polygon class="l74d0" points="8550000.0,9695000.0 8550000.0,9585000.0 8580000.0,9585000.0 8580000.0,9695000.0"/>
<polygon class="l74d0" points="8550000.0,9460000.0 8550000.0,9275000.0 8580000.0,9275000.0 8580000.0,9460000.0"/>
<polygon class="l74d0" points="8700000.0,9610000.0 8700000.0,9495000.0 8730000.0,9495000.0 8730000.0,9610000.0"/>
<polygon class="l74d0" points="8700000.0,9270000.0 8700000.0,9220000.0 8730000.0,9220000.0 8730000.0,9270000.0"/>
<polygon class="l74d0" points="8750000.0,9770000.0 8750000.0,9590000.0 8780000.0,9590000.0 8780000.0,9770000.0"/>
<polygon class="l74d0" points="8750000.0,9550000.0 8750000.0,9500000.0 8780000.0,9500000.0 8780000.0,9550000.0"/>
<polygon class="l74d0" points="8750000.0,9255000.0 8750000.0,9205000.0 8780000.0,9205000.0 8780000.0,9255000.0"/>
<polygon class="l74d0" points="8800000.0,9770000.0 8800000.0,9720000.0 8830000.0,9720000.0 8830000.0,9770000.0"/>
<polygon class="l74d0" points="8800000.0,9550000.0 8800000.0,9510000.0 8830000.0,9510000.0 8830000.0,9550000.0"/>
<polygon class="l74d0" points="8800000.0,9245000.0 8800000.0,9200000.0 8830000.0,9200000.0 8830000.0,9245000.0"/>
<polygon class="l74d0" points="8850000.0,9770000.0 8850000.0,9720000.0 8880000.0,9720000.0 8880000.0,9770000.0"/>
<polygon class="l74d0" points="8850000.0,9550000.0 8850000.0,9510000.0 8880000.0,9510000.0 8880000.0,9550000.0"/>
<polygon class="l74d0" points="8850000.0,9245000.0 8850000.0,9200000.0 8880000.0,9200000.0 8880000.0,9245000.0"/>
<polygon class="l74d0" points="8900000.0,9770000.0 8900000.0,9720000.0 8930000.0,9720000.0 8930000.0,9770000.0"/>
<polygon class="l74d0" points="8900000.0,9540000.0 8900000.0,9495000.0 8930000.0,9495000.0 8930000.0,9540000.0"/>
<polygon class="l74d0" points="8900000.0,9260000.0 8900000.0,9210000.0 8930000.0,9210000.0 8930000.0,9260000.0"/>
<polygon class="l74d0" points="8950000.0,9770000.0 8950000.0,9720000.0 8980000.0,9720000.0 8980000.0,9770000.0"/>
<polygon class="l74d0" points="8950000.0,9525000.0 8950000.0,9450000.0 8980000.0,9450000.0 8980000.0,9525000.0"/>
<polygon class="l74d0" points="8950000.0,9315000.0 8950000.0,9235000.0 8980000.0,9235000.0 8980000.0,9315000.0"/>
<polygon class="l74d0" points="9000000.0,9765000.0 9000000.0,9730000.0 9030000.0,9730000.0 9030000.0,9765000.0"/>
<polygon class="l74d0" points="9000000.0,9480000.0 9000000.0,9290000.0 9030000.0,9290000.0 9030000.0,9480000.0"/>
<polygon class="l74d0" points="9150000.0,9715000.0 9150000.0,9565000.0 9180000.0,9565000.0 9180000.0,9715000.0"/>
<polygon class="l74d0" points="9150000.0,9445000.0 9150000.0,9250000.0 9180000.0,9250000.0 9180000.0,9445000.0"/>
<polygon class="l74d0" points="9200000.0,9755000.0 9200000.0,9690000.0 9230000.0,9690000.0 9230000.0,9755000.0"/>
<polygon class="l74d0" points="9200000.0,9595000.0 9200000.0,9520000.0 9230000.0,9520000.0 9230000.0,9595000.0"/>
<polygon class="l74d0" points="9200000.0,9485000.0 9200000.0,9430000.0 9230000.0,9430000.0 9230000.0,9485000.0"/>
<polygon class="l74d0" points="9200000.0,9280000.0 9200000.0,9220000.0 9230000.0,9220000.0 9230000.0,9280000.0"/>
<polygon class="l74d0" points="9250000.0,9775000.0 9250000.0,9725000.0 9280000.0,9725000.0 9280000.0,9775000.0"/>
<polygon class="l74d0" points="9250000.0,9550000.0 9250000.0,9460000.0 9280000.0,9460000.0 9280000.0,9550000.0"/>
<polygon class="l74d0" points="9250000.0,9255000.0 9250000.0,9200000.0 9280000.0,9200000.0 9280000.0,9255000.0"/>
<polygon class="l74d0" points="9300000.0,9780000.0 9300000.0,9730000.0 9330000.0,9730000.0 9330000.0,9780000.0"/>
<polygon class="l74d0" points="9300000.0,9530000.0 9300000.0,9475000.0 9330000.0,9475000.0 9330000.0,9530000.0"/>
<polygon class="l74d0" points="9300000.0,9245000.0 9300000.0,9200000.0 9330000.0,9200000.0 9330000.0,9245000.0"/>
<polygon class="l74d0" points="9350000.0,9775000.0 9350000.0,9725000.0 9380000.0,9725000.0 9380000.0,9775000.0"/>
<polygon class="l74d0" points="9350000.0,9545000.0 9350000.0,9455000.0 9380000.0,9455000.0 9380000.0,9545000.0"/>
<polygon class="l74d0" points="9350000.0,9255000.0 9350000.0,9200000.0 9380000.0,9200000.0 9380000.0,9255000.0"/>
<polygon class="l74d0" points="9400000.0,9760000.0 9400000.0,9690000.0 9430000.0,9690000.0 9430000.0,9760000.0"/>
<polygon class="l74d0" points="9400000.0,9590000.0 9400000.0,9530000.0 9430000.0,9530000.0 9430000.0,9590000.0"/>
<polygon class="l74d0" points="9400000.0,9485000.0 9400000.0,9430000.0 9430000.0,9430000.0 9430000.0,9485000.0"/>
<polygon class="l74d0" points="9400000.0,9275000.0 9400000.0,9215000.0 9430000.0,9215000.0 9430000.0,9275000.0"/>
<polygon class="l74d0" points="9450000.0,9720000.0 9450000.0,9570000.0 9480000.0,9570000.0 9480000.0,9720000.0"/>
<polygon class="l74d0" points="9450000.0,9455000.0 9450000.0,9245000.0 9480000.0,9245000.0 9480000.0,9455000.0"/>
<polygon class="l74d0" points="9500000.0,9370000.0 9500000.0,9335000.0 9530000.0,9335000.0 9530000.0,9370000.0"/>
</g>
</svg>