<?xml version="1.0" encoding="UTF-8"?>
<svg xmlns="http://www.w3.org/2000/svg" xmlns:xlink="http://www.w3.org/1999/xlink"
     width="4764815.0" height="10846165.0" viewBox="-491807.5 -10363007.5 4764815.0 10846165.0">
<defs>
<style type="text/css">
.l74d0 {stroke: rgb(158, 42, 255); fill: rgb(158, 42, 255); fill-opacity: 0.5;}
</style>
</defs>
<rect x="-491807.5" y="-10363007.5" width="4764815.0" height="10846165.0" fill="#222" stroke="none"/>
<g id="AL_AP_artwork_test" transform="scale(1 -1)">
<polygon class="l74d0" points="2050.0,9850.0 2080.0,9850.0 2080.0,9880.0 2050.0,9880.0"/>
<polygon class="l74d0" points="2000.0,9850.0 2030.0,9850.0 2030.0,9880.0 2000.0,9880.0"/>
<polygon class="l74d0" points="1950.0,9850.0 1980.0,9850.0 1980.0,9880.0 1950.0,9880.0"/>
<polygon class="l74d0" points="1900.0,9850.0 1930.0,9850.0 1930.0,9880.0 1900.0,9880.0"/>
<polygon class="l74d0" points="1850.0,9850.0 1880.0,9850.0 1880.0,9880.0 1850.0,9880.0"/>
<polygon class="l74d0" points="1800.0,9850.0 1830.0,9850.0 1830.0,9880.0 1800.0,9880.0"/>
<polygon class="l74d0" points="1750.0,9850.0 1780.0,9850.0 1780.0,9880.0 1750.0,9880.0"/>
<polygon class="l74d0" points="1700.0,9850.0 1730.0,9850.0 1730.0,9880.0 1700.0,9880.0"/>
<polygon class="l74d0" points="1650.0,9850.0 1680.0,9850.0 1680.0,9880.0 1650.0,9880.0"/>
<polygon class="l74d0" points="1600.0,9850.0 1630.0,9850.0 1630.0,9880.0 1600.0,9880.0"/>
<polygon class="l74d0" points="1550.0,9850.0 1580.0,9850.0 1580.0,9880.0 1550.0,9880.0"/>
<polygon class="l74d0" points="1500.0,9850.0 1530.0,9850.0 1530.0,9880.0 1500.0,9880.0"/>
<polygon class="l74d0" points="1450.0,9850.0 1480.0,9850.0 1480.0,9880.0 1450.0,9880.0"/>
<polygon class="l74d0" points="1400.0,9850.0 1430.0,9850.0 1430.0,9880.0 1400.0,9880.0"/>
<polygon class="l74d0" points="1350.0,9850.0 1380.0,9850.0 1380.0,9880.0 1350.0,9880.0"/>
<polygon class="l74d0" points="1300.0,9850.0 1330.0,9850.0 1330.0,9880.0 1300.0,9880.0"/>
<polygon class="l74d0" points="1250.0,9850.0 1280.0,9850.0 1280.0,9880.0 1250.0,9880.0"/>
<polygon class="l74d0" points="1200.0,9850.0 1230.0,9850.0 1230.0,9880.0 1200.0,9880.0"/>
<polygon class="l74d0" points="1750.0,9900.0 1780.0,9900.0 1780.0,9930.0 1750.0,9930.0"/>
<polygon class="l74d0" points="1800.0,9900.0 1830.0,9900.0 1830.0,9930.0 1800.0,9930.0"/>
<polygon class="l74d0" points="1850.0,9900.0 1880.0,9900.0 1880.0,9930.0 1850.0,9930.0"/>
<polygon class="l74d0" points="1900.0,9900.0 1930.0,9900.0 1930.0,9930.0 1900.0,9930.0"/>
<polygon class="l74d0" points="1950.0,9900.0 1980.0,9900.0 1980.0,9930.0 1950.0,9930.0"/>
<polygon class="l74d0" points="2000.0,9900.0 2030.0,9900.0 2030.0,9930.0 2000.0,9930.0"/>
<polygon class="l74d0" points="2050.0,9900.0 2080.0,9900.0 2080.0,9930.0 2050.0,9930.0"/>
<polygon class="l74d0" points="2100.0,9900.0 2130.0,9900.0 2130.0,9930.0 2100.0,9930.0"/>
<polygon class="l74d0" points="2150.0,9900.0 2180.0,9900.0 2180.0,9930.0 2150.0,9930.0"/>
<polygon class="l74d0" points="2200.0,9900.0 2230.0,9900.0 2230.0,9930.0 2200.0,9930.0"/>
<polygon class="l74d0" points="1700.0,9900.0 1730.0,9900.0 1730.0,9930.0 1700.0,9930.0"/>
<polygon class="l74d0" points="1650.0,9900.0 1680.0,9900.0 1680.0,9930.0 1650.0,9930.0"/>
<polygon class="l74d0" points="1600.0,9900.0 1630.0,9900.0 1630.0,9930.0 1600.0,9930.0"/>
<polygon class="l74d0" points="1550.0,9900.0 1580.0,9900.0 1580.0,9930.0 1550.0,9930.0"/>
<polygon class="l74d0" points="1500.0,9900.0 1530.0,9900.0 1530.0,9930.0 1500.0,9930.0"/>
<polygon class="l74d0" points="1450.0,9900.0 1480.0,9900.0 1480.0,9930.0 1450.0,9930.0"/>
<polygon class="l74d0" points="1400.0,9900.0 1430.0,9900.0 1430.0,9930.0 1400.0,9930.0"/>
<polygon class="l74d0" points="1350.0,9900.0 1380.0,9900.0 1380.0,9930.0 1350.0,9930.0"/>
<polygon class="l74d0" points="1300.0,9900.0 1330.0,9900.0 1330.0,9930.0 1300.0,9930.0"/>
<polygon class="l74d0" points="1250.0,9900.0 1280.0,9900.0 1280.0,9930.0 1250.0,9930.0"/>
<polygon class="l74d0" points="1200.0,9900.0 1230.0,9900.0 1230.0,9930.0 1200.0,9930.0"/>
<polygon class="l74d0" points="650000.0,9420000.0 650000.0,9150000.0 680000.0,9150000.0 680000.0,9420000.0"/>
<polygon class="l74d0" points="700000.0,9435000.0 700000.0,9315000.0 730000.0,9315000.0 730000.0,9435000.0"/>
<polygon class="l74d0" points="700000.0,9290000.0 700000.0,9125000.0 730000.0,9125000.0 730000.0,9290000.0"/>
<polygon class="l74d0" points="700000.0,1545000.0 700000.0,1225000.0 730000.0,1225000.0 730000.0,1545000.0"/>
<polygon class="l74d0" points="750000.0,9445000.0 750000.0,9330000.0 780000.0,9330000.0 780000.0,9445000.0"/>
<polygon class="l74d0" points="750000.0,9305000.0 750000.0,9005000.0 780000.0,9005000.0 780000.0,9305000.0"/>
<polygon class="l74d0" points="750000.0,8965000.0 750000.0,8885000.0 780000.0,8885000.0 780000.0,8965000.0"/>
<polygon class="l74d0" points="750000.0,8860000.0 750000.0,8790000.0 780000.0,8790000.0 780000.0,8860000.0"/>
<polygon class="l74d0" points="750000.0,8765000.0 750000.0,8675000.0 780000.0,8675000.0 780000.0,8765000.0"/>
<polygon class="l74d0" points="750000.0,1560000.0 750000.0,1225000.0 780000.0,1225000.0 780000.0,1560000.0"/>
<polygon class="l74d0" points="800000.0,9845000.0 800000.0,9535000.0 830000.0,9535000.0 830000.0,9845000.0"/>
<polygon class="l74d0" points="800000.0,9450000.0 800000.0,9340000.0 830000.0,9340000.0 830000.0,9450000.0"/>
<polygon class="l74d0" points="800000.0,9315000.0 800000.0,8575000.0 830000.0,8575000.0 830000.0,9315000.0"/>
<polygon class="l74d0" points="800000.0,1570000.0 800000.0,1510000.0 830000.0,1510000.0 830000.0,1570000.0"/>
<polygon class="l74d0" points="800000.0,1485000.0 800000.0,1225000.0 830000.0,1225000.0 830000.0,1485000.0"/>
<polygon class="l74d0" points="850000.0,9815000.0 850000.0,9345000.0 880000.0,9345000.0 880000.0,9815000.0"/>
<polygon class="l74d0" points="850000.0,9315000.0 850000.0,8340000.0 880000.0,8340000.0 880000.0,9315000.0"/>
<polygon class="l74d0" points="850000.0,7075000.0 850000.0,6745000.0 880000.0,6745000.0 880000.0,7075000.0"/>
<polygon class="l74d0" points="850000.0,6680000.0 850000.0,6645000.0 880000.0,6645000.0 880000.0,6680000.0"/>
<polygon class="l74d0" points="850000.0,1580000.0 850000.0,1520000.0 880000.0,1520000.0 880000.0,1580000.0"/>
<polygon class="l74d0" points="850000.0,1490000.0 850000.0,1225000.0 880000.0,1225000.0 880000.0,1490000.0"/>
<polygon class="l74d0" points="900000.0,9855000.0 900000.0,9345000.0 930000.0,9345000.0 930000.0,9855000.0"/>
<polygon class="l74d0" points="900000.0,9315000.0 900000.0,7895000.0 930000.0,7895000.0 930000.0,9315000.0"/>
<polygon class="l74d0" points="900000.0,7190000.0 900000.0,6735000.0 930000.0,6735000.0 930000.0,7190000.0"/>
<polygon class="l74d0" points="900000.0,6675000.0 900000.0,6605000.0 930000.0,6605000.0 930000.0,6675000.0"/>
<polygon class="l74d0" points="900000.0,1585000.0 900000.0,1525000.0 930000.0,1525000.0 930000.0,1585000.0"/>
<polygon class="l74d0" points="900000.0,1445000.0 900000.0,1225000.0 930000.0,1225000.0 930000.0,1445000.0"/>
<polygon class="l74d0" points="950000.0,9870000.0 950000.0,9345000.0 980000.0,9345000.0 980000.0,9870000.0"/>
<polygon class="l74d0" points="950000.0,9315000.0 950000.0,7440000.0 980000.0,7440000.0 980000.0,9315000.0"/>
<polygon class="l74d0" points="950000.0,7285000.0 950000.0,6815000.0 980000.0,6815000.0 980000.0,7285000.0"/>
<polygon class="l74d0" points="950000.0,6790000.0 950000.0,6740000.0 980000.0,6740000.0 980000.0,6790000.0"/>
<polygon class="l74d0" points="950000.0,6680000.0 950000.0,6590000.0 980000.0,6590000.0 980000.0,6680000.0"/>
<polygon class="l74d0" points="950000.0,1590000.0 950000.0,1225000.0 980000.0,1225000.0 980000.0,1590000.0"/>
<polygon class="l74d0" points="1000000.0,9840000.0 1000000.0,9335000.0 1030000.0,9335000.0 1030000.0,9840000.0"/>
<polygon class="l74d0" points="1000000.0,9310000.0 1000000.0,6835000.0 1030000.0,6835000.0 1030000.0,9310000.0"/>
<polygon class="l74d0" points="1000000.0,6800000.0 1000000.0,6765000.0 1030000.0,6765000.0 1030000.0,6800000.0"/>
<polygon class="l74d0" points="1000000.0,6690000.0 1000000.0,6585000.0 1030000.0,6585000.0 1030000.0,6690000.0"/>
<polygon class="l74d0" points="1000000.0,6560000.0 1000000.0,6390000.0 1030000.0,6390000.0 1030000.0,6560000.0"/>
<polygon class="l74d0" points="1000000.0,1635000.0 1000000.0,1225000.0 1030000.0,1225000.0 1030000.0,1635000.0"/>
<polygon class="l74d0" points="1050000.0,9865000.0 1050000.0,9525000.0 1080000.0,9525000.0 1080000.0,9865000.0"/>
<polygon class="l74d0" points="1050000.0,9450000.0 1050000.0,9330000.0 1080000.0,9330000.0 1080000.0,9450000.0"/>
<polygon class="l74d0" points="1050000.0,9305000.0 1050000.0,9030000.0 1080000.0,9030000.0 1080000.0,9305000.0"/>
<polygon class="l74d0" points="1050000.0,8935000.0 1050000.0,6855000.0 1080000.0,6855000.0 1080000.0,8935000.0"/>
<polygon class="l74d0" points="1050000.0,6710000.0 1050000.0,6350000.0 1080000.0,6350000.0 1080000.0,6710000.0"/>
<polygon class="l74d0" points="1050000.0,5345000.0 1050000.0,5170000.0 1080000.0,5170000.0 1080000.0,5345000.0"/>
<polygon class="l74d0" points="1050000.0,5050000.0 1050000.0,4895000.0 1080000.0,4895000.0 1080000.0,5050000.0"/>
<polygon class="l74d0" points="1050000.0,1645000.0 1050000.0,1225000.0 1080000.0,1225000.0 1080000.0,1645000.0"/>
<polygon class="l74d0" points="1100000.0,9765000.0 1100000.0,9600000.0 1130000.0,9600000.0 1130000.0,9765000.0"/>
<polygon class="l74d0" points="1100000.0,9440000.0 1100000.0,9315000.0 1130000.0,9315000.0 1130000.0,9440000.0"/>
<polygon class="l74d0" points="1100000.0,9290000.0 1100000.0,9115000.0 1130000.0,9115000.0 1130000.0,9290000.0"/>
<polygon class="l74d0" points="1100000.0,8905000.0 1100000.0,7130000.0 1130000.0,7130000.0 1130000.0,8905000.0"/>
<polygon class="l74d0" points="1100000.0,7030000.0 1100000.0,6890000.0 1130000.0,6890000.0 1130000.0,7030000.0"/>
<polygon class="l74d0" points="1100000.0,6735000.0 1100000.0,5910000.0 1130000.0,5910000.0 1130000.0,6735000.0"/>
<polygon class="l74d0" points="1100000.0,5505000.0 1100000.0,5270000.0 1130000.0,5270000.0 1130000.0,5505000.0"/>
<polygon class="l74d0" points="1100000.0,5170000.0 1100000.0,4855000.0 1130000.0,4855000.0 1130000.0,5170000.0"/>
<polygon class="l74d0" points="1100000.0,1660000.0 1100000.0,1225000.0 1130000.0,1225000.0 1130000.0,1660000.0"/>
<polygon class="l74d0" points="1150000.0,9430000.0 1150000.0,9135000.0 1180000.0,9135000.0 1180000.0,9430000.0"/>
<polygon class="l74d0" points="1150000.0,8770000.0 1150000.0,8610000.0 1180000.0,8610000.0 1180000.0,8770000.0"/>
<polygon class="l74d0" points="1150000.0,8330000.0 1150000.0,7080000.0 1180000.0,7080000.0 1180000.0,8330000.0"/>
<polygon class="l74d0" points="1150000.0,6765000.0 1150000.0,5645000.0 1180000.0,5645000.0 1180000.0,6765000.0"/>
<polygon class="l74d0" points="1150000.0,5620000.0 1150000.0,5370000.0 1180000.0,5370000.0 1180000.0,5620000.0"/>
<polygon class="l74d0" points="1150000.0,5260000.0 1150000.0,4855000.0 1180000.0,4855000.0 1180000.0,5260000.0"/>
<polygon class="l74d0" points="1150000.0,4145000.0 1150000.0,4095000.0 1180000.0,4095000.0 1180000.0,4145000.0"/>
<polygon class="l74d0" points="1150000.0,2895000.0 1150000.0,2800000.0 1180000.0,2800000.0 1180000.0,2895000.0"/>
<polygon class="l74d0" points="1150000.0,1670000.0 1150000.0,1225000.0 1180000.0,1225000.0 1180000.0,1670000.0"/>
<polygon class="l74d0" points="1200000.0,9415000.0 1200000.0,9155000.0 1230000.0,9155000.0 1230000.0,9415000.0"/>
<polygon class="l74d0" points="1200000.0,8095000.0 1200000.0,7040000.0 1230000.0,7040000.0 1230000.0,8095000.0"/>
<polygon class="l74d0" points="1200000.0,6810000.0 1200000.0,5460000.0 1230000.0,5460000.0 1230000.0,6810000.0"/>
<polygon class="l74d0" points="1200000.0,5330000.0 1200000.0,4855000.0 1230000.0,4855000.0 1230000.0,5330000.0"/>
<polygon class="l74d0" points="1200000.0,4365000.0 1200000.0,3640000.0 1230000.0,3640000.0 1230000.0,4365000.0"/>
<polygon class="l74d0" points="1200000.0,2985000.0 1200000.0,2835000.0 1230000.0,2835000.0 1230000.0,2985000.0"/>
<polygon class="l74d0" points="1200000.0,2525000.0 1200000.0,2290000.0 1230000.0,2290000.0 1230000.0,2525000.0"/>
<polygon class="l74d0" points="1200000.0,1685000.0 1200000.0,1225000.0 1230000.0,1225000.0 1230000.0,1685000.0"/>
<polygon class="l74d0" points="1250000.0,7955000.0 1250000.0,7015000.0 1280000.0,7015000.0 1280000.0,7955000.0"/>
<polygon class="l74d0" points="1250000.0,6865000.0 1250000.0,5545000.0 1280000.0,5545000.0 1280000.0,6865000.0"/>
<polygon class="l74d0" points="1250000.0,5400000.0 1250000.0,4825000.0 1280000.0,4825000.0 1280000.0,5400000.0"/>
<polygon class="l74d0" points="1250000.0,4530000.0 1250000.0,3530000.0 1280000.0,3530000.0 1280000.0,4530000.0"/>
<polygon class="l74d0" points="1250000.0,3010000.0 1250000.0,2895000.0 1280000.0,2895000.0 1280000.0,3010000.0"/>
<polygon class="l74d0" points="1250000.0,2765000.0 1250000.0,2700000.0 1280000.0,2700000.0 1280000.0,2765000.0"/>
<polygon class="l74d0" points="1250000.0,2620000.0 1250000.0,2325000.0 1280000.0,2325000.0 1280000.0,2620000.0"/>
<polygon class="l74d0" points="1250000.0,1705000.0 1250000.0,1225000.0 1280000.0,1225000.0 1280000.0,1705000.0"/>
<polygon class="l74d0" points="1300000.0,7785000.0 1300000.0,7040000.0 1330000.0,7040000.0 1330000.0,7785000.0"/>
<polygon class="l74d0" points="1300000.0,6945000.0 1300000.0,5625000.0 1330000.0,5625000.0 1330000.0,6945000.0"/>
<polygon class="l74d0" points="1300000.0,5455000.0 1300000.0,4915000.0 1330000.0,4915000.0 1330000.0,5455000.0"/>
<polygon class="l74d0" points="1300000.0,4655000.0 1300000.0,3825000.0 1330000.0,3825000.0 1330000.0,4655000.0"/>
<polygon class="l74d0" points="1300000.0,3045000.0 1300000.0,2940000.0 1330000.0,2940000.0 1330000.0,3045000.0"/>
<polygon class="l74d0" points="1300000.0,2875000.0 1300000.0,2725000.0 1330000.0,2725000.0 1330000.0,2875000.0"/>
<polygon class="l74d0" points="1300000.0,2690000.0 1300000.0,2395000.0 1330000.0,2395000.0 1330000.0,2690000.0"/>
<polygon class="l74d0" points="1300000.0,1730000.0 1300000.0,1225000.0 1330000.0,1225000.0 1330000.0,1730000.0"/>
<polygon class="l74d0" points="1350000.0,7630000.0 1350000.0,7570000.0 1380000.0,7570000.0 1380000.0,7630000.0"/>
<polygon class="l74d0" points="1350000.0,7510000.0 1350000.0,5700000.0 1380000.0,5700000.0 1380000.0,7510000.0"/>
<polygon class="l74d0" points="1350000.0,5510000.0 1350000.0,5375000.0 1380000.0,5375000.0 1380000.0,5510000.0"/>
<polygon class="l74d0" points="1350000.0,5280000.0 1350000.0,5000000.0 1380000.0,5000000.0 1380000.0,5280000.0"/>
<polygon class="l74d0" points="1350000.0,4790000.0 1350000.0,4020000.0 1380000.0,4020000.0 1380000.0,4790000.0"/>
<polygon class="l74d0" points="1350000.0,3085000.0 1350000.0,2465000.0 1380000.0,2465000.0 1380000.0,3085000.0"/>
<polygon class="l74d0" points="1350000.0,1770000.0 1350000.0,1225000.0 1380000.0,1225000.0 1380000.0,1770000.0"/>
<polygon class="l74d0" points="1400000.0,7625000.0 1400000.0,7560000.0 1430000.0,7560000.0 1430000.0,7625000.0"/>
<polygon class="l74d0" points="1400000.0,7465000.0 1400000.0,5770000.0 1430000.0,5770000.0 1430000.0,7465000.0"/>
<polygon class="l74d0" points="1400000.0,5540000.0 1400000.0,5505000.0 1430000.0,5505000.0 1430000.0,5540000.0"/>
<polygon class="l74d0" points="1400000.0,5345000.0 1400000.0,5075000.0 1430000.0,5075000.0 1430000.0,5345000.0"/>
<polygon class="l74d0" points="1400000.0,4900000.0 1400000.0,4155000.0 1430000.0,4155000.0 1430000.0,4900000.0"/>
<polygon class="l74d0" points="1400000.0,3125000.0 1400000.0,2555000.0 1430000.0,2555000.0 1430000.0,3125000.0"/>
<polygon class="l74d0" points="1400000.0,2355000.0 1400000.0,2300000.0 1430000.0,2300000.0 1430000.0,2355000.0"/>
<polygon class="l74d0" points="1400000.0,1910000.0 1400000.0,1225000.0 1430000.0,1225000.0 1430000.0,1910000.0"/>
<polygon class="l74d0" points="1450000.0,7620000.0 1450000.0,7545000.0 1480000.0,7545000.0 1480000.0,7620000.0"/>
<polygon class="l74d0" points="1450000.0,7405000.0 1450000.0,5830000.0 1480000.0,5830000.0 1480000.0,7405000.0"/>
<polygon class="l74d0" points="1450000.0,5415000.0 1450000.0,5150000.0 1480000.0,5150000.0 1480000.0,5415000.0"/>
<polygon class="l74d0" points="1450000.0,5005000.0 1450000.0,4255000.0 1480000.0,4255000.0 1480000.0,5005000.0"/>
<polygon class="l74d0" points="1450000.0,3175000.0 1450000.0,2650000.0 1480000.0,2650000.0 1480000.0,3175000.0"/>
<polygon class="l74d0" points="1450000.0,2465000.0 1450000.0,2360000.0 1480000.0,2360000.0 1480000.0,2465000.0"/>
<polygon class="l74d0" points="1450000.0,2000000.0 1450000.0,1610000.0 1480000.0,1610000.0 1480000.0,2000000.0"/>
<polygon class="l74d0" points="1450000.0,1585000.0 1450000.0,1225000.0 1480000.0,1225000.0 1480000.0,1585000.0"/>
<polygon class="l74d0" points="1500000.0,7995000.0 1500000.0,7960000.0 1530000.0,7960000.0 1530000.0,7995000.0"/>
<polygon class="l74d0" points="1500000.0,7620000.0 1500000.0,7525000.0 1530000.0,7525000.0 1530000.0,7620000.0"/>
<polygon class="l74d0" points="1500000.0,7415000.0 1500000.0,7330000.0 1530000.0,7330000.0 1530000.0,7415000.0"/>
<polygon class="l74d0" points="1500000.0,7285000.0 1500000.0,5890000.0 1530000.0,5890000.0 1530000.0,7285000.0"/>
<polygon class="l74d0" points="1500000.0,5475000.0 1500000.0,5225000.0 1530000.0,5225000.0 1530000.0,5475000.0"/>
<polygon class="l74d0" points="1500000.0,5105000.0 1500000.0,4335000.0 1530000.0,4335000.0 1530000.0,5105000.0"/>
<polygon class="l74d0" points="1500000.0,3225000.0 1500000.0,2750000.0 1530000.0,2750000.0 1530000.0,3225000.0"/>
<polygon class="l74d0" points="1500000.0,2575000.0 1500000.0,2430000.0 1530000.0,2430000.0 1530000.0,2575000.0"/>
<polygon class="l74d0" points="1500000.0,2065000.0 1500000.0,1685000.0 1530000.0,1685000.0 1530000.0,2065000.0"/>
<polygon class="l74d0" points="1500000.0,1585000.0 1500000.0,1225000.0 1530000.0,1225000.0 1530000.0,1585000.0"/>
<polygon class="l74d0" points="1550000.0,7960000.0 1550000.0,7885000.0 1580000.0,7885000.0 1580000.0,7960000.0"/>
<polygon class="l74d0" points="1550000.0,7615000.0 1550000.0,7510000.0 1580000.0,7510000.0 1580000.0,7615000.0"/>
<polygon class="l74d0" points="1550000.0,7425000.0 1550000.0,7335000.0 1580000.0,7335000.0 1580000.0,7425000.0"/>
<polygon class="l74d0" points="1550000.0,7080000.0 1550000.0,5945000.0 1580000.0,5945000.0 1580000.0,7080000.0"/>
<polygon class="l74d0" points="1550000.0,5695000.0 1550000.0,5625000.0 1580000.0,5625000.0 1580000.0,5695000.0"/>
<polygon class="l74d0" points="1550000.0,5535000.0 1550000.0,5290000.0 1580000.0,5290000.0 1580000.0,5535000.0"/>
<polygon class="l74d0" points="1550000.0,5195000.0 1550000.0,4405000.0 1580000.0,4405000.0 1580000.0,5195000.0"/>
<polygon class="l74d0" points="1550000.0,4165000.0 1550000.0,3790000.0 1580000.0,3790000.0 1580000.0,4165000.0"/>
<polygon class="l74d0" points="1550000.0,3285000.0 1550000.0,2860000.0 1580000.0,2860000.0 1580000.0,3285000.0"/>
<polygon class="l74d0" points="1550000.0,2695000.0 1550000.0,2515000.0 1580000.0,2515000.0 1580000.0,2695000.0"/>
<polygon class="l74d0" points="1550000.0,2115000.0 1550000.0,1765000.0 1580000.0,1765000.0 1580000.0,2115000.0"/>
<polygon class="l74d0" points="1550000.0,1585000.0 1550000.0,1225000.0 1580000.0,1225000.0 1580000.0,1585000.0"/>
<polygon class="l74d0" points="1600000.0,7915000.0 1600000.0,7810000.0 1630000.0,7810000.0 1630000.0,7915000.0"/>
<polygon class="l74d0" points="1600000.0,7610000.0 1600000.0,7490000.0 1630000.0,7490000.0 1630000.0,7610000.0"/>
<polygon class="l74d0" points="1600000.0,7465000.0 1600000.0,7340000.0 1630000.0,7340000.0 1630000.0,7465000.0"/>
<polygon class="l74d0" points="1600000.0,7075000.0 1600000.0,5995000.0 1630000.0,5995000.0 1630000.0,7075000.0"/>
<polygon class="l74d0" points="1600000.0,5775000.0 1600000.0,5675000.0 1630000.0,5675000.0 1630000.0,5775000.0"/>
<polygon class="l74d0" points="1600000.0,5590000.0 1600000.0,5350000.0 1630000.0,5350000.0 1630000.0,5590000.0"/>
<polygon class="l74d0" points="1600000.0,5280000.0 1600000.0,4455000.0 1630000.0,4455000.0 1630000.0,5280000.0"/>
<polygon class="l74d0" points="1600000.0,4375000.0 1600000.0,3815000.0 1630000.0,3815000.0 1630000.0,4375000.0"/>
<polygon class="l74d0" points="1600000.0,3350000.0 1600000.0,2970000.0 1630000.0,2970000.0 1630000.0,3350000.0"/>
<polygon class="l74d0" points="1600000.0,2820000.0 1600000.0,2605000.0 1630000.0,2605000.0 1630000.0,2820000.0"/>
<polygon class="l74d0" points="1600000.0,2160000.0 1600000.0,1855000.0 1630000.0,1855000.0 1630000.0,2160000.0"/>
<polygon class="l74d0" points="1600000.0,1585000.0 1600000.0,1225000.0 1630000.0,1225000.0 1630000.0,1585000.0"/>
<polygon class="l74d0" points="1650000.0,7875000.0 1650000.0,7735000.0 1680000.0,7735000.0 1680000.0,7875000.0"/>
<polygon class="l74d0" points="1650000.0,7605000.0 1650000.0,6930000.0 1680000.0,6930000.0 1680000.0,7605000.0"/>
<polygon class="l74d0" points="1650000.0,6325000.0 1650000.0,6040000.0 1680000.0,6040000.0 1680000.0,6325000.0"/>
<polygon class="l74d0" points="1650000.0,5860000.0 1650000.0,5730000.0 1680000.0,5730000.0 1680000.0,5860000.0"/>
<polygon class="l74d0" points="1650000.0,5645000.0 1650000.0,5400000.0 1680000.0,5400000.0 1680000.0,5645000.0"/>
<polygon class="l74d0" points="1650000.0,5365000.0 1650000.0,3860000.0 1680000.0,3860000.0 1680000.0,5365000.0"/>
<polygon class="l74d0" points="1650000.0,3420000.0 1650000.0,3080000.0 1680000.0,3080000.0 1680000.0,3420000.0"/>
<polygon class="l74d0" points="1650000.0,2955000.0 1650000.0,2705000.0 1680000.0,2705000.0 1680000.0,2955000.0"/>
<polygon class="l74d0" points="1650000.0,2235000.0 1650000.0,1955000.0 1680000.0,1955000.0 1680000.0,2235000.0"/>
<polygon class="l74d0" points="1650000.0,1585000.0 1650000.0,1225000.0 1680000.0,1225000.0 1680000.0,1585000.0"/>
<polygon class="l74d0" points="1700000.0,7830000.0 1700000.0,6865000.0 1730000.0,6865000.0 1730000.0,7830000.0"/>
<polygon class="l74d0" points="1700000.0,6440000.0 1700000.0,6085000.0 1730000.0,6085000.0 1730000.0,6440000.0"/>
<polygon class="l74d0" points="1700000.0,5935000.0 1700000.0,5780000.0 1730000.0,5780000.0 1730000.0,5935000.0"/>
<polygon class="l74d0" points="1700000.0,5700000.0 1700000.0,3935000.0 1730000.0,3935000.0 1730000.0,5700000.0"/>
<polygon class="l74d0" points="1700000.0,3500000.0 1700000.0,3160000.0 1730000.0,3160000.0 1730000.0,3500000.0"/>
<polygon class="l74d0" points="1700000.0,3105000.0 1700000.0,2815000.0 1730000.0,2815000.0 1730000.0,3105000.0"/>
<polygon class="l74d0" points="1700000.0,2330000.0 1700000.0,2055000.0 1730000.0,2055000.0 1730000.0,2330000.0"/>
<polygon class="l74d0" points="1700000.0,1855000.0 1700000.0,1680000.0 1730000.0,1680000.0 1730000.0,1855000.0"/>
<polygon class="l74d0" points="1700000.0,1585000.0 1700000.0,1225000.0 1730000.0,1225000.0 1730000.0,1585000.0"/>
<polygon class="l74d0" points="1750000.0,7785000.0 1750000.0,7465000.0 1780000.0,7465000.0 1780000.0,7785000.0"/>
<polygon class="l74d0" points="1750000.0,7365000.0 1750000.0,6790000.0 1780000.0,6790000.0 1780000.0,7365000.0"/>
<polygon class="l74d0" points="1750000.0,6670000.0 1750000.0,6125000.0 1780000.0,6125000.0 1780000.0,6670000.0"/>
<polygon class="l74d0" points="1750000.0,6010000.0 1750000.0,5825000.0 1780000.0,5825000.0 1780000.0,6010000.0"/>
<polygon class="l74d0" points="1750000.0,5745000.0 1750000.0,4060000.0 1780000.0,4060000.0 1780000.0,5745000.0"/>
<polygon class="l74d0" points="1750000.0,3585000.0 1750000.0,2925000.0 1780000.0,2925000.0 1780000.0,3585000.0"/>
<polygon class="l74d0" points="1750000.0,2390000.0 1750000.0,1735000.0 1780000.0,1735000.0 1780000.0,2390000.0"/>
<polygon class="l74d0" points="1750000.0,1585000.0 1750000.0,1225000.0 1780000.0,1225000.0 1780000.0,1585000.0"/>
<polygon class="l74d0" points="1800000.0,7740000.0 1800000.0,7505000.0 1830000.0,7505000.0 1830000.0,7740000.0"/>
<polygon class="l74d0" points="1800000.0,7380000.0 1800000.0,7295000.0 1830000.0,7295000.0 1830000.0,7380000.0"/>
<polygon class="l74d0" points="1800000.0,7270000.0 1800000.0,7205000.0 1830000.0,7205000.0 1830000.0,7270000.0"/>
<polygon class="l74d0" points="1800000.0,7035000.0 1800000.0,6725000.0 1830000.0,6725000.0 1830000.0,7035000.0"/>
<polygon class="l74d0" points="1800000.0,6655000.0 1800000.0,6165000.0 1830000.0,6165000.0 1830000.0,6655000.0"/>
<polygon class="l74d0" points="1800000.0,6080000.0 1800000.0,5870000.0 1830000.0,5870000.0 1830000.0,6080000.0"/>
<polygon class="l74d0" points="1800000.0,5800000.0 1800000.0,4260000.0 1830000.0,4260000.0 1830000.0,5800000.0"/>
<polygon class="l74d0" points="1800000.0,3685000.0 1800000.0,3050000.0 1830000.0,3050000.0 1830000.0,3685000.0"/>
<polygon class="l74d0" points="1800000.0,2455000.0 1800000.0,1810000.0 1830000.0,1810000.0 1830000.0,2455000.0"/>
<polygon class="l74d0" points="1800000.0,1585000.0 1800000.0,1225000.0 1830000.0,1225000.0 1830000.0,1585000.0"/>
<polygon class="l74d0" points="1850000.0,7740000.0 1850000.0,7535000.0 1880000.0,7535000.0 1880000.0,7740000.0"/>
<polygon class="l74d0" points="1850000.0,7400000.0 1850000.0,7345000.0 1880000.0,7345000.0 1880000.0,7400000.0"/>
<polygon class="l74d0" points="1850000.0,7315000.0 1850000.0,7220000.0 1880000.0,7220000.0 1880000.0,7315000.0"/>
<polygon class="l74d0" points="1850000.0,6960000.0 1850000.0,6670000.0 1880000.0,6670000.0 1880000.0,6960000.0"/>
<polygon class="l74d0" points="1850000.0,6620000.0 1850000.0,6200000.0 1880000.0,6200000.0 1880000.0,6620000.0"/>
<polygon class="l74d0" points="1850000.0,6140000.0 1850000.0,5915000.0 1880000.0,5915000.0 1880000.0,6140000.0"/>
<polygon class="l74d0" points="1850000.0,5845000.0 1850000.0,4740000.0 1880000.0,4740000.0 1880000.0,5845000.0"/>
<polygon class="l74d0" points="1850000.0,3810000.0 1850000.0,3180000.0 1880000.0,3180000.0 1880000.0,3810000.0"/>
<polygon class="l74d0" points="1850000.0,2585000.0 1850000.0,1895000.0 1880000.0,1895000.0 1880000.0,2585000.0"/>
<polygon class="l74d0" points="1850000.0,1590000.0 1850000.0,1225000.0 1880000.0,1225000.0 1880000.0,1590000.0"/>
<polygon class="l74d0" points="1900000.0,7810000.0 1900000.0,7550000.0 1930000.0,7550000.0 1930000.0,7810000.0"/>
<polygon class="l74d0" points="1900000.0,7420000.0 1900000.0,7370000.0 1930000.0,7370000.0 1930000.0,7420000.0"/>
<polygon class="l74d0" points="1900000.0,7320000.0 1900000.0,7220000.0 1930000.0,7220000.0 1930000.0,7320000.0"/>
<polygon class="l74d0" points="1900000.0,6930000.0 1900000.0,6625000.0 1930000.0,6625000.0 1930000.0,6930000.0"/>
<polygon class="l74d0" points="1900000.0,6590000.0 1900000.0,5950000.0 1930000.0,5950000.0 1930000.0,6590000.0"/>
<polygon class="l74d0" points="1900000.0,5890000.0 1900000.0,5010000.0 1930000.0,5010000.0 1930000.0,5890000.0"/>
<polygon class="l74d0" points="1900000.0,3980000.0 1900000.0,3325000.0 1930000.0,3325000.0 1930000.0,3980000.0"/>
<polygon class="l74d0" points="1900000.0,2755000.0 1900000.0,1995000.0 1930000.0,1995000.0 1930000.0,2755000.0"/>
<polygon class="l74d0" points="1900000.0,1755000.0 1900000.0,1715000.0 1930000.0,1715000.0 1930000.0,1755000.0"/>
<polygon class="l74d0" points="1900000.0,1625000.0 1900000.0,1225000.0 1930000.0,1225000.0 1930000.0,1625000.0"/>
<polygon class="l74d0" points="1950000.0,8140000.0 1950000.0,7550000.0 1980000.0,7550000.0 1980000.0,8140000.0"/>
<polygon class="l74d0" points="1950000.0,7460000.0 1950000.0,7395000.0 1980000.0,7395000.0 1980000.0,7460000.0"/>
<polygon class="l74d0" points="1950000.0,7315000.0 1950000.0,7235000.0 1980000.0,7235000.0 1980000.0,7315000.0"/>
<polygon class="l74d0" points="1950000.0,7120000.0 1950000.0,7085000.0 1980000.0,7085000.0 1980000.0,7120000.0"/>
<polygon class="l74d0" points="1950000.0,7060000.0 1950000.0,7025000.0 1980000.0,7025000.0 1980000.0,7060000.0"/>
<polygon class="l74d0" points="1950000.0,6925000.0 1950000.0,6590000.0 1980000.0,6590000.0 1980000.0,6925000.0"/>
<polygon class="l74d0" points="1950000.0,6565000.0 1950000.0,5990000.0 1980000.0,5990000.0 1980000.0,6565000.0"/>
<polygon class="l74d0" points="1950000.0,5940000.0 1950000.0,5175000.0 1980000.0,5175000.0 1980000.0,5940000.0"/>
<polygon class="l74d0" points="1950000.0,4180000.0 1950000.0,3405000.0 1980000.0,3405000.0 1980000.0,4180000.0"/>
<polygon class="l74d0" points="1950000.0,2975000.0 1950000.0,2075000.0 1980000.0,2075000.0 1980000.0,2975000.0"/>
<polygon class="l74d0" points="1950000.0,1930000.0 1950000.0,1730000.0 1980000.0,1730000.0 1980000.0,1930000.0"/>
<polygon class="l74d0" points="1950000.0,1670000.0 1950000.0,1225000.0 1980000.0,1225000.0 1980000.0,1670000.0"/>
<polygon class="l74d0" points="2000000.0,7950000.0 2000000.0,7555000.0 2030000.0,7555000.0 2030000.0,7950000.0"/>
<polygon class="l74d0" points="2000000.0,7490000.0 2000000.0,7420000.0 2030000.0,7420000.0 2030000.0,7490000.0"/>
<polygon class="l74d0" points="2000000.0,7120000.0 2000000.0,7040000.0 2030000.0,7040000.0 2030000.0,7120000.0"/>
<polygon class="l74d0" points="2000000.0,7015000.0 2000000.0,6980000.0 2030000.0,6980000.0 2030000.0,7015000.0"/>
<polygon class="l74d0" points="2000000.0,6925000.0 2000000.0,6020000.0 2030000.0,6020000.0 2030000.0,6925000.0"/>
<polygon class="l74d0" points="2000000.0,5985000.0 2000000.0,5295000.0 2030000.0,5295000.0 2030000.0,5985000.0"/>
<polygon class="l74d0" points="2000000.0,4875000.0 2000000.0,4680000.0 2030000.0,4680000.0 2030000.0,4875000.0"/>
<polygon class="l74d0" points="2000000.0,4410000.0 2000000.0,1750000.0 2030000.0,1750000.0 2030000.0,4410000.0"/>
<polygon class="l74d0" points="2000000.0,1725000.0 2000000.0,1225000.0 2030000.0,1225000.0 2030000.0,1725000.0"/>
<polygon class="l74d0" points="2050000.0,7760000.0 2050000.0,7550000.0 2080000.0,7550000.0 2080000.0,7760000.0"/>
<polygon class="l74d0" points="2050000.0,7460000.0 2050000.0,7400000.0 2080000.0,7400000.0 2080000.0,7460000.0"/>
<polygon class="l74d0" points="2050000.0,7320000.0 2050000.0,7230000.0 2080000.0,7230000.0 2080000.0,7320000.0"/>
<polygon class="l74d0" points="2050000.0,7125000.0 2050000.0,7080000.0 2080000.0,7080000.0 2080000.0,7125000.0"/>
<polygon class="l74d0" points="2050000.0,7055000.0 2050000.0,5400000.0 2080000.0,5400000.0 2080000.0,7055000.0"/>
<polygon class="l74d0" points="2050000.0,5135000.0 2050000.0,4775000.0 2080000.0,4775000.0 2080000.0,5135000.0"/>
<polygon class="l74d0" points="2050000.0,4620000.0 2050000.0,1225000.0 2080000.0,1225000.0 2080000.0,4620000.0"/>
<polygon class="l74d0" points="2100000.0,7750000.0 2100000.0,7545000.0 2130000.0,7545000.0 2130000.0,7750000.0"/>
<polygon class="l74d0" points="2100000.0,7440000.0 2100000.0,7380000.0 2130000.0,7380000.0 2130000.0,7440000.0"/>
<polygon class="l74d0" points="2100000.0,7325000.0 2100000.0,7210000.0 2130000.0,7210000.0 2130000.0,7325000.0"/>
<polygon class="l74d0" points="2100000.0,7035000.0 2100000.0,7000000.0 2130000.0,7000000.0 2130000.0,7035000.0"/>
<polygon class="l74d0" points="2100000.0,6975000.0 2100000.0,5485000.0 2130000.0,5485000.0 2130000.0,6975000.0"/>
<polygon class="l74d0" points="2100000.0,5350000.0 2100000.0,1225000.0 2130000.0,1225000.0 2130000.0,5350000.0"/>
<polygon class="l74d0" points="2150000.0,7750000.0 2150000.0,7530000.0 2180000.0,7530000.0 2180000.0,7750000.0"/>
<polygon class="l74d0" points="2150000.0,7440000.0 2150000.0,7355000.0 2180000.0,7355000.0 2180000.0,7440000.0"/>
<polygon class="l74d0" points="2150000.0,7325000.0 2150000.0,7200000.0 2180000.0,7200000.0 2180000.0,7325000.0"/>
<polygon class="l74d0" points="2150000.0,7020000.0 2150000.0,1225000.0 2180000.0,1225000.0 2180000.0,7020000.0"/>
<polygon class="l74d0" points="2200000.0,7800000.0 2200000.0,7505000.0 2230000.0,7505000.0 2230000.0,7800000.0"/>
<polygon class="l74d0" points="2200000.0,7440000.0 2200000.0,1225000.0 2230000.0,1225000.0 2230000.0,7440000.0"/>
<polygon class="l74d0" points="2250000.0,7845000.0 2250000.0,1225000.0 2280000.0,1225000.0 2280000.0,7845000.0"/>
<polygon class="l74d0" points="2300000.0,7890000.0 2300000.0,7745000.0 2330000.0,7745000.0 2330000.0,7890000.0"/>
<polygon class="l74d0" points="2300000.0,7645000.0 2300000.0,3255000.0 2330000.0,3255000.0 2330000.0,7645000.0"/>
<polygon class="l74d0" points="2300000.0,3035000.0 2300000.0,1225000.0 2330000.0,1225000.0 2330000.0,3035000.0"/>
<polygon class="l74d0" points="2350000.0,7940000.0 2350000.0,7830000.0 2380000.0,7830000.0 2380000.0,7940000.0"/>
<polygon class="l74d0" points="2350000.0,7605000.0 2350000.0,3720000.0 2380000.0,3720000.0 2380000.0,7605000.0"/>
<polygon class="l74d0" points="2350000.0,3065000.0 2350000.0,1225000.0 2380000.0,1225000.0 2380000.0,3065000.0"/>
<polygon class="l74d0" points="2400000.0,7985000.0 2400000.0,7915000.0 2430000.0,7915000.0 2430000.0,7985000.0"/>
<polygon class="l74d0" points="2400000.0,7615000.0 2400000.0,7520000.0 2430000.0,7520000.0 2430000.0,7615000.0"/>
<polygon class="l74d0" points="2400000.0,7445000.0 2400000.0,7365000.0 2430000.0,7365000.0 2430000.0,7445000.0"/>
<polygon class="l74d0" points="2400000.0,6980000.0 2400000.0,6820000.0 2430000.0,6820000.0 2430000.0,6980000.0"/>
<polygon class="l74d0" points="2400000.0,6795000.0 2400000.0,3295000.0 2430000.0,3295000.0 2430000.0,6795000.0"/>
<polygon class="l74d0" points="2400000.0,3095000.0 2400000.0,1225000.0 2430000.0,1225000.0 2430000.0,3095000.0"/>
<polygon class="l74d0" points="2450000.0,7620000.0 2450000.0,7545000.0 2480000.0,7545000.0 2480000.0,7620000.0"/>
<polygon class="l74d0" points="2450000.0,7435000.0 2450000.0,7365000.0 2480000.0,7365000.0 2480000.0,7435000.0"/>
<polygon class="l74d0" points="2450000.0,6605000.0 2450000.0,3235000.0 2480000.0,3235000.0 2480000.0,6605000.0"/>
<polygon class="l74d0" points="2450000.0,3125000.0 2450000.0,1225000.0 2480000.0,1225000.0 2480000.0,3125000.0"/>
<polygon class="l74d0" points="2500000.0,7635000.0 2500000.0,7565000.0 2530000.0,7565000.0 2530000.0,7635000.0"/>
<polygon class="l74d0" points="2500000.0,7425000.0 2500000.0,7365000.0 2530000.0,7365000.0 2530000.0,7425000.0"/>
<polygon class="l74d0" points="2500000.0,6545000.0 2500000.0,3230000.0 2530000.0,3230000.0 2530000.0,6545000.0"/>
<polygon class="l74d0" points="2500000.0,3155000.0 2500000.0,1225000.0 2530000.0,1225000.0 2530000.0,3155000.0"/>
<polygon class="l74d0" points="2550000.0,7640000.0 2550000.0,7590000.0 2580000.0,7590000.0 2580000.0,7640000.0"/>
<polygon class="l74d0" points="2550000.0,7415000.0 2550000.0,7365000.0 2580000.0,7365000.0 2580000.0,7415000.0"/>
<polygon class="l74d0" points="2550000.0,6525000.0 2550000.0,3230000.0 2580000.0,3230000.0 2580000.0,6525000.0"/>
<polygon class="l74d0" points="2550000.0,3185000.0 2550000.0,1225000.0 2580000.0,1225000.0 2580000.0,3185000.0"/>
<polygon class="l74d0" points="2600000.0,7655000.0 2600000.0,7610000.0 2630000.0,7610000.0 2630000.0,7655000.0"/>
<polygon class="l74d0" points="2600000.0,7400000.0 2600000.0,7365000.0 2630000.0,7365000.0 2630000.0,7400000.0"/>
<polygon class="l74d0" points="2600000.0,6510000.0 2600000.0,3235000.0 2630000.0,3235000.0 2630000.0,6510000.0"/>
<polygon class="l74d0" points="2600000.0,3210000.0 2600000.0,2495000.0 2630000.0,2495000.0 2630000.0,3210000.0"/>
<polygon class="l74d0" points="2600000.0,1740000.0 2600000.0,1225000.0 2630000.0,1225000.0 2630000.0,1740000.0"/>
<polygon class="l74d0" points="2650000.0,7665000.0 2650000.0,7630000.0 2680000.0,7630000.0 2680000.0,7665000.0"/>
<polygon class="l74d0" points="2650000.0,7390000.0 2650000.0,7355000.0 2680000.0,7355000.0 2680000.0,7390000.0"/>
<polygon class="l74d0" points="2650000.0,6475000.0 2650000.0,2705000.0 2680000.0,2705000.0 2680000.0,6475000.0"/>
<polygon class="l74d0" points="2650000.0,1675000.0 2650000.0,1225000.0 2680000.0,1225000.0 2680000.0,1675000.0"/>
<polygon class="l74d0" points="2700000.0,7675000.0 2700000.0,7640000.0 2730000.0,7640000.0 2730000.0,7675000.0"/>
<polygon class="l74d0" points="2700000.0,7380000.0 2700000.0,7345000.0 2730000.0,7345000.0 2730000.0,7380000.0"/>
<polygon class="l74d0" points="2700000.0,6415000.0 2700000.0,2145000.0 2730000.0,2145000.0 2730000.0,6415000.0"/>
<polygon class="l74d0" points="2700000.0,1645000.0 2700000.0,1225000.0 2730000.0,1225000.0 2730000.0,1645000.0"/>
<polygon class="l74d0" points="2750000.0,6320000.0 2750000.0,1750000.0 2780000.0,1750000.0 2780000.0,6320000.0"/>
<polygon class="l74d0" points="2750000.0,1630000.0 2750000.0,1225000.0 2780000.0,1225000.0 2780000.0,1630000.0"/>
<polygon class="l74d0" points="2800000.0,6200000.0 2800000.0,1225000.0 2830000.0,1225000.0 2830000.0,6200000.0"/>
<polygon class="l74d0" points="2850000.0,6035000.0 2850000.0,1225000.0 2880000.0,1225000.0 2880000.0,6035000.0"/>
<polygon class="l74d0" points="2900000.0,5895000.0 2900000.0,1225000.0 2930000.0,1225000.0 2930000.0,5895000.0"/>
<polygon class="l74d0" points="2950000.0,5860000.0 2950000.0,2325000.0 2980000.0,2325000.0 2980000.0,5860000.0"/>
<polygon class="l74d0" points="2950000.0,1820000.0 2950000.0,1225000.0 2980000.0,1225000.0 2980000.0,1820000.0"/>
<polygon class="l74d0" points="3000000.0,5820000.0 3000000.0,4350000.0 3030000.0,4350000.0 3030000.0,5820000.0"/>
<polygon class="l74d0" points="3000000.0,4090000.0 3000000.0,2960000.0 3030000.0,2960000.0 3030000.0,4090000.0"/>
<polygon class="l74d0" points="3000000.0,2670000.0 3000000.0,2415000.0 3030000.0,2415000.0 3030000.0,2670000.0"/>
<polygon class="l74d0" points="3000000.0,1650000.0 3000000.0,1225000.0 3030000.0,1225000.0 3030000.0,1650000.0"/>
<polygon class="l74d0" points="3050000.0,5785000.0 3050000.0,4440000.0 3080000.0,4440000.0 3080000.0,5785000.0"/>
<polygon class="l74d0" points="3050000.0,3600000.0 3050000.0,3270000.0 3080000.0,3270000.0 3080000.0,3600000.0"/>
<polygon class="l74d0" points="3050000.0,1610000.0 3050000.0,1225000.0 3080000.0,1225000.0 3080000.0,1610000.0"/>
<polygon class="l74d0" points="3100000.0,5855000.0 3100000.0,4460000.0 3130000.0,4460000.0 3130000.0,5855000.0"/>
<polygon class="l74d0" points="3100000.0,1555000.0 3100000.0,1225000.0 3130000.0,1225000.0 3130000.0,1555000.0"/>
<polygon class="l74d0" points="3150000.0,5940000.0 3150000.0,4495000.0 3180000.0,4495000.0 3180000.0,5940000.0"/>
<polygon class="l74d0" points="3200000.0,6020000.0 3200000.0,4570000.0 3230000.0,4570000.0 3230000.0,6020000.0"/>
<polygon class="l74d0" points="3250000.0,6095000.0 3250000.0,4725000.0 3280000.0,4725000.0 3280000.0,6095000.0"/>
<polygon class="l74d0" points="3300000.0,6075000.0 3300000.0,5025000.0 3330000.0,5025000.0 3330000.0,6075000.0"/>
<polygon class="l74d0" points="3350000.0,6045000.0 3350000.0,5430000.0 3380000.0,5430000.0 3380000.0,6045000.0"/>
<polygon class="l74d0" points="3350000.0,5385000.0 3350000.0,5330000.0 3380000.0,5330000.0 3380000.0,5385000.0"/>
<polygon class="l74d0" points="3350000.0,5225000.0 3350000.0,5035000.0 3380000.0,5035000.0 3380000.0,5225000.0"/>
<polygon class="l74d0" points="3400000.0,6015000.0 3400000.0,5470000.0 3430000.0,5470000.0 3430000.0,6015000.0"/>
<polygon class="l74d0" points="3400000.0,5350000.0 3400000.0,5250000.0 3430000.0,5250000.0 3430000.0,5350000.0"/>
<polygon class="l74d0" points="3400000.0,5220000.0 3400000.0,5055000.0 3430000.0,5055000.0 3430000.0,5220000.0"/>
<polygon class="l74d0" points="3450000.0,5985000.0 3450000.0,5455000.0 3480000.0,5455000.0 3480000.0,5985000.0"/>
<polygon class="l74d0" points="3450000.0,5295000.0 3450000.0,5095000.0 3480000.0,5095000.0 3480000.0,5295000.0"/>
<polygon class="l74d0" points="3500000.0,5955000.0 3500000.0,5570000.0 3530000.0,5570000.0 3530000.0,5955000.0"/>
<polygon class="l74d0" points="3500000.0,5520000.0 3500000.0,5425000.0 3530000.0,5425000.0 3530000.0,5520000.0"/>
<polygon class="l74d0" points="3500000.0,5315000.0 3500000.0,5150000.0 3530000.0,5150000.0 3530000.0,5315000.0"/>
<polygon class="l74d0" points="3550000.0,5930000.0 3550000.0,5870000.0 3580000.0,5870000.0 3580000.0,5930000.0"/>
<polygon class="l74d0" points="3550000.0,5835000.0 3550000.0,5555000.0 3580000.0,5555000.0 3580000.0,5835000.0"/>
<polygon class="l74d0" points="3550000.0,5485000.0 3550000.0,5365000.0 3580000.0,5365000.0 3580000.0,5485000.0"/>
<polygon class="l74d0" points="3550000.0,5340000.0 3550000.0,5220000.0 3580000.0,5220000.0 3580000.0,5340000.0"/>
<polygon class="l74d0" points="3600000.0,5895000.0 3600000.0,5845000.0 3630000.0,5845000.0 3630000.0,5895000.0"/>
<polygon class="l74d0" points="3600000.0,5695000.0 3600000.0,5300000.0 3630000.0,5300000.0 3630000.0,5695000.0"/>
<polygon class="l74d0" points="3650000.0,5870000.0 3650000.0,5810000.0 3680000.0,5810000.0 3680000.0,5870000.0"/>
<polygon class="l74d0" points="3650000.0,5775000.0 3650000.0,5585000.0 3680000.0,5585000.0 3680000.0,5775000.0"/>
<polygon class="l74d0" points="3650000.0,5480000.0 3650000.0,5390000.0 3680000.0,5390000.0 3680000.0,5480000.0"/>
<polygon class="l74d0" points="3700000.0,5840000.0 3700000.0,5670000.0 3730000.0,5670000.0 3730000.0,5840000.0"/>
<polygon class="l74d0" points="3750000.0,5810000.0 3750000.0,5755000.0 3780000.0,5755000.0 3780000.0,5810000.0"/>
</g>
</svg>