<?xml version="1.0" encoding="UTF-8"?>
<svg xmlns="http://www.w3.org/2000/svg" xmlns:xlink="http://www.w3.org/1999/xlink"
     width="3219815.0" height="10901165.0" viewBox="-494307.5 -10415507.5 3219815.0 10901165.0">
<defs>
<style type="text/css">
.l74d0 {stroke: rgb(158, 42, 255); fill: rgb(158, 42, 255); fill-opacity: 0.5;}
</style>
</defs>
<rect x="-494307.5" y="-10415507.5" width="3219815.0" height="10901165.0" fill="#222" stroke="none"/>
<g id="AL_AP_artwork_test" transform="scale(1 -1)">
<polygon class="l74d0" points="2050.0,9850.0 2080.0,9850.0 2080.0,9880.0 2050.0,9880.0"/>
<polygon class="l74d0" points="2000.0,9850.0 2030.0,9850.0 2030.0,9880.0 2000.0,9880.0"/>
<polygon class="l74d0" points="1950.0,9850.0 1980.0,9850.0 1980.0,9880.0 1950.0,9880.0"/>
<polygon class="l74d0" points="1900.0,9850.0 1930.0,9850.0 1930.0,9880.0 1900.0,9880.0"/>
<polygon class="l74d0" points="1850.0,9850.0 1880.0,9850.0 1880.0,9880.0 1850.0,9880.0"/>
<polygon class="l74d0" points="1800.0,9850.0 1830.0,9850.0 1830.0,9880.0 1800.0,9880.0"/>
<polygon class="l74d0" points="1750.0,9850.0 1780.0,9850.0 1780.0,9880.0 1750.0,9880.0"/>
<polygon class="l74d0" points="1700.0,9850.0 1730.0,9850.0 1730.0,9880.0 1700.0,9880.0"/>
<polygon class="l74d0" points="1650.0,9850.0 1680.0,9850.0 1680.0,9880.0 1650.0,9880.0"/>
<polygon class="l74d0" points="1600.0,9850.0 1630.0,9850.0 1630.0,9880.0 1600.0,9880.0"/>
<polygon class="l74d0" points="1550.0,9850.0 1580.0,9850.0 1580.0,9880.0 1550.0,9880.0"/>
<polygon class="l74d0" points="1500.0,9850.0 1530.0,9850.0 1530.0,9880.0 1500.0,9880.0"/>
<polygon class="l74d0" points="1450.0,9850.0 1480.0,9850.0 1480.0,9880.0 1450.0,9880.0"/>
<polygon class="l74d0" points="1400.0,9850.0 1430.0,9850.0 1430.0,9880.0 1400.0,9880.0"/>
<polygon class="l74d0" points="1350.0,9850.0 1380.0,9850.0 1380.0,9880.0 1350.0,9880.0"/>
<polygon class="l74d0" points="1300.0,9850.0 1330.0,9850.0 1330.0,9880.0 1300.0,9880.0"/>
<polygon class="l74d0" points="1250.0,9850.0 1280.0,9850.0 1280.0,9880.0 1250.0,9880.0"/>
<polygon class="l74d0" points="1200.0,9850.0 1230.0,9850.0 1230.0,9880.0 1200.0,9880.0"/>
<polygon class="l74d0" points="1750.0,9900.0 1780.0,9900.0 1780.0,9930.0 1750.0,9930.0"/>
<polygon class="l74d0" points="1800.0,9900.0 1830.0,9900.0 1830.0,9930.0 1800.0,9930.0"/>
<polygon class="l74d0" points="1850.0,9900.0 1880.0,9900.0 1880.0,9930.0 1850.0,9930.0"/>
<polygon class="l74d0" points="1900.0,9900.0 1930.0,9900.0 1930.0,9930.0 1900.0,9930.0"/>
<polygon class="l74d0" points="1950.0,9900.0 1980.0,9900.0 1980.0,9930.0 1950.0,9930.0"/>
<polygon class="l74d0" points="2000.0,9900.0 2030.0,9900.0 2030.0,9930.0 2000.0,9930.0"/>
<polygon class="l74d0" points="2050.0,9900.0 2080.0,9900.0 2080.0,9930.0 2050.0,9930.0"/>
<polygon class="l74d0" points="2100.0,9900.0 2130.0,9900.0 2130.0,9930.0 2100.0,9930.0"/>
<polygon class="l74d0" points="2150.0,9900.0 2180.0,9900.0 2180.0,9930.0 2150.0,9930.0"/>
<polygon class="l74d0" points="2200.0,9900.0 2230.0,9900.0 2230.0,9930.0 2200.0,9930.0"/>
<polygon class="l74d0" points="1700.0,9900.0 1730.0,9900.0 1730.0,9930.0 1700.0,9930.0"/>
<polygon class="l74d0" points="1650.0,9900.0 1680.0,9900.0 1680.0,9930.0 1650.0,9930.0"/>
<polygon class="l74d0" points="1600.0,9900.0 1630.0,9900.0 1630.0,9930.0 1600.0,9930.0"/>
<polygon class="l74d0" points="1550.0,9900.0 1580.0,9900.0 1580.0,9930.0 1550.0,9930.0"/>
<polygon class="l74d0" points="1500.0,9900.0 1530.0,9900.0 1530.0,9930.0 1500.0,9930.0"/>
<polygon class="l74d0" points="1450.0,9900.0 1480.0,9900.0 1480.0,9930.0 1450.0,9930.0"/>
<polygon class="l74d0" points="1400.0,9900.0 1430.0,9900.0 1430.0,9930.0 1400.0,9930.0"/>
<polygon class="l74d0" points="1350.0,9900.0 1380.0,9900.0 1380.0,9930.0 1350.0,9930.0"/>
<polygon class="l74d0" points="1300.0,9900.0 1330.0,9900.0 1330.0,9930.0 1300.0,9930.0"/>
<polygon class="l74d0" points="1250.0,9900.0 1280.0,9900.0 1280.0,9930.0 1250.0,9930.0"/>
<polygon class="l74d0" points="1200.0,9900.0 1230.0,9900.0 1230.0,9930.0 1200.0,9930.0"/>
<polygon class="l74d0" points="350000.0,9645000.0 350000.0,9610000.0 380000.0,9610000.0 380000.0,9645000.0"/>
<polygon class="l74d0" points="350000.0,9580000.0 350000.0,9525000.0 380000.0,9525000.0 380000.0,9580000.0"/>
<polygon class="l74d0" points="400000.0,9670000.0 400000.0,9490000.0 430000.0,9490000.0 430000.0,9670000.0"/>
<polygon class="l74d0" points="400000.0,5045000.0 400000.0,4860000.0 430000.0,4860000.0 430000.0,5045000.0"/>
<polygon class="l74d0" points="450000.0,9875000.0 450000.0,9735000.0 480000.0,9735000.0 480000.0,9875000.0"/>
<polygon class="l74d0" points="450000.0,9675000.0 450000.0,9610000.0 480000.0,9610000.0 480000.0,9675000.0"/>
<polygon class="l74d0" points="450000.0,9585000.0 450000.0,9185000.0 480000.0,9185000.0 480000.0,9585000.0"/>
<polygon class="l74d0" points="450000.0,5055000.0 450000.0,4860000.0 480000.0,4860000.0 480000.0,5055000.0"/>
<polygon class="l74d0" points="500000.0,9900000.0 500000.0,9615000.0 530000.0,9615000.0 530000.0,9900000.0"/>
<polygon class="l74d0" points="500000.0,9590000.0 500000.0,9020000.0 530000.0,9020000.0 530000.0,9590000.0"/>
<polygon class="l74d0" points="500000.0,8315000.0 500000.0,8090000.0 530000.0,8090000.0 530000.0,8315000.0"/>
<polygon class="l74d0" points="500000.0,8055000.0 500000.0,8020000.0 530000.0,8020000.0 530000.0,8055000.0"/>
<polygon class="l74d0" points="500000.0,5065000.0 500000.0,5030000.0 530000.0,5030000.0 530000.0,5065000.0"/>
<polygon class="l74d0" points="500000.0,5005000.0 500000.0,4860000.0 530000.0,4860000.0 530000.0,5005000.0"/>
<polygon class="l74d0" points="550000.0,9920000.0 550000.0,9615000.0 580000.0,9615000.0 580000.0,9920000.0"/>
<polygon class="l74d0" points="550000.0,9590000.0 550000.0,8495000.0 580000.0,8495000.0 580000.0,9590000.0"/>
<polygon class="l74d0" points="550000.0,8410000.0 550000.0,8135000.0 580000.0,8135000.0 580000.0,8410000.0"/>
<polygon class="l74d0" points="550000.0,8110000.0 550000.0,8075000.0 580000.0,8075000.0 580000.0,8110000.0"/>
<polygon class="l74d0" points="550000.0,8050000.0 550000.0,8000000.0 580000.0,8000000.0 580000.0,8050000.0"/>
<polygon class="l74d0" points="550000.0,5075000.0 550000.0,4860000.0 580000.0,4860000.0 580000.0,5075000.0"/>
<polygon class="l74d0" points="600000.0,9915000.0 600000.0,9720000.0 630000.0,9720000.0 630000.0,9915000.0"/>
<polygon class="l74d0" points="600000.0,9680000.0 600000.0,9610000.0 630000.0,9610000.0 630000.0,9680000.0"/>
<polygon class="l74d0" points="600000.0,9585000.0 600000.0,9400000.0 630000.0,9400000.0 630000.0,9585000.0"/>
<polygon class="l74d0" points="600000.0,9375000.0 600000.0,8155000.0 630000.0,8155000.0 630000.0,9375000.0"/>
<polygon class="l74d0" points="600000.0,8070000.0 600000.0,7865000.0 630000.0,7865000.0 630000.0,8070000.0"/>
<polygon class="l74d0" points="600000.0,7240000.0 600000.0,7205000.0 630000.0,7205000.0 630000.0,7240000.0"/>
<polygon class="l74d0" points="600000.0,7065000.0 600000.0,7030000.0 630000.0,7030000.0 630000.0,7065000.0"/>
<polygon class="l74d0" points="600000.0,5105000.0 600000.0,4860000.0 630000.0,4860000.0 630000.0,5105000.0"/>
<polygon class="l74d0" points="650000.0,9670000.0 650000.0,9485000.0 680000.0,9485000.0 680000.0,9670000.0"/>
<polygon class="l74d0" points="650000.0,9340000.0 650000.0,8300000.0 680000.0,8300000.0 680000.0,9340000.0"/>
<polygon class="l74d0" points="650000.0,8230000.0 650000.0,8190000.0 680000.0,8190000.0 680000.0,8230000.0"/>
<polygon class="l74d0" points="650000.0,8095000.0 650000.0,7585000.0 680000.0,7585000.0 680000.0,8095000.0"/>
<polygon class="l74d0" points="650000.0,7400000.0 650000.0,7250000.0 680000.0,7250000.0 680000.0,7400000.0"/>
<polygon class="l74d0" points="650000.0,7210000.0 650000.0,6985000.0 680000.0,6985000.0 680000.0,7210000.0"/>
<polygon class="l74d0" points="650000.0,5115000.0 650000.0,4860000.0 680000.0,4860000.0 680000.0,5115000.0"/>
<polygon class="l74d0" points="700000.0,9655000.0 700000.0,9615000.0 730000.0,9615000.0 730000.0,9655000.0"/>
<polygon class="l74d0" points="700000.0,9590000.0 700000.0,9510000.0 730000.0,9510000.0 730000.0,9590000.0"/>
<polygon class="l74d0" points="700000.0,8870000.0 700000.0,8260000.0 730000.0,8260000.0 730000.0,8870000.0"/>
<polygon class="l74d0" points="700000.0,8135000.0 700000.0,7350000.0 730000.0,7350000.0 730000.0,8135000.0"/>
<polygon class="l74d0" points="700000.0,7270000.0 700000.0,6980000.0 730000.0,6980000.0 730000.0,7270000.0"/>
<polygon class="l74d0" points="700000.0,6715000.0 700000.0,6255000.0 730000.0,6255000.0 730000.0,6715000.0"/>
<polygon class="l74d0" points="700000.0,5890000.0 700000.0,5810000.0 730000.0,5810000.0 730000.0,5890000.0"/>
<polygon class="l74d0" points="700000.0,5630000.0 700000.0,5490000.0 730000.0,5490000.0 730000.0,5630000.0"/>
<polygon class="l74d0" points="700000.0,5130000.0 700000.0,4860000.0 730000.0,4860000.0 730000.0,5130000.0"/>
<polygon class="l74d0" points="750000.0,8720000.0 750000.0,8255000.0 780000.0,8255000.0 780000.0,8720000.0"/>
<polygon class="l74d0" points="750000.0,8200000.0 750000.0,7430000.0 780000.0,7430000.0 780000.0,8200000.0"/>
<polygon class="l74d0" points="750000.0,7330000.0 750000.0,7015000.0 780000.0,7015000.0 780000.0,7330000.0"/>
<polygon class="l74d0" points="750000.0,6860000.0 750000.0,6350000.0 780000.0,6350000.0 780000.0,6860000.0"/>
<polygon class="l74d0" points="750000.0,5920000.0 750000.0,5850000.0 780000.0,5850000.0 780000.0,5920000.0"/>
<polygon class="l74d0" points="750000.0,5815000.0 750000.0,5730000.0 780000.0,5730000.0 780000.0,5815000.0"/>
<polygon class="l74d0" points="750000.0,5705000.0 750000.0,5535000.0 780000.0,5535000.0 780000.0,5705000.0"/>
<polygon class="l74d0" points="750000.0,5150000.0 750000.0,4860000.0 780000.0,4860000.0 780000.0,5150000.0"/>
<polygon class="l74d0" points="800000.0,8610000.0 800000.0,8575000.0 830000.0,8575000.0 830000.0,8610000.0"/>
<polygon class="l74d0" points="800000.0,8525000.0 800000.0,7500000.0 830000.0,7500000.0 830000.0,8525000.0"/>
<polygon class="l74d0" points="800000.0,7370000.0 800000.0,7335000.0 830000.0,7335000.0 830000.0,7370000.0"/>
<polygon class="l74d0" points="800000.0,7260000.0 800000.0,7095000.0 830000.0,7095000.0 830000.0,7260000.0"/>
<polygon class="l74d0" points="800000.0,6980000.0 800000.0,6540000.0 830000.0,6540000.0 830000.0,6980000.0"/>
<polygon class="l74d0" points="800000.0,5960000.0 800000.0,5615000.0 830000.0,5615000.0 830000.0,5960000.0"/>
<polygon class="l74d0" points="800000.0,5225000.0 800000.0,4860000.0 830000.0,4860000.0 830000.0,5225000.0"/>
<polygon class="l74d0" points="850000.0,8605000.0 850000.0,8560000.0 880000.0,8560000.0 880000.0,8605000.0"/>
<polygon class="l74d0" points="850000.0,8480000.0 850000.0,7565000.0 880000.0,7565000.0 880000.0,8480000.0"/>
<polygon class="l74d0" points="850000.0,7320000.0 850000.0,7170000.0 880000.0,7170000.0 880000.0,7320000.0"/>
<polygon class="l74d0" points="850000.0,7085000.0 850000.0,6650000.0 880000.0,6650000.0 880000.0,7085000.0"/>
<polygon class="l74d0" points="850000.0,6010000.0 850000.0,5710000.0 880000.0,5710000.0 880000.0,6010000.0"/>
<polygon class="l74d0" points="850000.0,5600000.0 850000.0,5535000.0 880000.0,5535000.0 880000.0,5600000.0"/>
<polygon class="l74d0" points="850000.0,5325000.0 850000.0,5090000.0 880000.0,5090000.0 880000.0,5325000.0"/>
<polygon class="l74d0" points="850000.0,5065000.0 850000.0,4860000.0 880000.0,4860000.0 880000.0,5065000.0"/>
<polygon class="l74d0" points="900000.0,8800000.0 900000.0,8760000.0 930000.0,8760000.0 930000.0,8800000.0"/>
<polygon class="l74d0" points="900000.0,8600000.0 900000.0,8540000.0 930000.0,8540000.0 930000.0,8600000.0"/>
<polygon class="l74d0" points="900000.0,8490000.0 900000.0,8440000.0 930000.0,8440000.0 930000.0,8490000.0"/>
<polygon class="l74d0" points="900000.0,8295000.0 900000.0,7620000.0 930000.0,7620000.0 930000.0,8295000.0"/>
<polygon class="l74d0" points="900000.0,7470000.0 900000.0,7435000.0 930000.0,7435000.0 930000.0,7470000.0"/>
<polygon class="l74d0" points="900000.0,7380000.0 900000.0,7235000.0 930000.0,7235000.0 930000.0,7380000.0"/>
<polygon class="l74d0" points="900000.0,7180000.0 900000.0,6720000.0 930000.0,6720000.0 930000.0,7180000.0"/>
<polygon class="l74d0" points="900000.0,6565000.0 900000.0,6365000.0 930000.0,6365000.0 930000.0,6565000.0"/>
<polygon class="l74d0" points="900000.0,6065000.0 900000.0,5815000.0 930000.0,5815000.0 930000.0,6065000.0"/>
<polygon class="l74d0" points="900000.0,5715000.0 900000.0,5610000.0 930000.0,5610000.0 930000.0,5715000.0"/>
<polygon class="l74d0" points="900000.0,5375000.0 900000.0,5170000.0 930000.0,5170000.0 930000.0,5375000.0"/>
<polygon class="l74d0" points="900000.0,5070000.0 900000.0,4860000.0 930000.0,4860000.0 930000.0,5070000.0"/>
<polygon class="l74d0" points="950000.0,8765000.0 950000.0,8685000.0 980000.0,8685000.0 980000.0,8765000.0"/>
<polygon class="l74d0" points="950000.0,8600000.0 950000.0,8425000.0 980000.0,8425000.0 980000.0,8600000.0"/>
<polygon class="l74d0" points="950000.0,8400000.0 950000.0,8170000.0 980000.0,8170000.0 980000.0,8400000.0"/>
<polygon class="l74d0" points="950000.0,8145000.0 950000.0,7940000.0 980000.0,7940000.0 980000.0,8145000.0"/>
<polygon class="l74d0" points="950000.0,7865000.0 950000.0,7670000.0 980000.0,7670000.0 980000.0,7865000.0"/>
<polygon class="l74d0" points="950000.0,7560000.0 950000.0,7485000.0 980000.0,7485000.0 980000.0,7560000.0"/>
<polygon class="l74d0" points="950000.0,7435000.0 950000.0,6390000.0 980000.0,6390000.0 980000.0,7435000.0"/>
<polygon class="l74d0" points="950000.0,6130000.0 950000.0,5905000.0 980000.0,5905000.0 980000.0,6130000.0"/>
<polygon class="l74d0" points="950000.0,5855000.0 950000.0,5700000.0 980000.0,5700000.0 980000.0,5855000.0"/>
<polygon class="l74d0" points="950000.0,5430000.0 950000.0,5265000.0 980000.0,5265000.0 980000.0,5430000.0"/>
<polygon class="l74d0" points="950000.0,5070000.0 950000.0,4860000.0 980000.0,4860000.0 980000.0,5070000.0"/>
<polygon class="l74d0" points="1000000.0,8720000.0 1000000.0,8485000.0 1030000.0,8485000.0 1030000.0,8720000.0"/>
<polygon class="l74d0" points="1000000.0,8460000.0 1000000.0,8150000.0 1030000.0,8150000.0 1030000.0,8460000.0"/>
<polygon class="l74d0" points="1000000.0,7940000.0 1000000.0,7715000.0 1030000.0,7715000.0 1030000.0,7940000.0"/>
<polygon class="l74d0" points="1000000.0,7635000.0 1000000.0,7535000.0 1030000.0,7535000.0 1030000.0,7635000.0"/>
<polygon class="l74d0" points="1000000.0,7490000.0 1000000.0,6465000.0 1030000.0,6465000.0 1030000.0,7490000.0"/>
<polygon class="l74d0" points="1000000.0,6210000.0 1000000.0,5810000.0 1030000.0,5810000.0 1030000.0,6210000.0"/>
<polygon class="l74d0" points="1000000.0,5520000.0 1000000.0,5320000.0 1030000.0,5320000.0 1030000.0,5520000.0"/>
<polygon class="l74d0" points="1000000.0,5270000.0 1000000.0,5135000.0 1030000.0,5135000.0 1030000.0,5270000.0"/>
<polygon class="l74d0" points="1000000.0,5070000.0 1000000.0,4860000.0 1030000.0,4860000.0 1030000.0,5070000.0"/>
<polygon class="l74d0" points="1050000.0,8675000.0 1050000.0,8540000.0 1080000.0,8540000.0 1080000.0,8675000.0"/>
<polygon class="l74d0" points="1050000.0,8465000.0 1050000.0,8360000.0 1080000.0,8360000.0 1080000.0,8465000.0"/>
<polygon class="l74d0" points="1050000.0,8260000.0 1050000.0,8075000.0 1080000.0,8075000.0 1080000.0,8260000.0"/>
<polygon class="l74d0" points="1050000.0,8040000.0 1050000.0,7755000.0 1080000.0,7755000.0 1080000.0,8040000.0"/>
<polygon class="l74d0" points="1050000.0,7700000.0 1050000.0,7580000.0 1080000.0,7580000.0 1080000.0,7700000.0"/>
<polygon class="l74d0" points="1050000.0,7535000.0 1050000.0,6645000.0 1080000.0,6645000.0 1080000.0,7535000.0"/>
<polygon class="l74d0" points="1050000.0,6300000.0 1050000.0,5930000.0 1080000.0,5930000.0 1080000.0,6300000.0"/>
<polygon class="l74d0" points="1050000.0,5580000.0 1050000.0,5205000.0 1080000.0,5205000.0 1080000.0,5580000.0"/>
<polygon class="l74d0" points="1050000.0,5070000.0 1050000.0,4860000.0 1080000.0,4860000.0 1080000.0,5070000.0"/>
<polygon class="l74d0" points="1100000.0,8680000.0 1100000.0,8560000.0 1130000.0,8560000.0 1130000.0,8680000.0"/>
<polygon class="l74d0" points="1100000.0,8485000.0 1100000.0,8450000.0 1130000.0,8450000.0 1130000.0,8485000.0"/>
<polygon class="l74d0" points="1100000.0,8425000.0 1100000.0,8370000.0 1130000.0,8370000.0 1130000.0,8425000.0"/>
<polygon class="l74d0" points="1100000.0,8205000.0 1100000.0,8025000.0 1130000.0,8025000.0 1130000.0,8205000.0"/>
<polygon class="l74d0" points="1100000.0,8000000.0 1100000.0,7625000.0 1130000.0,7625000.0 1130000.0,8000000.0"/>
<polygon class="l74d0" points="1100000.0,7585000.0 1100000.0,7050000.0 1130000.0,7050000.0 1130000.0,7585000.0"/>
<polygon class="l74d0" points="1100000.0,6445000.0 1100000.0,6070000.0 1130000.0,6070000.0 1130000.0,6445000.0"/>
<polygon class="l74d0" points="1100000.0,5725000.0 1100000.0,5295000.0 1130000.0,5295000.0 1130000.0,5725000.0"/>
<polygon class="l74d0" points="1100000.0,5085000.0 1100000.0,4860000.0 1130000.0,4860000.0 1130000.0,5085000.0"/>
<polygon class="l74d0" points="1150000.0,8860000.0 1150000.0,8565000.0 1180000.0,8565000.0 1180000.0,8860000.0"/>
<polygon class="l74d0" points="1150000.0,8520000.0 1150000.0,8480000.0 1180000.0,8480000.0 1180000.0,8520000.0"/>
<polygon class="l74d0" points="1150000.0,8310000.0 1150000.0,8260000.0 1180000.0,8260000.0 1180000.0,8310000.0"/>
<polygon class="l74d0" points="1150000.0,8195000.0 1150000.0,7650000.0 1180000.0,7650000.0 1180000.0,8195000.0"/>
<polygon class="l74d0" points="1150000.0,7625000.0 1150000.0,7210000.0 1180000.0,7210000.0 1180000.0,7625000.0"/>
<polygon class="l74d0" points="1150000.0,6650000.0 1150000.0,6075000.0 1180000.0,6075000.0 1180000.0,6650000.0"/>
<polygon class="l74d0" points="1150000.0,6000000.0 1150000.0,5155000.0 1180000.0,5155000.0 1180000.0,6000000.0"/>
<polygon class="l74d0" points="1150000.0,5130000.0 1150000.0,4860000.0 1180000.0,4860000.0 1180000.0,5130000.0"/>
<polygon class="l74d0" points="1200000.0,8685000.0 1200000.0,8565000.0 1230000.0,8565000.0 1230000.0,8685000.0"/>
<polygon class="l74d0" points="1200000.0,8510000.0 1200000.0,8475000.0 1230000.0,8475000.0 1230000.0,8510000.0"/>
<polygon class="l74d0" points="1200000.0,8430000.0 1200000.0,8375000.0 1230000.0,8375000.0 1230000.0,8430000.0"/>
<polygon class="l74d0" points="1200000.0,8315000.0 1200000.0,7310000.0 1230000.0,7310000.0 1230000.0,8315000.0"/>
<polygon class="l74d0" points="1200000.0,7165000.0 1200000.0,6905000.0 1230000.0,6905000.0 1230000.0,7165000.0"/>
<polygon class="l74d0" points="1200000.0,6880000.0 1200000.0,4860000.0 1230000.0,4860000.0 1230000.0,6880000.0"/>
<polygon class="l74d0" points="1250000.0,8685000.0 1250000.0,8550000.0 1280000.0,8550000.0 1280000.0,8685000.0"/>
<polygon class="l74d0" points="1250000.0,8500000.0 1250000.0,8450000.0 1280000.0,8450000.0 1280000.0,8500000.0"/>
<polygon class="l74d0" points="1250000.0,8425000.0 1250000.0,8360000.0 1280000.0,8360000.0 1280000.0,8425000.0"/>
<polygon class="l74d0" points="1250000.0,8265000.0 1250000.0,4860000.0 1280000.0,4860000.0 1280000.0,8265000.0"/>
<polygon class="l74d0" points="1300000.0,8725000.0 1300000.0,8525000.0 1330000.0,8525000.0 1330000.0,8725000.0"/>
<polygon class="l74d0" points="1300000.0,8500000.0 1300000.0,4860000.0 1330000.0,4860000.0 1330000.0,8500000.0"/>
<polygon class="l74d0" points="1350000.0,8775000.0 1350000.0,8690000.0 1380000.0,8690000.0 1380000.0,8775000.0"/>
<polygon class="l74d0" points="1350000.0,8615000.0 1350000.0,6135000.0 1380000.0,6135000.0 1380000.0,8615000.0"/>
<polygon class="l74d0" points="1350000.0,5925000.0 1350000.0,4860000.0 1380000.0,4860000.0 1380000.0,5925000.0"/>
<polygon class="l74d0" points="1400000.0,8810000.0 1400000.0,8775000.0 1430000.0,8775000.0 1430000.0,8810000.0"/>
<polygon class="l74d0" points="1400000.0,8600000.0 1400000.0,8545000.0 1430000.0,8545000.0 1430000.0,8600000.0"/>
<polygon class="l74d0" points="1400000.0,8505000.0 1400000.0,8455000.0 1430000.0,8455000.0 1430000.0,8505000.0"/>
<polygon class="l74d0" points="1400000.0,8235000.0 1400000.0,8135000.0 1430000.0,8135000.0 1430000.0,8235000.0"/>
<polygon class="l74d0" points="1400000.0,8110000.0 1400000.0,6080000.0 1430000.0,6080000.0 1430000.0,8110000.0"/>
<polygon class="l74d0" points="1400000.0,5955000.0 1400000.0,4860000.0 1430000.0,4860000.0 1430000.0,5955000.0"/>
<polygon class="l74d0" points="1450000.0,8610000.0 1450000.0,8570000.0 1480000.0,8570000.0 1480000.0,8610000.0"/>
<polygon class="l74d0" points="1450000.0,8490000.0 1450000.0,8455000.0 1480000.0,8455000.0 1480000.0,8490000.0"/>
<polygon class="l74d0" points="1450000.0,7985000.0 1450000.0,6030000.0 1480000.0,6030000.0 1480000.0,7985000.0"/>
<polygon class="l74d0" points="1450000.0,5985000.0 1450000.0,4860000.0 1480000.0,4860000.0 1480000.0,5985000.0"/>
<polygon class="l74d0" points="1500000.0,8620000.0 1500000.0,8585000.0 1530000.0,8585000.0 1530000.0,8620000.0"/>
<polygon class="l74d0" points="1500000.0,8480000.0 1500000.0,8445000.0 1530000.0,8445000.0 1530000.0,8480000.0"/>
<polygon class="l74d0" points="1500000.0,7960000.0 1500000.0,6030000.0 1530000.0,6030000.0 1530000.0,7960000.0"/>
<polygon class="l74d0" points="1500000.0,6005000.0 1500000.0,5375000.0 1530000.0,5375000.0 1530000.0,6005000.0"/>
<polygon class="l74d0" points="1500000.0,5225000.0 1500000.0,4860000.0 1530000.0,4860000.0 1530000.0,5225000.0"/>
<polygon class="l74d0" points="1550000.0,8630000.0 1550000.0,8595000.0 1580000.0,8595000.0 1580000.0,8630000.0"/>
<polygon class="l74d0" points="1550000.0,8470000.0 1550000.0,8435000.0 1580000.0,8435000.0 1580000.0,8470000.0"/>
<polygon class="l74d0" points="1550000.0,7935000.0 1550000.0,5665000.0 1580000.0,5665000.0 1580000.0,7935000.0"/>
<polygon class="l74d0" points="1550000.0,5120000.0 1550000.0,4860000.0 1580000.0,4860000.0 1580000.0,5120000.0"/>
<polygon class="l74d0" points="1600000.0,7860000.0 1600000.0,5205000.0 1630000.0,5205000.0 1630000.0,7860000.0"/>
<polygon class="l74d0" points="1600000.0,5100000.0 1600000.0,4860000.0 1630000.0,4860000.0 1630000.0,5100000.0"/>
<polygon class="l74d0" points="1650000.0,7740000.0 1650000.0,4860000.0 1680000.0,4860000.0 1680000.0,7740000.0"/>
<polygon class="l74d0" points="1700000.0,7590000.0 1700000.0,4860000.0 1730000.0,4860000.0 1730000.0,7590000.0"/>
<polygon class="l74d0" points="1750000.0,7555000.0 1750000.0,6685000.0 1780000.0,6685000.0 1780000.0,7555000.0"/>
<polygon class="l74d0" points="1750000.0,6580000.0 1750000.0,5870000.0 1780000.0,5870000.0 1780000.0,6580000.0"/>
<polygon class="l74d0" points="1750000.0,5745000.0 1750000.0,5540000.0 1780000.0,5540000.0 1780000.0,5745000.0"/>
<polygon class="l74d0" points="1750000.0,5110000.0 1750000.0,4860000.0 1780000.0,4860000.0 1780000.0,5110000.0"/>
<polygon class="l74d0" points="1800000.0,7545000.0 1800000.0,6745000.0 1830000.0,6745000.0 1830000.0,7545000.0"/>
<polygon class="l74d0" points="1800000.0,5065000.0 1800000.0,4860000.0 1830000.0,4860000.0 1830000.0,5065000.0"/>
<polygon class="l74d0" points="1850000.0,7635000.0 1850000.0,6785000.0 1880000.0,6785000.0 1880000.0,7635000.0"/>
<polygon class="l74d0" points="1900000.0,7705000.0 1900000.0,6905000.0 1930000.0,6905000.0 1930000.0,7705000.0"/>
<polygon class="l74d0" points="1950000.0,7690000.0 1950000.0,7315000.0 1980000.0,7315000.0 1980000.0,7690000.0"/>
<polygon class="l74d0" points="1950000.0,7290000.0 1950000.0,7255000.0 1980000.0,7255000.0 1980000.0,7290000.0"/>
<polygon class="l74d0" points="1950000.0,7230000.0 1950000.0,7090000.0 1980000.0,7090000.0 1980000.0,7230000.0"/>
<polygon class="l74d0" points="2000000.0,7660000.0 2000000.0,7340000.0 2030000.0,7340000.0 2030000.0,7660000.0"/>
<polygon class="l74d0" points="2000000.0,7255000.0 2000000.0,7110000.0 2030000.0,7110000.0 2030000.0,7255000.0"/>
<polygon class="l74d0" points="2050000.0,7630000.0 2050000.0,7400000.0 2080000.0,7400000.0 2080000.0,7630000.0"/>
<polygon class="l74d0" points="2050000.0,7375000.0 2050000.0,7315000.0 2080000.0,7315000.0 2080000.0,7375000.0"/>
<polygon class="l74d0" points="2050000.0,7255000.0 2050000.0,7160000.0 2080000.0,7160000.0 2080000.0,7255000.0"/>
<polygon class="l74d0" points="2100000.0,7600000.0 2100000.0,7565000.0 2130000.0,7565000.0 2130000.0,7600000.0"/>
<polygon class="l74d0" points="2100000.0,7520000.0 2100000.0,7380000.0 2130000.0,7380000.0 2130000.0,7520000.0"/>
<polygon class="l74d0" points="2100000.0,7355000.0 2100000.0,7230000.0 2130000.0,7230000.0 2130000.0,7355000.0"/>
<polygon class="l74d0" points="2150000.0,7570000.0 2150000.0,7535000.0 2180000.0,7535000.0 2180000.0,7570000.0"/>
<polygon class="l74d0" points="2150000.0,7510000.0 2150000.0,7435000.0 2180000.0,7435000.0 2180000.0,7510000.0"/>
<polygon class="l74d0" points="2200000.0,7540000.0 2200000.0,7505000.0 2230000.0,7505000.0 2230000.0,7540000.0"/>
</g>
</svg>