<?xml version="1.0" encoding="UTF-8"?>
<svg xmlns="http://www.w3.org/2000/svg" xmlns:xlink="http://www.w3.org/1999/xlink"
     width="4774815.0" height="10956165.0" viewBox="-496807.5 -10468007.5 4774815.0 10956165.0">
<defs>
<style type="text/css">
.l74d0 {stroke: rgb(158, 42, 255); fill: rgb(158, 42, 255); fill-opacity: 0.5;}
</style>
</defs>
<rect x="-496807.5" y="-10468007.5" width="4774815.0" height="10956165.0" fill="#222" stroke="none"/>
<g id="AL_AP_artwork_test" transform="scale(1 -1)">
<polygon class="l74d0" points="2050.0,9850.0 2080.0,9850.0 2080.0,9880.0 2050.0,9880.0"/>
<polygon class="l74d0" points="2000.0,9850.0 2030.0,9850.0 2030.0,9880.0 2000.0,9880.0"/>
<polygon class="l74d0" points="1950.0,9850.0 1980.0,9850.0 1980.0,9880.0 1950.0,9880.0"/>
<polygon class="l74d0" points="1900.0,9850.0 1930.0,9850.0 1930.0,9880.0 1900.0,9880.0"/>
<polygon class="l74d0" points="1850.0,9850.0 1880.0,9850.0 1880.0,9880.0 1850.0,9880.0"/>
<polygon class="l74d0" points="1800.0,9850.0 1830.0,9850.0 1830.0,9880.0 1800.0,9880.0"/>
<polygon class="l74d0" points="1750.0,9850.0 1780.0,9850.0 1780.0,9880.0 1750.0,9880.0"/>
<polygon class="l74d0" points="1700.0,9850.0 1730.0,9850.0 1730.0,9880.0 1700.0,9880.0"/>
<polygon class="l74d0" points="1650.0,9850.0 1680.0,9850.0 1680.0,9880.0 1650.0,9880.0"/>
<polygon class="l74d0" points="1600.0,9850.0 1630.0,9850.0 1630.0,9880.0 1600.0,9880.0"/>
<polygon class="l74d0" points="1550.0,9850.0 1580.0,9850.0 1580.0,9880.0 1550.0,9880.0"/>
<polygon class="l74d0" points="1500.0,9850.0 1530.0,9850.0 1530.0,9880.0 1500.0,9880.0"/>
<polygon class="l74d0" points="1450.0,9850.0 1480.0,9850.0 1480.0,9880.0 1450.0,9880.0"/>
<polygon class="l74d0" points="1400.0,9850.0 1430.0,9850.0 1430.0,9880.0 1400.0,9880.0"/>
<polygon class="l74d0" points="1350.0,9850.0 1380.0,9850.0 1380.0,9880.0 1350.0,9880.0"/>
<polygon class="l74d0" points="1300.0,9850.0 1330.0,9850.0 1330.0,9880.0 1300.0,9880.0"/>
<polygon class="l74d0" points="1250.0,9850.0 1280.0,9850.0 1280.0,9880.0 1250.0,9880.0"/>
<polygon class="l74d0" points="1200.0,9850.0 1230.0,9850.0 1230.0,9880.0 1200.0,9880.0"/>
<polygon class="l74d0" points="1750.0,9900.0 1780.0,9900.0 1780.0,9930.0 1750.0,9930.0"/>
<polygon class="l74d0" points="1800.0,9900.0 1830.0,9900.0 1830.0,9930.0 1800.0,9930.0"/>
<polygon class="l74d0" points="1850.0,9900.0 1880.0,9900.0 1880.0,9930.0 1850.0,9930.0"/>
<polygon class="l74d0" points="1900.0,9900.0 1930.0,9900.0 1930.0,9930.0 1900.0,9930.0"/>
<polygon class="l74d0" points="1950.0,9900.0 1980.0,9900.0 1980.0,9930.0 1950.0,9930.0"/>
<polygon class="l74d0" points="2000.0,9900.0 2030.0,9900.0 2030.0,9930.0 2000.0,9930.0"/>
<polygon class="l74d0" points="2050.0,9900.0 2080.0,9900.0 2080.0,9930.0 2050.0,9930.0"/>
<polygon class="l74d0" points="2100.0,9900.0 2130.0,9900.0 2130.0,9930.0 2100.0,9930.0"/>
<polygon class="l74d0" points="2150.0,9900.0 2180.0,9900.0 2180.0,9930.0 2150.0,9930.0"/>
<polygon class="l74d0" points="2200.0,9900.0 2230.0,9900.0 2230.0,9930.0 2200.0,9930.0"/>
<polygon class="l74d0" points="1700.0,9900.0 1730.0,9900.0 1730.0,9930.0 1700.0,9930.0"/>
<polygon class="l74d0" points="1650.0,9900.0 1680.0,9900.0 1680.0,9930.0 1650.0,9930.0"/>
<polygon class="l74d0" points="1600.0,9900.0 1630.0,9900.0 1630.0,9930.0 1600.0,9930.0"/>
<polygon class="l74d0" points="1550.0,9900.0 1580.0,9900.0 1580.0,9930.0 1550.0,9930.0"/>
<polygon class="l74d0" points="1500.0,9900.0 1530.0,9900.0 1530.0,9930.0 1500.0,9930.0"/>
<polygon class="l74d0" points="1450.0,9900.0 1480.0,9900.0 1480.0,9930.0 1450.0,9930.0"/>
<polygon class="l74d0" points="1400.0,9900.0 1430.0,9900.0 1430.0,9930.0 1400.0,9930.0"/>
<polygon class="l74d0" points="1350.0,9900.0 1380.0,9900.0 1380.0,9930.0 1350.0,9930.0"/>
<polygon class="l74d0" points="1300.0,9900.0 1330.0,9900.0 1330.0,9930.0 1300.0,9930.0"/>
<polygon class="l74d0" points="1250.0,9900.0 1280.0,9900.0 1280.0,9930.0 1250.0,9930.0"/>
<polygon class="l74d0" points="1200.0,9900.0 1230.0,9900.0 1230.0,9930.0 1200.0,9930.0"/>
<polygon class="l74d0" points="650000.0,9525000.0 650000.0,9260000.0 680000.0,9260000.0 680000.0,9525000.0"/>
<polygon class="l74d0" points="700000.0,9540000.0 700000.0,9420000.0 730000.0,9420000.0 730000.0,9540000.0"/>
<polygon class="l74d0" points="700000.0,9395000.0 700000.0,9230000.0 730000.0,9230000.0 730000.0,9395000.0"/>
<polygon class="l74d0" points="750000.0,9745000.0 750000.0,9710000.0 780000.0,9710000.0 780000.0,9745000.0"/>
<polygon class="l74d0" points="750000.0,9550000.0 750000.0,9435000.0 780000.0,9435000.0 780000.0,9550000.0"/>
<polygon class="l74d0" points="750000.0,9410000.0 750000.0,9110000.0 780000.0,9110000.0 780000.0,9410000.0"/>
<polygon class="l74d0" points="750000.0,9075000.0 750000.0,8990000.0 780000.0,8990000.0 780000.0,9075000.0"/>
<polygon class="l74d0" points="750000.0,8965000.0 750000.0,8895000.0 780000.0,8895000.0 780000.0,8965000.0"/>
<polygon class="l74d0" points="750000.0,8870000.0 750000.0,8780000.0 780000.0,8780000.0 780000.0,8870000.0"/>
<polygon class="l74d0" points="800000.0,9950000.0 800000.0,9640000.0 830000.0,9640000.0 830000.0,9950000.0"/>
<polygon class="l74d0" points="800000.0,9560000.0 800000.0,9445000.0 830000.0,9445000.0 830000.0,9560000.0"/>
<polygon class="l74d0" points="800000.0,9420000.0 800000.0,8685000.0 830000.0,8685000.0 830000.0,9420000.0"/>
<polygon class="l74d0" points="800000.0,1695000.0 800000.0,1635000.0 830000.0,1635000.0 830000.0,1695000.0"/>
<polygon class="l74d0" points="850000.0,9920000.0 850000.0,9450000.0 880000.0,9450000.0 880000.0,9920000.0"/>
<polygon class="l74d0" points="850000.0,9420000.0 850000.0,8445000.0 880000.0,8445000.0 880000.0,9420000.0"/>
<polygon class="l74d0" points="850000.0,7190000.0 850000.0,6855000.0 880000.0,6855000.0 880000.0,7190000.0"/>
<polygon class="l74d0" points="850000.0,6795000.0 850000.0,6760000.0 880000.0,6760000.0 880000.0,6795000.0"/>
<polygon class="l74d0" points="850000.0,1700000.0 850000.0,1645000.0 880000.0,1645000.0 880000.0,1700000.0"/>
<polygon class="l74d0" points="900000.0,9965000.0 900000.0,9455000.0 930000.0,9455000.0 930000.0,9965000.0"/>
<polygon class="l74d0" points="900000.0,9425000.0 900000.0,7935000.0 930000.0,7935000.0 930000.0,9425000.0"/>
<polygon class="l74d0" points="900000.0,7910000.0 900000.0,7875000.0 930000.0,7875000.0 930000.0,7910000.0"/>
<polygon class="l74d0" points="900000.0,7305000.0 900000.0,6845000.0 930000.0,6845000.0 930000.0,7305000.0"/>
<polygon class="l74d0" points="900000.0,6790000.0 900000.0,6720000.0 930000.0,6720000.0 930000.0,6790000.0"/>
<polygon class="l74d0" points="900000.0,1710000.0 900000.0,1650000.0 930000.0,1650000.0 930000.0,1710000.0"/>
<polygon class="l74d0" points="950000.0,9970000.0 950000.0,9450000.0 980000.0,9450000.0 980000.0,9970000.0"/>
<polygon class="l74d0" points="950000.0,9420000.0 950000.0,7550000.0 980000.0,7550000.0 980000.0,9420000.0"/>
<polygon class="l74d0" points="950000.0,7395000.0 950000.0,6930000.0 980000.0,6930000.0 980000.0,7395000.0"/>
<polygon class="l74d0" points="950000.0,6905000.0 950000.0,6855000.0 980000.0,6855000.0 980000.0,6905000.0"/>
<polygon class="l74d0" points="950000.0,6790000.0 950000.0,6700000.0 980000.0,6700000.0 980000.0,6790000.0"/>
<polygon class="l74d0" points="1000000.0,9945000.0 1000000.0,9445000.0 1030000.0,9445000.0 1030000.0,9945000.0"/>
<polygon class="l74d0" points="1000000.0,9420000.0 1000000.0,6945000.0 1030000.0,6945000.0 1030000.0,9420000.0"/>
<polygon class="l74d0" points="1000000.0,6910000.0 1000000.0,6875000.0 1030000.0,6875000.0 1030000.0,6910000.0"/>
<polygon class="l74d0" points="1000000.0,6800000.0 1000000.0,6695000.0 1030000.0,6695000.0 1030000.0,6800000.0"/>
<polygon class="l74d0" points="1000000.0,6670000.0 1000000.0,6500000.0 1030000.0,6500000.0 1030000.0,6670000.0"/>
<polygon class="l74d0" points="1050000.0,9970000.0 1050000.0,9635000.0 1080000.0,9635000.0 1080000.0,9970000.0"/>
<polygon class="l74d0" points="1050000.0,9555000.0 1050000.0,9435000.0 1080000.0,9435000.0 1080000.0,9555000.0"/>
<polygon class="l74d0" points="1050000.0,9410000.0 1050000.0,9135000.0 1080000.0,9135000.0 1080000.0,9410000.0"/>
<polygon class="l74d0" points="1050000.0,9045000.0 1050000.0,6970000.0 1080000.0,6970000.0 1080000.0,9045000.0"/>
<polygon class="l74d0" points="1050000.0,6820000.0 1050000.0,6465000.0 1080000.0,6465000.0 1080000.0,6820000.0"/>
<polygon class="l74d0" points="1050000.0,5460000.0 1050000.0,5285000.0 1080000.0,5285000.0 1080000.0,5460000.0"/>
<polygon class="l74d0" points="1050000.0,5170000.0 1050000.0,5010000.0 1080000.0,5010000.0 1080000.0,5170000.0"/>
<polygon class="l74d0" points="1100000.0,9870000.0 1100000.0,9705000.0 1130000.0,9705000.0 1130000.0,9870000.0"/>
<polygon class="l74d0" points="1100000.0,9545000.0 1100000.0,9420000.0 1130000.0,9420000.0 1130000.0,9545000.0"/>
<polygon class="l74d0" points="1100000.0,9395000.0 1100000.0,9225000.0 1130000.0,9225000.0 1130000.0,9395000.0"/>
<polygon class="l74d0" points="1100000.0,9010000.0 1100000.0,7240000.0 1130000.0,7240000.0 1130000.0,9010000.0"/>
<polygon class="l74d0" points="1100000.0,7140000.0 1100000.0,7005000.0 1130000.0,7005000.0 1130000.0,7140000.0"/>
<polygon class="l74d0" points="1100000.0,6845000.0 1100000.0,6020000.0 1130000.0,6020000.0 1130000.0,6845000.0"/>
<polygon class="l74d0" points="1100000.0,5625000.0 1100000.0,5390000.0 1130000.0,5390000.0 1130000.0,5625000.0"/>
<polygon class="l74d0" points="1100000.0,5290000.0 1100000.0,4970000.0 1130000.0,4970000.0 1130000.0,5290000.0"/>
<polygon class="l74d0" points="1150000.0,9535000.0 1150000.0,9240000.0 1180000.0,9240000.0 1180000.0,9535000.0"/>
<polygon class="l74d0" points="1150000.0,8855000.0 1150000.0,8750000.0 1180000.0,8750000.0 1180000.0,8855000.0"/>
<polygon class="l74d0" points="1150000.0,8425000.0 1150000.0,7190000.0 1180000.0,7190000.0 1180000.0,8425000.0"/>
<polygon class="l74d0" points="1150000.0,6880000.0 1150000.0,5760000.0 1180000.0,5760000.0 1180000.0,6880000.0"/>
<polygon class="l74d0" points="1150000.0,5735000.0 1150000.0,5490000.0 1180000.0,5490000.0 1180000.0,5735000.0"/>
<polygon class="l74d0" points="1150000.0,5375000.0 1150000.0,4970000.0 1180000.0,4970000.0 1180000.0,5375000.0"/>
<polygon class="l74d0" points="1150000.0,4270000.0 1150000.0,4215000.0 1180000.0,4215000.0 1180000.0,4270000.0"/>
<polygon class="l74d0" points="1150000.0,3025000.0 1150000.0,2920000.0 1180000.0,2920000.0 1180000.0,3025000.0"/>
<polygon class="l74d0" points="1200000.0,9520000.0 1200000.0,9435000.0 1230000.0,9435000.0 1230000.0,9520000.0"/>
<polygon class="l74d0" points="1200000.0,9410000.0 1200000.0,9265000.0 1230000.0,9265000.0 1230000.0,9410000.0"/>
<polygon class="l74d0" points="1200000.0,8200000.0 1200000.0,7150000.0 1230000.0,7150000.0 1230000.0,8200000.0"/>
<polygon class="l74d0" points="1200000.0,6920000.0 1200000.0,5580000.0 1230000.0,5580000.0 1230000.0,6920000.0"/>
<polygon class="l74d0" points="1200000.0,5450000.0 1200000.0,4975000.0 1230000.0,4975000.0 1230000.0,5450000.0"/>
<polygon class="l74d0" points="1200000.0,4490000.0 1200000.0,3750000.0 1230000.0,3750000.0 1230000.0,4490000.0"/>
<polygon class="l74d0" points="1200000.0,3105000.0 1200000.0,2955000.0 1230000.0,2955000.0 1230000.0,3105000.0"/>
<polygon class="l74d0" points="1200000.0,2650000.0 1200000.0,2415000.0 1230000.0,2415000.0 1230000.0,2650000.0"/>
<polygon class="l74d0" points="1250000.0,8060000.0 1250000.0,7125000.0 1280000.0,7125000.0 1280000.0,8060000.0"/>
<polygon class="l74d0" points="1250000.0,6980000.0 1250000.0,5665000.0 1280000.0,5665000.0 1280000.0,6980000.0"/>
<polygon class="l74d0" points="1250000.0,5515000.0 1250000.0,4945000.0 1280000.0,4945000.0 1280000.0,5515000.0"/>
<polygon class="l74d0" points="1250000.0,4650000.0 1250000.0,3650000.0 1280000.0,3650000.0 1280000.0,4650000.0"/>
<polygon class="l74d0" points="1250000.0,3130000.0 1250000.0,3015000.0 1280000.0,3015000.0 1280000.0,3130000.0"/>
<polygon class="l74d0" points="1250000.0,2890000.0 1250000.0,2825000.0 1280000.0,2825000.0 1280000.0,2890000.0"/>
<polygon class="l74d0" points="1250000.0,2745000.0 1250000.0,2450000.0 1280000.0,2450000.0 1280000.0,2745000.0"/>
<polygon class="l74d0" points="1300000.0,7895000.0 1300000.0,7155000.0 1330000.0,7155000.0 1330000.0,7895000.0"/>
<polygon class="l74d0" points="1300000.0,7060000.0 1300000.0,5745000.0 1330000.0,5745000.0 1330000.0,7060000.0"/>
<polygon class="l74d0" points="1300000.0,5575000.0 1300000.0,5035000.0 1330000.0,5035000.0 1330000.0,5575000.0"/>
<polygon class="l74d0" points="1300000.0,4780000.0 1300000.0,3950000.0 1330000.0,3950000.0 1330000.0,4780000.0"/>
<polygon class="l74d0" points="1300000.0,3165000.0 1300000.0,3060000.0 1330000.0,3060000.0 1330000.0,3165000.0"/>
<polygon class="l74d0" points="1300000.0,3000000.0 1300000.0,2845000.0 1330000.0,2845000.0 1330000.0,3000000.0"/>
<polygon class="l74d0" points="1300000.0,2810000.0 1300000.0,2515000.0 1330000.0,2515000.0 1330000.0,2810000.0"/>
<polygon class="l74d0" points="1350000.0,7740000.0 1350000.0,7685000.0 1380000.0,7685000.0 1380000.0,7740000.0"/>
<polygon class="l74d0" points="1350000.0,7620000.0 1350000.0,5815000.0 1380000.0,5815000.0 1380000.0,7620000.0"/>
<polygon class="l74d0" points="1350000.0,5625000.0 1350000.0,5495000.0 1380000.0,5495000.0 1380000.0,5625000.0"/>
<polygon class="l74d0" points="1350000.0,5395000.0 1350000.0,5115000.0 1380000.0,5115000.0 1380000.0,5395000.0"/>
<polygon class="l74d0" points="1350000.0,4910000.0 1350000.0,4145000.0 1380000.0,4145000.0 1380000.0,4910000.0"/>
<polygon class="l74d0" points="1350000.0,3205000.0 1350000.0,2590000.0 1380000.0,2590000.0 1380000.0,3205000.0"/>
<polygon class="l74d0" points="1400000.0,7735000.0 1400000.0,7670000.0 1430000.0,7670000.0 1430000.0,7735000.0"/>
<polygon class="l74d0" points="1400000.0,7575000.0 1400000.0,5885000.0 1430000.0,5885000.0 1430000.0,7575000.0"/>
<polygon class="l74d0" points="1400000.0,5655000.0 1400000.0,5620000.0 1430000.0,5620000.0 1430000.0,5655000.0"/>
<polygon class="l74d0" points="1400000.0,5460000.0 1400000.0,5195000.0 1430000.0,5195000.0 1430000.0,5460000.0"/>
<polygon class="l74d0" points="1400000.0,5020000.0 1400000.0,4275000.0 1430000.0,4275000.0 1430000.0,5020000.0"/>
<polygon class="l74d0" points="1400000.0,3250000.0 1400000.0,2680000.0 1430000.0,2680000.0 1430000.0,3250000.0"/>
<polygon class="l74d0" points="1400000.0,2485000.0 1400000.0,2425000.0 1430000.0,2425000.0 1430000.0,2485000.0"/>
<polygon class="l74d0" points="1450000.0,7730000.0 1450000.0,7655000.0 1480000.0,7655000.0 1480000.0,7730000.0"/>
<polygon class="l74d0" points="1450000.0,7515000.0 1450000.0,5945000.0 1480000.0,5945000.0 1480000.0,7515000.0"/>
<polygon class="l74d0" points="1450000.0,5530000.0 1450000.0,5270000.0 1480000.0,5270000.0 1480000.0,5530000.0"/>
<polygon class="l74d0" points="1450000.0,5125000.0 1450000.0,4375000.0 1480000.0,4375000.0 1480000.0,5125000.0"/>
<polygon class="l74d0" points="1450000.0,3295000.0 1450000.0,2775000.0 1480000.0,2775000.0 1480000.0,3295000.0"/>
<polygon class="l74d0" points="1450000.0,2590000.0 1450000.0,2485000.0 1480000.0,2485000.0 1480000.0,2590000.0"/>
<polygon class="l74d0" points="1450000.0,2125000.0 1450000.0,1735000.0 1480000.0,1735000.0 1480000.0,2125000.0"/>
<polygon class="l74d0" points="1500000.0,8100000.0 1500000.0,8065000.0 1530000.0,8065000.0 1530000.0,8100000.0"/>
<polygon class="l74d0" points="1500000.0,7730000.0 1500000.0,7635000.0 1530000.0,7635000.0 1530000.0,7730000.0"/>
<polygon class="l74d0" points="1500000.0,7525000.0 1500000.0,7440000.0 1530000.0,7440000.0 1530000.0,7525000.0"/>
<polygon class="l74d0" points="1500000.0,7390000.0 1500000.0,6005000.0 1530000.0,6005000.0 1530000.0,7390000.0"/>
<polygon class="l74d0" points="1500000.0,5595000.0 1500000.0,5340000.0 1530000.0,5340000.0 1530000.0,5595000.0"/>
<polygon class="l74d0" points="1500000.0,5220000.0 1500000.0,4455000.0 1530000.0,4455000.0 1530000.0,5220000.0"/>
<polygon class="l74d0" points="1500000.0,3350000.0 1500000.0,2875000.0 1530000.0,2875000.0 1530000.0,3350000.0"/>
<polygon class="l74d0" points="1500000.0,2700000.0 1500000.0,2555000.0 1530000.0,2555000.0 1530000.0,2700000.0"/>
<polygon class="l74d0" points="1500000.0,2190000.0 1500000.0,1810000.0 1530000.0,1810000.0 1530000.0,2190000.0"/>
<polygon class="l74d0" points="1550000.0,8070000.0 1550000.0,7995000.0 1580000.0,7995000.0 1580000.0,8070000.0"/>
<polygon class="l74d0" points="1550000.0,7725000.0 1550000.0,7620000.0 1580000.0,7620000.0 1580000.0,7725000.0"/>
<polygon class="l74d0" points="1550000.0,7540000.0 1550000.0,7445000.0 1580000.0,7445000.0 1580000.0,7540000.0"/>
<polygon class="l74d0" points="1550000.0,7190000.0 1550000.0,6060000.0 1580000.0,6060000.0 1580000.0,7190000.0"/>
<polygon class="l74d0" points="1550000.0,5810000.0 1550000.0,5745000.0 1580000.0,5745000.0 1580000.0,5810000.0"/>
<polygon class="l74d0" points="1550000.0,5655000.0 1550000.0,5410000.0 1580000.0,5410000.0 1580000.0,5655000.0"/>
<polygon class="l74d0" points="1550000.0,5315000.0 1550000.0,4525000.0 1580000.0,4525000.0 1580000.0,5315000.0"/>
<polygon class="l74d0" points="1550000.0,4295000.0 1550000.0,3910000.0 1580000.0,3910000.0 1580000.0,4295000.0"/>
<polygon class="l74d0" points="1550000.0,3405000.0 1550000.0,2985000.0 1580000.0,2985000.0 1580000.0,3405000.0"/>
<polygon class="l74d0" points="1550000.0,2820000.0 1550000.0,2640000.0 1580000.0,2640000.0 1580000.0,2820000.0"/>
<polygon class="l74d0" points="1550000.0,2240000.0 1550000.0,1890000.0 1580000.0,1890000.0 1580000.0,2240000.0"/>
<polygon class="l74d0" points="1600000.0,8025000.0 1600000.0,7920000.0 1630000.0,7920000.0 1630000.0,8025000.0"/>
<polygon class="l74d0" points="1600000.0,7720000.0 1600000.0,7600000.0 1630000.0,7600000.0 1630000.0,7720000.0"/>
<polygon class="l74d0" points="1600000.0,7575000.0 1600000.0,7450000.0 1630000.0,7450000.0 1630000.0,7575000.0"/>
<polygon class="l74d0" points="1600000.0,7190000.0 1600000.0,6110000.0 1630000.0,6110000.0 1630000.0,7190000.0"/>
<polygon class="l74d0" points="1600000.0,5895000.0 1600000.0,5795000.0 1630000.0,5795000.0 1630000.0,5895000.0"/>
<polygon class="l74d0" points="1600000.0,5710000.0 1600000.0,5465000.0 1630000.0,5465000.0 1630000.0,5710000.0"/>
<polygon class="l74d0" points="1600000.0,5400000.0 1600000.0,4575000.0 1630000.0,4575000.0 1630000.0,5400000.0"/>
<polygon class="l74d0" points="1600000.0,4495000.0 1600000.0,3935000.0 1630000.0,3935000.0 1630000.0,4495000.0"/>
<polygon class="l74d0" points="1600000.0,3475000.0 1600000.0,3095000.0 1630000.0,3095000.0 1630000.0,3475000.0"/>
<polygon class="l74d0" points="1600000.0,2945000.0 1600000.0,2730000.0 1630000.0,2730000.0 1630000.0,2945000.0"/>
<polygon class="l74d0" points="1600000.0,2285000.0 1600000.0,1985000.0 1630000.0,1985000.0 1630000.0,2285000.0"/>
<polygon class="l74d0" points="1650000.0,7980000.0 1650000.0,7840000.0 1680000.0,7840000.0 1680000.0,7980000.0"/>
<polygon class="l74d0" points="1650000.0,7720000.0 1650000.0,7040000.0 1680000.0,7040000.0 1680000.0,7720000.0"/>
<polygon class="l74d0" points="1650000.0,6440000.0 1650000.0,6160000.0 1680000.0,6160000.0 1680000.0,6440000.0"/>
<polygon class="l74d0" points="1650000.0,5975000.0 1650000.0,5845000.0 1680000.0,5845000.0 1680000.0,5975000.0"/>
<polygon class="l74d0" points="1650000.0,5765000.0 1650000.0,5520000.0 1680000.0,5520000.0 1680000.0,5765000.0"/>
<polygon class="l74d0" points="1650000.0,5485000.0 1650000.0,3980000.0 1680000.0,3980000.0 1680000.0,5485000.0"/>
<polygon class="l74d0" points="1650000.0,3540000.0 1650000.0,3205000.0 1680000.0,3205000.0 1680000.0,3540000.0"/>
<polygon class="l74d0" points="1650000.0,3080000.0 1650000.0,2830000.0 1680000.0,2830000.0 1680000.0,3080000.0"/>
<polygon class="l74d0" points="1650000.0,2365000.0 1650000.0,2080000.0 1680000.0,2080000.0 1680000.0,2365000.0"/>
<polygon class="l74d0" points="1700000.0,7940000.0 1700000.0,6970000.0 1730000.0,6970000.0 1730000.0,7940000.0"/>
<polygon class="l74d0" points="1700000.0,6560000.0 1700000.0,6200000.0 1730000.0,6200000.0 1730000.0,6560000.0"/>
<polygon class="l74d0" points="1700000.0,6050000.0 1700000.0,5895000.0 1730000.0,5895000.0 1730000.0,6050000.0"/>
<polygon class="l74d0" points="1700000.0,5815000.0 1700000.0,4055000.0 1730000.0,4055000.0 1730000.0,5815000.0"/>
<polygon class="l74d0" points="1700000.0,3620000.0 1700000.0,3290000.0 1730000.0,3290000.0 1730000.0,3620000.0"/>
<polygon class="l74d0" points="1700000.0,3230000.0 1700000.0,2935000.0 1730000.0,2935000.0 1730000.0,3230000.0"/>
<polygon class="l74d0" points="1700000.0,2455000.0 1700000.0,2180000.0 1730000.0,2180000.0 1730000.0,2455000.0"/>
<polygon class="l74d0" points="1700000.0,1990000.0 1700000.0,1805000.0 1730000.0,1805000.0 1730000.0,1990000.0"/>
<polygon class="l74d0" points="1750000.0,7895000.0 1750000.0,7575000.0 1780000.0,7575000.0 1780000.0,7895000.0"/>
<polygon class="l74d0" points="1750000.0,7475000.0 1750000.0,6900000.0 1780000.0,6900000.0 1780000.0,7475000.0"/>
<polygon class="l74d0" points="1750000.0,6785000.0 1750000.0,6240000.0 1780000.0,6240000.0 1780000.0,6785000.0"/>
<polygon class="l74d0" points="1750000.0,6125000.0 1750000.0,5945000.0 1780000.0,5945000.0 1780000.0,6125000.0"/>
<polygon class="l74d0" points="1750000.0,5865000.0 1750000.0,4180000.0 1780000.0,4180000.0 1780000.0,5865000.0"/>
<polygon class="l74d0" points="1750000.0,3710000.0 1750000.0,3050000.0 1780000.0,3050000.0 1780000.0,3710000.0"/>
<polygon class="l74d0" points="1750000.0,2510000.0 1750000.0,1860000.0 1780000.0,1860000.0 1780000.0,2510000.0"/>
<polygon class="l74d0" points="1800000.0,7850000.0 1800000.0,7620000.0 1830000.0,7620000.0 1830000.0,7850000.0"/>
<polygon class="l74d0" points="1800000.0,7490000.0 1800000.0,7415000.0 1830000.0,7415000.0 1830000.0,7490000.0"/>
<polygon class="l74d0" points="1800000.0,7390000.0 1800000.0,7315000.0 1830000.0,7315000.0 1830000.0,7390000.0"/>
<polygon class="l74d0" points="1800000.0,7140000.0 1800000.0,6835000.0 1830000.0,6835000.0 1830000.0,7140000.0"/>
<polygon class="l74d0" points="1800000.0,6770000.0 1800000.0,6280000.0 1830000.0,6280000.0 1830000.0,6770000.0"/>
<polygon class="l74d0" points="1800000.0,6195000.0 1800000.0,5985000.0 1830000.0,5985000.0 1830000.0,6195000.0"/>
<polygon class="l74d0" points="1800000.0,5915000.0 1800000.0,4390000.0 1830000.0,4390000.0 1830000.0,5915000.0"/>
<polygon class="l74d0" points="1800000.0,3810000.0 1800000.0,3175000.0 1830000.0,3175000.0 1830000.0,3810000.0"/>
<polygon class="l74d0" points="1800000.0,2580000.0 1800000.0,1940000.0 1830000.0,1940000.0 1830000.0,2580000.0"/>
<polygon class="l74d0" points="1850000.0,7850000.0 1850000.0,7645000.0 1880000.0,7645000.0 1880000.0,7850000.0"/>
<polygon class="l74d0" points="1850000.0,7510000.0 1850000.0,7455000.0 1880000.0,7455000.0 1880000.0,7510000.0"/>
<polygon class="l74d0" points="1850000.0,7425000.0 1850000.0,7330000.0 1880000.0,7330000.0 1880000.0,7425000.0"/>
<polygon class="l74d0" points="1850000.0,7070000.0 1850000.0,6780000.0 1880000.0,6780000.0 1880000.0,7070000.0"/>
<polygon class="l74d0" points="1850000.0,6730000.0 1850000.0,6315000.0 1880000.0,6315000.0 1880000.0,6730000.0"/>
<polygon class="l74d0" points="1850000.0,6260000.0 1850000.0,6030000.0 1880000.0,6030000.0 1880000.0,6260000.0"/>
<polygon class="l74d0" points="1850000.0,5960000.0 1850000.0,4870000.0 1880000.0,4870000.0 1880000.0,5960000.0"/>
<polygon class="l74d0" points="1850000.0,3940000.0 1850000.0,3310000.0 1880000.0,3310000.0 1880000.0,3940000.0"/>
<polygon class="l74d0" points="1850000.0,2720000.0 1850000.0,2025000.0 1880000.0,2025000.0 1880000.0,2720000.0"/>
<polygon class="l74d0" points="1900000.0,7935000.0 1900000.0,7660000.0 1930000.0,7660000.0 1930000.0,7935000.0"/>
<polygon class="l74d0" points="1900000.0,7535000.0 1900000.0,7480000.0 1930000.0,7480000.0 1930000.0,7535000.0"/>
<polygon class="l74d0" points="1900000.0,7430000.0 1900000.0,7335000.0 1930000.0,7335000.0 1930000.0,7430000.0"/>
<polygon class="l74d0" points="1900000.0,7040000.0 1900000.0,6735000.0 1930000.0,6735000.0 1930000.0,7040000.0"/>
<polygon class="l74d0" points="1900000.0,6705000.0 1900000.0,6070000.0 1930000.0,6070000.0 1930000.0,6705000.0"/>
<polygon class="l74d0" points="1900000.0,6010000.0 1900000.0,5135000.0 1930000.0,5135000.0 1930000.0,6010000.0"/>
<polygon class="l74d0" points="1900000.0,4105000.0 1900000.0,3450000.0 1930000.0,3450000.0 1930000.0,4105000.0"/>
<polygon class="l74d0" points="1900000.0,2885000.0 1900000.0,2120000.0 1930000.0,2120000.0 1930000.0,2885000.0"/>
<polygon class="l74d0" points="1900000.0,1880000.0 1900000.0,1835000.0 1930000.0,1835000.0 1930000.0,1880000.0"/>
<polygon class="l74d0" points="1950000.0,8245000.0 1950000.0,7660000.0 1980000.0,7660000.0 1980000.0,8245000.0"/>
<polygon class="l74d0" points="1950000.0,7570000.0 1950000.0,7505000.0 1980000.0,7505000.0 1980000.0,7570000.0"/>
<polygon class="l74d0" points="1950000.0,7425000.0 1950000.0,7350000.0 1980000.0,7350000.0 1980000.0,7425000.0"/>
<polygon class="l74d0" points="1950000.0,7230000.0 1950000.0,7195000.0 1980000.0,7195000.0 1980000.0,7230000.0"/>
<polygon class="l74d0" points="1950000.0,7170000.0 1950000.0,7135000.0 1980000.0,7135000.0 1980000.0,7170000.0"/>
<polygon class="l74d0" points="1950000.0,7035000.0 1950000.0,6700000.0 1980000.0,6700000.0 1980000.0,7035000.0"/>
<polygon class="l74d0" points="1950000.0,6675000.0 1950000.0,6105000.0 1980000.0,6105000.0 1980000.0,6675000.0"/>
<polygon class="l74d0" points="1950000.0,6055000.0 1950000.0,5295000.0 1980000.0,5295000.0 1980000.0,6055000.0"/>
<polygon class="l74d0" points="1950000.0,4310000.0 1950000.0,3520000.0 1980000.0,3520000.0 1980000.0,4310000.0"/>
<polygon class="l74d0" points="1950000.0,3120000.0 1950000.0,2200000.0 1980000.0,2200000.0 1980000.0,3120000.0"/>
<polygon class="l74d0" points="1950000.0,2070000.0 1950000.0,1855000.0 1980000.0,1855000.0 1980000.0,2070000.0"/>
<polygon class="l74d0" points="2000000.0,8045000.0 2000000.0,7665000.0 2030000.0,7665000.0 2030000.0,8045000.0"/>
<polygon class="l74d0" points="2000000.0,7600000.0 2000000.0,7530000.0 2030000.0,7530000.0 2030000.0,7600000.0"/>
<polygon class="l74d0" points="2000000.0,7230000.0 2000000.0,7150000.0 2030000.0,7150000.0 2030000.0,7230000.0"/>
<polygon class="l74d0" points="2000000.0,7125000.0 2000000.0,7090000.0 2030000.0,7090000.0 2030000.0,7125000.0"/>
<polygon class="l74d0" points="2000000.0,7035000.0 2000000.0,6135000.0 2030000.0,6135000.0 2030000.0,7035000.0"/>
<polygon class="l74d0" points="2000000.0,6105000.0 2000000.0,5415000.0 2030000.0,5415000.0 2030000.0,6105000.0"/>
<polygon class="l74d0" points="2000000.0,5005000.0 2000000.0,4800000.0 2030000.0,4800000.0 2030000.0,5005000.0"/>
<polygon class="l74d0" points="2000000.0,4535000.0 2000000.0,1875000.0 2030000.0,1875000.0 2030000.0,4535000.0"/>
<polygon class="l74d0" points="2050000.0,7870000.0 2050000.0,7660000.0 2080000.0,7660000.0 2080000.0,7870000.0"/>
<polygon class="l74d0" points="2050000.0,7570000.0 2050000.0,7510000.0 2080000.0,7510000.0 2080000.0,7570000.0"/>
<polygon class="l74d0" points="2050000.0,7430000.0 2050000.0,7340000.0 2080000.0,7340000.0 2080000.0,7430000.0"/>
<polygon class="l74d0" points="2050000.0,7235000.0 2050000.0,7195000.0 2080000.0,7195000.0 2080000.0,7235000.0"/>
<polygon class="l74d0" points="2050000.0,7170000.0 2050000.0,5515000.0 2080000.0,5515000.0 2080000.0,7170000.0"/>
<polygon class="l74d0" points="2050000.0,5265000.0 2050000.0,4895000.0 2080000.0,4895000.0 2080000.0,5265000.0"/>
<polygon class="l74d0" points="2100000.0,7860000.0 2100000.0,7655000.0 2130000.0,7655000.0 2130000.0,7860000.0"/>
<polygon class="l74d0" points="2100000.0,7550000.0 2100000.0,7490000.0 2130000.0,7490000.0 2130000.0,7550000.0"/>
<polygon class="l74d0" points="2100000.0,7435000.0 2100000.0,7320000.0 2130000.0,7320000.0 2130000.0,7435000.0"/>
<polygon class="l74d0" points="2100000.0,7095000.0 2100000.0,5605000.0 2130000.0,5605000.0 2130000.0,7095000.0"/>
<polygon class="l74d0" points="2150000.0,7865000.0 2150000.0,7635000.0 2180000.0,7635000.0 2180000.0,7865000.0"/>
<polygon class="l74d0" points="2150000.0,7550000.0 2150000.0,7465000.0 2180000.0,7465000.0 2180000.0,7550000.0"/>
<polygon class="l74d0" points="2150000.0,7435000.0 2150000.0,7315000.0 2180000.0,7315000.0 2180000.0,7435000.0"/>
<polygon class="l74d0" points="2200000.0,7910000.0 2200000.0,7610000.0 2230000.0,7610000.0 2230000.0,7910000.0"/>
<polygon class="l74d0" points="2300000.0,8005000.0 2300000.0,7860000.0 2330000.0,7860000.0 2330000.0,8005000.0"/>
<polygon class="l74d0" points="2300000.0,7750000.0 2300000.0,3405000.0 2330000.0,3405000.0 2330000.0,7750000.0"/>
<polygon class="l74d0" points="2350000.0,8050000.0 2350000.0,7945000.0 2380000.0,7945000.0 2380000.0,8050000.0"/>
<polygon class="l74d0" points="2350000.0,7715000.0 2350000.0,3845000.0 2380000.0,3845000.0 2380000.0,7715000.0"/>
<polygon class="l74d0" points="2400000.0,8095000.0 2400000.0,8030000.0 2430000.0,8030000.0 2430000.0,8095000.0"/>
<polygon class="l74d0" points="2400000.0,7725000.0 2400000.0,7635000.0 2430000.0,7635000.0 2430000.0,7725000.0"/>
<polygon class="l74d0" points="2400000.0,7555000.0 2400000.0,7475000.0 2430000.0,7475000.0 2430000.0,7555000.0"/>
<polygon class="l74d0" points="2400000.0,7080000.0 2400000.0,6935000.0 2430000.0,6935000.0 2430000.0,7080000.0"/>
<polygon class="l74d0" points="2400000.0,6895000.0 2400000.0,3410000.0 2430000.0,3410000.0 2430000.0,6895000.0"/>
<polygon class="l74d0" points="2450000.0,7735000.0 2450000.0,7655000.0 2480000.0,7655000.0 2480000.0,7735000.0"/>
<polygon class="l74d0" points="2450000.0,7545000.0 2450000.0,7475000.0 2480000.0,7475000.0 2480000.0,7545000.0"/>
<polygon class="l74d0" points="2450000.0,6715000.0 2450000.0,3355000.0 2480000.0,3355000.0 2480000.0,6715000.0"/>
<polygon class="l74d0" points="2500000.0,7745000.0 2500000.0,7675000.0 2530000.0,7675000.0 2530000.0,7745000.0"/>
<polygon class="l74d0" points="2500000.0,7535000.0 2500000.0,7475000.0 2530000.0,7475000.0 2530000.0,7535000.0"/>
<polygon class="l74d0" points="2500000.0,6655000.0 2500000.0,3350000.0 2530000.0,3350000.0 2530000.0,6655000.0"/>
<polygon class="l74d0" points="2550000.0,7755000.0 2550000.0,7700000.0 2580000.0,7700000.0 2580000.0,7755000.0"/>
<polygon class="l74d0" points="2550000.0,7525000.0 2550000.0,7475000.0 2580000.0,7475000.0 2580000.0,7525000.0"/>
<polygon class="l74d0" points="2550000.0,6635000.0 2550000.0,3350000.0 2580000.0,3350000.0 2580000.0,6635000.0"/>
<polygon class="l74d0" points="2600000.0,7765000.0 2600000.0,7720000.0 2630000.0,7720000.0 2630000.0,7765000.0"/>
<polygon class="l74d0" points="2600000.0,7510000.0 2600000.0,7475000.0 2630000.0,7475000.0 2630000.0,7510000.0"/>
<polygon class="l74d0" points="2600000.0,6620000.0 2600000.0,3355000.0 2630000.0,3355000.0 2630000.0,6620000.0"/>
<polygon class="l74d0" points="2600000.0,3330000.0 2600000.0,2635000.0 2630000.0,2635000.0 2630000.0,3330000.0"/>
<polygon class="l74d0" points="2650000.0,7775000.0 2650000.0,7740000.0 2680000.0,7740000.0 2680000.0,7775000.0"/>
<polygon class="l74d0" points="2650000.0,7500000.0 2650000.0,7465000.0 2680000.0,7465000.0 2680000.0,7500000.0"/>
<polygon class="l74d0" points="2650000.0,6585000.0 2650000.0,2805000.0 2680000.0,2805000.0 2680000.0,6585000.0"/>
<polygon class="l74d0" points="2700000.0,7785000.0 2700000.0,7750000.0 2730000.0,7750000.0 2730000.0,7785000.0"/>
<polygon class="l74d0" points="2700000.0,7490000.0 2700000.0,7455000.0 2730000.0,7455000.0 2730000.0,7490000.0"/>
<polygon class="l74d0" points="2700000.0,6525000.0 2700000.0,2225000.0 2730000.0,2225000.0 2730000.0,6525000.0"/>
<polygon class="l74d0" points="2750000.0,6430000.0 2750000.0,1860000.0 2780000.0,1860000.0 2780000.0,6430000.0"/>
<polygon class="l74d0" points="2950000.0,5970000.0 2950000.0,2450000.0 2980000.0,2450000.0 2980000.0,5970000.0"/>
<polygon class="l74d0" points="3000000.0,5930000.0 3000000.0,4475000.0 3030000.0,4475000.0 3030000.0,5930000.0"/>
<polygon class="l74d0" points="3000000.0,4190000.0 3000000.0,3085000.0 3030000.0,3085000.0 3030000.0,4190000.0"/>
<polygon class="l74d0" points="3000000.0,2775000.0 3000000.0,2550000.0 3030000.0,2550000.0 3030000.0,2775000.0"/>
<polygon class="l74d0" points="3050000.0,5900000.0 3050000.0,4560000.0 3080000.0,4560000.0 3080000.0,5900000.0"/>
<polygon class="l74d0" points="3050000.0,3670000.0 3050000.0,3390000.0 3080000.0,3390000.0 3080000.0,3670000.0"/>
<polygon class="l74d0" points="3100000.0,5975000.0 3100000.0,4580000.0 3130000.0,4580000.0 3130000.0,5975000.0"/>
<polygon class="l74d0" points="3150000.0,6060000.0 3150000.0,4615000.0 3180000.0,4615000.0 3180000.0,6060000.0"/>
<polygon class="l74d0" points="3200000.0,6145000.0 3200000.0,4695000.0 3230000.0,4695000.0 3230000.0,6145000.0"/>
<polygon class="l74d0" points="3250000.0,6210000.0 3250000.0,4865000.0 3280000.0,4865000.0 3280000.0,6210000.0"/>
<polygon class="l74d0" points="3300000.0,6190000.0 3300000.0,5445000.0 3330000.0,5445000.0 3330000.0,6190000.0"/>
<polygon class="l74d0" points="3300000.0,5420000.0 3300000.0,5140000.0 3330000.0,5140000.0 3330000.0,5420000.0"/>
<polygon class="l74d0" points="3350000.0,6160000.0 3350000.0,5545000.0 3380000.0,5545000.0 3380000.0,6160000.0"/>
<polygon class="l74d0" points="3350000.0,5500000.0 3350000.0,5445000.0 3380000.0,5445000.0 3380000.0,5500000.0"/>
<polygon class="l74d0" points="3350000.0,5335000.0 3350000.0,5150000.0 3380000.0,5150000.0 3380000.0,5335000.0"/>
<polygon class="l74d0" points="3400000.0,6130000.0 3400000.0,5585000.0 3430000.0,5585000.0 3430000.0,6130000.0"/>
<polygon class="l74d0" points="3400000.0,5460000.0 3400000.0,5350000.0 3430000.0,5350000.0 3430000.0,5460000.0"/>
<polygon class="l74d0" points="3400000.0,5325000.0 3400000.0,5175000.0 3430000.0,5175000.0 3430000.0,5325000.0"/>
<polygon class="l74d0" points="3450000.0,6100000.0 3450000.0,5570000.0 3480000.0,5570000.0 3480000.0,6100000.0"/>
<polygon class="l74d0" points="3450000.0,5410000.0 3450000.0,5215000.0 3480000.0,5215000.0 3480000.0,5410000.0"/>
<polygon class="l74d0" points="3500000.0,6070000.0 3500000.0,5685000.0 3530000.0,5685000.0 3530000.0,6070000.0"/>
<polygon class="l74d0" points="3500000.0,5630000.0 3500000.0,5535000.0 3530000.0,5535000.0 3530000.0,5630000.0"/>
<polygon class="l74d0" points="3500000.0,5435000.0 3500000.0,5270000.0 3530000.0,5270000.0 3530000.0,5435000.0"/>
<polygon class="l74d0" points="3550000.0,6040000.0 3550000.0,5985000.0 3580000.0,5985000.0 3580000.0,6040000.0"/>
<polygon class="l74d0" points="3550000.0,5940000.0 3550000.0,5670000.0 3580000.0,5670000.0 3580000.0,5940000.0"/>
<polygon class="l74d0" points="3550000.0,5600000.0 3550000.0,5340000.0 3580000.0,5340000.0 3580000.0,5600000.0"/>
<polygon class="l74d0" points="3600000.0,6010000.0 3600000.0,5955000.0 3630000.0,5955000.0 3630000.0,6010000.0"/>
<polygon class="l74d0" points="3600000.0,5870000.0 3600000.0,5835000.0 3630000.0,5835000.0 3630000.0,5870000.0"/>
<polygon class="l74d0" points="3600000.0,5810000.0 3600000.0,5420000.0 3630000.0,5420000.0 3630000.0,5810000.0"/>
<polygon class="l74d0" points="3650000.0,5980000.0 3650000.0,5925000.0 3680000.0,5925000.0 3680000.0,5980000.0"/>
<polygon class="l74d0" points="3650000.0,5895000.0 3650000.0,5710000.0 3680000.0,5710000.0 3680000.0,5895000.0"/>
<polygon class="l74d0" points="3650000.0,5590000.0 3650000.0,5515000.0 3680000.0,5515000.0 3680000.0,5590000.0"/>
<polygon class="l74d0" points="3700000.0,5950000.0 3700000.0,5795000.0 3730000.0,5795000.0 3730000.0,5950000.0"/>
<polygon class="l74d0" points="3750000.0,5920000.0 3750000.0,5880000.0 3780000.0,5880000.0 3780000.0,5920000.0"/>
</g>
</svg>