<?xml version="1.0" encoding="UTF-8"?>
<svg xmlns="http://www.w3.org/2000/svg" xmlns:xlink="http://www.w3.org/1999/xlink"
     width="5168815.0" height="10890165.0" viewBox="-493807.5 -10405007.5 5168815.0 10890165.0">
<defs>
<style type="text/css">
.l74d0 {stroke: rgb(158, 42, 255); fill: rgb(158, 42, 255); fill-opacity: 0.5;}
</style>
</defs>
<rect x="-493807.5" y="-10405007.5" width="5168815.0" height="10890165.0" fill="#222" stroke="none"/>
<g id="AL_AP_artwork_test" transform="scale(1 -1)">
<polygon class="l74d0" points="2050.0,9850.0 2080.0,9850.0 2080.0,9880.0 2050.0,9880.0"/>
<polygon class="l74d0" points="2000.0,9850.0 2030.0,9850.0 2030.0,9880.0 2000.0,9880.0"/>
<polygon class="l74d0" points="1950.0,9850.0 1980.0,9850.0 1980.0,9880.0 1950.0,9880.0"/>
<polygon class="l74d0" points="1900.0,9850.0 1930.0,9850.0 1930.0,9880.0 1900.0,9880.0"/>
<polygon class="l74d0" points="1850.0,9850.0 1880.0,9850.0 1880.0,9880.0 1850.0,9880.0"/>
<polygon class="l74d0" points="1800.0,9850.0 1830.0,9850.0 1830.0,9880.0 1800.0,9880.0"/>
<polygon class="l74d0" points="1750.0,9850.0 1780.0,9850.0 1780.0,9880.0 1750.0,9880.0"/>
<polygon class="l74d0" points="1700.0,9850.0 1730.0,9850.0 1730.0,9880.0 1700.0,9880.0"/>
<polygon class="l74d0" points="1650.0,9850.0 1680.0,9850.0 1680.0,9880.0 1650.0,9880.0"/>
<polygon class="l74d0" points="1600.0,9850.0 1630.0,9850.0 1630.0,9880.0 1600.0,9880.0"/>
<polygon class="l74d0" points="1550.0,9850.0 1580.0,9850.0 1580.0,9880.0 1550.0,9880.0"/>
<polygon class="l74d0" points="1500.0,9850.0 1530.0,9850.0 1530.0,9880.0 1500.0,9880.0"/>
<polygon class="l74d0" points="1450.0,9850.0 1480.0,9850.0 1480.0,9880.0 1450.0,9880.0"/>
<polygon class="l74d0" points="1400.0,9850.0 1430.0,9850.0 1430.0,9880.0 1400.0,9880.0"/>
<polygon class="l74d0" points="1350.0,9850.0 1380.0,9850.0 1380.0,9880.0 1350.0,9880.0"/>
<polygon class="l74d0" points="1300.0,9850.0 1330.0,9850.0 1330.0,9880.0 1300.0,9880.0"/>
<polygon class="l74d0" points="1250.0,9850.0 1280.0,9850.0 1280.0,9880.0 1250.0,9880.0"/>
<polygon class="l74d0" points="1200.0,9850.0 1230.0,9850.0 1230.0,9880.0 1200.0,9880.0"/>
<polygon class="l74d0" points="1750.0,9900.0 1780.0,9900.0 1780.0,9930.0 1750.0,9930.0"/>
<polygon class="l74d0" points="1800.0,9900.0 1830.0,9900.0 1830.0,9930.0 1800.0,9930.0"/>
<polygon class="l74d0" points="1850.0,9900.0 1880.0,9900.0 1880.0,9930.0 1850.0,9930.0"/>
<polygon class="l74d0" points="1900.0,9900.0 1930.0,9900.0 1930.0,9930.0 1900.0,9930.0"/>
<polygon class="l74d0" points="1950.0,9900.0 1980.0,9900.0 1980.0,9930.0 1950.0,9930.0"/>
<polygon class="l74d0" points="2000.0,9900.0 2030.0,9900.0 2030.0,9930.0 2000.0,9930.0"/>
<polygon class="l74d0" points="2050.0,9900.0 2080.0,9900.0 2080.0,9930.0 2050.0,9930.0"/>
<polygon class="l74d0" points="2100.0,9900.0 2130.0,9900.0 2130.0,9930.0 2100.0,9930.0"/>
<polygon class="l74d0" points="2150.0,9900.0 2180.0,9900.0 2180.0,9930.0 2150.0,9930.0"/>
<polygon class="l74d0" points="2200.0,9900.0 2230.0,9900.0 2230.0,9930.0 2200.0,9930.0"/>
<polygon class="l74d0" points="1700.0,9900.0 1730.0,9900.0 1730.0,9930.0 1700.0,9930.0"/>
<polygon class="l74d0" points="1650.0,9900.0 1680.0,9900.0 1680.0,9930.0 1650.0,9930.0"/>
<polygon class="l74d0" points="1600.0,9900.0 1630.0,9900.0 1630.0,9930.0 1600.0,9930.0"/>
<polygon class="l74d0" points="1550.0,9900.0 1580.0,9900.0 1580.0,9930.0 1550.0,9930.0"/>
<polygon class="l74d0" points="1500.0,9900.0 1530.0,9900.0 1530.0,9930.0 1500.0,9930.0"/>
<polygon class="l74d0" points="1450.0,9900.0 1480.0,9900.0 1480.0,9930.0 1450.0,9930.0"/>
<polygon class="l74d0" points="1400.0,9900.0 1430.0,9900.0 1430.0,9930.0 1400.0,9930.0"/>
<polygon class="l74d0" points="1350.0,9900.0 1380.0,9900.0 1380.0,9930.0 1350.0,9930.0"/>
<polygon class="l74d0" points="1300.0,9900.0 1330.0,9900.0 1330.0,9930.0 1300.0,9930.0"/>
<polygon class="l74d0" points="1250.0,9900.0 1280.0,9900.0 1280.0,9930.0 1250.0,9930.0"/>
<polygon class="l74d0" points="1200.0,9900.0 1230.0,9900.0 1230.0,9930.0 1200.0,9930.0"/>
<polygon class="l74d0" points="50000.0,7860000.0 50000.0,7825000.0 80000.0,7825000.0 80000.0,7860000.0"/>
<polygon class="l74d0" points="100000.0,7885000.0 100000.0,7840000.0 130000.0,7840000.0 130000.0,7885000.0"/>
<polygon class="l74d0" points="150000.0,7920000.0 150000.0,7850000.0 180000.0,7850000.0 180000.0,7920000.0"/>
<polygon class="l74d0" points="200000.0,7935000.0 200000.0,7850000.0 230000.0,7850000.0 230000.0,7935000.0"/>
<polygon class="l74d0" points="250000.0,7935000.0 250000.0,7820000.0 280000.0,7820000.0 280000.0,7935000.0"/>
<polygon class="l74d0" points="300000.0,7920000.0 300000.0,7790000.0 330000.0,7790000.0 330000.0,7920000.0"/>
<polygon class="l74d0" points="350000.0,7920000.0 350000.0,7785000.0 380000.0,7785000.0 380000.0,7920000.0"/>
<polygon class="l74d0" points="400000.0,7945000.0 400000.0,7795000.0 430000.0,7795000.0 430000.0,7945000.0"/>
<polygon class="l74d0" points="450000.0,8010000.0 450000.0,7790000.0 480000.0,7790000.0 480000.0,8010000.0"/>
<polygon class="l74d0" points="500000.0,8030000.0 500000.0,7745000.0 530000.0,7745000.0 530000.0,8030000.0"/>
<polygon class="l74d0" points="550000.0,8020000.0 550000.0,7740000.0 580000.0,7740000.0 580000.0,8020000.0"/>
<polygon class="l74d0" points="600000.0,8020000.0 600000.0,7760000.0 630000.0,7760000.0 630000.0,8020000.0"/>
<polygon class="l74d0" points="650000.0,9285000.0 650000.0,9240000.0 680000.0,9240000.0 680000.0,9285000.0"/>
<polygon class="l74d0" points="650000.0,8075000.0 650000.0,7745000.0 680000.0,7745000.0 680000.0,8075000.0"/>
<polygon class="l74d0" points="650000.0,6425000.0 650000.0,6390000.0 680000.0,6390000.0 680000.0,6425000.0"/>
<polygon class="l74d0" points="700000.0,9255000.0 700000.0,9205000.0 730000.0,9205000.0 730000.0,9255000.0"/>
<polygon class="l74d0" points="700000.0,8070000.0 700000.0,7685000.0 730000.0,7685000.0 730000.0,8070000.0"/>
<polygon class="l74d0" points="700000.0,6485000.0 700000.0,6420000.0 730000.0,6420000.0 730000.0,6485000.0"/>
<polygon class="l74d0" points="750000.0,9245000.0 750000.0,9140000.0 780000.0,9140000.0 780000.0,9245000.0"/>
<polygon class="l74d0" points="750000.0,8055000.0 750000.0,7690000.0 780000.0,7690000.0 780000.0,8055000.0"/>
<polygon class="l74d0" points="750000.0,6615000.0 750000.0,6465000.0 780000.0,6465000.0 780000.0,6615000.0"/>
<polygon class="l74d0" points="800000.0,9240000.0 800000.0,9000000.0 830000.0,9000000.0 830000.0,9240000.0"/>
<polygon class="l74d0" points="800000.0,8085000.0 800000.0,7675000.0 830000.0,7675000.0 830000.0,8085000.0"/>
<polygon class="l74d0" points="800000.0,6685000.0 800000.0,6540000.0 830000.0,6540000.0 830000.0,6685000.0"/>
<polygon class="l74d0" points="850000.0,9220000.0 850000.0,8965000.0 880000.0,8965000.0 880000.0,9220000.0"/>
<polygon class="l74d0" points="850000.0,8145000.0 850000.0,7600000.0 880000.0,7600000.0 880000.0,8145000.0"/>
<polygon class="l74d0" points="850000.0,6720000.0 850000.0,6590000.0 880000.0,6590000.0 880000.0,6720000.0"/>
<polygon class="l74d0" points="900000.0,9165000.0 900000.0,8880000.0 930000.0,8880000.0 930000.0,9165000.0"/>
<polygon class="l74d0" points="900000.0,8180000.0 900000.0,7590000.0 930000.0,7590000.0 930000.0,8180000.0"/>
<polygon class="l74d0" points="900000.0,6890000.0 900000.0,6615000.0 930000.0,6615000.0 930000.0,6890000.0"/>
<polygon class="l74d0" points="950000.0,9085000.0 950000.0,8785000.0 980000.0,8785000.0 980000.0,9085000.0"/>
<polygon class="l74d0" points="950000.0,8205000.0 950000.0,7550000.0 980000.0,7550000.0 980000.0,8205000.0"/>
<polygon class="l74d0" points="950000.0,6905000.0 950000.0,6630000.0 980000.0,6630000.0 980000.0,6905000.0"/>
<polygon class="l74d0" points="1000000.0,9065000.0 1000000.0,8620000.0 1030000.0,8620000.0 1030000.0,9065000.0"/>
<polygon class="l74d0" points="1000000.0,8310000.0 1000000.0,7470000.0 1030000.0,7470000.0 1030000.0,8310000.0"/>
<polygon class="l74d0" points="1000000.0,7115000.0 1000000.0,6640000.0 1030000.0,6640000.0 1030000.0,7115000.0"/>
<polygon class="l74d0" points="1050000.0,9060000.0 1050000.0,8530000.0 1080000.0,8530000.0 1080000.0,9060000.0"/>
<polygon class="l74d0" points="1050000.0,8455000.0 1050000.0,7345000.0 1080000.0,7345000.0 1080000.0,8455000.0"/>
<polygon class="l74d0" points="1050000.0,7165000.0 1050000.0,6655000.0 1080000.0,6655000.0 1080000.0,7165000.0"/>
<polygon class="l74d0" points="1100000.0,9055000.0 1100000.0,6685000.0 1130000.0,6685000.0 1130000.0,9055000.0"/>
<polygon class="l74d0" points="1150000.0,9025000.0 1150000.0,6775000.0 1180000.0,6775000.0 1180000.0,9025000.0"/>
<polygon class="l74d0" points="1200000.0,8950000.0 1200000.0,6785000.0 1230000.0,6785000.0 1230000.0,8950000.0"/>
<polygon class="l74d0" points="1250000.0,8940000.0 1250000.0,6785000.0 1280000.0,6785000.0 1280000.0,8940000.0"/>
<polygon class="l74d0" points="1300000.0,8940000.0 1300000.0,8230000.0 1330000.0,8230000.0 1330000.0,8940000.0"/>
<polygon class="l74d0" points="1300000.0,8205000.0 1300000.0,6785000.0 1330000.0,6785000.0 1330000.0,8205000.0"/>
<polygon class="l74d0" points="1350000.0,8940000.0 1350000.0,8230000.0 1380000.0,8230000.0 1380000.0,8940000.0"/>
<polygon class="l74d0" points="1350000.0,8200000.0 1350000.0,6785000.0 1380000.0,6785000.0 1380000.0,8200000.0"/>
<polygon class="l74d0" points="1400000.0,8935000.0 1400000.0,8245000.0 1430000.0,8245000.0 1430000.0,8935000.0"/>
<polygon class="l74d0" points="1400000.0,8190000.0 1400000.0,7060000.0 1430000.0,7060000.0 1430000.0,8190000.0"/>
<polygon class="l74d0" points="1400000.0,7035000.0 1400000.0,6855000.0 1430000.0,6855000.0 1430000.0,7035000.0"/>
<polygon class="l74d0" points="1450000.0,8920000.0 1450000.0,8455000.0 1480000.0,8455000.0 1480000.0,8920000.0"/>
<polygon class="l74d0" points="1450000.0,8430000.0 1450000.0,8275000.0 1480000.0,8275000.0 1480000.0,8430000.0"/>
<polygon class="l74d0" points="1450000.0,8235000.0 1450000.0,8190000.0 1480000.0,8190000.0 1480000.0,8235000.0"/>
<polygon class="l74d0" points="1450000.0,8145000.0 1450000.0,6860000.0 1480000.0,6860000.0 1480000.0,8145000.0"/>
<polygon class="l74d0" points="1500000.0,8910000.0 1500000.0,8480000.0 1530000.0,8480000.0 1530000.0,8910000.0"/>
<polygon class="l74d0" points="1500000.0,8455000.0 1500000.0,8300000.0 1530000.0,8300000.0 1530000.0,8455000.0"/>
<polygon class="l74d0" points="1500000.0,8260000.0 1500000.0,8180000.0 1530000.0,8180000.0 1530000.0,8260000.0"/>
<polygon class="l74d0" points="1500000.0,8105000.0 1500000.0,6990000.0 1530000.0,6990000.0 1530000.0,8105000.0"/>
<polygon class="l74d0" points="1500000.0,6965000.0 1500000.0,6855000.0 1530000.0,6855000.0 1530000.0,6965000.0"/>
<polygon class="l74d0" points="1550000.0,8915000.0 1550000.0,8805000.0 1580000.0,8805000.0 1580000.0,8915000.0"/>
<polygon class="l74d0" points="1550000.0,8780000.0 1550000.0,8500000.0 1580000.0,8500000.0 1580000.0,8780000.0"/>
<polygon class="l74d0" points="1550000.0,8470000.0 1550000.0,8315000.0 1580000.0,8315000.0 1580000.0,8470000.0"/>
<polygon class="l74d0" points="1550000.0,8275000.0 1550000.0,8235000.0 1580000.0,8235000.0 1580000.0,8275000.0"/>
<polygon class="l74d0" points="1550000.0,8075000.0 1550000.0,6960000.0 1580000.0,6960000.0 1580000.0,8075000.0"/>
<polygon class="l74d0" points="1550000.0,6935000.0 1550000.0,6845000.0 1580000.0,6845000.0 1580000.0,6935000.0"/>
<polygon class="l74d0" points="1600000.0,8925000.0 1600000.0,8830000.0 1630000.0,8830000.0 1630000.0,8925000.0"/>
<polygon class="l74d0" points="1600000.0,8805000.0 1600000.0,8505000.0 1630000.0,8505000.0 1630000.0,8805000.0"/>
<polygon class="l74d0" points="1600000.0,8475000.0 1600000.0,8320000.0 1630000.0,8320000.0 1630000.0,8475000.0"/>
<polygon class="l74d0" points="1600000.0,8275000.0 1600000.0,8215000.0 1630000.0,8215000.0 1630000.0,8275000.0"/>
<polygon class="l74d0" points="1600000.0,8115000.0 1600000.0,8080000.0 1630000.0,8080000.0 1630000.0,8115000.0"/>
<polygon class="l74d0" points="1600000.0,8055000.0 1600000.0,6935000.0 1630000.0,6935000.0 1630000.0,8055000.0"/>
<polygon class="l74d0" points="1600000.0,6910000.0 1600000.0,6830000.0 1630000.0,6830000.0 1630000.0,6910000.0"/>
<polygon class="l74d0" points="1650000.0,8935000.0 1650000.0,8855000.0 1680000.0,8855000.0 1680000.0,8935000.0"/>
<polygon class="l74d0" points="1650000.0,8830000.0 1650000.0,8505000.0 1680000.0,8505000.0 1680000.0,8830000.0"/>
<polygon class="l74d0" points="1650000.0,8475000.0 1650000.0,8320000.0 1680000.0,8320000.0 1680000.0,8475000.0"/>
<polygon class="l74d0" points="1650000.0,8270000.0 1650000.0,8090000.0 1680000.0,8090000.0 1680000.0,8270000.0"/>
<polygon class="l74d0" points="1650000.0,8050000.0 1650000.0,6910000.0 1680000.0,6910000.0 1680000.0,8050000.0"/>
<polygon class="l74d0" points="1650000.0,6885000.0 1650000.0,6820000.0 1680000.0,6820000.0 1680000.0,6885000.0"/>
<polygon class="l74d0" points="1700000.0,8955000.0 1700000.0,8875000.0 1730000.0,8875000.0 1730000.0,8955000.0"/>
<polygon class="l74d0" points="1700000.0,8850000.0 1700000.0,8505000.0 1730000.0,8505000.0 1730000.0,8850000.0"/>
<polygon class="l74d0" points="1700000.0,8465000.0 1700000.0,8305000.0 1730000.0,8305000.0 1730000.0,8465000.0"/>
<polygon class="l74d0" points="1700000.0,8255000.0 1700000.0,8100000.0 1730000.0,8100000.0 1730000.0,8255000.0"/>
<polygon class="l74d0" points="1700000.0,8050000.0 1700000.0,6895000.0 1730000.0,6895000.0 1730000.0,8050000.0"/>
<polygon class="l74d0" points="1700000.0,6870000.0 1700000.0,6800000.0 1730000.0,6800000.0 1730000.0,6870000.0"/>
<polygon class="l74d0" points="1750000.0,8970000.0 1750000.0,8890000.0 1780000.0,8890000.0 1780000.0,8970000.0"/>
<polygon class="l74d0" points="1750000.0,8865000.0 1750000.0,8480000.0 1780000.0,8480000.0 1780000.0,8865000.0"/>
<polygon class="l74d0" points="1750000.0,8435000.0 1750000.0,8275000.0 1780000.0,8275000.0 1780000.0,8435000.0"/>
<polygon class="l74d0" points="1750000.0,8225000.0 1750000.0,8105000.0 1780000.0,8105000.0 1780000.0,8225000.0"/>
<polygon class="l74d0" points="1750000.0,8065000.0 1750000.0,6875000.0 1780000.0,6875000.0 1780000.0,8065000.0"/>
<polygon class="l74d0" points="1750000.0,6850000.0 1750000.0,6780000.0 1780000.0,6780000.0 1780000.0,6850000.0"/>
<polygon class="l74d0" points="1800000.0,8995000.0 1800000.0,8905000.0 1830000.0,8905000.0 1830000.0,8995000.0"/>
<polygon class="l74d0" points="1800000.0,8880000.0 1800000.0,8440000.0 1830000.0,8440000.0 1830000.0,8880000.0"/>
<polygon class="l74d0" points="1800000.0,8385000.0 1800000.0,8230000.0 1830000.0,8230000.0 1830000.0,8385000.0"/>
<polygon class="l74d0" points="1800000.0,8200000.0 1800000.0,7500000.0 1830000.0,7500000.0 1830000.0,8200000.0"/>
<polygon class="l74d0" points="1800000.0,7460000.0 1800000.0,6865000.0 1830000.0,6865000.0 1830000.0,7460000.0"/>
<polygon class="l74d0" points="1800000.0,6840000.0 1800000.0,6750000.0 1830000.0,6750000.0 1830000.0,6840000.0"/>
<polygon class="l74d0" points="1850000.0,9035000.0 1850000.0,8915000.0 1880000.0,8915000.0 1880000.0,9035000.0"/>
<polygon class="l74d0" points="1850000.0,8890000.0 1850000.0,8410000.0 1880000.0,8410000.0 1880000.0,8890000.0"/>
<polygon class="l74d0" points="1850000.0,8370000.0 1850000.0,8275000.0 1880000.0,8275000.0 1880000.0,8370000.0"/>
<polygon class="l74d0" points="1850000.0,8250000.0 1850000.0,7510000.0 1880000.0,7510000.0 1880000.0,8250000.0"/>
<polygon class="l74d0" points="1850000.0,7450000.0 1850000.0,6850000.0 1880000.0,6850000.0 1880000.0,7450000.0"/>
<polygon class="l74d0" points="1850000.0,6825000.0 1850000.0,6600000.0 1880000.0,6600000.0 1880000.0,6825000.0"/>
<polygon class="l74d0" points="1900000.0,9215000.0 1900000.0,8925000.0 1930000.0,8925000.0 1930000.0,9215000.0"/>
<polygon class="l74d0" points="1900000.0,8900000.0 1900000.0,8400000.0 1930000.0,8400000.0 1930000.0,8900000.0"/>
<polygon class="l74d0" points="1900000.0,8370000.0 1900000.0,8275000.0 1930000.0,8275000.0 1930000.0,8370000.0"/>
<polygon class="l74d0" points="1900000.0,8240000.0 1900000.0,7530000.0 1930000.0,7530000.0 1930000.0,8240000.0"/>
<polygon class="l74d0" points="1900000.0,7455000.0 1900000.0,6840000.0 1930000.0,6840000.0 1930000.0,7455000.0"/>
<polygon class="l74d0" points="1900000.0,6815000.0 1900000.0,6570000.0 1930000.0,6570000.0 1930000.0,6815000.0"/>
<polygon class="l74d0" points="1950000.0,9400000.0 1950000.0,8935000.0 1980000.0,8935000.0 1980000.0,9400000.0"/>
<polygon class="l74d0" points="1950000.0,8910000.0 1950000.0,8255000.0 1980000.0,8255000.0 1980000.0,8910000.0"/>
<polygon class="l74d0" points="1950000.0,8220000.0 1950000.0,7730000.0 1980000.0,7730000.0 1980000.0,8220000.0"/>
<polygon class="l74d0" points="1950000.0,7695000.0 1950000.0,7540000.0 1980000.0,7540000.0 1980000.0,7695000.0"/>
<polygon class="l74d0" points="1950000.0,7480000.0 1950000.0,6830000.0 1980000.0,6830000.0 1980000.0,7480000.0"/>
<polygon class="l74d0" points="1950000.0,6805000.0 1950000.0,6360000.0 1980000.0,6360000.0 1980000.0,6805000.0"/>
<polygon class="l74d0" points="2000000.0,9640000.0 2000000.0,9505000.0 2030000.0,9505000.0 2030000.0,9640000.0"/>
<polygon class="l74d0" points="2000000.0,9460000.0 2000000.0,8940000.0 2030000.0,8940000.0 2030000.0,9460000.0"/>
<polygon class="l74d0" points="2000000.0,8915000.0 2000000.0,7765000.0 2030000.0,7765000.0 2030000.0,8915000.0"/>
<polygon class="l74d0" points="2000000.0,7700000.0 2000000.0,7545000.0 2030000.0,7545000.0 2030000.0,7700000.0"/>
<polygon class="l74d0" points="2000000.0,7505000.0 2000000.0,6825000.0 2030000.0,6825000.0 2030000.0,7505000.0"/>
<polygon class="l74d0" points="2000000.0,6800000.0 2000000.0,6305000.0 2030000.0,6305000.0 2030000.0,6800000.0"/>
<polygon class="l74d0" points="2000000.0,6250000.0 2000000.0,6120000.0 2030000.0,6120000.0 2030000.0,6250000.0"/>
<polygon class="l74d0" points="2050000.0,9910000.0 2050000.0,9825000.0 2080000.0,9825000.0 2080000.0,9910000.0"/>
<polygon class="l74d0" points="2050000.0,9715000.0 2050000.0,8940000.0 2080000.0,8940000.0 2080000.0,9715000.0"/>
<polygon class="l74d0" points="2050000.0,8915000.0 2050000.0,7765000.0 2080000.0,7765000.0 2080000.0,8915000.0"/>
<polygon class="l74d0" points="2050000.0,7710000.0 2050000.0,7540000.0 2080000.0,7540000.0 2080000.0,7710000.0"/>
<polygon class="l74d0" points="2050000.0,7505000.0 2050000.0,7315000.0 2080000.0,7315000.0 2080000.0,7505000.0"/>
<polygon class="l74d0" points="2050000.0,7240000.0 2050000.0,6820000.0 2080000.0,6820000.0 2080000.0,7240000.0"/>
<polygon class="l74d0" points="2050000.0,6795000.0 2050000.0,5925000.0 2080000.0,5925000.0 2080000.0,6795000.0"/>
<polygon class="l74d0" points="2100000.0,9855000.0 2100000.0,8940000.0 2130000.0,8940000.0 2130000.0,9855000.0"/>
<polygon class="l74d0" points="2100000.0,8915000.0 2100000.0,7755000.0 2130000.0,7755000.0 2130000.0,8915000.0"/>
<polygon class="l74d0" points="2100000.0,7655000.0 2100000.0,7525000.0 2130000.0,7525000.0 2130000.0,7655000.0"/>
<polygon class="l74d0" points="2100000.0,7485000.0 2100000.0,7305000.0 2130000.0,7305000.0 2130000.0,7485000.0"/>
<polygon class="l74d0" points="2100000.0,7210000.0 2100000.0,6820000.0 2130000.0,6820000.0 2130000.0,7210000.0"/>
<polygon class="l74d0" points="2100000.0,6795000.0 2100000.0,5960000.0 2130000.0,5960000.0 2130000.0,6795000.0"/>
<polygon class="l74d0" points="2150000.0,9775000.0 2150000.0,9735000.0 2180000.0,9735000.0 2180000.0,9775000.0"/>
<polygon class="l74d0" points="2150000.0,9535000.0 2150000.0,8940000.0 2180000.0,8940000.0 2180000.0,9535000.0"/>
<polygon class="l74d0" points="2150000.0,8915000.0 2150000.0,7780000.0 2180000.0,7780000.0 2180000.0,8915000.0"/>
<polygon class="l74d0" points="2150000.0,7675000.0 2150000.0,7530000.0 2180000.0,7530000.0 2180000.0,7675000.0"/>
<polygon class="l74d0" points="2150000.0,7475000.0 2150000.0,7305000.0 2180000.0,7305000.0 2180000.0,7475000.0"/>
<polygon class="l74d0" points="2150000.0,7190000.0 2150000.0,6825000.0 2180000.0,6825000.0 2180000.0,7190000.0"/>
<polygon class="l74d0" points="2150000.0,6800000.0 2150000.0,6140000.0 2180000.0,6140000.0 2180000.0,6800000.0"/>
<polygon class="l74d0" points="2200000.0,9455000.0 2200000.0,9395000.0 2230000.0,9395000.0 2230000.0,9455000.0"/>
<polygon class="l74d0" points="2200000.0,9330000.0 2200000.0,8935000.0 2230000.0,8935000.0 2230000.0,9330000.0"/>
<polygon class="l74d0" points="2200000.0,8910000.0 2200000.0,8410000.0 2230000.0,8410000.0 2230000.0,8910000.0"/>
<polygon class="l74d0" points="2200000.0,8250000.0 2200000.0,8095000.0 2230000.0,8095000.0 2230000.0,8250000.0"/>
<polygon class="l74d0" points="2200000.0,7955000.0 2200000.0,7915000.0 2230000.0,7915000.0 2230000.0,7955000.0"/>
<polygon class="l74d0" points="2200000.0,7860000.0 2200000.0,7810000.0 2230000.0,7810000.0 2230000.0,7860000.0"/>
<polygon class="l74d0" points="2200000.0,7705000.0 2200000.0,7535000.0 2230000.0,7535000.0 2230000.0,7705000.0"/>
<polygon class="l74d0" points="2200000.0,7490000.0 2200000.0,7325000.0 2230000.0,7325000.0 2230000.0,7490000.0"/>
<polygon class="l74d0" points="2200000.0,7170000.0 2200000.0,6830000.0 2230000.0,6830000.0 2230000.0,7170000.0"/>
<polygon class="l74d0" points="2200000.0,6805000.0 2200000.0,6470000.0 2230000.0,6470000.0 2230000.0,6805000.0"/>
<polygon class="l74d0" points="2200000.0,6445000.0 2200000.0,6275000.0 2230000.0,6275000.0 2230000.0,6445000.0"/>
<polygon class="l74d0" points="2250000.0,9280000.0 2250000.0,8925000.0 2280000.0,8925000.0 2280000.0,9280000.0"/>
<polygon class="l74d0" points="2250000.0,8900000.0 2250000.0,8445000.0 2280000.0,8445000.0 2280000.0,8900000.0"/>
<polygon class="l74d0" points="2250000.0,8400000.0 2250000.0,8270000.0 2280000.0,8270000.0 2280000.0,8400000.0"/>
<polygon class="l74d0" points="2250000.0,8075000.0 2250000.0,7830000.0 2280000.0,7830000.0 2280000.0,8075000.0"/>
<polygon class="l74d0" points="2250000.0,7735000.0 2250000.0,7540000.0 2280000.0,7540000.0 2280000.0,7735000.0"/>
<polygon class="l74d0" points="2250000.0,7515000.0 2250000.0,7320000.0 2280000.0,7320000.0 2280000.0,7515000.0"/>
<polygon class="l74d0" points="2250000.0,7190000.0 2250000.0,6835000.0 2280000.0,6835000.0 2280000.0,7190000.0"/>
<polygon class="l74d0" points="2250000.0,6810000.0 2250000.0,6540000.0 2280000.0,6540000.0 2280000.0,6810000.0"/>
<polygon class="l74d0" points="2300000.0,9125000.0 2300000.0,8920000.0 2330000.0,8920000.0 2330000.0,9125000.0"/>
<polygon class="l74d0" points="2300000.0,8895000.0 2300000.0,8465000.0 2330000.0,8465000.0 2330000.0,8895000.0"/>
<polygon class="l74d0" points="2300000.0,8430000.0 2300000.0,8285000.0 2330000.0,8285000.0 2330000.0,8430000.0"/>
<polygon class="l74d0" points="2300000.0,8240000.0 2300000.0,7530000.0 2330000.0,7530000.0 2330000.0,8240000.0"/>
<polygon class="l74d0" points="2300000.0,7500000.0 2300000.0,7260000.0 2330000.0,7260000.0 2330000.0,7500000.0"/>
<polygon class="l74d0" points="2300000.0,7160000.0 2300000.0,6845000.0 2330000.0,6845000.0 2330000.0,7160000.0"/>
<polygon class="l74d0" points="2300000.0,6820000.0 2300000.0,6580000.0 2330000.0,6580000.0 2330000.0,6820000.0"/>
<polygon class="l74d0" points="2350000.0,9090000.0 2350000.0,8905000.0 2380000.0,8905000.0 2380000.0,9090000.0"/>
<polygon class="l74d0" points="2350000.0,8880000.0 2350000.0,8470000.0 2380000.0,8470000.0 2380000.0,8880000.0"/>
<polygon class="l74d0" points="2350000.0,8445000.0 2350000.0,8310000.0 2380000.0,8310000.0 2380000.0,8445000.0"/>
<polygon class="l74d0" points="2350000.0,8265000.0 2350000.0,8125000.0 2380000.0,8125000.0 2380000.0,8265000.0"/>
<polygon class="l74d0" points="2350000.0,8095000.0 2350000.0,7500000.0 2380000.0,7500000.0 2380000.0,8095000.0"/>
<polygon class="l74d0" points="2350000.0,7465000.0 2350000.0,7170000.0 2380000.0,7170000.0 2380000.0,7465000.0"/>
<polygon class="l74d0" points="2350000.0,7045000.0 2350000.0,6855000.0 2380000.0,6855000.0 2380000.0,7045000.0"/>
<polygon class="l74d0" points="2350000.0,6830000.0 2350000.0,6695000.0 2380000.0,6695000.0 2380000.0,6830000.0"/>
<polygon class="l74d0" points="2350000.0,6670000.0 2350000.0,6635000.0 2380000.0,6635000.0 2380000.0,6670000.0"/>
<polygon class="l74d0" points="2400000.0,8985000.0 2400000.0,8890000.0 2430000.0,8890000.0 2430000.0,8985000.0"/>
<polygon class="l74d0" points="2400000.0,8865000.0 2400000.0,8485000.0 2430000.0,8485000.0 2430000.0,8865000.0"/>
<polygon class="l74d0" points="2400000.0,8460000.0 2400000.0,8320000.0 2430000.0,8320000.0 2430000.0,8460000.0"/>
<polygon class="l74d0" points="2400000.0,8280000.0 2400000.0,8215000.0 2430000.0,8215000.0 2430000.0,8280000.0"/>
<polygon class="l74d0" points="2400000.0,8140000.0 2400000.0,8105000.0 2430000.0,8105000.0 2430000.0,8140000.0"/>
<polygon class="l74d0" points="2400000.0,8080000.0 2400000.0,7500000.0 2430000.0,7500000.0 2430000.0,8080000.0"/>
<polygon class="l74d0" points="2400000.0,7455000.0 2400000.0,6870000.0 2430000.0,6870000.0 2430000.0,7455000.0"/>
<polygon class="l74d0" points="2400000.0,6845000.0 2400000.0,6785000.0 2430000.0,6785000.0 2430000.0,6845000.0"/>
<polygon class="l74d0" points="2450000.0,8950000.0 2450000.0,8875000.0 2480000.0,8875000.0 2480000.0,8950000.0"/>
<polygon class="l74d0" points="2450000.0,8850000.0 2450000.0,8490000.0 2480000.0,8490000.0 2480000.0,8850000.0"/>
<polygon class="l74d0" points="2450000.0,8465000.0 2450000.0,8320000.0 2480000.0,8320000.0 2480000.0,8465000.0"/>
<polygon class="l74d0" points="2450000.0,8280000.0 2450000.0,8230000.0 2480000.0,8230000.0 2480000.0,8280000.0"/>
<polygon class="l74d0" points="2450000.0,8090000.0 2450000.0,6885000.0 2480000.0,6885000.0 2480000.0,8090000.0"/>
<polygon class="l74d0" points="2450000.0,6860000.0 2450000.0,6815000.0 2480000.0,6815000.0 2480000.0,6860000.0"/>
<polygon class="l74d0" points="2500000.0,8925000.0 2500000.0,8855000.0 2530000.0,8855000.0 2530000.0,8925000.0"/>
<polygon class="l74d0" points="2500000.0,8830000.0 2500000.0,8495000.0 2530000.0,8495000.0 2530000.0,8830000.0"/>
<polygon class="l74d0" points="2500000.0,8470000.0 2500000.0,8315000.0 2530000.0,8315000.0 2530000.0,8470000.0"/>
<polygon class="l74d0" points="2500000.0,8270000.0 2500000.0,8210000.0 2530000.0,8210000.0 2530000.0,8270000.0"/>
<polygon class="l74d0" points="2500000.0,8125000.0 2500000.0,8090000.0 2530000.0,8090000.0 2530000.0,8125000.0"/>
<polygon class="l74d0" points="2500000.0,8065000.0 2500000.0,6840000.0 2530000.0,6840000.0 2530000.0,8065000.0"/>
<polygon class="l74d0" points="2550000.0,8905000.0 2550000.0,8830000.0 2580000.0,8830000.0 2580000.0,8905000.0"/>
<polygon class="l74d0" points="2550000.0,8805000.0 2550000.0,8510000.0 2580000.0,8510000.0 2580000.0,8805000.0"/>
<polygon class="l74d0" points="2550000.0,8485000.0 2550000.0,8290000.0 2580000.0,8290000.0 2580000.0,8485000.0"/>
<polygon class="l74d0" points="2550000.0,8245000.0 2550000.0,8095000.0 2580000.0,8095000.0 2580000.0,8245000.0"/>
<polygon class="l74d0" points="2550000.0,8060000.0 2550000.0,6930000.0 2580000.0,6930000.0 2580000.0,8060000.0"/>
<polygon class="l74d0" points="2550000.0,6905000.0 2550000.0,6860000.0 2580000.0,6860000.0 2580000.0,6905000.0"/>
<polygon class="l74d0" points="2600000.0,8885000.0 2600000.0,8510000.0 2630000.0,8510000.0 2630000.0,8885000.0"/>
<polygon class="l74d0" points="2600000.0,8485000.0 2600000.0,8255000.0 2630000.0,8255000.0 2630000.0,8485000.0"/>
<polygon class="l74d0" points="2600000.0,8215000.0 2600000.0,8095000.0 2630000.0,8095000.0 2630000.0,8215000.0"/>
<polygon class="l74d0" points="2600000.0,8060000.0 2600000.0,6960000.0 2630000.0,6960000.0 2630000.0,8060000.0"/>
<polygon class="l74d0" points="2600000.0,6935000.0 2600000.0,6875000.0 2630000.0,6875000.0 2630000.0,6935000.0"/>
<polygon class="l74d0" points="2650000.0,8870000.0 2650000.0,8240000.0 2680000.0,8240000.0 2680000.0,8870000.0"/>
<polygon class="l74d0" points="2650000.0,8205000.0 2650000.0,8110000.0 2680000.0,8110000.0 2680000.0,8205000.0"/>
<polygon class="l74d0" points="2650000.0,8070000.0 2650000.0,6885000.0 2680000.0,6885000.0 2680000.0,8070000.0"/>
<polygon class="l74d0" points="2700000.0,8855000.0 2700000.0,8240000.0 2730000.0,8240000.0 2730000.0,8855000.0"/>
<polygon class="l74d0" points="2700000.0,8200000.0 2700000.0,8140000.0 2730000.0,8140000.0 2730000.0,8200000.0"/>
<polygon class="l74d0" points="2700000.0,8090000.0 2700000.0,6885000.0 2730000.0,6885000.0 2730000.0,8090000.0"/>
<polygon class="l74d0" points="2750000.0,8850000.0 2750000.0,8245000.0 2780000.0,8245000.0 2780000.0,8850000.0"/>
<polygon class="l74d0" points="2750000.0,8130000.0 2750000.0,6845000.0 2780000.0,6845000.0 2780000.0,8130000.0"/>
<polygon class="l74d0" points="2800000.0,8875000.0 2800000.0,8240000.0 2830000.0,8240000.0 2830000.0,8875000.0"/>
<polygon class="l74d0" points="2800000.0,8215000.0 2800000.0,6820000.0 2830000.0,6820000.0 2830000.0,8215000.0"/>
<polygon class="l74d0" points="2850000.0,8960000.0 2850000.0,6820000.0 2880000.0,6820000.0 2880000.0,8960000.0"/>
<polygon class="l74d0" points="2900000.0,8975000.0 2900000.0,6825000.0 2930000.0,6825000.0 2930000.0,8975000.0"/>
<polygon class="l74d0" points="2950000.0,8975000.0 2950000.0,6805000.0 2980000.0,6805000.0 2980000.0,8975000.0"/>
<polygon class="l74d0" points="3000000.0,8975000.0 3000000.0,6735000.0 3030000.0,6735000.0 3030000.0,8975000.0"/>
<polygon class="l74d0" points="3050000.0,8995000.0 3050000.0,6705000.0 3080000.0,6705000.0 3080000.0,8995000.0"/>
<polygon class="l74d0" points="3100000.0,9115000.0 3100000.0,8505000.0 3130000.0,8505000.0 3130000.0,9115000.0"/>
<polygon class="l74d0" points="3100000.0,8345000.0 3100000.0,7415000.0 3130000.0,7415000.0 3130000.0,8345000.0"/>
<polygon class="l74d0" points="3100000.0,7305000.0 3100000.0,6685000.0 3130000.0,6685000.0 3130000.0,7305000.0"/>
<polygon class="l74d0" points="3150000.0,9130000.0 3150000.0,8695000.0 3180000.0,8695000.0 3180000.0,9130000.0"/>
<polygon class="l74d0" points="3150000.0,8210000.0 3150000.0,7540000.0 3180000.0,7540000.0 3180000.0,8210000.0"/>
<polygon class="l74d0" points="3150000.0,7105000.0 3150000.0,6670000.0 3180000.0,6670000.0 3180000.0,7105000.0"/>
<polygon class="l74d0" points="3200000.0,9140000.0 3200000.0,8725000.0 3230000.0,8725000.0 3230000.0,9140000.0"/>
<polygon class="l74d0" points="3200000.0,8130000.0 3200000.0,7625000.0 3230000.0,7625000.0 3230000.0,8130000.0"/>
<polygon class="l74d0" points="3200000.0,6940000.0 3200000.0,6650000.0 3230000.0,6650000.0 3230000.0,6940000.0"/>
<polygon class="l74d0" points="3250000.0,9145000.0 3250000.0,8760000.0 3280000.0,8760000.0 3280000.0,9145000.0"/>
<polygon class="l74d0" points="3250000.0,8105000.0 3250000.0,7635000.0 3280000.0,7635000.0 3280000.0,8105000.0"/>
<polygon class="l74d0" points="3250000.0,6910000.0 3250000.0,6610000.0 3280000.0,6610000.0 3280000.0,6910000.0"/>
<polygon class="l74d0" points="3300000.0,9175000.0 3300000.0,8805000.0 3330000.0,8805000.0 3330000.0,9175000.0"/>
<polygon class="l74d0" points="3300000.0,8100000.0 3300000.0,7640000.0 3330000.0,7640000.0 3330000.0,8100000.0"/>
<polygon class="l74d0" points="3300000.0,6765000.0 3300000.0,6535000.0 3330000.0,6535000.0 3330000.0,6765000.0"/>
<polygon class="l74d0" points="3350000.0,9230000.0 3350000.0,9000000.0 3380000.0,9000000.0 3380000.0,9230000.0"/>
<polygon class="l74d0" points="3350000.0,8090000.0 3350000.0,7690000.0 3380000.0,7690000.0 3380000.0,8090000.0"/>
<polygon class="l74d0" points="3350000.0,6725000.0 3350000.0,6515000.0 3380000.0,6515000.0 3380000.0,6725000.0"/>
<polygon class="l74d0" points="3400000.0,9285000.0 3400000.0,9030000.0 3430000.0,9030000.0 3430000.0,9285000.0"/>
<polygon class="l74d0" points="3400000.0,8055000.0 3400000.0,7745000.0 3430000.0,7745000.0 3430000.0,8055000.0"/>
<polygon class="l74d0" points="3400000.0,6660000.0 3400000.0,6505000.0 3430000.0,6505000.0 3430000.0,6660000.0"/>
<polygon class="l74d0" points="3450000.0,9300000.0 3450000.0,9145000.0 3480000.0,9145000.0 3480000.0,9300000.0"/>
<polygon class="l74d0" points="3450000.0,8010000.0 3450000.0,7720000.0 3480000.0,7720000.0 3480000.0,8010000.0"/>
<polygon class="l74d0" points="3450000.0,6565000.0 3450000.0,6495000.0 3480000.0,6495000.0 3480000.0,6565000.0"/>
<polygon class="l74d0" points="3500000.0,9310000.0 3500000.0,9275000.0 3530000.0,9275000.0 3530000.0,9310000.0"/>
<polygon class="l74d0" points="3500000.0,8010000.0 3500000.0,7720000.0 3530000.0,7720000.0 3530000.0,8010000.0"/>
<polygon class="l74d0" points="3500000.0,6520000.0 3500000.0,6480000.0 3530000.0,6480000.0 3530000.0,6520000.0"/>
<polygon class="l74d0" points="3550000.0,8030000.0 3550000.0,7740000.0 3580000.0,7740000.0 3580000.0,8030000.0"/>
<polygon class="l74d0" points="3550000.0,6490000.0 3550000.0,6455000.0 3580000.0,6455000.0 3580000.0,6490000.0"/>
<polygon class="l74d0" points="3600000.0,8005000.0 3600000.0,7765000.0 3630000.0,7765000.0 3630000.0,8005000.0"/>
<polygon class="l74d0" points="3650000.0,7975000.0 3650000.0,7765000.0 3680000.0,7765000.0 3680000.0,7975000.0"/>
<polygon class="l74d0" points="3700000.0,7965000.0 3700000.0,7760000.0 3730000.0,7760000.0 3730000.0,7965000.0"/>
<polygon class="l74d0" points="3750000.0,7970000.0 3750000.0,7765000.0 3780000.0,7765000.0 3780000.0,7970000.0"/>
<polygon class="l74d0" points="3800000.0,7970000.0 3800000.0,7805000.0 3830000.0,7805000.0 3830000.0,7970000.0"/>
<polygon class="l74d0" points="3850000.0,7945000.0 3850000.0,7815000.0 3880000.0,7815000.0 3880000.0,7945000.0"/>
<polygon class="l74d0" points="3900000.0,7910000.0 3900000.0,7805000.0 3930000.0,7805000.0 3930000.0,7910000.0"/>
<polygon class="l74d0" points="3950000.0,7880000.0 3950000.0,7795000.0 3980000.0,7795000.0 3980000.0,7880000.0"/>
<polygon class="l74d0" points="4000000.0,7875000.0 4000000.0,7800000.0 4030000.0,7800000.0 4030000.0,7875000.0"/>
<polygon class="l74d0" points="4050000.0,7885000.0 4050000.0,7830000.0 4080000.0,7830000.0 4080000.0,7885000.0"/>
<polygon class="l74d0" points="4100000.0,7900000.0 4100000.0,7865000.0 4130000.0,7865000.0 4130000.0,7900000.0"/>
<polygon class="l74d0" points="4150000.0,7900000.0 4150000.0,7865000.0 4180000.0,7865000.0 4180000.0,7900000.0"/>
</g>
</svg>