<?xml version="1.0" encoding="UTF-8"?>
<svg xmlns="http://www.w3.org/2000/svg" xmlns:xlink="http://www.w3.org/1999/xlink"
     width="3423015.0" height="10923165.0" viewBox="-496507.5 -10436507.5 3423015.0 10923165.0">
<defs>
<style type="text/css">
.l74d0 {stroke: rgb(158, 42, 255); fill: rgb(158, 42, 255); fill-opacity: 0.5;}
</style>
</defs>
<rect x="-496507.5" y="-10436507.5" width="3423015.0" height="10923165.0" fill="#222" stroke="none"/>
<g id="AL_AP_artwork_test" transform="scale(1 -1)">
<polygon class="l74d0" points="2050.0,9850.0 2080.0,9850.0 2080.0,9880.0 2050.0,9880.0"/>
<polygon class="l74d0" points="2000.0,9850.0 2030.0,9850.0 2030.0,9880.0 2000.0,9880.0"/>
<polygon class="l74d0" points="1950.0,9850.0 1980.0,9850.0 1980.0,9880.0 1950.0,9880.0"/>
<polygon class="l74d0" points="1900.0,9850.0 1930.0,9850.0 1930.0,9880.0 1900.0,9880.0"/>
<polygon class="l74d0" points="1850.0,9850.0 1880.0,9850.0 1880.0,9880.0 1850.0,9880.0"/>
<polygon class="l74d0" points="1800.0,9850.0 1830.0,9850.0 1830.0,9880.0 1800.0,9880.0"/>
<polygon class="l74d0" points="1750.0,9850.0 1780.0,9850.0 1780.0,9880.0 1750.0,9880.0"/>
<polygon class="l74d0" points="1700.0,9850.0 1730.0,9850.0 1730.0,9880.0 1700.0,9880.0"/>
<polygon class="l74d0" points="1650.0,9850.0 1680.0,9850.0 1680.0,9880.0 1650.0,9880.0"/>
<polygon class="l74d0" points="1600.0,9850.0 1630.0,9850.0 1630.0,9880.0 1600.0,9880.0"/>
<polygon class="l74d0" points="1550.0,9850.0 1580.0,9850.0 1580.0,9880.0 1550.0,9880.0"/>
<polygon class="l74d0" points="1500.0,9850.0 1530.0,9850.0 1530.0,9880.0 1500.0,9880.0"/>
<polygon class="l74d0" points="1450.0,9850.0 1480.0,9850.0 1480.0,9880.0 1450.0,9880.0"/>
<polygon class="l74d0" points="1400.0,9850.0 1430.0,9850.0 1430.0,9880.0 1400.0,9880.0"/>
<polygon class="l74d0" points="1350.0,9850.0 1380.0,9850.0 1380.0,9880.0 1350.0,9880.0"/>
<polygon class="l74d0" points="1300.0,9850.0 1330.0,9850.0 1330.0,9880.0 1300.0,9880.0"/>
<polygon class="l74d0" points="1250.0,9850.0 1280.0,9850.0 1280.0,9880.0 1250.0,9880.0"/>
<polygon class="l74d0" points="1200.0,9850.0 1230.0,9850.0 1230.0,9880.0 1200.0,9880.0"/>
<polygon class="l74d0" points="1750.0,9900.0 1780.0,9900.0 1780.0,9930.0 1750.0,9930.0"/>
<polygon class="l74d0" points="1800.0,9900.0 1830.0,9900.0 1830.0,9930.0 1800.0,9930.0"/>
<polygon class="l74d0" points="1850.0,9900.0 1880.0,9900.0 1880.0,9930.0 1850.0,9930.0"/>
<polygon class="l74d0" points="1900.0,9900.0 1930.0,9900.0 1930.0,9930.0 1900.0,9930.0"/>
<polygon class="l74d0" points="1950.0,9900.0 1980.0,9900.0 1980.0,9930.0 1950.0,9930.0"/>
<polygon class="l74d0" points="2000.0,9900.0 2030.0,9900.0 2030.0,9930.0 2000.0,9930.0"/>
<polygon class="l74d0" points="2050.0,9900.0 2080.0,9900.0 2080.0,9930.0 2050.0,9930.0"/>
<polygon class="l74d0" points="2100.0,9900.0 2130.0,9900.0 2130.0,9930.0 2100.0,9930.0"/>
<polygon class="l74d0" points="2150.0,9900.0 2180.0,9900.0 2180.0,9930.0 2150.0,9930.0"/>
<polygon class="l74d0" points="2200.0,9900.0 2230.0,9900.0 2230.0,9930.0 2200.0,9930.0"/>
<polygon class="l74d0" points="1700.0,9900.0 1730.0,9900.0 1730.0,9930.0 1700.0,9930.0"/>
<polygon class="l74d0" points="1650.0,9900.0 1680.0,9900.0 1680.0,9930.0 1650.0,9930.0"/>
<polygon class="l74d0" points="1600.0,9900.0 1630.0,9900.0 1630.0,9930.0 1600.0,9930.0"/>
<polygon class="l74d0" points="1550.0,9900.0 1580.0,9900.0 1580.0,9930.0 1550.0,9930.0"/>
<polygon class="l74d0" points="1500.0,9900.0 1530.0,9900.0 1530.0,9930.0 1500.0,9930.0"/>
<polygon class="l74d0" points="1450.0,9900.0 1480.0,9900.0 1480.0,9930.0 1450.0,9930.0"/>
<polygon class="l74d0" points="1400.0,9900.0 1430.0,9900.0 1430.0,9930.0 1400.0,9930.0"/>
<polygon class="l74d0" points="1350.0,9900.0 1380.0,9900.0 1380.0,9930.0 1350.0,9930.0"/>
<polygon class="l74d0" points="1300.0,9900.0 1330.0,9900.0 1330.0,9930.0 1300.0,9930.0"/>
<polygon class="l74d0" points="1250.0,9900.0 1280.0,9900.0 1280.0,9930.0 1250.0,9930.0"/>
<polygon class="l74d0" points="1200.0,9900.0 1230.0,9900.0 1230.0,9930.0 1200.0,9930.0"/>
<polygon class="l74d0" points="0.0,8740000.0 0.0,8705000.0 30000.0,8705000.0 30000.0,8740000.0"/>
<polygon class="l74d0" points="50000.0,8755000.0 50000.0,8720000.0 80000.0,8720000.0 80000.0,8755000.0"/>
<polygon class="l74d0" points="100000.0,8785000.0 100000.0,8735000.0 130000.0,8735000.0 130000.0,8785000.0"/>
<polygon class="l74d0" points="150000.0,8780000.0 150000.0,8705000.0 180000.0,8705000.0 180000.0,8780000.0"/>
<polygon class="l74d0" points="200000.0,8775000.0 200000.0,8700000.0 230000.0,8700000.0 230000.0,8775000.0"/>
<polygon class="l74d0" points="250000.0,8825000.0 250000.0,8700000.0 280000.0,8700000.0 280000.0,8825000.0"/>
<polygon class="l74d0" points="300000.0,8840000.0 300000.0,8670000.0 330000.0,8670000.0 330000.0,8840000.0"/>
<polygon class="l74d0" points="350000.0,8845000.0 350000.0,8680000.0 380000.0,8680000.0 380000.0,8845000.0"/>
<polygon class="l74d0" points="400000.0,9565000.0 400000.0,9530000.0 430000.0,9530000.0 430000.0,9565000.0"/>
<polygon class="l74d0" points="400000.0,8865000.0 400000.0,8640000.0 430000.0,8640000.0 430000.0,8865000.0"/>
<polygon class="l74d0" points="400000.0,7930000.0 400000.0,7895000.0 430000.0,7895000.0 430000.0,7930000.0"/>
<polygon class="l74d0" points="450000.0,9555000.0 450000.0,9425000.0 480000.0,9425000.0 480000.0,9555000.0"/>
<polygon class="l74d0" points="450000.0,8865000.0 450000.0,8640000.0 480000.0,8640000.0 480000.0,8865000.0"/>
<polygon class="l74d0" points="450000.0,8040000.0 450000.0,7950000.0 480000.0,7950000.0 480000.0,8040000.0"/>
<polygon class="l74d0" points="500000.0,9535000.0 500000.0,9380000.0 530000.0,9380000.0 530000.0,9535000.0"/>
<polygon class="l74d0" points="500000.0,8920000.0 500000.0,8585000.0 530000.0,8585000.0 530000.0,8920000.0"/>
<polygon class="l74d0" points="500000.0,8080000.0 500000.0,8000000.0 530000.0,8000000.0 530000.0,8080000.0"/>
<polygon class="l74d0" points="550000.0,9460000.0 550000.0,9285000.0 580000.0,9285000.0 580000.0,9460000.0"/>
<polygon class="l74d0" points="550000.0,8945000.0 550000.0,8560000.0 580000.0,8560000.0 580000.0,8945000.0"/>
<polygon class="l74d0" points="550000.0,8180000.0 550000.0,8020000.0 580000.0,8020000.0 580000.0,8180000.0"/>
<polygon class="l74d0" points="600000.0,9445000.0 600000.0,9140000.0 630000.0,9140000.0 630000.0,9445000.0"/>
<polygon class="l74d0" points="600000.0,9065000.0 600000.0,8460000.0 630000.0,8460000.0 630000.0,9065000.0"/>
<polygon class="l74d0" points="600000.0,8330000.0 600000.0,8030000.0 630000.0,8030000.0 630000.0,8330000.0"/>
<polygon class="l74d0" points="650000.0,9440000.0 650000.0,8080000.0 680000.0,8080000.0 680000.0,9440000.0"/>
<polygon class="l74d0" points="700000.0,9380000.0 700000.0,8110000.0 730000.0,8110000.0 730000.0,9380000.0"/>
<polygon class="l74d0" points="750000.0,9375000.0 750000.0,8955000.0 780000.0,8955000.0 780000.0,9375000.0"/>
<polygon class="l74d0" points="750000.0,8930000.0 750000.0,8110000.0 780000.0,8110000.0 780000.0,8930000.0"/>
<polygon class="l74d0" points="800000.0,9375000.0 800000.0,8965000.0 830000.0,8965000.0 830000.0,9375000.0"/>
<polygon class="l74d0" points="800000.0,8940000.0 800000.0,8115000.0 830000.0,8115000.0 830000.0,8940000.0"/>
<polygon class="l74d0" points="850000.0,9360000.0 850000.0,8990000.0 880000.0,8990000.0 880000.0,9360000.0"/>
<polygon class="l74d0" points="850000.0,8965000.0 850000.0,8930000.0 880000.0,8930000.0 880000.0,8965000.0"/>
<polygon class="l74d0" points="850000.0,8905000.0 850000.0,8150000.0 880000.0,8150000.0 880000.0,8905000.0"/>
<polygon class="l74d0" points="900000.0,9360000.0 900000.0,9115000.0 930000.0,9115000.0 930000.0,9360000.0"/>
<polygon class="l74d0" points="900000.0,9090000.0 900000.0,9005000.0 930000.0,9005000.0 930000.0,9090000.0"/>
<polygon class="l74d0" points="900000.0,8980000.0 900000.0,8945000.0 930000.0,8945000.0 930000.0,8980000.0"/>
<polygon class="l74d0" points="900000.0,8870000.0 900000.0,8145000.0 930000.0,8145000.0 930000.0,8870000.0"/>
<polygon class="l74d0" points="950000.0,9370000.0 950000.0,9120000.0 980000.0,9120000.0 980000.0,9370000.0"/>
<polygon class="l74d0" points="950000.0,9095000.0 950000.0,9010000.0 980000.0,9010000.0 980000.0,9095000.0"/>
<polygon class="l74d0" points="950000.0,8985000.0 950000.0,8875000.0 980000.0,8875000.0 980000.0,8985000.0"/>
<polygon class="l74d0" points="950000.0,8850000.0 950000.0,8130000.0 980000.0,8130000.0 980000.0,8850000.0"/>
<polygon class="l74d0" points="1000000.0,9390000.0 1000000.0,9120000.0 1030000.0,9120000.0 1030000.0,9390000.0"/>
<polygon class="l74d0" points="1000000.0,9095000.0 1000000.0,8995000.0 1030000.0,8995000.0 1030000.0,9095000.0"/>
<polygon class="l74d0" points="1000000.0,8965000.0 1000000.0,8885000.0 1030000.0,8885000.0 1030000.0,8965000.0"/>
<polygon class="l74d0" points="1000000.0,8855000.0 1000000.0,8115000.0 1030000.0,8115000.0 1030000.0,8855000.0"/>
<polygon class="l74d0" points="1050000.0,9410000.0 1050000.0,9355000.0 1080000.0,9355000.0 1080000.0,9410000.0"/>
<polygon class="l74d0" points="1050000.0,9330000.0 1050000.0,9080000.0 1080000.0,9080000.0 1080000.0,9330000.0"/>
<polygon class="l74d0" points="1050000.0,9050000.0 1050000.0,8530000.0 1080000.0,8530000.0 1080000.0,9050000.0"/>
<polygon class="l74d0" points="1050000.0,8505000.0 1050000.0,8150000.0 1080000.0,8150000.0 1080000.0,8505000.0"/>
<polygon class="l74d0" points="1050000.0,8125000.0 1050000.0,8085000.0 1080000.0,8085000.0 1080000.0,8125000.0"/>
<polygon class="l74d0" points="1100000.0,9530000.0 1100000.0,9365000.0 1130000.0,9365000.0 1130000.0,9530000.0"/>
<polygon class="l74d0" points="1100000.0,9340000.0 1100000.0,9060000.0 1130000.0,9060000.0 1130000.0,9340000.0"/>
<polygon class="l74d0" points="1100000.0,9035000.0 1100000.0,8985000.0 1130000.0,8985000.0 1130000.0,9035000.0"/>
<polygon class="l74d0" points="1100000.0,8960000.0 1100000.0,8540000.0 1130000.0,8540000.0 1130000.0,8960000.0"/>
<polygon class="l74d0" points="1100000.0,8500000.0 1100000.0,8145000.0 1130000.0,8145000.0 1130000.0,8500000.0"/>
<polygon class="l74d0" points="1100000.0,8120000.0 1100000.0,7985000.0 1130000.0,7985000.0 1130000.0,8120000.0"/>
<polygon class="l74d0" points="1150000.0,9765000.0 1150000.0,9730000.0 1180000.0,9730000.0 1180000.0,9765000.0"/>
<polygon class="l74d0" points="1150000.0,9660000.0 1150000.0,9375000.0 1180000.0,9375000.0 1180000.0,9660000.0"/>
<polygon class="l74d0" points="1150000.0,9350000.0 1150000.0,8680000.0 1180000.0,8680000.0 1180000.0,9350000.0"/>
<polygon class="l74d0" points="1150000.0,8645000.0 1150000.0,8555000.0 1180000.0,8555000.0 1180000.0,8645000.0"/>
<polygon class="l74d0" points="1150000.0,8525000.0 1150000.0,8135000.0 1180000.0,8135000.0 1180000.0,8525000.0"/>
<polygon class="l74d0" points="1150000.0,8110000.0 1150000.0,7850000.0 1180000.0,7850000.0 1180000.0,8110000.0"/>
<polygon class="l74d0" points="1200000.0,9940000.0 1200000.0,9885000.0 1230000.0,9885000.0 1230000.0,9940000.0"/>
<polygon class="l74d0" points="1200000.0,9840000.0 1200000.0,9375000.0 1230000.0,9375000.0 1230000.0,9840000.0"/>
<polygon class="l74d0" points="1200000.0,9350000.0 1200000.0,8685000.0 1230000.0,8685000.0 1230000.0,9350000.0"/>
<polygon class="l74d0" points="1200000.0,8650000.0 1200000.0,8550000.0 1230000.0,8550000.0 1230000.0,8650000.0"/>
<polygon class="l74d0" points="1200000.0,8525000.0 1200000.0,8420000.0 1230000.0,8420000.0 1230000.0,8525000.0"/>
<polygon class="l74d0" points="1200000.0,8375000.0 1200000.0,8130000.0 1230000.0,8130000.0 1230000.0,8375000.0"/>
<polygon class="l74d0" points="1200000.0,8105000.0 1200000.0,7610000.0 1230000.0,7610000.0 1230000.0,8105000.0"/>
<polygon class="l74d0" points="1250000.0,9890000.0 1250000.0,9810000.0 1280000.0,9810000.0 1280000.0,9890000.0"/>
<polygon class="l74d0" points="1250000.0,9730000.0 1250000.0,9375000.0 1280000.0,9375000.0 1280000.0,9730000.0"/>
<polygon class="l74d0" points="1250000.0,9350000.0 1250000.0,8690000.0 1280000.0,8690000.0 1280000.0,9350000.0"/>
<polygon class="l74d0" points="1250000.0,8630000.0 1250000.0,8545000.0 1280000.0,8545000.0 1280000.0,8630000.0"/>
<polygon class="l74d0" points="1250000.0,8515000.0 1250000.0,8415000.0 1280000.0,8415000.0 1280000.0,8515000.0"/>
<polygon class="l74d0" points="1250000.0,8350000.0 1250000.0,8130000.0 1280000.0,8130000.0 1280000.0,8350000.0"/>
<polygon class="l74d0" points="1250000.0,8105000.0 1250000.0,7675000.0 1280000.0,7675000.0 1280000.0,8105000.0"/>
<polygon class="l74d0" points="1300000.0,9590000.0 1300000.0,9370000.0 1330000.0,9370000.0 1330000.0,9590000.0"/>
<polygon class="l74d0" points="1300000.0,9345000.0 1300000.0,9080000.0 1330000.0,9080000.0 1330000.0,9345000.0"/>
<polygon class="l74d0" points="1300000.0,9055000.0 1300000.0,8985000.0 1330000.0,8985000.0 1330000.0,9055000.0"/>
<polygon class="l74d0" points="1300000.0,8945000.0 1300000.0,8885000.0 1330000.0,8885000.0 1330000.0,8945000.0"/>
<polygon class="l74d0" points="1300000.0,8855000.0 1300000.0,8715000.0 1330000.0,8715000.0 1330000.0,8855000.0"/>
<polygon class="l74d0" points="1300000.0,8660000.0 1300000.0,8550000.0 1330000.0,8550000.0 1330000.0,8660000.0"/>
<polygon class="l74d0" points="1300000.0,8525000.0 1300000.0,8425000.0 1330000.0,8425000.0 1330000.0,8525000.0"/>
<polygon class="l74d0" points="1300000.0,8345000.0 1300000.0,8135000.0 1330000.0,8135000.0 1330000.0,8345000.0"/>
<polygon class="l74d0" points="1300000.0,8110000.0 1300000.0,7955000.0 1330000.0,7955000.0 1330000.0,8110000.0"/>
<polygon class="l74d0" points="1350000.0,9480000.0 1350000.0,9360000.0 1380000.0,9360000.0 1380000.0,9480000.0"/>
<polygon class="l74d0" points="1350000.0,9335000.0 1350000.0,9100000.0 1380000.0,9100000.0 1380000.0,9335000.0"/>
<polygon class="l74d0" points="1350000.0,9075000.0 1350000.0,8995000.0 1380000.0,8995000.0 1380000.0,9075000.0"/>
<polygon class="l74d0" points="1350000.0,8970000.0 1350000.0,8545000.0 1380000.0,8545000.0 1380000.0,8970000.0"/>
<polygon class="l74d0" points="1350000.0,8520000.0 1350000.0,8375000.0 1380000.0,8375000.0 1380000.0,8520000.0"/>
<polygon class="l74d0" points="1350000.0,8325000.0 1350000.0,8145000.0 1380000.0,8145000.0 1380000.0,8325000.0"/>
<polygon class="l74d0" points="1350000.0,8120000.0 1350000.0,7995000.0 1380000.0,7995000.0 1380000.0,8120000.0"/>
<polygon class="l74d0" points="1400000.0,9405000.0 1400000.0,9345000.0 1430000.0,9345000.0 1430000.0,9405000.0"/>
<polygon class="l74d0" points="1400000.0,9320000.0 1400000.0,9105000.0 1430000.0,9105000.0 1430000.0,9320000.0"/>
<polygon class="l74d0" points="1400000.0,9080000.0 1400000.0,9010000.0 1430000.0,9010000.0 1430000.0,9080000.0"/>
<polygon class="l74d0" points="1400000.0,8985000.0 1400000.0,8950000.0 1430000.0,8950000.0 1430000.0,8985000.0"/>
<polygon class="l74d0" points="1400000.0,8925000.0 1400000.0,8890000.0 1430000.0,8890000.0 1430000.0,8925000.0"/>
<polygon class="l74d0" points="1400000.0,8865000.0 1400000.0,8530000.0 1430000.0,8530000.0 1430000.0,8865000.0"/>
<polygon class="l74d0" points="1400000.0,8505000.0 1400000.0,8110000.0 1430000.0,8110000.0 1430000.0,8505000.0"/>
<polygon class="l74d0" points="1450000.0,9375000.0 1450000.0,9115000.0 1480000.0,9115000.0 1480000.0,9375000.0"/>
<polygon class="l74d0" points="1450000.0,9090000.0 1450000.0,9010000.0 1480000.0,9010000.0 1480000.0,9090000.0"/>
<polygon class="l74d0" points="1450000.0,8985000.0 1450000.0,8950000.0 1480000.0,8950000.0 1480000.0,8985000.0"/>
<polygon class="l74d0" points="1450000.0,8895000.0 1450000.0,8135000.0 1480000.0,8135000.0 1480000.0,8895000.0"/>
<polygon class="l74d0" points="1500000.0,9350000.0 1500000.0,9120000.0 1530000.0,9120000.0 1530000.0,9350000.0"/>
<polygon class="l74d0" points="1500000.0,9095000.0 1500000.0,8990000.0 1530000.0,8990000.0 1530000.0,9095000.0"/>
<polygon class="l74d0" points="1500000.0,8960000.0 1500000.0,8880000.0 1530000.0,8880000.0 1530000.0,8960000.0"/>
<polygon class="l74d0" points="1500000.0,8855000.0 1500000.0,8155000.0 1530000.0,8155000.0 1530000.0,8855000.0"/>
<polygon class="l74d0" points="1550000.0,9335000.0 1550000.0,8965000.0 1580000.0,8965000.0 1580000.0,9335000.0"/>
<polygon class="l74d0" points="1550000.0,8940000.0 1550000.0,8890000.0 1580000.0,8890000.0 1580000.0,8940000.0"/>
<polygon class="l74d0" points="1550000.0,8865000.0 1550000.0,8170000.0 1580000.0,8170000.0 1580000.0,8865000.0"/>
<polygon class="l74d0" points="1600000.0,9325000.0 1600000.0,8965000.0 1630000.0,8965000.0 1630000.0,9325000.0"/>
<polygon class="l74d0" points="1600000.0,8940000.0 1600000.0,8905000.0 1630000.0,8905000.0 1630000.0,8940000.0"/>
<polygon class="l74d0" points="1600000.0,8880000.0 1600000.0,8150000.0 1630000.0,8150000.0 1630000.0,8880000.0"/>
<polygon class="l74d0" points="1650000.0,9370000.0 1650000.0,8130000.0 1680000.0,8130000.0 1680000.0,9370000.0"/>
<polygon class="l74d0" points="1700000.0,9395000.0 1700000.0,8130000.0 1730000.0,8130000.0 1730000.0,9395000.0"/>
<polygon class="l74d0" points="1750000.0,9395000.0 1750000.0,8085000.0 1780000.0,8085000.0 1780000.0,9395000.0"/>
<polygon class="l74d0" points="1800000.0,9440000.0 1800000.0,8055000.0 1830000.0,8055000.0 1830000.0,9440000.0"/>
<polygon class="l74d0" points="1850000.0,9490000.0 1850000.0,9240000.0 1880000.0,9240000.0 1880000.0,9490000.0"/>
<polygon class="l74d0" points="1850000.0,8930000.0 1850000.0,8570000.0 1880000.0,8570000.0 1880000.0,8930000.0"/>
<polygon class="l74d0" points="1850000.0,8295000.0 1850000.0,8035000.0 1880000.0,8035000.0 1880000.0,8295000.0"/>
<polygon class="l74d0" points="1900000.0,9500000.0 1900000.0,9270000.0 1930000.0,9270000.0 1930000.0,9500000.0"/>
<polygon class="l74d0" points="1900000.0,8885000.0 1900000.0,8610000.0 1930000.0,8610000.0 1930000.0,8885000.0"/>
<polygon class="l74d0" points="1900000.0,8185000.0 1900000.0,8005000.0 1930000.0,8005000.0 1930000.0,8185000.0"/>
<polygon class="l74d0" points="1950000.0,9540000.0 1950000.0,9390000.0 1980000.0,9390000.0 1980000.0,9540000.0"/>
<polygon class="l74d0" points="1950000.0,8880000.0 1950000.0,8630000.0 1980000.0,8630000.0 1980000.0,8880000.0"/>
<polygon class="l74d0" points="1950000.0,8085000.0 1950000.0,7950000.0 1980000.0,7950000.0 1980000.0,8085000.0"/>
<polygon class="l74d0" points="2000000.0,9585000.0 2000000.0,9445000.0 2030000.0,9445000.0 2030000.0,9585000.0"/>
<polygon class="l74d0" points="2000000.0,8845000.0 2000000.0,8670000.0 2030000.0,8670000.0 2030000.0,8845000.0"/>
<polygon class="l74d0" points="2000000.0,8015000.0 2000000.0,7940000.0 2030000.0,7940000.0 2030000.0,8015000.0"/>
<polygon class="l74d0" points="2050000.0,8835000.0 2050000.0,8660000.0 2080000.0,8660000.0 2080000.0,8835000.0"/>
<polygon class="l74d0" points="2050000.0,7950000.0 2050000.0,7915000.0 2080000.0,7915000.0 2080000.0,7950000.0"/>
<polygon class="l74d0" points="2100000.0,8835000.0 2100000.0,8685000.0 2130000.0,8685000.0 2130000.0,8835000.0"/>
<polygon class="l74d0" points="2150000.0,8805000.0 2150000.0,8685000.0 2180000.0,8685000.0 2180000.0,8805000.0"/>
<polygon class="l74d0" points="2200000.0,8805000.0 2200000.0,8690000.0 2230000.0,8690000.0 2230000.0,8805000.0"/>
<polygon class="l74d0" points="2250000.0,8795000.0 2250000.0,8715000.0 2280000.0,8715000.0 2280000.0,8795000.0"/>
<polygon class="l74d0" points="2300000.0,8760000.0 2300000.0,8705000.0 2330000.0,8705000.0 2330000.0,8760000.0"/>
<polygon class="l74d0" points="2350000.0,8750000.0 2350000.0,8705000.0 2380000.0,8705000.0 2380000.0,8750000.0"/>
<polygon class="l74d0" points="2400000.0,8765000.0 2400000.0,8730000.0 2430000.0,8730000.0 2430000.0,8765000.0"/>
</g>
</svg>