<?xml version="1.0" encoding="UTF-8"?>
<svg xmlns="http://www.w3.org/2000/svg" xmlns:xlink="http://www.w3.org/1999/xlink"
     width="4420015.0" height="10890165.0" viewBox="-495007.5 -10405007.5 4420015.0 10890165.0">
<defs>
<style type="text/css">
.l74d0 {stroke: rgb(158, 42, 255); fill: rgb(158, 42, 255); fill-opacity: 0.5;}
</style>
</defs>
<rect x="-495007.5" y="-10405007.5" width="4420015.0" height="10890165.0" fill="#222" stroke="none"/>
<g id="AL_AP_artwork_test" transform="scale(1 -1)">
<polygon class="l74d0" points="2050.0,9850.0 2080.0,9850.0 2080.0,9880.0 2050.0,9880.0"/>
<polygon class="l74d0" points="2000.0,9850.0 2030.0,9850.0 2030.0,9880.0 2000.0,9880.0"/>
<polygon class="l74d0" points="1950.0,9850.0 1980.0,9850.0 1980.0,9880.0 1950.0,9880.0"/>
<polygon class="l74d0" points="1900.0,9850.0 1930.0,9850.0 1930.0,9880.0 1900.0,9880.0"/>
<polygon class="l74d0" points="1850.0,9850.0 1880.0,9850.0 1880.0,9880.0 1850.0,9880.0"/>
<polygon class="l74d0" points="1800.0,9850.0 1830.0,9850.0 1830.0,9880.0 1800.0,9880.0"/>
<polygon class="l74d0" points="1750.0,9850.0 1780.0,9850.0 1780.0,9880.0 1750.0,9880.0"/>
<polygon class="l74d0" points="1700.0,9850.0 1730.0,9850.0 1730.0,9880.0 1700.0,9880.0"/>
<polygon class="l74d0" points="1650.0,9850.0 1680.0,9850.0 1680.0,9880.0 1650.0,9880.0"/>
<polygon class="l74d0" points="1600.0,9850.0 1630.0,9850.0 1630.0,9880.0 1600.0,9880.0"/>
<polygon class="l74d0" points="1550.0,9850.0 1580.0,9850.0 1580.0,9880.0 1550.0,9880.0"/>
<polygon class="l74d0" points="1500.0,9850.0 1530.0,9850.0 1530.0,9880.0 1500.0,9880.0"/>
<polygon class="l74d0" points="1450.0,9850.0 1480.0,9850.0 1480.0,9880.0 1450.0,9880.0"/>
<polygon class="l74d0" points="1400.0,9850.0 1430.0,9850.0 1430.0,9880.0 1400.0,9880.0"/>
<polygon class="l74d0" points="1350.0,9850.0 1380.0,9850.0 1380.0,9880.0 1350.0,9880.0"/>
<polygon class="l74d0" points="1300.0,9850.0 1330.0,9850.0 1330.0,9880.0 1300.0,9880.0"/>
<polygon class="l74d0" points="1250.0,9850.0 1280.0,9850.0 1280.0,9880.0 1250.0,9880.0"/>
<polygon class="l74d0" points="1200.0,9850.0 1230.0,9850.0 1230.0,9880.0 1200.0,9880.0"/>
<polygon class="l74d0" points="1750.0,9900.0 1780.0,9900.0 1780.0,9930.0 1750.0,9930.0"/>
<polygon class="l74d0" points="1800.0,9900.0 1830.0,9900.0 1830.0,9930.0 1800.0,9930.0"/>
<polygon class="l74d0" points="1850.0,9900.0 1880.0,9900.0 1880.0,9930.0 1850.0,9930.0"/>
<polygon class="l74d0" points="1900.0,9900.0 1930.0,9900.0 1930.0,9930.0 1900.0,9930.0"/>
<polygon class="l74d0" points="1950.0,9900.0 1980.0,9900.0 1980.0,9930.0 1950.0,9930.0"/>
<polygon class="l74d0" points="2000.0,9900.0 2030.0,9900.0 2030.0,9930.0 2000.0,9930.0"/>
<polygon class="l74d0" points="2050.0,9900.0 2080.0,9900.0 2080.0,9930.0 2050.0,9930.0"/>
<polygon class="l74d0" points="2100.0,9900.0 2130.0,9900.0 2130.0,9930.0 2100.0,9930.0"/>
<polygon class="l74d0" points="2150.0,9900.0 2180.0,9900.0 2180.0,9930.0 2150.0,9930.0"/>
<polygon class="l74d0" points="2200.0,9900.0 2230.0,9900.0 2230.0,9930.0 2200.0,9930.0"/>
<polygon class="l74d0" points="1700.0,9900.0 1730.0,9900.0 1730.0,9930.0 1700.0,9930.0"/>
<polygon class="l74d0" points="1650.0,9900.0 1680.0,9900.0 1680.0,9930.0 1650.0,9930.0"/>
<polygon class="l74d0" points="1600.0,9900.0 1630.0,9900.0 1630.0,9930.0 1600.0,9930.0"/>
<polygon class="l74d0" points="1550.0,9900.0 1580.0,9900.0 1580.0,9930.0 1550.0,9930.0"/>
<polygon class="l74d0" points="1500.0,9900.0 1530.0,9900.0 1530.0,9930.0 1500.0,9930.0"/>
<polygon class="l74d0" points="1450.0,9900.0 1480.0,9900.0 1480.0,9930.0 1450.0,9930.0"/>
<polygon class="l74d0" points="1400.0,9900.0 1430.0,9900.0 1430.0,9930.0 1400.0,9930.0"/>
<polygon class="l74d0" points="1350.0,9900.0 1380.0,9900.0 1380.0,9930.0 1350.0,9930.0"/>
<polygon class="l74d0" points="1300.0,9900.0 1330.0,9900.0 1330.0,9930.0 1300.0,9930.0"/>
<polygon class="l74d0" points="1250.0,9900.0 1280.0,9900.0 1280.0,9930.0 1250.0,9930.0"/>
<polygon class="l74d0" points="1200.0,9900.0 1230.0,9900.0 1230.0,9930.0 1200.0,9930.0"/>
<polygon class="l74d0" points="0.0,8235000.0 0.0,8200000.0 30000.0,8200000.0 30000.0,8235000.0"/>
<polygon class="l74d0" points="50000.0,8245000.0 50000.0,8210000.0 80000.0,8210000.0 80000.0,8245000.0"/>
<polygon class="l74d0" points="100000.0,8270000.0 100000.0,8225000.0 130000.0,8225000.0 130000.0,8270000.0"/>
<polygon class="l74d0" points="150000.0,8300000.0 150000.0,8230000.0 180000.0,8230000.0 180000.0,8300000.0"/>
<polygon class="l74d0" points="200000.0,8300000.0 200000.0,8205000.0 230000.0,8205000.0 230000.0,8300000.0"/>
<polygon class="l74d0" points="250000.0,8285000.0 250000.0,8175000.0 280000.0,8175000.0 280000.0,8285000.0"/>
<polygon class="l74d0" points="300000.0,8290000.0 300000.0,8175000.0 330000.0,8175000.0 330000.0,8290000.0"/>
<polygon class="l74d0" points="350000.0,8345000.0 350000.0,8180000.0 380000.0,8180000.0 380000.0,8345000.0"/>
<polygon class="l74d0" points="400000.0,8375000.0 400000.0,8150000.0 430000.0,8150000.0 430000.0,8375000.0"/>
<polygon class="l74d0" points="450000.0,8370000.0 450000.0,8140000.0 480000.0,8140000.0 480000.0,8370000.0"/>
<polygon class="l74d0" points="500000.0,8380000.0 500000.0,8155000.0 530000.0,8155000.0 530000.0,8380000.0"/>
<polygon class="l74d0" points="550000.0,9400000.0 550000.0,9360000.0 580000.0,9360000.0 580000.0,9400000.0"/>
<polygon class="l74d0" points="550000.0,8415000.0 550000.0,8115000.0 580000.0,8115000.0 580000.0,8415000.0"/>
<polygon class="l74d0" points="550000.0,7075000.0 550000.0,7040000.0 580000.0,7040000.0 580000.0,7075000.0"/>
<polygon class="l74d0" points="600000.0,9380000.0 600000.0,9320000.0 630000.0,9320000.0 630000.0,9380000.0"/>
<polygon class="l74d0" points="600000.0,8400000.0 600000.0,8095000.0 630000.0,8095000.0 630000.0,8400000.0"/>
<polygon class="l74d0" points="600000.0,7175000.0 600000.0,7075000.0 630000.0,7075000.0 630000.0,7175000.0"/>
<polygon class="l74d0" points="650000.0,9375000.0 650000.0,9180000.0 680000.0,9180000.0 680000.0,9375000.0"/>
<polygon class="l74d0" points="650000.0,8420000.0 650000.0,8090000.0 680000.0,8090000.0 680000.0,8420000.0"/>
<polygon class="l74d0" points="650000.0,7265000.0 650000.0,7145000.0 680000.0,7145000.0 680000.0,7265000.0"/>
<polygon class="l74d0" points="700000.0,9355000.0 700000.0,9145000.0 730000.0,9145000.0 730000.0,9355000.0"/>
<polygon class="l74d0" points="700000.0,8475000.0 700000.0,8020000.0 730000.0,8020000.0 730000.0,8475000.0"/>
<polygon class="l74d0" points="700000.0,7300000.0 700000.0,7195000.0 730000.0,7195000.0 730000.0,7300000.0"/>
<polygon class="l74d0" points="750000.0,9285000.0 750000.0,9040000.0 780000.0,9040000.0 780000.0,9285000.0"/>
<polygon class="l74d0" points="750000.0,8505000.0 750000.0,8010000.0 780000.0,8010000.0 780000.0,8505000.0"/>
<polygon class="l74d0" points="750000.0,7445000.0 750000.0,7215000.0 780000.0,7215000.0 780000.0,7445000.0"/>
<polygon class="l74d0" points="800000.0,9235000.0 800000.0,8975000.0 830000.0,8975000.0 830000.0,9235000.0"/>
<polygon class="l74d0" points="800000.0,8565000.0 800000.0,7950000.0 830000.0,7950000.0 830000.0,8565000.0"/>
<polygon class="l74d0" points="800000.0,7470000.0 800000.0,7230000.0 830000.0,7230000.0 830000.0,7470000.0"/>
<polygon class="l74d0" points="850000.0,9225000.0 850000.0,8800000.0 880000.0,8800000.0 880000.0,9225000.0"/>
<polygon class="l74d0" points="850000.0,8690000.0 850000.0,7840000.0 880000.0,7840000.0 880000.0,8690000.0"/>
<polygon class="l74d0" points="850000.0,7660000.0 850000.0,7245000.0 880000.0,7245000.0 880000.0,7660000.0"/>
<polygon class="l74d0" points="900000.0,9220000.0 900000.0,7270000.0 930000.0,7270000.0 930000.0,9220000.0"/>
<polygon class="l74d0" points="950000.0,9170000.0 950000.0,7345000.0 980000.0,7345000.0 980000.0,9170000.0"/>
<polygon class="l74d0" points="1000000.0,9130000.0 1000000.0,7355000.0 1030000.0,7355000.0 1030000.0,9130000.0"/>
<polygon class="l74d0" points="1050000.0,9125000.0 1050000.0,7350000.0 1080000.0,7350000.0 1080000.0,9125000.0"/>
<polygon class="l74d0" points="1100000.0,9125000.0 1100000.0,8540000.0 1130000.0,8540000.0 1130000.0,9125000.0"/>
<polygon class="l74d0" points="1100000.0,8515000.0 1100000.0,7350000.0 1130000.0,7350000.0 1130000.0,8515000.0"/>
<polygon class="l74d0" points="1150000.0,9120000.0 1150000.0,8555000.0 1180000.0,8555000.0 1180000.0,9120000.0"/>
<polygon class="l74d0" points="1150000.0,8510000.0 1150000.0,7410000.0 1180000.0,7410000.0 1180000.0,8510000.0"/>
<polygon class="l74d0" points="1200000.0,9105000.0 1200000.0,8735000.0 1230000.0,8735000.0 1230000.0,9105000.0"/>
<polygon class="l74d0" points="1200000.0,8710000.0 1200000.0,8585000.0 1230000.0,8585000.0 1230000.0,8710000.0"/>
<polygon class="l74d0" points="1200000.0,8555000.0 1200000.0,8500000.0 1230000.0,8500000.0 1230000.0,8555000.0"/>
<polygon class="l74d0" points="1200000.0,8465000.0 1200000.0,7415000.0 1230000.0,7415000.0 1230000.0,8465000.0"/>
<polygon class="l74d0" points="1250000.0,9105000.0 1250000.0,8760000.0 1280000.0,8760000.0 1280000.0,9105000.0"/>
<polygon class="l74d0" points="1250000.0,8735000.0 1250000.0,8605000.0 1280000.0,8605000.0 1280000.0,8735000.0"/>
<polygon class="l74d0" points="1250000.0,8575000.0 1250000.0,8540000.0 1280000.0,8540000.0 1280000.0,8575000.0"/>
<polygon class="l74d0" points="1250000.0,8425000.0 1250000.0,7405000.0 1280000.0,7405000.0 1280000.0,8425000.0"/>
<polygon class="l74d0" points="1300000.0,9110000.0 1300000.0,8770000.0 1330000.0,8770000.0 1330000.0,9110000.0"/>
<polygon class="l74d0" points="1300000.0,8745000.0 1300000.0,8615000.0 1330000.0,8615000.0 1330000.0,8745000.0"/>
<polygon class="l74d0" points="1300000.0,8580000.0 1300000.0,8540000.0 1330000.0,8540000.0 1330000.0,8580000.0"/>
<polygon class="l74d0" points="1300000.0,8440000.0 1300000.0,7395000.0 1330000.0,7395000.0 1330000.0,8440000.0"/>
<polygon class="l74d0" points="1350000.0,9125000.0 1350000.0,9050000.0 1380000.0,9050000.0 1380000.0,9125000.0"/>
<polygon class="l74d0" points="1350000.0,9025000.0 1350000.0,8770000.0 1380000.0,8770000.0 1380000.0,9025000.0"/>
<polygon class="l74d0" points="1350000.0,8745000.0 1350000.0,8615000.0 1380000.0,8615000.0 1380000.0,8745000.0"/>
<polygon class="l74d0" points="1350000.0,8575000.0 1350000.0,8425000.0 1380000.0,8425000.0 1380000.0,8575000.0"/>
<polygon class="l74d0" points="1350000.0,8395000.0 1350000.0,7380000.0 1380000.0,7380000.0 1380000.0,8395000.0"/>
<polygon class="l74d0" points="1400000.0,9140000.0 1400000.0,9075000.0 1430000.0,9075000.0 1430000.0,9140000.0"/>
<polygon class="l74d0" points="1400000.0,9050000.0 1400000.0,8770000.0 1430000.0,8770000.0 1430000.0,9050000.0"/>
<polygon class="l74d0" points="1400000.0,8735000.0 1400000.0,8600000.0 1430000.0,8600000.0 1430000.0,8735000.0"/>
<polygon class="l74d0" points="1400000.0,8560000.0 1400000.0,8435000.0 1430000.0,8435000.0 1430000.0,8560000.0"/>
<polygon class="l74d0" points="1400000.0,8395000.0 1400000.0,7440000.0 1430000.0,7440000.0 1430000.0,8395000.0"/>
<polygon class="l74d0" points="1400000.0,7415000.0 1400000.0,7365000.0 1430000.0,7365000.0 1430000.0,7415000.0"/>
<polygon class="l74d0" points="1450000.0,9160000.0 1450000.0,9090000.0 1480000.0,9090000.0 1480000.0,9160000.0"/>
<polygon class="l74d0" points="1450000.0,9065000.0 1450000.0,8740000.0 1480000.0,8740000.0 1480000.0,9065000.0"/>
<polygon class="l74d0" points="1450000.0,8690000.0 1450000.0,8570000.0 1480000.0,8570000.0 1480000.0,8690000.0"/>
<polygon class="l74d0" points="1450000.0,8535000.0 1450000.0,8435000.0 1480000.0,8435000.0 1480000.0,8535000.0"/>
<polygon class="l74d0" points="1450000.0,8410000.0 1450000.0,7425000.0 1480000.0,7425000.0 1480000.0,8410000.0"/>
<polygon class="l74d0" points="1450000.0,7400000.0 1450000.0,7340000.0 1480000.0,7340000.0 1480000.0,7400000.0"/>
<polygon class="l74d0" points="1500000.0,9185000.0 1500000.0,9105000.0 1530000.0,9105000.0 1530000.0,9185000.0"/>
<polygon class="l74d0" points="1500000.0,9080000.0 1500000.0,8700000.0 1530000.0,8700000.0 1530000.0,9080000.0"/>
<polygon class="l74d0" points="1500000.0,8665000.0 1500000.0,7945000.0 1530000.0,7945000.0 1530000.0,8665000.0"/>
<polygon class="l74d0" points="1500000.0,7905000.0 1500000.0,7410000.0 1530000.0,7410000.0 1530000.0,7905000.0"/>
<polygon class="l74d0" points="1500000.0,7385000.0 1500000.0,7300000.0 1530000.0,7300000.0 1530000.0,7385000.0"/>
<polygon class="l74d0" points="1550000.0,9340000.0 1550000.0,9115000.0 1580000.0,9115000.0 1580000.0,9340000.0"/>
<polygon class="l74d0" points="1550000.0,9090000.0 1550000.0,8685000.0 1580000.0,8685000.0 1580000.0,9090000.0"/>
<polygon class="l74d0" points="1550000.0,8655000.0 1550000.0,8580000.0 1580000.0,8580000.0 1580000.0,8655000.0"/>
<polygon class="l74d0" points="1550000.0,8555000.0 1550000.0,7960000.0 1580000.0,7960000.0 1580000.0,8555000.0"/>
<polygon class="l74d0" points="1550000.0,7900000.0 1550000.0,7400000.0 1580000.0,7400000.0 1580000.0,7900000.0"/>
<polygon class="l74d0" points="1550000.0,7375000.0 1550000.0,7180000.0 1580000.0,7180000.0 1580000.0,7375000.0"/>
<polygon class="l74d0" points="1600000.0,9505000.0 1600000.0,9120000.0 1630000.0,9120000.0 1630000.0,9505000.0"/>
<polygon class="l74d0" points="1600000.0,9095000.0 1600000.0,8565000.0 1630000.0,8565000.0 1630000.0,9095000.0"/>
<polygon class="l74d0" points="1600000.0,8535000.0 1600000.0,8130000.0 1630000.0,8130000.0 1630000.0,8535000.0"/>
<polygon class="l74d0" points="1600000.0,8100000.0 1600000.0,7975000.0 1630000.0,7975000.0 1630000.0,8100000.0"/>
<polygon class="l74d0" points="1600000.0,7925000.0 1600000.0,7390000.0 1630000.0,7390000.0 1630000.0,7925000.0"/>
<polygon class="l74d0" points="1600000.0,7365000.0 1600000.0,7005000.0 1630000.0,7005000.0 1630000.0,7365000.0"/>
<polygon class="l74d0" points="1650000.0,9720000.0 1650000.0,9125000.0 1680000.0,9125000.0 1680000.0,9720000.0"/>
<polygon class="l74d0" points="1650000.0,9100000.0 1650000.0,8160000.0 1680000.0,8160000.0 1680000.0,9100000.0"/>
<polygon class="l74d0" points="1650000.0,8105000.0 1650000.0,7975000.0 1680000.0,7975000.0 1680000.0,8105000.0"/>
<polygon class="l74d0" points="1650000.0,7945000.0 1650000.0,7385000.0 1680000.0,7385000.0 1680000.0,7945000.0"/>
<polygon class="l74d0" points="1650000.0,7360000.0 1650000.0,6795000.0 1680000.0,6795000.0 1680000.0,7360000.0"/>
<polygon class="l74d0" points="1700000.0,9910000.0 1700000.0,9125000.0 1730000.0,9125000.0 1730000.0,9910000.0"/>
<polygon class="l74d0" points="1700000.0,9100000.0 1700000.0,8155000.0 1730000.0,8155000.0 1730000.0,9100000.0"/>
<polygon class="l74d0" points="1700000.0,8110000.0 1700000.0,7970000.0 1730000.0,7970000.0 1730000.0,8110000.0"/>
<polygon class="l74d0" points="1700000.0,7945000.0 1700000.0,7790000.0 1730000.0,7790000.0 1730000.0,7945000.0"/>
<polygon class="l74d0" points="1700000.0,7720000.0 1700000.0,7385000.0 1730000.0,7385000.0 1730000.0,7720000.0"/>
<polygon class="l74d0" points="1700000.0,7360000.0 1700000.0,6620000.0 1730000.0,6620000.0 1730000.0,7360000.0"/>
<polygon class="l74d0" points="1750000.0,9855000.0 1750000.0,9715000.0 1780000.0,9715000.0 1780000.0,9855000.0"/>
<polygon class="l74d0" points="1750000.0,9635000.0 1750000.0,9125000.0 1780000.0,9125000.0 1780000.0,9635000.0"/>
<polygon class="l74d0" points="1750000.0,9100000.0 1750000.0,8160000.0 1780000.0,8160000.0 1780000.0,9100000.0"/>
<polygon class="l74d0" points="1750000.0,8075000.0 1750000.0,7960000.0 1780000.0,7960000.0 1780000.0,8075000.0"/>
<polygon class="l74d0" points="1750000.0,7920000.0 1750000.0,7780000.0 1780000.0,7780000.0 1780000.0,7920000.0"/>
<polygon class="l74d0" points="1750000.0,7690000.0 1750000.0,7385000.0 1780000.0,7385000.0 1780000.0,7690000.0"/>
<polygon class="l74d0" points="1750000.0,7360000.0 1750000.0,6730000.0 1780000.0,6730000.0 1780000.0,7360000.0"/>
<polygon class="l74d0" points="1800000.0,9570000.0 1800000.0,9125000.0 1830000.0,9125000.0 1830000.0,9570000.0"/>
<polygon class="l74d0" points="1800000.0,9100000.0 1800000.0,8680000.0 1830000.0,8680000.0 1830000.0,9100000.0"/>
<polygon class="l74d0" points="1800000.0,8580000.0 1800000.0,8415000.0 1830000.0,8415000.0 1830000.0,8580000.0"/>
<polygon class="l74d0" points="1800000.0,8330000.0 1800000.0,8275000.0 1830000.0,8275000.0 1830000.0,8330000.0"/>
<polygon class="l74d0" points="1800000.0,8250000.0 1800000.0,8190000.0 1830000.0,8190000.0 1830000.0,8250000.0"/>
<polygon class="l74d0" points="1800000.0,8105000.0 1800000.0,7970000.0 1830000.0,7970000.0 1830000.0,8105000.0"/>
<polygon class="l74d0" points="1800000.0,7930000.0 1800000.0,7795000.0 1830000.0,7795000.0 1830000.0,7930000.0"/>
<polygon class="l74d0" points="1800000.0,7675000.0 1800000.0,7385000.0 1830000.0,7385000.0 1830000.0,7675000.0"/>
<polygon class="l74d0" points="1800000.0,7360000.0 1800000.0,6920000.0 1830000.0,6920000.0 1830000.0,7360000.0"/>
<polygon class="l74d0" points="1850000.0,9405000.0 1850000.0,9115000.0 1880000.0,9115000.0 1880000.0,9405000.0"/>
<polygon class="l74d0" points="1850000.0,9090000.0 1850000.0,8720000.0 1880000.0,8720000.0 1880000.0,9090000.0"/>
<polygon class="l74d0" points="1850000.0,8680000.0 1850000.0,8575000.0 1880000.0,8575000.0 1880000.0,8680000.0"/>
<polygon class="l74d0" points="1850000.0,8420000.0 1850000.0,8200000.0 1880000.0,8200000.0 1880000.0,8420000.0"/>
<polygon class="l74d0" points="1850000.0,8135000.0 1850000.0,7970000.0 1880000.0,7970000.0 1880000.0,8135000.0"/>
<polygon class="l74d0" points="1850000.0,7945000.0 1850000.0,7790000.0 1880000.0,7790000.0 1880000.0,7945000.0"/>
<polygon class="l74d0" points="1850000.0,7685000.0 1850000.0,7395000.0 1880000.0,7395000.0 1880000.0,7685000.0"/>
<polygon class="l74d0" points="1850000.0,7370000.0 1850000.0,7155000.0 1880000.0,7155000.0 1880000.0,7370000.0"/>
<polygon class="l74d0" points="1900000.0,9270000.0 1900000.0,9105000.0 1930000.0,9105000.0 1930000.0,9270000.0"/>
<polygon class="l74d0" points="1900000.0,9080000.0 1900000.0,8735000.0 1930000.0,8735000.0 1930000.0,9080000.0"/>
<polygon class="l74d0" points="1900000.0,8710000.0 1900000.0,8595000.0 1930000.0,8595000.0 1930000.0,8710000.0"/>
<polygon class="l74d0" points="1900000.0,8560000.0 1900000.0,7960000.0 1930000.0,7960000.0 1930000.0,8560000.0"/>
<polygon class="l74d0" points="1900000.0,7930000.0 1900000.0,7725000.0 1930000.0,7725000.0 1930000.0,7930000.0"/>
<polygon class="l74d0" points="1900000.0,7650000.0 1900000.0,7575000.0 1930000.0,7575000.0 1930000.0,7650000.0"/>
<polygon class="l74d0" points="1900000.0,7550000.0 1900000.0,7400000.0 1930000.0,7400000.0 1930000.0,7550000.0"/>
<polygon class="l74d0" points="1900000.0,7375000.0 1900000.0,7195000.0 1930000.0,7195000.0 1930000.0,7375000.0"/>
<polygon class="l74d0" points="1950000.0,9225000.0 1950000.0,9095000.0 1980000.0,9095000.0 1980000.0,9225000.0"/>
<polygon class="l74d0" points="1950000.0,9070000.0 1950000.0,8745000.0 1980000.0,8745000.0 1980000.0,9070000.0"/>
<polygon class="l74d0" points="1950000.0,8720000.0 1950000.0,8615000.0 1980000.0,8615000.0 1980000.0,8720000.0"/>
<polygon class="l74d0" points="1950000.0,8580000.0 1950000.0,8455000.0 1980000.0,8455000.0 1980000.0,8580000.0"/>
<polygon class="l74d0" points="1950000.0,8430000.0 1950000.0,7940000.0 1980000.0,7940000.0 1980000.0,8430000.0"/>
<polygon class="l74d0" points="1950000.0,7905000.0 1950000.0,7415000.0 1980000.0,7415000.0 1980000.0,7905000.0"/>
<polygon class="l74d0" points="1950000.0,7390000.0 1950000.0,7330000.0 1980000.0,7330000.0 1980000.0,7390000.0"/>
<polygon class="l74d0" points="2000000.0,9145000.0 2000000.0,9080000.0 2030000.0,9080000.0 2030000.0,9145000.0"/>
<polygon class="l74d0" points="2000000.0,9055000.0 2000000.0,8755000.0 2030000.0,8755000.0 2030000.0,9055000.0"/>
<polygon class="l74d0" points="2000000.0,8730000.0 2000000.0,8615000.0 2030000.0,8615000.0 2030000.0,8730000.0"/>
<polygon class="l74d0" points="2000000.0,8585000.0 2000000.0,8540000.0 2030000.0,8540000.0 2030000.0,8585000.0"/>
<polygon class="l74d0" points="2000000.0,8425000.0 2000000.0,7940000.0 2030000.0,7940000.0 2030000.0,8425000.0"/>
<polygon class="l74d0" points="2000000.0,7915000.0 2000000.0,7430000.0 2030000.0,7430000.0 2030000.0,7915000.0"/>
<polygon class="l74d0" points="2000000.0,7405000.0 2000000.0,7370000.0 2030000.0,7370000.0 2030000.0,7405000.0"/>
<polygon class="l74d0" points="2050000.0,9115000.0 2050000.0,9055000.0 2080000.0,9055000.0 2080000.0,9115000.0"/>
<polygon class="l74d0" points="2050000.0,9030000.0 2050000.0,8760000.0 2080000.0,8760000.0 2080000.0,9030000.0"/>
<polygon class="l74d0" points="2050000.0,8735000.0 2050000.0,8610000.0 2080000.0,8610000.0 2080000.0,8735000.0"/>
<polygon class="l74d0" points="2050000.0,8575000.0 2050000.0,8530000.0 2080000.0,8530000.0 2080000.0,8575000.0"/>
<polygon class="l74d0" points="2050000.0,8455000.0 2050000.0,8420000.0 2080000.0,8420000.0 2080000.0,8455000.0"/>
<polygon class="l74d0" points="2050000.0,8395000.0 2050000.0,7395000.0 2080000.0,7395000.0 2080000.0,8395000.0"/>
<polygon class="l74d0" points="2100000.0,9095000.0 2100000.0,8770000.0 2130000.0,8770000.0 2130000.0,9095000.0"/>
<polygon class="l74d0" points="2100000.0,8745000.0 2100000.0,8590000.0 2130000.0,8590000.0 2130000.0,8745000.0"/>
<polygon class="l74d0" points="2100000.0,8555000.0 2100000.0,8430000.0 2130000.0,8430000.0 2130000.0,8555000.0"/>
<polygon class="l74d0" points="2100000.0,8405000.0 2100000.0,7415000.0 2130000.0,7415000.0 2130000.0,8405000.0"/>
<polygon class="l74d0" points="2150000.0,9080000.0 2150000.0,8770000.0 2180000.0,8770000.0 2180000.0,9080000.0"/>
<polygon class="l74d0" points="2150000.0,8745000.0 2150000.0,8555000.0 2180000.0,8555000.0 2180000.0,8745000.0"/>
<polygon class="l74d0" points="2150000.0,8525000.0 2150000.0,8435000.0 2180000.0,8435000.0 2180000.0,8525000.0"/>
<polygon class="l74d0" points="2150000.0,8405000.0 2150000.0,7430000.0 2180000.0,7430000.0 2180000.0,8405000.0"/>
<polygon class="l74d0" points="2200000.0,9065000.0 2200000.0,8550000.0 2230000.0,8550000.0 2230000.0,9065000.0"/>
<polygon class="l74d0" points="2200000.0,8520000.0 2200000.0,8455000.0 2230000.0,8455000.0 2230000.0,8520000.0"/>
<polygon class="l74d0" points="2200000.0,8415000.0 2200000.0,7440000.0 2230000.0,7440000.0 2230000.0,8415000.0"/>
<polygon class="l74d0" points="2250000.0,9055000.0 2250000.0,8555000.0 2280000.0,8555000.0 2280000.0,9055000.0"/>
<polygon class="l74d0" points="2250000.0,8520000.0 2250000.0,8485000.0 2280000.0,8485000.0 2280000.0,8520000.0"/>
<polygon class="l74d0" points="2250000.0,8450000.0 2250000.0,7415000.0 2280000.0,7415000.0 2280000.0,8450000.0"/>
<polygon class="l74d0" points="2300000.0,9070000.0 2300000.0,8555000.0 2330000.0,8555000.0 2330000.0,9070000.0"/>
<polygon class="l74d0" points="2300000.0,8530000.0 2300000.0,7385000.0 2330000.0,7385000.0 2330000.0,8530000.0"/>
<polygon class="l74d0" points="2350000.0,9145000.0 2350000.0,7380000.0 2380000.0,7380000.0 2380000.0,9145000.0"/>
<polygon class="l74d0" points="2400000.0,9155000.0 2400000.0,7385000.0 2430000.0,7385000.0 2430000.0,9155000.0"/>
<polygon class="l74d0" points="2450000.0,9155000.0 2450000.0,7330000.0 2480000.0,7330000.0 2480000.0,9155000.0"/>
<polygon class="l74d0" points="2500000.0,9170000.0 2500000.0,7290000.0 2530000.0,7290000.0 2530000.0,9170000.0"/>
<polygon class="l74d0" points="2550000.0,9270000.0 2550000.0,8770000.0 2580000.0,8770000.0 2580000.0,9270000.0"/>
<polygon class="l74d0" points="2550000.0,8630000.0 2550000.0,7875000.0 2580000.0,7875000.0 2580000.0,8630000.0"/>
<polygon class="l74d0" points="2550000.0,7775000.0 2550000.0,7270000.0 2580000.0,7270000.0 2580000.0,7775000.0"/>
<polygon class="l74d0" points="2600000.0,9290000.0 2600000.0,8935000.0 2630000.0,8935000.0 2630000.0,9290000.0"/>
<polygon class="l74d0" points="2600000.0,8505000.0 2600000.0,7995000.0 2630000.0,7995000.0 2630000.0,8505000.0"/>
<polygon class="l74d0" points="2600000.0,7610000.0 2600000.0,7255000.0 2630000.0,7255000.0 2630000.0,7610000.0"/>
<polygon class="l74d0" points="2650000.0,9295000.0 2650000.0,8960000.0 2680000.0,8960000.0 2680000.0,9295000.0"/>
<polygon class="l74d0" points="2650000.0,8445000.0 2650000.0,8050000.0 2680000.0,8050000.0 2680000.0,8445000.0"/>
<polygon class="l74d0" points="2650000.0,7465000.0 2650000.0,7230000.0 2680000.0,7230000.0 2680000.0,7465000.0"/>
<polygon class="l74d0" points="2700000.0,9310000.0 2700000.0,9005000.0 2730000.0,9005000.0 2730000.0,9310000.0"/>
<polygon class="l74d0" points="2700000.0,8435000.0 2700000.0,8050000.0 2730000.0,8050000.0 2730000.0,8435000.0"/>
<polygon class="l74d0" points="2700000.0,7355000.0 2700000.0,7160000.0 2730000.0,7160000.0 2730000.0,7355000.0"/>
<polygon class="l74d0" points="2750000.0,9360000.0 2750000.0,9165000.0 2780000.0,9165000.0 2780000.0,9360000.0"/>
<polygon class="l74d0" points="2750000.0,8430000.0 2750000.0,8095000.0 2780000.0,8095000.0 2780000.0,8430000.0"/>
<polygon class="l74d0" points="2750000.0,7310000.0 2750000.0,7130000.0 2780000.0,7130000.0 2780000.0,7310000.0"/>
<polygon class="l74d0" points="2800000.0,9415000.0 2800000.0,9205000.0 2830000.0,9205000.0 2830000.0,9415000.0"/>
<polygon class="l74d0" points="2800000.0,8395000.0 2800000.0,8140000.0 2830000.0,8140000.0 2830000.0,8395000.0"/>
<polygon class="l74d0" points="2800000.0,7240000.0 2800000.0,7120000.0 2830000.0,7120000.0 2830000.0,7240000.0"/>
<polygon class="l74d0" points="2850000.0,9425000.0 2850000.0,9370000.0 2880000.0,9370000.0 2880000.0,9425000.0"/>
<polygon class="l74d0" points="2850000.0,8360000.0 2850000.0,8120000.0 2880000.0,8120000.0 2880000.0,8360000.0"/>
<polygon class="l74d0" points="2850000.0,7155000.0 2850000.0,7110000.0 2880000.0,7110000.0 2880000.0,7155000.0"/>
<polygon class="l74d0" points="2900000.0,8375000.0 2900000.0,8130000.0 2930000.0,8130000.0 2930000.0,8375000.0"/>
<polygon class="l74d0" points="2900000.0,7120000.0 2900000.0,7085000.0 2930000.0,7085000.0 2930000.0,7120000.0"/>
<polygon class="l74d0" points="2950000.0,8365000.0 2950000.0,8155000.0 2980000.0,8155000.0 2980000.0,8365000.0"/>
<polygon class="l74d0" points="3000000.0,8330000.0 3000000.0,8160000.0 3030000.0,8160000.0 3030000.0,8330000.0"/>
<polygon class="l74d0" points="3050000.0,8325000.0 3050000.0,8155000.0 3080000.0,8155000.0 3080000.0,8325000.0"/>
<polygon class="l74d0" points="3100000.0,8330000.0 3100000.0,8170000.0 3130000.0,8170000.0 3130000.0,8330000.0"/>
<polygon class="l74d0" points="3150000.0,8320000.0 3150000.0,8200000.0 3180000.0,8200000.0 3180000.0,8320000.0"/>
<polygon class="l74d0" points="3200000.0,8285000.0 3200000.0,8200000.0 3230000.0,8200000.0 3230000.0,8285000.0"/>
<polygon class="l74d0" points="3250000.0,8255000.0 3250000.0,8185000.0 3280000.0,8185000.0 3280000.0,8255000.0"/>
<polygon class="l74d0" points="3300000.0,8250000.0 3300000.0,8190000.0 3330000.0,8190000.0 3330000.0,8250000.0"/>
<polygon class="l74d0" points="3350000.0,8265000.0 3350000.0,8225000.0 3380000.0,8225000.0 3380000.0,8265000.0"/>
<polygon class="l74d0" points="3400000.0,8275000.0 3400000.0,8240000.0 3430000.0,8240000.0 3430000.0,8275000.0"/>
</g>
</svg>